<svg width="61" height="58" viewBox="0 0 61 58" fill="none" xmlns="http://www.w3.org/2000/svg">
<path d="M6.93441 54.4265C6.93441 55.3189 6.61214 56.022 5.96759 56.5359C5.32755 57.0497 4.43511 57.3066 3.29025 57.3066C2.23554 57.3066 1.30253 57.1083 0.491211 56.7117V54.7645C1.15829 55.062 1.72171 55.2716 2.18145 55.3933C2.6457 55.515 3.06939 55.5758 3.45251 55.5758C3.91226 55.5758 4.26383 55.4879 4.50722 55.3121C4.75513 55.1364 4.87908 54.8749 4.87908 54.5279C4.87908 54.3341 4.82499 54.1628 4.71681 54.014C4.60864 53.8608 4.44863 53.7143 4.23679 53.5746C4.02945 53.4349 3.60351 53.2117 2.95896 52.9052C2.35498 52.6213 1.902 52.3486 1.60001 52.0872C1.29802 51.8257 1.05688 51.5215 0.876586 51.1744C0.696294 50.8274 0.606147 50.4217 0.606147 49.9575C0.606147 49.083 0.901376 48.3957 1.49183 47.8954C2.0868 47.3951 2.90713 47.1449 3.95282 47.1449C4.46666 47.1449 4.9557 47.2058 5.41995 47.3274C5.88871 47.4491 6.37776 47.6204 6.88708 47.8413L6.21099 49.4707C5.68363 49.2543 5.24642 49.1033 4.89936 49.0177C4.5568 48.9321 4.21876 48.8892 3.88522 48.8892C3.48857 48.8892 3.18433 48.9816 2.97248 49.1664C2.76064 49.3512 2.65472 49.5924 2.65472 49.8899C2.65472 50.0747 2.69754 50.2369 2.78318 50.3766C2.86882 50.5119 3.00404 50.6448 3.18884 50.7755C3.37814 50.9017 3.82211 51.1316 4.52075 51.4652C5.44474 51.9069 6.07802 52.3508 6.42058 52.7971C6.76313 53.2388 6.93441 53.7819 6.93441 54.4265Z" fill="#1A1A1A"/>
<path d="M13.3641 57.1714L12.9652 56.1437H12.9111C12.564 56.581 12.2057 56.8852 11.8361 57.0565C11.471 57.2233 10.9932 57.3066 10.4028 57.3066C9.67711 57.3066 9.10468 57.0993 8.6855 56.6846C8.27083 56.2699 8.06349 55.6795 8.06349 54.9133C8.06349 54.1109 8.34294 53.5205 8.90185 53.1419C9.46526 52.7588 10.3126 52.5469 11.444 52.5063L12.7556 52.4658V52.1345C12.7556 51.3683 12.3635 50.9851 11.5792 50.9851C10.9752 50.9851 10.2653 51.1677 9.44949 51.5328L8.76663 50.14C9.63654 49.6848 10.6011 49.4572 11.6603 49.4572C12.6745 49.4572 13.452 49.678 13.9929 50.1197C14.5337 50.5614 14.8042 51.233 14.8042 52.1345V57.1714H13.3641ZM12.7556 53.6692L11.9578 53.6963C11.3583 53.7143 10.9121 53.8225 10.6191 54.0208C10.3262 54.2191 10.1797 54.5211 10.1797 54.9268C10.1797 55.5082 10.5132 55.7989 11.1803 55.7989C11.6581 55.7989 12.0389 55.6615 12.3229 55.3865C12.6114 55.1116 12.7556 54.7465 12.7556 54.2912V53.6692Z" fill="#1A1A1A"/>
<path d="M20.1183 55.6637C20.4789 55.6637 20.9116 55.5848 21.4164 55.4271V56.9618C20.9026 57.1917 20.2715 57.3066 19.5233 57.3066C18.6985 57.3066 18.0968 57.0993 17.7181 56.6846C17.344 56.2654 17.157 55.6389 17.157 54.8051V51.1609H16.1699V50.2888L17.3057 49.5991L17.9007 48.0035H19.2191V49.6127H21.3353V51.1609H19.2191V54.8051C19.2191 55.0981 19.3002 55.3144 19.4625 55.4541C19.6292 55.5939 19.8479 55.6637 20.1183 55.6637Z" fill="#1A1A1A"/>
<path d="M28.3058 57.1714L28.0286 56.2046H27.9204C27.6996 56.5562 27.3863 56.8289 26.9807 57.0227C26.575 57.212 26.113 57.3066 25.5947 57.3066C24.7067 57.3066 24.0374 57.07 23.5867 56.5967C23.1359 56.119 22.9106 55.4338 22.9106 54.5414V49.6127H24.9727V54.0276C24.9727 54.573 25.0696 54.9831 25.2634 55.2581C25.4572 55.5285 25.766 55.6637 26.1896 55.6637C26.7666 55.6637 27.1835 55.4722 27.4404 55.089C27.6973 54.7014 27.8258 54.0614 27.8258 53.1689V49.6127H29.8879V57.1714H28.3058Z" fill="#1A1A1A"/>
<path d="M36.2702 49.4707C36.5497 49.4707 36.7818 49.491 36.9666 49.5315L36.8111 51.4652C36.6443 51.4201 36.4415 51.3976 36.2026 51.3976C35.5446 51.3976 35.0307 51.5666 34.6611 51.9046C34.296 52.2427 34.1135 52.7159 34.1135 53.3244V57.1714H32.0514V49.6127H33.6132L33.9174 50.8837H34.0188C34.2532 50.46 34.5687 50.1197 34.9654 49.8628C35.3665 49.6014 35.8015 49.4707 36.2702 49.4707Z" fill="#1A1A1A"/>
<path d="M45.3164 57.1714H43.2543V52.7565C43.2543 52.2111 43.1574 51.8032 42.9636 51.5328C42.7698 51.2578 42.461 51.1204 42.0373 51.1204C41.4604 51.1204 41.0435 51.3142 40.7866 51.7018C40.5296 52.0849 40.4012 52.7227 40.4012 53.6151V57.1714H38.3391V49.6127H39.9144L40.1916 50.5795H40.3065C40.5364 50.2144 40.8519 49.9394 41.2531 49.7546C41.6587 49.5653 42.1185 49.4707 42.6323 49.4707C43.5112 49.4707 44.1783 49.7096 44.6335 50.1873C45.0888 50.6606 45.3164 51.3457 45.3164 52.2427V57.1714Z" fill="#1A1A1A"/>
<path d="M49.6637 57.1714H47.6016V47.2869H53.2673V49.0042H49.6637V51.5531H53.0171V53.2636H49.6637V57.1714Z" fill="#1A1A1A"/>
<path d="M54.9508 47.6587C54.9508 46.9871 55.3249 46.6514 56.0731 46.6514C56.8213 46.6514 57.1954 46.9871 57.1954 47.6587C57.1954 47.9788 57.1008 48.2289 56.9115 48.4092C56.7267 48.585 56.4472 48.6729 56.0731 48.6729C55.3249 48.6729 54.9508 48.3348 54.9508 47.6587ZM57.1008 57.1714H55.0387V49.6127H57.1008V57.1714Z" fill="#1A1A1A"/>
<path d="M60.247 14.5446V22.4717C60.2502 23.5815 59.9262 24.6676 59.3154 25.5942C58.7046 26.5208 57.8342 27.2467 56.813 27.6812L35.6429 36.698C32.7304 37.9332 29.6004 38.5738 26.4368 38.5824C23.2733 38.591 20.1399 37.9673 17.2207 36.7479L17.1491 36.7176L6.88418 32.0095C5.461 31.3642 4.26078 30.3119 3.43487 28.9853C2.60897 27.6588 2.19437 26.1174 2.24337 24.5555V18.1587L6.92543 20.0797V24.6684C6.90019 25.3146 7.06799 25.9537 7.40741 26.5042C7.74683 27.0547 8.24251 27.4917 8.83124 27.7594L19.0593 32.4414C21.4002 33.4121 23.9111 33.9068 26.4453 33.8967C28.9795 33.8866 31.4863 33.372 33.8195 32.3828L34.894 31.927L54.9897 23.3704C55.165 23.2942 55.3143 23.1686 55.4195 23.0091C55.5247 22.8495 55.5813 22.6628 55.5823 22.4717V14.5446C55.584 14.3961 55.5486 14.2496 55.4792 14.1183C55.4099 13.9871 55.3088 13.8753 55.1852 13.793C55.0615 13.7108 54.9193 13.6609 54.7714 13.6477C54.6236 13.6345 54.4747 13.6585 54.3385 13.7176L30.6786 23.3747C27.8907 24.5236 24.7605 24.5181 21.9766 23.3595L12.3281 19.3829L6.07888 16.7933C5.25838 16.4548 4.56073 15.8739 4.07914 15.1283C3.59754 14.3827 3.35493 13.5079 3.38371 12.6208C3.4125 11.7337 3.71131 10.8764 4.24022 10.1637C4.76914 9.45085 5.50298 8.91643 6.3437 8.63177L27.9849 1.3276C31.8933 0.0603715 36.1291 0.256306 39.9038 1.87894L51.571 6.38083L45.0981 8.91178L38.1152 6.20066C35.3798 5.00573 32.3021 4.85134 29.4609 5.76654L29.3936 5.78824L8.63371 12.7929L23.7456 19.0356C24.5625 19.3742 25.438 19.5484 26.3222 19.5484C27.2064 19.5484 28.0819 19.3742 28.8987 19.0356L52.5738 9.398C53.4192 9.05209 54.3367 8.91956 55.2454 9.01211C56.1541 9.10466 57.0261 9.41944 57.7843 9.92868C58.5426 10.4379 59.1639 11.126 59.5934 11.9321C60.0229 12.7382 60.2473 13.6377 60.247 14.5511V14.5446Z" fill="#5465FF"/>
</svg>
