<svg width="181" height="66" viewBox="0 0 181 66" fill="none" xmlns="http://www.w3.org/2000/svg">
<rect x="0.647461" y="0.253418" width="179.506" height="65" rx="13" fill="white"/>
<rect opacity="0.5" x="10.6475" y="10.2534" width="45.5058" height="45" rx="7.89474" fill="#5465FF"/>
<path fill-rule="evenodd" clip-rule="evenodd" d="M40.2322 33.2323L37.9678 31.2029L34.9297 39.1657L40.2322 33.2323ZM34.8242 35.453L36.9989 29.7562C36.9989 29.7547 36.9996 29.7533 37.0003 29.7519L37.5527 28.3047L34.8242 27.2607V35.453ZM33.5709 38.7397H29.3867L33.0377 40.137L33.5709 38.7397ZM32.795 41.554L28.8906 40.0596L31.8006 42.6669L32.795 41.554ZM26.2822 37.3319H33.4006V24.6613H26.2822V37.3319ZM41.7645 33.6433L32.3896 44.1332C32.2636 44.2747 32.0857 44.3599 31.8956 44.3698C31.8828 44.3705 31.8693 44.3712 31.8557 44.3712C31.6799 44.3712 31.5091 44.3064 31.3781 44.1888L25.0926 38.556C25.0897 38.5539 25.089 38.5504 25.0855 38.5476C25.0819 38.5441 25.0769 38.542 25.0741 38.5384C25.0321 38.4976 25.005 38.4469 24.9737 38.3977C24.9581 38.3723 24.9353 38.3505 24.9232 38.3244C24.9218 38.3209 24.9196 38.3195 24.9189 38.3167C24.9032 38.2822 24.9025 38.2421 24.8933 38.2055C24.8919 38.2013 24.8911 38.1963 24.8897 38.1914C24.8798 38.1478 24.862 38.1069 24.8605 38.0626C24.8598 38.057 24.8605 38.0513 24.8605 38.0457C24.8605 38.0422 24.8584 38.0394 24.8584 38.0358V23.9573C24.8584 23.5681 25.1773 23.2534 25.5702 23.2534H34.1123C34.5059 23.2534 34.8241 23.5681 34.8241 23.9573V25.7509L38.7243 27.2433C39.0894 27.3826 39.2717 27.7874 39.1336 28.1485L38.5086 29.7865L41.709 32.6557C41.9973 32.9148 42.0222 33.3547 41.7645 33.6433ZM29.1297 29.9406C29.1297 30.1349 29.2892 30.2926 29.4856 30.2926H30.1975C31.1791 30.2926 31.9771 31.0817 31.9771 32.0524C31.9771 32.9027 31.3649 33.613 30.5534 33.7763V34.5161C30.5534 34.9054 30.2352 35.22 29.8416 35.22C29.4486 35.22 29.1297 34.9054 29.1297 34.5161V33.8122H28.4179C28.025 33.8122 27.7061 33.4975 27.7061 33.1083C27.7061 32.719 28.025 32.4043 28.4179 32.4043H30.1982C30.3939 32.4043 30.5534 32.2467 30.5534 32.0524C30.5534 31.8588 30.3939 31.7004 30.1975 31.7004H29.4856C28.5047 31.7004 27.7061 30.9113 27.7061 29.9406C27.7061 29.0903 28.3189 28.38 29.1297 28.2167V27.4769C29.1297 27.0876 29.4486 26.7729 29.8416 26.7729C30.2352 26.7729 30.5534 27.0876 30.5534 27.4769V28.1808H31.2652C31.6589 28.1808 31.9771 28.4955 31.9771 28.8847C31.9771 29.274 31.6589 29.5886 31.2652 29.5886H29.4856C29.2892 29.5886 29.1297 29.747 29.1297 29.9406Z" fill="#1A0003"/>
<path d="M71.9677 25.2534H70.9716V17.5718H68.2587V16.687H74.6806V17.5718H71.9677V25.2534ZM81.372 22.0366C81.372 23.0835 81.1083 23.9019 80.581 24.4917C80.0536 25.0776 79.3251 25.3706 78.3954 25.3706C77.8212 25.3706 77.3114 25.2358 76.8661 24.9663C76.4208 24.6968 76.0771 24.3101 75.8349 23.8062C75.5927 23.3022 75.4716 22.7124 75.4716 22.0366C75.4716 20.9897 75.7333 20.1753 76.2567 19.5933C76.7802 19.0073 77.5067 18.7144 78.4364 18.7144C79.3349 18.7144 80.0478 19.0132 80.5751 19.6108C81.1064 20.2085 81.372 21.0171 81.372 22.0366ZM76.4794 22.0366C76.4794 22.8569 76.6435 23.4819 76.9716 23.9116C77.2997 24.3413 77.7821 24.5562 78.4189 24.5562C79.0556 24.5562 79.538 24.3433 79.8661 23.9175C80.1982 23.4878 80.3642 22.8608 80.3642 22.0366C80.3642 21.2202 80.1982 20.6011 79.8661 20.1792C79.538 19.7534 79.0517 19.5405 78.4071 19.5405C77.7704 19.5405 77.2899 19.7495 76.9657 20.1675C76.6415 20.5854 76.4794 21.2085 76.4794 22.0366ZM85.1571 24.5679C85.329 24.5679 85.495 24.5562 85.6552 24.5327C85.8153 24.5054 85.9423 24.478 86.036 24.4507V25.1948C85.9306 25.2456 85.7743 25.2866 85.5673 25.3179C85.3642 25.353 85.1806 25.3706 85.0165 25.3706C83.7743 25.3706 83.1532 24.7163 83.1532 23.4077V19.5874H82.2333V19.1187L83.1532 18.7144L83.5634 17.3433H84.1259V18.8315H85.9892V19.5874H84.1259V23.3667C84.1259 23.7534 84.2177 24.0503 84.4013 24.2573C84.5849 24.4644 84.8368 24.5679 85.1571 24.5679ZM91.2743 25.2534L91.081 24.3394H91.0341C90.7138 24.7417 90.3935 25.0151 90.0732 25.1597C89.7567 25.3003 89.3603 25.3706 88.8837 25.3706C88.247 25.3706 87.747 25.2065 87.3837 24.8784C87.0243 24.5503 86.8446 24.0835 86.8446 23.478C86.8446 22.1812 87.8817 21.5015 89.956 21.439L91.0458 21.4038V21.0054C91.0458 20.5015 90.9364 20.1304 90.7177 19.8921C90.5028 19.6499 90.1571 19.5288 89.6806 19.5288C89.1454 19.5288 88.5399 19.6929 87.8642 20.021L87.5653 19.2769C87.8817 19.105 88.2274 18.9702 88.6024 18.8726C88.9814 18.7749 89.3603 18.7261 89.7392 18.7261C90.5048 18.7261 91.0712 18.896 91.4384 19.2358C91.8095 19.5757 91.995 20.1206 91.995 20.8706V25.2534H91.2743ZM89.0771 24.5679C89.6825 24.5679 90.1571 24.4019 90.5009 24.0698C90.8485 23.7378 91.0224 23.2729 91.0224 22.6753V22.0952L90.0497 22.1362C89.2763 22.1636 88.7177 22.2847 88.3739 22.4995C88.0341 22.7104 87.8642 23.0405 87.8642 23.4897C87.8642 23.8413 87.9696 24.1089 88.1806 24.2925C88.3954 24.4761 88.6942 24.5679 89.0771 24.5679ZM94.9774 25.2534H94.0048V16.1362H94.9774V25.2534ZM107.78 25.2534H106.796L105.067 19.5171C104.985 19.2632 104.893 18.9429 104.792 18.5562C104.69 18.1694 104.638 17.937 104.634 17.8589C104.548 18.3745 104.411 18.939 104.224 19.5522L102.548 25.2534H101.563L99.2841 16.687H100.339L101.692 21.978C101.88 22.7202 102.017 23.3921 102.102 23.9937C102.208 23.2788 102.364 22.5796 102.571 21.896L104.106 16.687H105.161L106.772 21.9429C106.96 22.5483 107.118 23.2319 107.247 23.9937C107.321 23.439 107.462 22.7632 107.669 21.9663L109.017 16.687H110.071L107.78 25.2534ZM112.239 25.2534H111.267V18.8315H112.239V25.2534ZM111.184 17.0913C111.184 16.8687 111.239 16.7065 111.349 16.605C111.458 16.4995 111.595 16.4468 111.759 16.4468C111.915 16.4468 112.05 16.4995 112.163 16.605C112.276 16.7104 112.333 16.8726 112.333 17.0913C112.333 17.3101 112.276 17.4741 112.163 17.5835C112.05 17.689 111.915 17.7417 111.759 17.7417C111.595 17.7417 111.458 17.689 111.349 17.5835C111.239 17.4741 111.184 17.3101 111.184 17.0913ZM116.376 24.5679C116.548 24.5679 116.714 24.5562 116.874 24.5327C117.034 24.5054 117.161 24.478 117.255 24.4507V25.1948C117.149 25.2456 116.993 25.2866 116.786 25.3179C116.583 25.353 116.399 25.3706 116.235 25.3706C114.993 25.3706 114.372 24.7163 114.372 23.4077V19.5874H113.452V19.1187L114.372 18.7144L114.782 17.3433H115.345V18.8315H117.208V19.5874H115.345V23.3667C115.345 23.7534 115.436 24.0503 115.62 24.2573C115.804 24.4644 116.056 24.5679 116.376 24.5679ZM122.938 25.2534V21.0991C122.938 20.5757 122.819 20.1851 122.581 19.9272C122.343 19.6694 121.97 19.5405 121.462 19.5405C120.786 19.5405 120.292 19.7241 119.979 20.0913C119.671 20.4585 119.517 21.0601 119.517 21.896V25.2534H118.544V16.1362H119.517V18.896C119.517 19.228 119.501 19.5034 119.47 19.7222H119.528C119.72 19.4136 119.991 19.1714 120.343 18.9956C120.698 18.8159 121.102 18.7261 121.556 18.7261C122.341 18.7261 122.929 18.9136 123.319 19.2886C123.714 19.6597 123.911 20.2515 123.911 21.064V25.2534H122.938ZM130.286 24.3921H130.233C129.784 25.0444 129.112 25.3706 128.218 25.3706C127.378 25.3706 126.724 25.0835 126.255 24.5093C125.79 23.9351 125.558 23.1187 125.558 22.0601C125.558 21.0015 125.792 20.1792 126.261 19.5933C126.729 19.0073 127.382 18.7144 128.218 18.7144C129.089 18.7144 129.757 19.0308 130.222 19.6636H130.298L130.257 19.2007L130.233 18.7495V16.1362H131.206V25.2534H130.415L130.286 24.3921ZM128.341 24.5562C129.005 24.5562 129.485 24.3765 129.782 24.0171C130.083 23.6538 130.233 23.0698 130.233 22.2651V22.0601C130.233 21.1499 130.081 20.5015 129.776 20.1147C129.475 19.7241 128.993 19.5288 128.329 19.5288C127.759 19.5288 127.321 19.7515 127.017 20.1968C126.716 20.6382 126.565 21.2632 126.565 22.0718C126.565 22.8921 126.716 23.5112 127.017 23.9292C127.317 24.3472 127.759 24.5562 128.341 24.5562ZM136.204 18.7144C136.489 18.7144 136.745 18.7378 136.972 18.7847L136.837 19.687C136.571 19.6284 136.337 19.5991 136.134 19.5991C135.614 19.5991 135.169 19.8101 134.798 20.2319C134.431 20.6538 134.247 21.1792 134.247 21.8081V25.2534H133.274V18.8315H134.077L134.188 20.021H134.235C134.474 19.603 134.761 19.2808 135.097 19.0542C135.433 18.8276 135.802 18.7144 136.204 18.7144ZM142.122 25.2534L141.929 24.3394H141.882C141.561 24.7417 141.241 25.0151 140.921 25.1597C140.604 25.3003 140.208 25.3706 139.731 25.3706C139.095 25.3706 138.595 25.2065 138.231 24.8784C137.872 24.5503 137.692 24.0835 137.692 23.478C137.692 22.1812 138.729 21.5015 140.804 21.439L141.893 21.4038V21.0054C141.893 20.5015 141.784 20.1304 141.565 19.8921C141.35 19.6499 141.005 19.5288 140.528 19.5288C139.993 19.5288 139.388 19.6929 138.712 20.021L138.413 19.2769C138.729 19.105 139.075 18.9702 139.45 18.8726C139.829 18.7749 140.208 18.7261 140.587 18.7261C141.352 18.7261 141.919 18.896 142.286 19.2358C142.657 19.5757 142.843 20.1206 142.843 20.8706V25.2534H142.122ZM139.925 24.5679C140.53 24.5679 141.005 24.4019 141.349 24.0698C141.696 23.7378 141.87 23.2729 141.87 22.6753V22.0952L140.897 22.1362C140.124 22.1636 139.565 22.2847 139.222 22.4995C138.882 22.7104 138.712 23.0405 138.712 23.4897C138.712 23.8413 138.817 24.1089 139.028 24.2925C139.243 24.4761 139.542 24.5679 139.925 24.5679ZM150.097 25.2534L148.919 21.4858C148.845 21.2554 148.706 20.7319 148.503 19.9155H148.456C148.3 20.5991 148.163 21.1265 148.046 21.4976L146.833 25.2534H145.708L143.956 18.8315H144.975C145.39 20.4448 145.704 21.6733 145.919 22.5171C146.138 23.3608 146.263 23.9292 146.294 24.2222H146.341C146.384 23.9995 146.452 23.7124 146.546 23.3608C146.643 23.0054 146.727 22.7241 146.798 22.5171L147.975 18.8315H149.03L150.179 22.5171C150.397 23.189 150.546 23.7534 150.624 24.2104H150.671C150.686 24.0698 150.727 23.853 150.794 23.5601C150.864 23.2671 151.272 21.6909 152.018 18.8315H153.026L151.251 25.2534H150.097ZM158.142 25.2534L157.948 24.3394H157.901C157.581 24.7417 157.261 25.0151 156.94 25.1597C156.624 25.3003 156.227 25.3706 155.751 25.3706C155.114 25.3706 154.614 25.2065 154.251 24.8784C153.892 24.5503 153.712 24.0835 153.712 23.478C153.712 22.1812 154.749 21.5015 156.823 21.439L157.913 21.4038V21.0054C157.913 20.5015 157.804 20.1304 157.585 19.8921C157.37 19.6499 157.024 19.5288 156.548 19.5288C156.013 19.5288 155.407 19.6929 154.731 20.021L154.433 19.2769C154.749 19.105 155.095 18.9702 155.47 18.8726C155.849 18.7749 156.227 18.7261 156.606 18.7261C157.372 18.7261 157.938 18.896 158.306 19.2358C158.677 19.5757 158.862 20.1206 158.862 20.8706V25.2534H158.142ZM155.944 24.5679C156.55 24.5679 157.024 24.4019 157.368 24.0698C157.716 23.7378 157.89 23.2729 157.89 22.6753V22.0952L156.917 22.1362C156.143 22.1636 155.585 22.2847 155.241 22.4995C154.901 22.7104 154.731 23.0405 154.731 23.4897C154.731 23.8413 154.837 24.1089 155.048 24.2925C155.263 24.4761 155.561 24.5679 155.944 24.5679ZM161.845 25.2534H160.872V16.1362H161.845V25.2534Z" fill="#00031A"/>
<path d="M81.1698 47.2534H77.7069L72.1171 37.5327H72.038C72.1493 39.2495 72.205 40.4741 72.205 41.2065V47.2534H69.7704V34.4038H73.2069L78.788 44.0278H78.8495C78.7616 42.3579 78.7177 41.1772 78.7177 40.4858V34.4038H81.1698V47.2534ZM90.2314 47.2534H87.5155V39.8179L87.5419 38.5962L87.5858 37.2603C87.1347 37.7114 86.8212 38.0073 86.6454 38.1479L85.1689 39.3345L83.8593 37.6997L87.9989 34.4038H90.2314V47.2534ZM102.712 40.8286C102.712 43.0728 102.343 44.7339 101.604 45.812C100.872 46.8901 99.7411 47.4292 98.2118 47.4292C96.7294 47.4292 95.6103 46.8726 94.8544 45.7593C94.1044 44.646 93.7294 43.0024 93.7294 40.8286C93.7294 38.561 94.0956 36.8911 94.828 35.8188C95.5605 34.7407 96.6884 34.2017 98.2118 34.2017C99.6942 34.2017 100.813 34.7642 101.569 35.8892C102.331 37.0142 102.712 38.6606 102.712 40.8286ZM96.4276 40.8286C96.4276 42.4048 96.5624 43.5356 96.8319 44.2212C97.1073 44.9009 97.5673 45.2407 98.2118 45.2407C98.8446 45.2407 99.3017 44.895 99.5829 44.2036C99.8642 43.5122 100.005 42.3872 100.005 40.8286C100.005 39.2524 99.8612 38.1216 99.5741 37.436C99.2929 36.7446 98.8388 36.3989 98.2118 36.3989C97.5732 36.3989 97.1161 36.7446 96.8407 37.436C96.5653 38.1216 96.4276 39.2524 96.4276 40.8286ZM107.396 45.3638C107.092 46.5474 106.576 47.9507 105.85 49.5737H103.916C104.297 48.0151 104.593 46.5444 104.804 45.1616H107.265L107.396 45.3638ZM113.979 39.0444C115.222 39.0444 116.209 39.3931 116.941 40.0903C117.68 40.7876 118.049 41.7427 118.049 42.9556C118.049 44.3911 117.606 45.4956 116.722 46.269C115.837 47.0425 114.571 47.4292 112.925 47.4292C111.495 47.4292 110.341 47.1978 109.462 46.7349V44.3882C109.925 44.6343 110.464 44.8364 111.079 44.9946C111.694 45.147 112.277 45.2231 112.828 45.2231C114.486 45.2231 115.315 44.5435 115.315 43.1841C115.315 41.8892 114.457 41.2417 112.74 41.2417C112.43 41.2417 112.087 41.2739 111.712 41.3384C111.337 41.397 111.032 41.4614 110.798 41.5317L109.717 40.9517L110.2 34.4038H117.17V36.7065H112.582L112.345 39.229L112.652 39.1675C113.01 39.0854 113.452 39.0444 113.979 39.0444ZM128.517 39.8882C128.517 42.4194 127.983 44.3091 126.917 45.5571C125.85 46.8052 124.236 47.4292 122.074 47.4292C121.312 47.4292 120.735 47.3882 120.343 47.3062V45.1265C120.835 45.2495 121.35 45.311 121.89 45.311C122.798 45.311 123.545 45.1792 124.131 44.9155C124.717 44.646 125.165 44.2271 125.475 43.6587C125.786 43.0845 125.965 42.2964 126.012 41.2944H125.906C125.566 41.8452 125.174 42.2319 124.728 42.4546C124.283 42.6772 123.726 42.7886 123.059 42.7886C121.939 42.7886 121.058 42.4312 120.413 41.7163C119.768 40.9956 119.446 39.9966 119.446 38.7192C119.446 37.3423 119.836 36.2554 120.615 35.4585C121.4 34.6558 122.467 34.2544 123.814 34.2544C124.764 34.2544 125.593 34.4771 126.302 34.9224C127.017 35.3677 127.564 36.0151 127.945 36.8647C128.326 37.7085 128.517 38.7163 128.517 39.8882ZM123.867 36.4341C123.305 36.4341 122.865 36.6274 122.549 37.0142C122.232 37.4009 122.074 37.9575 122.074 38.6841C122.074 39.3052 122.218 39.7974 122.505 40.1606C122.792 40.5239 123.228 40.7056 123.814 40.7056C124.365 40.7056 124.837 40.5269 125.229 40.1694C125.622 39.8062 125.818 39.3901 125.818 38.9214C125.818 38.2241 125.634 37.6353 125.265 37.1548C124.901 36.6743 124.435 36.4341 123.867 36.4341ZM129.782 41.7954C129.782 39.2524 130.318 37.3599 131.391 36.1177C132.469 34.8755 134.08 34.2544 136.225 34.2544C136.957 34.2544 137.531 34.2983 137.947 34.3862V36.5571C137.426 36.4399 136.91 36.3813 136.4 36.3813C135.469 36.3813 134.707 36.522 134.115 36.8032C133.529 37.0845 133.09 37.5005 132.797 38.0513C132.504 38.6021 132.331 39.3843 132.278 40.3979H132.392C132.973 39.4019 133.901 38.9038 135.179 38.9038C136.327 38.9038 137.226 39.2642 137.877 39.9849C138.527 40.7056 138.852 41.7017 138.852 42.9731C138.852 44.3442 138.466 45.4312 137.692 46.2339C136.919 47.0308 135.847 47.4292 134.475 47.4292C133.526 47.4292 132.697 47.2095 131.988 46.77C131.285 46.3306 130.74 45.689 130.353 44.8452C129.973 44.0015 129.782 42.9849 129.782 41.7954ZM134.423 45.2583C135.003 45.2583 135.448 45.0649 135.759 44.6782C136.069 44.2856 136.225 43.729 136.225 43.0083C136.225 42.3813 136.078 41.8892 135.785 41.5317C135.498 41.1685 135.061 40.9868 134.475 40.9868C133.925 40.9868 133.453 41.1655 133.06 41.5229C132.674 41.8804 132.48 42.2964 132.48 42.771C132.48 43.4683 132.662 44.0571 133.025 44.5376C133.394 45.0181 133.86 45.2583 134.423 45.2583ZM140.461 45.9966C140.461 45.5044 140.593 45.1323 140.856 44.8804C141.12 44.6284 141.504 44.5024 142.008 44.5024C142.494 44.5024 142.869 44.6313 143.133 44.8892C143.402 45.147 143.537 45.5161 143.537 45.9966C143.537 46.4595 143.402 46.8257 143.133 47.0952C142.863 47.3589 142.488 47.4907 142.008 47.4907C141.516 47.4907 141.135 47.3618 140.865 47.104C140.596 46.8403 140.461 46.4712 140.461 45.9966ZM149.716 34.2368C150.946 34.2368 151.936 34.5181 152.686 35.0806C153.442 35.6372 153.82 36.3901 153.82 37.3394C153.82 37.9956 153.639 38.5815 153.275 39.0972C152.912 39.6069 152.326 40.064 151.517 40.4683C152.478 40.9839 153.167 41.5229 153.583 42.0854C154.005 42.6421 154.216 43.2544 154.216 43.9224C154.216 44.9771 153.803 45.8267 152.976 46.4712C152.15 47.1099 151.063 47.4292 149.716 47.4292C148.309 47.4292 147.205 47.1304 146.402 46.5327C145.6 45.9351 145.198 45.0884 145.198 43.9927C145.198 43.2603 145.392 42.6099 145.778 42.0415C146.171 41.4731 146.798 40.9722 147.659 40.5386C146.927 40.0757 146.399 39.5806 146.077 39.0532C145.755 38.5259 145.594 37.9487 145.594 37.3218C145.594 36.4019 145.975 35.6577 146.736 35.0894C147.498 34.521 148.491 34.2368 149.716 34.2368ZM147.712 43.8345C147.712 44.3384 147.888 44.731 148.239 45.0122C148.591 45.2935 149.071 45.4341 149.681 45.4341C150.354 45.4341 150.858 45.2905 151.192 45.0034C151.526 44.7104 151.693 44.3267 151.693 43.8521C151.693 43.4595 151.526 43.0933 151.192 42.7534C150.864 42.4077 150.328 42.0415 149.584 41.6548C148.336 42.229 147.712 42.9556 147.712 43.8345ZM149.698 36.2231C149.235 36.2231 148.86 36.3433 148.573 36.5835C148.292 36.8179 148.151 37.1343 148.151 37.5327C148.151 37.8843 148.263 38.2007 148.485 38.4819C148.714 38.7573 149.124 39.0415 149.716 39.3345C150.29 39.0649 150.691 38.7896 150.92 38.5083C151.148 38.2271 151.263 37.9019 151.263 37.5327C151.263 37.1284 151.116 36.8091 150.823 36.5747C150.53 36.3403 150.155 36.2231 149.698 36.2231ZM164.481 40.8286C164.481 43.0728 164.112 44.7339 163.374 45.812C162.642 46.8901 161.511 47.4292 159.981 47.4292C158.499 47.4292 157.38 46.8726 156.624 45.7593C155.874 44.646 155.499 43.0024 155.499 40.8286C155.499 38.561 155.865 36.8911 156.598 35.8188C157.33 34.7407 158.458 34.2017 159.981 34.2017C161.464 34.2017 162.583 34.7642 163.339 35.8892C164.1 37.0142 164.481 38.6606 164.481 40.8286ZM158.197 40.8286C158.197 42.4048 158.332 43.5356 158.601 44.2212C158.877 44.9009 159.337 45.2407 159.981 45.2407C160.614 45.2407 161.071 44.895 161.352 44.2036C161.634 43.5122 161.774 42.3872 161.774 40.8286C161.774 39.2524 161.631 38.1216 161.344 37.436C161.062 36.7446 160.608 36.3989 159.981 36.3989C159.343 36.3989 158.886 36.7446 158.61 37.436C158.335 38.1216 158.197 39.2524 158.197 40.8286Z" fill="#00031A"/>
</svg>
