<svg width="151" height="66" viewBox="0 0 151 66" fill="none" xmlns="http://www.w3.org/2000/svg">
<rect x="0.105469" y="0.516968" width="150.506" height="65" rx="13" fill="white"/>
<rect opacity="0.8" x="10.1055" y="10.517" width="45.5058" height="45" rx="7.89474" fill="#ADEBF3"/>
<path fill-rule="evenodd" clip-rule="evenodd" d="M39.6902 33.4958L37.4258 31.4664L34.3877 39.4292L39.6902 33.4958ZM34.2822 35.7166L36.4569 30.0197C36.4569 30.0183 36.4576 30.0169 36.4583 30.0155L37.0107 28.5682L34.2822 27.5243V35.7166ZM33.0289 39.0033H28.8447L32.4957 40.4006L33.0289 39.0033ZM32.2531 41.8176L28.3486 40.3231L31.2586 42.9305L32.2531 41.8176ZM25.7402 37.5954H32.8586V24.9248H25.7402V37.5954ZM41.2225 33.9069L31.8476 44.3968C31.7216 44.5383 31.5437 44.6234 31.3536 44.6333C31.3408 44.634 31.3273 44.6347 31.3138 44.6347C31.1379 44.6347 30.9671 44.57 30.8361 44.4524L24.5506 38.8196C24.5478 38.8175 24.547 38.814 24.5435 38.8111C24.5399 38.8076 24.5349 38.8055 24.5321 38.802C24.4901 38.7612 24.463 38.7105 24.4317 38.6612C24.4161 38.6359 24.3933 38.614 24.3812 38.588C24.3798 38.5845 24.3776 38.5831 24.3769 38.5803C24.3613 38.5458 24.3605 38.5056 24.3513 38.469C24.3499 38.4648 24.3492 38.4599 24.3477 38.455C24.3378 38.4113 24.32 38.3705 24.3185 38.3261C24.3178 38.3205 24.3185 38.3149 24.3185 38.3092C24.3185 38.3057 24.3164 38.3029 24.3164 38.2994V24.2209C24.3164 23.8316 24.6353 23.517 25.0282 23.517H33.5703C33.9639 23.517 34.2821 23.8316 34.2821 24.2209V26.0145L38.1823 27.5068C38.5474 27.6462 38.7297 28.0509 38.5916 28.4121L37.9666 30.0501L41.167 32.9193C41.4553 33.1783 41.4802 33.6183 41.2225 33.9069ZM28.5877 30.2042C28.5877 30.3984 28.7472 30.5561 28.9437 30.5561H29.6555C30.6371 30.5561 31.4351 31.3452 31.4351 32.3159C31.4351 33.1663 30.8229 33.8765 30.0114 34.0398V34.7797C30.0114 35.1689 29.6932 35.4836 29.2996 35.4836C28.9066 35.4836 28.5877 35.1689 28.5877 34.7797V34.0757H27.8759C27.483 34.0757 27.1641 33.7611 27.1641 33.3718C27.1641 32.9826 27.483 32.6679 27.8759 32.6679H29.6562C29.852 32.6679 30.0114 32.5102 30.0114 32.3159C30.0114 32.1224 29.852 31.964 29.6555 31.964H28.9437C27.9627 31.964 27.1641 31.1749 27.1641 30.2042C27.1641 29.3538 27.777 28.6436 28.5877 28.4802V27.7404C28.5877 27.3512 28.9066 27.0365 29.2996 27.0365C29.6932 27.0365 30.0114 27.3512 30.0114 27.7404V28.4443H30.7232C31.1169 28.4443 31.4351 28.759 31.4351 29.1483C31.4351 29.5375 31.1169 29.8522 30.7232 29.8522H28.9437C28.7472 29.8522 28.5877 30.0106 28.5877 30.2042Z" fill="#00031A"/>
<path d="M71.4257 25.517H70.4296V17.8353H67.7167V16.9506H74.1386V17.8353H71.4257V25.517ZM80.83 22.3002C80.83 23.347 80.5663 24.1654 80.039 24.7552C79.5116 25.3412 78.7831 25.6342 77.8534 25.6342C77.2792 25.6342 76.7694 25.4994 76.3241 25.2299C75.8788 24.9603 75.5351 24.5736 75.2929 24.0697C75.0507 23.5658 74.9296 22.976 74.9296 22.3002C74.9296 21.2533 75.1913 20.4388 75.7148 19.8568C76.2382 19.2709 76.9648 18.9779 77.8944 18.9779C78.7929 18.9779 79.5058 19.2767 80.0331 19.8744C80.5644 20.472 80.83 21.2806 80.83 22.3002ZM75.9374 22.3002C75.9374 23.1205 76.1015 23.7455 76.4296 24.1752C76.7577 24.6049 77.2401 24.8197 77.8769 24.8197C78.5136 24.8197 78.996 24.6068 79.3241 24.181C79.6562 23.7513 79.8222 23.1244 79.8222 22.3002C79.8222 21.4838 79.6562 20.8646 79.3241 20.4427C78.996 20.017 78.5097 19.8041 77.8651 19.8041C77.2284 19.8041 76.748 20.0131 76.4237 20.431C76.0995 20.849 75.9374 21.472 75.9374 22.3002ZM84.6151 24.8314C84.787 24.8314 84.953 24.8197 85.1132 24.7963C85.2733 24.7689 85.4003 24.7416 85.494 24.7142V25.4584C85.3886 25.5092 85.2323 25.5502 85.0253 25.5814C84.8222 25.6166 84.6386 25.6342 84.4745 25.6342C83.2323 25.6342 82.6112 24.9799 82.6112 23.6713V19.851H81.6913V19.3822L82.6112 18.9779L83.0214 17.6068H83.5839V19.0951H85.4472V19.851H83.5839V23.6302C83.5839 24.017 83.6757 24.3138 83.8593 24.5209C84.0429 24.7279 84.2948 24.8314 84.6151 24.8314ZM90.7323 25.517L90.539 24.6029H90.4921C90.1718 25.0052 89.8515 25.2787 89.5312 25.4232C89.2148 25.5638 88.8183 25.6342 88.3417 25.6342C87.705 25.6342 87.205 25.4701 86.8417 25.142C86.4823 24.8138 86.3026 24.347 86.3026 23.7416C86.3026 22.4447 87.3398 21.765 89.414 21.7025L90.5038 21.6674V21.2689C90.5038 20.765 90.3944 20.3939 90.1757 20.1556C89.9608 19.9135 89.6151 19.7924 89.1386 19.7924C88.6034 19.7924 87.998 19.9564 87.3222 20.2845L87.0233 19.5404C87.3398 19.3685 87.6855 19.2338 88.0605 19.1361C88.4394 19.0385 88.8183 18.9896 89.1972 18.9896C89.9628 18.9896 90.5292 19.1595 90.8964 19.4994C91.2675 19.8392 91.453 20.3842 91.453 21.1342V25.517H90.7323ZM88.5351 24.8314C89.1405 24.8314 89.6151 24.6654 89.9589 24.3334C90.3065 24.0013 90.4804 23.5365 90.4804 22.9388V22.3588L89.5077 22.3998C88.7343 22.4271 88.1757 22.5482 87.8319 22.7631C87.4921 22.974 87.3222 23.3041 87.3222 23.7533C87.3222 24.1049 87.4276 24.3724 87.6386 24.556C87.8534 24.7396 88.1523 24.8314 88.5351 24.8314ZM94.4355 25.517H93.4628V16.3998H94.4355V25.517ZM103.986 24.6556H103.934C103.484 25.308 102.812 25.6342 101.918 25.6342C101.078 25.6342 100.424 25.347 99.955 24.7728C99.4901 24.1986 99.2577 23.3822 99.2577 22.3236C99.2577 21.265 99.4921 20.4427 99.9608 19.8568C100.43 19.2709 101.082 18.9779 101.918 18.9779C102.789 18.9779 103.457 19.2943 103.922 19.9271H103.998L103.957 19.4642L103.934 19.0131V16.3998H104.906V25.517H104.115L103.986 24.6556ZM102.041 24.8197C102.705 24.8197 103.185 24.64 103.482 24.2806C103.783 23.9174 103.934 23.3334 103.934 22.5287V22.3236C103.934 21.4135 103.781 20.765 103.476 20.3783C103.176 19.9877 102.693 19.7924 102.029 19.7924C101.459 19.7924 101.021 20.015 100.717 20.4603C100.416 20.9017 100.266 21.5267 100.266 22.3353C100.266 23.1556 100.416 23.7748 100.717 24.1927C101.017 24.6107 101.459 24.8197 102.041 24.8197ZM109.687 25.6342C108.738 25.6342 107.988 25.3451 107.437 24.767C106.891 24.1888 106.617 23.3861 106.617 22.3588C106.617 21.3236 106.871 20.5013 107.379 19.892C107.891 19.2826 108.576 18.9779 109.435 18.9779C110.24 18.9779 110.877 19.2435 111.346 19.7748C111.814 20.3021 112.049 20.9994 112.049 21.8666V22.4818H107.625C107.644 23.2357 107.834 23.808 108.193 24.1986C108.557 24.5892 109.066 24.7845 109.723 24.7845C110.414 24.7845 111.098 24.64 111.773 24.351V25.2181C111.43 25.3666 111.103 25.472 110.795 25.5345C110.49 25.601 110.121 25.6342 109.687 25.6342ZM109.424 19.7924C108.908 19.7924 108.496 19.9603 108.187 20.2963C107.883 20.6322 107.703 21.097 107.648 21.6908H111.006C111.006 21.0775 110.869 20.6088 110.596 20.2845C110.322 19.9564 109.932 19.7924 109.424 19.7924ZM116.701 25.6342C116.283 25.6342 115.9 25.558 115.553 25.4056C115.209 25.2494 114.92 25.0111 114.685 24.6908H114.615C114.662 25.0658 114.685 25.4213 114.685 25.7572V28.3998H113.713V19.0951H114.504L114.639 19.974H114.685C114.935 19.6224 115.226 19.3685 115.559 19.2123C115.891 19.056 116.271 18.9779 116.701 18.9779C117.553 18.9779 118.209 19.2689 118.67 19.851C119.135 20.433 119.367 21.2494 119.367 22.3002C119.367 23.3549 119.131 24.1752 118.658 24.7611C118.189 25.3431 117.537 25.6342 116.701 25.6342ZM116.56 19.8041C115.904 19.8041 115.43 19.9857 115.137 20.349C114.844 20.7123 114.693 21.2904 114.685 22.0834V22.3002C114.685 23.2025 114.836 23.849 115.137 24.2396C115.437 24.6263 115.92 24.8197 116.584 24.8197C117.139 24.8197 117.572 24.5951 117.885 24.1459C118.201 23.6967 118.359 23.0775 118.359 22.2885C118.359 21.4877 118.201 20.8744 117.885 20.4486C117.572 20.0189 117.131 19.8041 116.56 19.8041ZM126.615 22.3002C126.615 23.347 126.351 24.1654 125.824 24.7552C125.297 25.3412 124.568 25.6342 123.639 25.6342C123.064 25.6342 122.555 25.4994 122.109 25.2299C121.664 24.9603 121.32 24.5736 121.078 24.0697C120.836 23.5658 120.715 22.976 120.715 22.3002C120.715 21.2533 120.976 20.4388 121.5 19.8568C122.023 19.2709 122.75 18.9779 123.68 18.9779C124.578 18.9779 125.291 19.2767 125.818 19.8744C126.35 20.472 126.615 21.2806 126.615 22.3002ZM121.723 22.3002C121.723 23.1205 121.887 23.7455 122.215 24.1752C122.543 24.6049 123.025 24.8197 123.662 24.8197C124.299 24.8197 124.781 24.6068 125.109 24.181C125.441 23.7513 125.607 23.1244 125.607 22.3002C125.607 21.4838 125.441 20.8646 125.109 20.4427C124.781 20.017 124.295 19.8041 123.65 19.8041C123.014 19.8041 122.533 20.0131 122.209 20.431C121.885 20.849 121.723 21.472 121.723 22.3002ZM132.469 23.765C132.469 24.3627 132.246 24.8236 131.801 25.1478C131.355 25.472 130.73 25.6342 129.926 25.6342C129.074 25.6342 128.41 25.4994 127.934 25.2299V24.3275C128.242 24.4838 128.572 24.6068 128.924 24.6967C129.279 24.7865 129.621 24.8314 129.949 24.8314C130.457 24.8314 130.848 24.7513 131.121 24.5912C131.394 24.4271 131.531 24.1791 131.531 23.847C131.531 23.597 131.422 23.3842 131.203 23.2084C130.988 23.0287 130.566 22.8177 129.937 22.5756C129.34 22.3529 128.914 22.1595 128.66 21.9955C128.41 21.8275 128.223 21.6381 128.098 21.4271C127.976 21.2162 127.916 20.9642 127.916 20.6713C127.916 20.1478 128.129 19.7357 128.555 19.4349C128.98 19.1302 129.564 18.9779 130.307 18.9779C130.998 18.9779 131.674 19.1185 132.334 19.3998L131.988 20.1908C131.344 19.9252 130.76 19.7924 130.236 19.7924C129.775 19.7924 129.428 19.8646 129.193 20.0092C128.959 20.1537 128.842 20.3529 128.842 20.6068C128.842 20.7787 128.885 20.9252 128.971 21.0463C129.06 21.1674 129.203 21.2826 129.398 21.392C129.594 21.5013 129.969 21.6595 130.523 21.8666C131.285 22.1439 131.799 22.4232 132.064 22.7045C132.334 22.9857 132.469 23.3392 132.469 23.765ZM135.029 25.517H134.057V19.0951H135.029V25.517ZM133.975 17.3549C133.975 17.1322 134.029 16.9701 134.139 16.8685C134.248 16.7631 134.385 16.7103 134.549 16.7103C134.705 16.7103 134.84 16.7631 134.953 16.8685C135.066 16.974 135.123 17.1361 135.123 17.3549C135.123 17.5736 135.066 17.7377 134.953 17.847C134.84 17.9525 134.705 18.0052 134.549 18.0052C134.385 18.0052 134.248 17.9525 134.139 17.847C134.029 17.7377 133.975 17.5736 133.975 17.3549ZM139.166 24.8314C139.338 24.8314 139.504 24.8197 139.664 24.7963C139.824 24.7689 139.951 24.7416 140.045 24.7142V25.4584C139.939 25.5092 139.783 25.5502 139.576 25.5814C139.373 25.6166 139.189 25.6342 139.025 25.6342C137.783 25.6342 137.162 24.9799 137.162 23.6713V19.851H136.242V19.3822L137.162 18.9779L137.572 17.6068H138.135V19.0951H139.998V19.851H138.135V23.6302C138.135 24.017 138.226 24.3138 138.41 24.5209C138.594 24.7279 138.846 24.8314 139.166 24.8314Z" fill="#00031A"/>
<path d="M77.2089 43.5004C77.2089 44.432 76.872 45.182 76.1982 45.7504C75.5243 46.3129 74.581 46.6498 73.3681 46.7611V48.5629H72.164V46.7963C70.7343 46.767 69.4804 46.515 68.4023 46.0404V43.7201C68.912 43.972 69.5243 44.1947 70.2392 44.3881C70.9599 44.5814 71.6015 44.6957 72.164 44.7308V42.0062L71.5751 41.7777C70.4149 41.3207 69.5917 40.8256 69.1054 40.2924C68.6249 39.7533 68.3847 39.0883 68.3847 38.2972C68.3847 37.4476 68.7157 36.7504 69.3778 36.2054C70.0458 35.6547 70.9745 35.3207 72.164 35.2035V33.8588H73.3681V35.1683C74.7099 35.2269 75.9228 35.4965 77.0067 35.9769L76.1806 38.0336C75.2665 37.6586 74.329 37.4301 73.3681 37.348V39.9408C74.5107 40.3802 75.3222 40.7611 75.8026 41.0834C76.289 41.4056 76.6435 41.7601 76.8661 42.1469C77.0946 42.5336 77.2089 42.9847 77.2089 43.5004ZM74.5634 43.6322C74.5634 43.3861 74.4638 43.1781 74.2646 43.0082C74.0653 42.8383 73.7665 42.6625 73.3681 42.4808V44.6693C74.1649 44.5345 74.5634 44.1888 74.5634 43.6322ZM71.0302 38.2972C71.0302 38.5551 71.1181 38.7689 71.2939 38.9388C71.4755 39.1029 71.7655 39.2728 72.164 39.4486V37.3832C71.4081 37.4945 71.0302 37.7992 71.0302 38.2972ZM83.2909 39.308C84.5331 39.308 85.5204 39.6566 86.2528 40.3539C86.9911 41.0511 87.3603 42.0062 87.3603 43.2191C87.3603 44.6547 86.9179 45.7592 86.0331 46.5326C85.1483 47.306 83.8827 47.6927 82.2362 47.6927C80.8065 47.6927 79.6523 47.4613 78.7733 46.9984V44.6517C79.2362 44.8978 79.7753 45.1 80.3905 45.2582C81.0058 45.4105 81.5888 45.4867 82.1396 45.4867C83.7978 45.4867 84.6269 44.807 84.6269 43.4476C84.6269 42.1527 83.7685 41.5052 82.0517 41.5052C81.7411 41.5052 81.3983 41.5375 81.0233 41.6019C80.6483 41.6605 80.3437 41.725 80.1093 41.7953L79.0282 41.2152L79.5116 34.6674H86.4814V36.9701H81.8935L81.6562 39.4926L81.9638 39.431C82.3212 39.349 82.7636 39.308 83.2909 39.308ZM97.8105 41.0922C97.8105 43.3363 97.4413 44.9974 96.703 46.0756C95.9706 47.1537 94.8398 47.6927 93.3105 47.6927C91.828 47.6927 90.7089 47.1361 89.953 46.0228C89.203 44.9095 88.828 43.266 88.828 41.0922C88.828 38.8246 89.1942 37.1547 89.9267 36.0824C90.6591 35.0043 91.787 34.4652 93.3105 34.4652C94.7929 34.4652 95.912 35.0277 96.6679 36.1527C97.4296 37.2777 97.8105 38.9242 97.8105 41.0922ZM91.5263 41.0922C91.5263 42.6683 91.661 43.7992 91.9306 44.4847C92.206 45.1644 92.6659 45.5043 93.3105 45.5043C93.9433 45.5043 94.4003 45.1586 94.6815 44.4672C94.9628 43.7758 95.1034 42.6508 95.1034 41.0922C95.1034 39.516 94.9599 38.3851 94.6728 37.6996C94.3915 37.0082 93.9374 36.6625 93.3105 36.6625C92.6718 36.6625 92.2148 37.0082 91.9394 37.6996C91.664 38.3851 91.5263 39.516 91.5263 41.0922ZM108.094 41.0922C108.094 43.3363 107.725 44.9974 106.986 46.0756C106.254 47.1537 105.123 47.6927 103.594 47.6927C102.111 47.6927 100.992 47.1361 100.236 46.0228C99.4862 44.9095 99.1112 43.266 99.1112 41.0922C99.1112 38.8246 99.4774 37.1547 100.21 36.0824C100.942 35.0043 102.07 34.4652 103.594 34.4652C105.076 34.4652 106.195 35.0277 106.951 36.1527C107.713 37.2777 108.094 38.9242 108.094 41.0922ZM101.809 41.0922C101.809 42.6683 101.944 43.7992 102.214 44.4847C102.489 45.1644 102.949 45.5043 103.594 45.5043C104.226 45.5043 104.684 45.1586 104.965 44.4672C105.246 43.7758 105.387 42.6508 105.387 41.0922C105.387 39.516 105.243 38.3851 104.956 37.6996C104.675 37.0082 104.221 36.6625 103.594 36.6625C102.955 36.6625 102.498 37.0082 102.223 37.6996C101.947 38.3851 101.809 39.516 101.809 41.0922Z" fill="#00031A"/>
</svg>
