<svg width="276" height="396" viewBox="0 0 276 396" fill="none" xmlns="http://www.w3.org/2000/svg">
<rect x="0.514771" y="0.516968" width="179.506" height="65" rx="13" fill="white"/>
<rect opacity="0.5" x="10.5148" y="10.517" width="45.5058" height="45" rx="7.89474" fill="#D1FFCC"/>
<path fill-rule="evenodd" clip-rule="evenodd" d="M40.0995 33.4958L37.8351 31.4664L34.797 39.4292L40.0995 33.4958ZM34.6915 35.7166L36.8662 30.0197C36.8662 30.0183 36.8669 30.0169 36.8676 30.0155L37.42 28.5682L34.6915 27.5243V35.7166ZM33.4382 39.0033H29.254L32.905 40.4006L33.4382 39.0033ZM32.6624 41.8176L28.7579 40.3231L31.6679 42.9305L32.6624 41.8176ZM26.1495 37.5954H33.2679V24.9248H26.1495V37.5954ZM41.6318 33.9069L32.2569 44.3968C32.1309 44.5383 31.953 44.6234 31.7629 44.6333C31.7501 44.634 31.7366 44.6347 31.7231 44.6347C31.5472 44.6347 31.3764 44.57 31.2454 44.4524L24.9599 38.8196C24.9571 38.8175 24.9563 38.814 24.9528 38.8111C24.9492 38.8076 24.9442 38.8055 24.9414 38.802C24.8994 38.7612 24.8723 38.7105 24.841 38.6612C24.8254 38.6359 24.8026 38.614 24.7905 38.588C24.7891 38.5845 24.7869 38.5831 24.7862 38.5803C24.7706 38.5458 24.7698 38.5056 24.7606 38.469C24.7592 38.4648 24.7585 38.4599 24.757 38.455C24.7471 38.4113 24.7293 38.3705 24.7278 38.3261C24.7271 38.3205 24.7278 38.3149 24.7278 38.3092C24.7278 38.3057 24.7257 38.3029 24.7257 38.2994V24.2209C24.7257 23.8316 25.0446 23.517 25.4375 23.517H33.9796C34.3732 23.517 34.6914 23.8316 34.6914 24.2209V26.0145L38.5916 27.5068C38.9567 27.6462 39.139 28.0509 39.0009 28.4121L38.3759 30.0501L41.5763 32.9193C41.8646 33.1783 41.8895 33.6183 41.6318 33.9069ZM28.997 30.2042C28.997 30.3984 29.1565 30.5561 29.353 30.5561H30.0648C31.0464 30.5561 31.8444 31.3452 31.8444 32.3159C31.8444 33.1663 31.2322 33.8765 30.4207 34.0398V34.7797C30.4207 35.1689 30.1025 35.4836 29.7089 35.4836C29.3159 35.4836 28.997 35.1689 28.997 34.7797V34.0757H28.2852C27.8923 34.0757 27.5734 33.7611 27.5734 33.3718C27.5734 32.9826 27.8923 32.6679 28.2852 32.6679H30.0655C30.2613 32.6679 30.4207 32.5102 30.4207 32.3159C30.4207 32.1224 30.2613 31.964 30.0648 31.964H29.353C28.372 31.964 27.5734 31.1749 27.5734 30.2042C27.5734 29.3538 28.1863 28.6436 28.997 28.4802V27.7404C28.997 27.3512 29.3159 27.0365 29.7089 27.0365C30.1025 27.0365 30.4207 27.3512 30.4207 27.7404V28.4443H31.1325C31.5262 28.4443 31.8444 28.759 31.8444 29.1483C31.8444 29.5375 31.5262 29.8522 31.1325 29.8522H29.353C29.1565 29.8522 28.997 30.0106 28.997 30.2042Z" fill="#1A0003"/>
<path d="M71.835 25.517H70.8389V17.8353H68.126V16.9506H74.5479V17.8353H71.835V25.517ZM81.2393 22.3002C81.2393 23.347 80.9756 24.1654 80.4482 24.7552C79.9209 25.3412 79.1924 25.6342 78.2627 25.6342C77.6885 25.6342 77.1787 25.4994 76.7334 25.2299C76.2881 24.9603 75.9443 24.5736 75.7021 24.0697C75.46 23.5658 75.3389 22.976 75.3389 22.3002C75.3389 21.2533 75.6006 20.4388 76.124 19.8568C76.6475 19.2709 77.374 18.9779 78.3037 18.9779C79.2021 18.9779 79.915 19.2767 80.4424 19.8744C80.9736 20.472 81.2393 21.2806 81.2393 22.3002ZM76.3467 22.3002C76.3467 23.1205 76.5107 23.7455 76.8389 24.1752C77.167 24.6049 77.6494 24.8197 78.2861 24.8197C78.9229 24.8197 79.4053 24.6068 79.7334 24.181C80.0654 23.7513 80.2314 23.1244 80.2314 22.3002C80.2314 21.4838 80.0654 20.8646 79.7334 20.4427C79.4053 20.017 78.9189 19.8041 78.2744 19.8041C77.6377 19.8041 77.1572 20.0131 76.833 20.431C76.5088 20.849 76.3467 21.472 76.3467 22.3002ZM85.0244 24.8314C85.1963 24.8314 85.3623 24.8197 85.5225 24.7963C85.6826 24.7689 85.8096 24.7416 85.9033 24.7142V25.4584C85.7979 25.5092 85.6416 25.5502 85.4346 25.5814C85.2314 25.6166 85.0479 25.6342 84.8838 25.6342C83.6416 25.6342 83.0205 24.9799 83.0205 23.6713V19.851H82.1006V19.3822L83.0205 18.9779L83.4307 17.6068H83.9932V19.0951H85.8564V19.851H83.9932V23.6302C83.9932 24.017 84.085 24.3138 84.2686 24.5209C84.4521 24.7279 84.7041 24.8314 85.0244 24.8314ZM91.1416 25.517L90.9482 24.6029H90.9014C90.5811 25.0052 90.2607 25.2787 89.9404 25.4232C89.624 25.5638 89.2275 25.6342 88.751 25.6342C88.1143 25.6342 87.6143 25.4701 87.251 25.142C86.8916 24.8138 86.7119 24.347 86.7119 23.7416C86.7119 22.4447 87.749 21.765 89.8232 21.7025L90.9131 21.6674V21.2689C90.9131 20.765 90.8037 20.3939 90.585 20.1556C90.3701 19.9135 90.0244 19.7924 89.5479 19.7924C89.0127 19.7924 88.4072 19.9564 87.7314 20.2845L87.4326 19.5404C87.749 19.3685 88.0947 19.2338 88.4697 19.1361C88.8486 19.0385 89.2275 18.9896 89.6064 18.9896C90.3721 18.9896 90.9385 19.1595 91.3057 19.4994C91.6768 19.8392 91.8623 20.3842 91.8623 21.1342V25.517H91.1416ZM88.9443 24.8314C89.5498 24.8314 90.0244 24.6654 90.3682 24.3334C90.7158 24.0013 90.8896 23.5365 90.8896 22.9388V22.3588L89.917 22.3998C89.1436 22.4271 88.585 22.5482 88.2412 22.7631C87.9014 22.974 87.7314 23.3041 87.7314 23.7533C87.7314 24.1049 87.8369 24.3724 88.0479 24.556C88.2627 24.7396 88.5615 24.8314 88.9443 24.8314ZM94.8447 25.517H93.8721V16.3998H94.8447V25.517ZM107.647 25.517H106.663L104.935 19.7806C104.853 19.5267 104.761 19.2064 104.659 18.8197C104.558 18.433 104.505 18.2006 104.501 18.1224C104.415 18.6381 104.278 19.2025 104.091 19.8158L102.415 25.517H101.431L99.1514 16.9506H100.206L101.56 22.2416C101.747 22.9838 101.884 23.6556 101.97 24.2572C102.075 23.5424 102.231 22.8431 102.438 22.1595L103.974 16.9506H105.028L106.64 22.2064C106.827 22.8119 106.985 23.4955 107.114 24.2572C107.188 23.7025 107.329 23.0267 107.536 22.2299L108.884 16.9506H109.938L107.647 25.517ZM112.106 25.517H111.134V19.0951H112.106V25.517ZM111.052 17.3549C111.052 17.1322 111.106 16.9701 111.216 16.8685C111.325 16.7631 111.462 16.7103 111.626 16.7103C111.782 16.7103 111.917 16.7631 112.03 16.8685C112.144 16.974 112.2 17.1361 112.2 17.3549C112.2 17.5736 112.144 17.7377 112.03 17.847C111.917 17.9525 111.782 18.0052 111.626 18.0052C111.462 18.0052 111.325 17.9525 111.216 17.847C111.106 17.7377 111.052 17.5736 111.052 17.3549ZM116.243 24.8314C116.415 24.8314 116.581 24.8197 116.741 24.7963C116.901 24.7689 117.028 24.7416 117.122 24.7142V25.4584C117.017 25.5092 116.86 25.5502 116.653 25.5814C116.45 25.6166 116.267 25.6342 116.103 25.6342C114.86 25.6342 114.239 24.9799 114.239 23.6713V19.851H113.319V19.3822L114.239 18.9779L114.649 17.6068H115.212V19.0951H117.075V19.851H115.212V23.6302C115.212 24.017 115.304 24.3138 115.487 24.5209C115.671 24.7279 115.923 24.8314 116.243 24.8314ZM122.806 25.517V21.3627C122.806 20.8392 122.687 20.4486 122.448 20.1908C122.21 19.933 121.837 19.8041 121.329 19.8041C120.653 19.8041 120.159 19.9877 119.847 20.3549C119.538 20.722 119.384 21.3236 119.384 22.1595V25.517H118.411V16.3998H119.384V19.1595C119.384 19.4916 119.368 19.767 119.337 19.9857H119.396C119.587 19.6771 119.858 19.4349 120.21 19.2592C120.565 19.0795 120.97 18.9896 121.423 18.9896C122.208 18.9896 122.796 19.1771 123.187 19.5521C123.581 19.9232 123.778 20.515 123.778 21.3275V25.517H122.806ZM130.153 24.6556H130.101C129.651 25.308 128.979 25.6342 128.085 25.6342C127.245 25.6342 126.591 25.347 126.122 24.7728C125.657 24.1986 125.425 23.3822 125.425 22.3236C125.425 21.265 125.659 20.4427 126.128 19.8568C126.597 19.2709 127.249 18.9779 128.085 18.9779C128.956 18.9779 129.624 19.2943 130.089 19.9271H130.165L130.124 19.4642L130.101 19.0131V16.3998H131.073V25.517H130.282L130.153 24.6556ZM128.208 24.8197C128.872 24.8197 129.353 24.64 129.649 24.2806C129.95 23.9174 130.101 23.3334 130.101 22.5287V22.3236C130.101 21.4135 129.948 20.765 129.644 20.3783C129.343 19.9877 128.86 19.7924 128.196 19.7924C127.626 19.7924 127.188 20.015 126.884 20.4603C126.583 20.9017 126.433 21.5267 126.433 22.3353C126.433 23.1556 126.583 23.7748 126.884 24.1927C127.185 24.6107 127.626 24.8197 128.208 24.8197ZM136.071 18.9779C136.356 18.9779 136.612 19.0013 136.839 19.0482L136.704 19.9506C136.438 19.892 136.204 19.8627 136.001 19.8627C135.481 19.8627 135.036 20.0736 134.665 20.4955C134.298 20.9174 134.114 21.4427 134.114 22.0717V25.517H133.142V19.0951H133.944L134.056 20.2845H134.103C134.341 19.8666 134.628 19.5443 134.964 19.3177C135.3 19.0912 135.669 18.9779 136.071 18.9779ZM141.989 25.517L141.796 24.6029H141.749C141.429 25.0052 141.108 25.2787 140.788 25.4232C140.472 25.5638 140.075 25.6342 139.599 25.6342C138.962 25.6342 138.462 25.4701 138.099 25.142C137.739 24.8138 137.56 24.347 137.56 23.7416C137.56 22.4447 138.597 21.765 140.671 21.7025L141.761 21.6674V21.2689C141.761 20.765 141.651 20.3939 141.433 20.1556C141.218 19.9135 140.872 19.7924 140.396 19.7924C139.86 19.7924 139.255 19.9564 138.579 20.2845L138.28 19.5404C138.597 19.3685 138.942 19.2338 139.317 19.1361C139.696 19.0385 140.075 18.9896 140.454 18.9896C141.22 18.9896 141.786 19.1595 142.153 19.4994C142.524 19.8392 142.71 20.3842 142.71 21.1342V25.517H141.989ZM139.792 24.8314C140.397 24.8314 140.872 24.6654 141.216 24.3334C141.563 24.0013 141.737 23.5365 141.737 22.9388V22.3588L140.765 22.3998C139.991 22.4271 139.433 22.5482 139.089 22.7631C138.749 22.974 138.579 23.3041 138.579 23.7533C138.579 24.1049 138.685 24.3724 138.896 24.556C139.11 24.7396 139.409 24.8314 139.792 24.8314ZM149.964 25.517L148.786 21.7494C148.712 21.5189 148.573 20.9955 148.37 20.1791H148.323C148.167 20.8627 148.03 21.39 147.913 21.7611L146.7 25.517H145.575L143.823 19.0951H144.843C145.257 20.7084 145.571 21.9369 145.786 22.7806C146.005 23.6244 146.13 24.1927 146.161 24.4857H146.208C146.251 24.2631 146.319 23.976 146.413 23.6244C146.511 23.2689 146.595 22.9877 146.665 22.7806L147.843 19.0951H148.897L150.046 22.7806C150.265 23.4525 150.413 24.017 150.491 24.474H150.538C150.554 24.3334 150.595 24.1166 150.661 23.8236C150.731 23.5306 151.14 21.9545 151.886 19.0951H152.894L151.118 25.517H149.964ZM158.009 25.517L157.815 24.6029H157.769C157.448 25.0052 157.128 25.2787 156.808 25.4232C156.491 25.5638 156.095 25.6342 155.618 25.6342C154.981 25.6342 154.481 25.4701 154.118 25.142C153.759 24.8138 153.579 24.347 153.579 23.7416C153.579 22.4447 154.616 21.765 156.69 21.7025L157.78 21.6674V21.2689C157.78 20.765 157.671 20.3939 157.452 20.1556C157.237 19.9135 156.892 19.7924 156.415 19.7924C155.88 19.7924 155.274 19.9564 154.599 20.2845L154.3 19.5404C154.616 19.3685 154.962 19.2338 155.337 19.1361C155.716 19.0385 156.095 18.9896 156.474 18.9896C157.239 18.9896 157.806 19.1595 158.173 19.4994C158.544 19.8392 158.729 20.3842 158.729 21.1342V25.517H158.009ZM155.812 24.8314C156.417 24.8314 156.892 24.6654 157.235 24.3334C157.583 24.0013 157.757 23.5365 157.757 22.9388V22.3588L156.784 22.3998C156.011 22.4271 155.452 22.5482 155.108 22.7631C154.769 22.974 154.599 23.3041 154.599 23.7533C154.599 24.1049 154.704 24.3724 154.915 24.556C155.13 24.7396 155.429 24.8314 155.812 24.8314ZM161.712 25.517H160.739V16.3998H161.712V25.517Z" fill="#00031A"/>
<path d="M81.0371 47.517H77.5742L71.9844 37.7963H71.9053C72.0166 39.5131 72.0723 40.7377 72.0723 41.4701V47.517H69.6377V34.6674H73.0742L78.6553 44.2914H78.7168C78.6289 42.6215 78.585 41.4408 78.585 40.7494V34.6674H81.0371V47.517ZM90.0986 47.517H87.3828V40.0814L87.4092 38.8597L87.4531 37.5238C87.002 37.975 86.6885 38.2709 86.5127 38.4115L85.0361 39.598L83.7266 37.9633L87.8662 34.6674H90.0986V47.517ZM102.579 41.0922C102.579 43.3363 102.21 44.9974 101.472 46.0756C100.739 47.1537 99.6084 47.6927 98.0791 47.6927C96.5967 47.6927 95.4775 47.1361 94.7217 46.0228C93.9717 44.9095 93.5967 43.266 93.5967 41.0922C93.5967 38.8246 93.9629 37.1547 94.6953 36.0824C95.4277 35.0043 96.5557 34.4652 98.0791 34.4652C99.5615 34.4652 100.681 35.0277 101.437 36.1527C102.198 37.2777 102.579 38.9242 102.579 41.0922ZM96.2949 41.0922C96.2949 42.6683 96.4297 43.7992 96.6992 44.4847C96.9746 45.1644 97.4346 45.5043 98.0791 45.5043C98.7119 45.5043 99.1689 45.1586 99.4502 44.4672C99.7314 43.7758 99.8721 42.6508 99.8721 41.0922C99.8721 39.516 99.7285 38.3851 99.4414 37.6996C99.1602 37.0082 98.7061 36.6625 98.0791 36.6625C97.4404 36.6625 96.9834 37.0082 96.708 37.6996C96.4326 38.3851 96.2949 39.516 96.2949 41.0922ZM107.264 45.6273C106.959 46.8109 106.443 48.2142 105.717 49.8373H103.783C104.164 48.2787 104.46 46.808 104.671 45.4252H107.132L107.264 45.6273ZM113.847 39.308C115.089 39.308 116.076 39.6566 116.809 40.3539C117.547 41.0511 117.916 42.0062 117.916 43.2191C117.916 44.6547 117.474 45.7592 116.589 46.5326C115.704 47.306 114.438 47.6927 112.792 47.6927C111.362 47.6927 110.208 47.4613 109.329 46.9984V44.6517C109.792 44.8978 110.331 45.1 110.946 45.2582C111.562 45.4105 112.145 45.4867 112.695 45.4867C114.354 45.4867 115.183 44.807 115.183 43.4476C115.183 42.1527 114.324 41.5052 112.607 41.5052C112.297 41.5052 111.954 41.5375 111.579 41.6019C111.204 41.6605 110.899 41.725 110.665 41.7953L109.584 41.2152L110.067 34.6674H117.037V36.9701H112.449L112.212 39.4926L112.52 39.431C112.877 39.349 113.319 39.308 113.847 39.308ZM128.384 40.1517C128.384 42.683 127.851 44.5726 126.784 45.8207C125.718 47.0687 124.104 47.6927 121.941 47.6927C121.18 47.6927 120.603 47.6517 120.21 47.5697V45.39C120.702 45.5131 121.218 45.5746 121.757 45.5746C122.665 45.5746 123.412 45.4427 123.998 45.1791C124.584 44.9095 125.032 44.4906 125.343 43.9222C125.653 43.348 125.832 42.5599 125.879 41.558H125.773C125.434 42.1088 125.041 42.4955 124.596 42.7181C124.15 42.9408 123.594 43.0521 122.926 43.0521C121.807 43.0521 120.925 42.6947 120.28 41.9799C119.636 41.2592 119.313 40.2601 119.313 38.9828C119.313 37.6058 119.703 36.5189 120.482 35.722C121.268 34.9193 122.334 34.5179 123.682 34.5179C124.631 34.5179 125.46 34.7406 126.169 35.1859C126.884 35.6312 127.432 36.2787 127.812 37.1283C128.193 37.972 128.384 38.9799 128.384 40.1517ZM123.734 36.6976C123.172 36.6976 122.732 36.891 122.416 37.2777C122.1 37.6644 121.941 38.2211 121.941 38.9476C121.941 39.5687 122.085 40.0609 122.372 40.4242C122.659 40.7875 123.096 40.9691 123.682 40.9691C124.232 40.9691 124.704 40.7904 125.097 40.433C125.489 40.0697 125.686 39.6537 125.686 39.1849C125.686 38.4877 125.501 37.8988 125.132 37.4183C124.769 36.9379 124.303 36.6976 123.734 36.6976ZM129.649 42.059C129.649 39.516 130.186 37.6234 131.258 36.3812C132.336 35.139 133.947 34.5179 136.092 34.5179C136.824 34.5179 137.398 34.5619 137.814 34.6498V36.8207C137.293 36.7035 136.777 36.6449 136.268 36.6449C135.336 36.6449 134.574 36.7855 133.982 37.0668C133.396 37.348 132.957 37.764 132.664 38.3148C132.371 38.8656 132.198 39.6478 132.146 40.6615H132.26C132.84 39.6654 133.769 39.1674 135.046 39.1674C136.194 39.1674 137.094 39.5277 137.744 40.2484C138.395 40.9691 138.72 41.9652 138.72 43.2367C138.72 44.6078 138.333 45.6947 137.56 46.4974C136.786 47.2943 135.714 47.6927 134.343 47.6927C133.394 47.6927 132.564 47.473 131.855 47.0336C131.152 46.5941 130.607 45.9525 130.221 45.1088C129.84 44.265 129.649 43.2484 129.649 42.059ZM134.29 45.5219C134.87 45.5219 135.315 45.3285 135.626 44.9418C135.937 44.5492 136.092 43.9926 136.092 43.2719C136.092 42.6449 135.945 42.1527 135.652 41.7953C135.365 41.432 134.929 41.2504 134.343 41.2504C133.792 41.2504 133.32 41.4291 132.928 41.7865C132.541 42.1439 132.348 42.5599 132.348 43.0345C132.348 43.7318 132.529 44.3207 132.893 44.8011C133.262 45.2816 133.728 45.5219 134.29 45.5219ZM140.328 46.2601C140.328 45.7679 140.46 45.3959 140.724 45.1439C140.987 44.892 141.371 44.766 141.875 44.766C142.361 44.766 142.736 44.8949 143 45.1527C143.27 45.4105 143.404 45.7797 143.404 46.2601C143.404 46.723 143.27 47.0892 143 47.3588C142.73 47.6224 142.355 47.7543 141.875 47.7543C141.383 47.7543 141.002 47.6254 140.732 47.3676C140.463 47.1039 140.328 46.7347 140.328 46.2601ZM149.583 34.5004C150.813 34.5004 151.804 34.7816 152.554 35.3441C153.31 35.9008 153.688 36.6537 153.688 37.6029C153.688 38.2592 153.506 38.8451 153.143 39.3607C152.779 39.8705 152.193 40.3275 151.385 40.7318C152.346 41.2474 153.034 41.7865 153.45 42.349C153.872 42.9056 154.083 43.5179 154.083 44.1859C154.083 45.2406 153.67 46.0902 152.844 46.7347C152.018 47.3734 150.931 47.6927 149.583 47.6927C148.177 47.6927 147.072 47.3939 146.27 46.7963C145.467 46.1986 145.065 45.3519 145.065 44.2562C145.065 43.5238 145.259 42.8734 145.646 42.3051C146.038 41.7367 146.665 41.2357 147.526 40.8021C146.794 40.3392 146.267 39.8441 145.944 39.3168C145.622 38.7894 145.461 38.2123 145.461 37.5853C145.461 36.6654 145.842 35.9213 146.604 35.3529C147.365 34.7845 148.358 34.5004 149.583 34.5004ZM147.579 44.098C147.579 44.6019 147.755 44.9945 148.106 45.2758C148.458 45.557 148.938 45.6976 149.548 45.6976C150.222 45.6976 150.726 45.5541 151.06 45.267C151.394 44.974 151.561 44.5902 151.561 44.1156C151.561 43.723 151.394 43.3568 151.06 43.017C150.731 42.6713 150.195 42.3051 149.451 41.9183C148.203 42.4926 147.579 43.2191 147.579 44.098ZM149.565 36.4867C149.103 36.4867 148.728 36.6068 148.44 36.847C148.159 37.0814 148.019 37.3978 148.019 37.7963C148.019 38.1478 148.13 38.4642 148.353 38.7455C148.581 39.0209 148.991 39.3051 149.583 39.598C150.157 39.3285 150.559 39.0531 150.787 38.7719C151.016 38.4906 151.13 38.1654 151.13 37.7963C151.13 37.392 150.983 37.0726 150.69 36.8383C150.397 36.6039 150.022 36.4867 149.565 36.4867ZM164.349 41.0922C164.349 43.3363 163.979 44.9974 163.241 46.0756C162.509 47.1537 161.378 47.6927 159.849 47.6927C158.366 47.6927 157.247 47.1361 156.491 46.0228C155.741 44.9095 155.366 43.266 155.366 41.0922C155.366 38.8246 155.732 37.1547 156.465 36.0824C157.197 35.0043 158.325 34.4652 159.849 34.4652C161.331 34.4652 162.45 35.0277 163.206 36.1527C163.968 37.2777 164.349 38.9242 164.349 41.0922ZM158.064 41.0922C158.064 42.6683 158.199 43.7992 158.469 44.4847C158.744 45.1644 159.204 45.5043 159.849 45.5043C160.481 45.5043 160.938 45.1586 161.22 44.4672C161.501 43.7758 161.642 42.6508 161.642 41.0922C161.642 39.516 161.498 38.3851 161.211 37.6996C160.93 37.0082 160.476 36.6625 159.849 36.6625C159.21 36.6625 158.753 37.0082 158.478 37.6996C158.202 38.3851 158.064 39.516 158.064 41.0922Z" fill="#00031A"/>
<rect x="124.515" y="143.253" width="150.506" height="65" rx="13" fill="white"/>
<rect x="134.515" y="153.253" width="45.5058" height="45" rx="7.89474" fill="#FF99A3"/>
<path fill-rule="evenodd" clip-rule="evenodd" d="M164.099 176.232L161.835 174.203L158.797 182.166L164.099 176.232ZM158.692 178.453L160.866 172.756C160.866 172.755 160.867 172.753 160.868 172.752L161.42 171.305L158.692 170.261V178.453ZM157.438 181.74H153.254L156.905 183.137L157.438 181.74ZM156.662 184.554L152.758 183.06L155.668 185.667L156.662 184.554ZM150.15 180.332H157.268V167.661H150.15V180.332ZM165.632 176.643L156.257 187.133C156.131 187.275 155.953 187.36 155.763 187.37C155.75 187.37 155.737 187.371 155.723 187.371C155.547 187.371 155.376 187.306 155.245 187.189L148.96 181.556C148.957 181.554 148.956 181.55 148.953 181.548C148.949 181.544 148.944 181.542 148.941 181.538C148.899 181.498 148.872 181.447 148.841 181.398C148.825 181.372 148.803 181.35 148.79 181.324C148.789 181.321 148.787 181.32 148.786 181.317C148.771 181.282 148.77 181.242 148.761 181.205C148.759 181.201 148.758 181.196 148.757 181.191C148.747 181.148 148.729 181.107 148.728 181.063C148.727 181.057 148.728 181.051 148.728 181.046C148.728 181.042 148.726 181.039 148.726 181.036V166.957C148.726 166.568 149.045 166.253 149.438 166.253H157.98C158.373 166.253 158.691 166.568 158.691 166.957V168.751L162.592 170.243C162.957 170.383 163.139 170.787 163.001 171.149L162.376 172.787L165.576 175.656C165.865 175.915 165.89 176.355 165.632 176.643ZM152.997 172.941C152.997 173.135 153.156 173.293 153.353 173.293H154.065C155.046 173.293 155.844 174.082 155.844 175.052C155.844 175.903 155.232 176.613 154.421 176.776V177.516C154.421 177.905 154.103 178.22 153.709 178.22C153.316 178.22 152.997 177.905 152.997 177.516V176.812H152.285C151.892 176.812 151.573 176.498 151.573 176.108C151.573 175.719 151.892 175.404 152.285 175.404H154.066C154.261 175.404 154.421 175.247 154.421 175.052C154.421 174.859 154.261 174.7 154.065 174.7H153.353C152.372 174.7 151.573 173.911 151.573 172.941C151.573 172.09 152.186 171.38 152.997 171.217V170.477C152.997 170.088 153.316 169.773 153.709 169.773C154.103 169.773 154.421 170.088 154.421 170.477V171.181H155.133C155.526 171.181 155.844 171.495 155.844 171.885C155.844 172.274 155.526 172.589 155.133 172.589H153.353C153.156 172.589 152.997 172.747 152.997 172.941Z" fill="#00031A"/>
<path d="M195.835 168.253H194.839V160.572H192.126V159.687H198.548V160.572H195.835V168.253ZM205.239 165.037C205.239 166.083 204.976 166.902 204.448 167.492C203.921 168.078 203.192 168.371 202.263 168.371C201.689 168.371 201.179 168.236 200.733 167.966C200.288 167.697 199.944 167.31 199.702 166.806C199.46 166.302 199.339 165.712 199.339 165.037C199.339 163.99 199.601 163.175 200.124 162.593C200.647 162.007 201.374 161.714 202.304 161.714C203.202 161.714 203.915 162.013 204.442 162.611C204.974 163.208 205.239 164.017 205.239 165.037ZM200.347 165.037C200.347 165.857 200.511 166.482 200.839 166.912C201.167 167.341 201.649 167.556 202.286 167.556C202.923 167.556 203.405 167.343 203.733 166.917C204.065 166.488 204.231 165.861 204.231 165.037C204.231 164.22 204.065 163.601 203.733 163.179C203.405 162.753 202.919 162.541 202.274 162.541C201.638 162.541 201.157 162.75 200.833 163.167C200.509 163.585 200.347 164.208 200.347 165.037ZM209.024 167.568C209.196 167.568 209.362 167.556 209.522 167.533C209.683 167.505 209.81 167.478 209.903 167.451V168.195C209.798 168.246 209.642 168.287 209.435 168.318C209.231 168.353 209.048 168.371 208.884 168.371C207.642 168.371 207.021 167.716 207.021 166.408V162.587H206.101V162.119L207.021 161.714L207.431 160.343H207.993V161.832H209.856V162.587H207.993V166.367C207.993 166.753 208.085 167.05 208.269 167.257C208.452 167.464 208.704 167.568 209.024 167.568ZM215.142 168.253L214.948 167.339H214.901C214.581 167.742 214.261 168.015 213.94 168.16C213.624 168.3 213.228 168.371 212.751 168.371C212.114 168.371 211.614 168.207 211.251 167.878C210.892 167.55 210.712 167.083 210.712 166.478C210.712 165.181 211.749 164.501 213.823 164.439L214.913 164.404V164.005C214.913 163.501 214.804 163.13 214.585 162.892C214.37 162.65 214.024 162.529 213.548 162.529C213.013 162.529 212.407 162.693 211.731 163.021L211.433 162.277C211.749 162.105 212.095 161.97 212.47 161.873C212.849 161.775 213.228 161.726 213.606 161.726C214.372 161.726 214.939 161.896 215.306 162.236C215.677 162.576 215.862 163.121 215.862 163.871V168.253H215.142ZM212.944 167.568C213.55 167.568 214.024 167.402 214.368 167.07C214.716 166.738 214.89 166.273 214.89 165.675V165.095L213.917 165.136C213.144 165.164 212.585 165.285 212.241 165.5C211.901 165.71 211.731 166.041 211.731 166.49C211.731 166.841 211.837 167.109 212.048 167.292C212.263 167.476 212.562 167.568 212.944 167.568ZM218.845 168.253H217.872V159.136H218.845V168.253ZM228.396 167.392H228.343C227.894 168.044 227.222 168.371 226.327 168.371C225.487 168.371 224.833 168.083 224.364 167.509C223.899 166.935 223.667 166.119 223.667 165.06C223.667 164.001 223.901 163.179 224.37 162.593C224.839 162.007 225.491 161.714 226.327 161.714C227.198 161.714 227.866 162.031 228.331 162.664H228.407L228.366 162.201L228.343 161.75V159.136H229.315V168.253H228.524L228.396 167.392ZM226.45 167.556C227.114 167.556 227.595 167.376 227.892 167.017C228.192 166.654 228.343 166.07 228.343 165.265V165.06C228.343 164.15 228.19 163.501 227.886 163.115C227.585 162.724 227.103 162.529 226.439 162.529C225.868 162.529 225.431 162.751 225.126 163.197C224.825 163.638 224.675 164.263 224.675 165.072C224.675 165.892 224.825 166.511 225.126 166.929C225.427 167.347 225.868 167.556 226.45 167.556ZM234.097 168.371C233.147 168.371 232.397 168.082 231.847 167.503C231.3 166.925 231.026 166.123 231.026 165.095C231.026 164.06 231.28 163.238 231.788 162.628C232.3 162.019 232.985 161.714 233.845 161.714C234.649 161.714 235.286 161.98 235.755 162.511C236.224 163.039 236.458 163.736 236.458 164.603V165.218H232.034C232.054 165.972 232.243 166.544 232.603 166.935C232.966 167.326 233.476 167.521 234.132 167.521C234.823 167.521 235.507 167.376 236.183 167.087V167.955C235.839 168.103 235.513 168.208 235.204 168.271C234.899 168.337 234.53 168.371 234.097 168.371ZM233.833 162.529C233.317 162.529 232.905 162.697 232.597 163.033C232.292 163.369 232.112 163.833 232.058 164.427H235.415C235.415 163.814 235.278 163.345 235.005 163.021C234.731 162.693 234.341 162.529 233.833 162.529ZM241.11 168.371C240.692 168.371 240.31 168.294 239.962 168.142C239.618 167.986 239.329 167.748 239.095 167.427H239.024C239.071 167.802 239.095 168.158 239.095 168.494V171.136H238.122V161.832H238.913L239.048 162.71H239.095C239.345 162.359 239.636 162.105 239.968 161.949C240.3 161.792 240.681 161.714 241.11 161.714C241.962 161.714 242.618 162.005 243.079 162.587C243.544 163.169 243.776 163.986 243.776 165.037C243.776 166.091 243.54 166.912 243.067 167.498C242.599 168.08 241.946 168.371 241.11 168.371ZM240.97 162.541C240.314 162.541 239.839 162.722 239.546 163.085C239.253 163.449 239.103 164.027 239.095 164.82V165.037C239.095 165.939 239.245 166.585 239.546 166.976C239.847 167.363 240.329 167.556 240.993 167.556C241.548 167.556 241.981 167.332 242.294 166.882C242.61 166.433 242.769 165.814 242.769 165.025C242.769 164.224 242.61 163.611 242.294 163.185C241.981 162.755 241.54 162.541 240.97 162.541ZM251.024 165.037C251.024 166.083 250.761 166.902 250.233 167.492C249.706 168.078 248.978 168.371 248.048 168.371C247.474 168.371 246.964 168.236 246.519 167.966C246.073 167.697 245.73 167.31 245.487 166.806C245.245 166.302 245.124 165.712 245.124 165.037C245.124 163.99 245.386 163.175 245.909 162.593C246.433 162.007 247.159 161.714 248.089 161.714C248.987 161.714 249.7 162.013 250.228 162.611C250.759 163.208 251.024 164.017 251.024 165.037ZM246.132 165.037C246.132 165.857 246.296 166.482 246.624 166.912C246.952 167.341 247.435 167.556 248.071 167.556C248.708 167.556 249.19 167.343 249.519 166.917C249.851 166.488 250.017 165.861 250.017 165.037C250.017 164.22 249.851 163.601 249.519 163.179C249.19 162.753 248.704 162.541 248.06 162.541C247.423 162.541 246.942 162.75 246.618 163.167C246.294 163.585 246.132 164.208 246.132 165.037ZM256.878 166.501C256.878 167.099 256.655 167.56 256.21 167.884C255.765 168.208 255.14 168.371 254.335 168.371C253.483 168.371 252.819 168.236 252.343 167.966V167.064C252.651 167.22 252.981 167.343 253.333 167.433C253.689 167.523 254.03 167.568 254.358 167.568C254.866 167.568 255.257 167.488 255.53 167.328C255.804 167.164 255.94 166.916 255.94 166.583C255.94 166.333 255.831 166.121 255.612 165.945C255.397 165.765 254.976 165.554 254.347 165.312C253.749 165.089 253.323 164.896 253.069 164.732C252.819 164.564 252.632 164.375 252.507 164.164C252.386 163.953 252.325 163.701 252.325 163.408C252.325 162.884 252.538 162.472 252.964 162.171C253.39 161.867 253.974 161.714 254.716 161.714C255.407 161.714 256.083 161.855 256.743 162.136L256.397 162.927C255.753 162.662 255.169 162.529 254.646 162.529C254.185 162.529 253.837 162.601 253.603 162.746C253.368 162.89 253.251 163.089 253.251 163.343C253.251 163.515 253.294 163.662 253.38 163.783C253.47 163.904 253.612 164.019 253.808 164.128C254.003 164.238 254.378 164.396 254.933 164.603C255.694 164.88 256.208 165.16 256.474 165.441C256.743 165.722 256.878 166.076 256.878 166.501ZM259.439 168.253H258.466V161.832H259.439V168.253ZM258.384 160.091C258.384 159.869 258.439 159.707 258.548 159.605C258.657 159.5 258.794 159.447 258.958 159.447C259.114 159.447 259.249 159.5 259.362 159.605C259.476 159.71 259.532 159.873 259.532 160.091C259.532 160.31 259.476 160.474 259.362 160.583C259.249 160.689 259.114 160.742 258.958 160.742C258.794 160.742 258.657 160.689 258.548 160.583C258.439 160.474 258.384 160.31 258.384 160.091ZM263.575 167.568C263.747 167.568 263.913 167.556 264.073 167.533C264.233 167.505 264.36 167.478 264.454 167.451V168.195C264.349 168.246 264.192 168.287 263.985 168.318C263.782 168.353 263.599 168.371 263.435 168.371C262.192 168.371 261.571 167.716 261.571 166.408V162.587H260.651V162.119L261.571 161.714L261.981 160.343H262.544V161.832H264.407V162.587H262.544V166.367C262.544 166.753 262.636 167.05 262.819 167.257C263.003 167.464 263.255 167.568 263.575 167.568Z" fill="#00031A"/>
<path d="M201.618 186.237C201.618 187.168 201.281 187.918 200.607 188.487C199.934 189.049 198.99 189.386 197.777 189.498V191.299H196.573V189.533C195.144 189.503 193.89 189.251 192.812 188.777V186.457C193.321 186.708 193.934 186.931 194.648 187.125C195.369 187.318 196.011 187.432 196.573 187.467V184.743L195.984 184.514C194.824 184.057 194.001 183.562 193.515 183.029C193.034 182.49 192.794 181.825 192.794 181.034C192.794 180.184 193.125 179.487 193.787 178.942C194.455 178.391 195.384 178.057 196.573 177.94V176.595H197.777V177.905C199.119 177.963 200.332 178.233 201.416 178.713L200.59 180.77C199.676 180.395 198.738 180.167 197.777 180.084V182.677C198.92 183.117 199.731 183.498 200.212 183.82C200.698 184.142 201.053 184.497 201.275 184.883C201.504 185.27 201.618 185.721 201.618 186.237ZM198.973 186.369C198.973 186.123 198.873 185.915 198.674 185.745C198.475 185.575 198.176 185.399 197.777 185.217V187.406C198.574 187.271 198.973 186.925 198.973 186.369ZM195.439 181.034C195.439 181.292 195.527 181.505 195.703 181.675C195.885 181.839 196.175 182.009 196.573 182.185V180.12C195.817 180.231 195.439 180.536 195.439 181.034ZM207.7 182.044C208.942 182.044 209.93 182.393 210.662 183.09C211.4 183.788 211.77 184.743 211.77 185.956C211.77 187.391 211.327 188.496 210.442 189.269C209.558 190.042 208.292 190.429 206.646 190.429C205.216 190.429 204.062 190.198 203.183 189.735V187.388C203.646 187.634 204.185 187.836 204.8 187.995C205.415 188.147 205.998 188.223 206.549 188.223C208.207 188.223 209.036 187.543 209.036 186.184C209.036 184.889 208.178 184.242 206.461 184.242C206.15 184.242 205.808 184.274 205.433 184.338C205.058 184.397 204.753 184.461 204.519 184.532L203.438 183.952L203.921 177.404H210.891V179.707H206.303L206.065 182.229L206.373 182.167C206.73 182.085 207.173 182.044 207.7 182.044ZM222.22 183.829C222.22 186.073 221.851 187.734 221.112 188.812C220.38 189.89 219.249 190.429 217.72 190.429C216.237 190.429 215.118 189.873 214.362 188.759C213.612 187.646 213.237 186.002 213.237 183.829C213.237 181.561 213.604 179.891 214.336 178.819C215.068 177.741 216.196 177.202 217.72 177.202C219.202 177.202 220.321 177.764 221.077 178.889C221.839 180.014 222.22 181.661 222.22 183.829ZM215.936 183.829C215.936 185.405 216.07 186.536 216.34 187.221C216.615 187.901 217.075 188.241 217.72 188.241C218.353 188.241 218.81 187.895 219.091 187.204C219.372 186.512 219.513 185.387 219.513 183.829C219.513 182.252 219.369 181.122 219.082 180.436C218.801 179.745 218.347 179.399 217.72 179.399C217.081 179.399 216.624 179.745 216.349 180.436C216.073 181.122 215.936 182.252 215.936 183.829ZM232.503 183.829C232.503 186.073 232.134 187.734 231.396 188.812C230.663 189.89 229.532 190.429 228.003 190.429C226.521 190.429 225.401 189.873 224.646 188.759C223.896 187.646 223.521 186.002 223.521 183.829C223.521 181.561 223.887 179.891 224.619 178.819C225.352 177.741 226.48 177.202 228.003 177.202C229.485 177.202 230.605 177.764 231.36 178.889C232.122 180.014 232.503 181.661 232.503 183.829ZM226.219 183.829C226.219 185.405 226.354 186.536 226.623 187.221C226.898 187.901 227.358 188.241 228.003 188.241C228.636 188.241 229.093 187.895 229.374 187.204C229.655 186.512 229.796 185.387 229.796 183.829C229.796 182.252 229.652 181.122 229.365 180.436C229.084 179.745 228.63 179.399 228.003 179.399C227.364 179.399 226.907 179.745 226.632 180.436C226.356 181.122 226.219 182.252 226.219 183.829Z" fill="#00031A"/>
<line x1="86.1489" y1="67.429" x2="86.1489" y2="350" stroke="#E4E7FF"/>
<line x1="200.268" y1="208.12" x2="200.268" y2="395.313" stroke="#E4E7FF"/>
</svg>
