<svg width="199" height="399" viewBox="0 0 199 399" fill="none" xmlns="http://www.w3.org/2000/svg">
<rect x="48.458" width="150.506" height="65" rx="13" fill="white"/>
<rect opacity="0.8" x="58.458" y="10" width="45.5058" height="45" rx="7.89474" fill="#ADEBF3"/>
<path fill-rule="evenodd" clip-rule="evenodd" d="M88.0427 32.9789L85.7784 30.9495L82.7402 38.9123L88.0427 32.9789ZM82.6348 35.1996L84.8094 29.5027C84.8094 29.5013 84.8101 29.4999 84.8108 29.4985L85.3632 28.0512L82.6348 27.0073V35.1996ZM81.3814 38.4863H77.1973L80.8483 39.8836L81.3814 38.4863ZM80.6056 41.3006L76.7012 39.8062L79.6112 42.4135L80.6056 41.3006ZM74.0928 37.0785H81.2111V24.4078H74.0928V37.0785ZM89.5751 33.3899L80.2002 43.8798C80.0742 44.0213 79.8962 44.1065 79.7062 44.1163C79.6933 44.117 79.6798 44.1177 79.6663 44.1177C79.4905 44.1177 79.3196 44.053 79.1887 43.9354L72.9031 38.3026C72.9003 38.3005 72.8996 38.297 72.896 38.2942C72.8925 38.2907 72.8875 38.2885 72.8846 38.285C72.8426 38.2442 72.8156 38.1935 72.7843 38.1442C72.7686 38.1189 72.7458 38.0971 72.7337 38.071C72.7323 38.0675 72.7302 38.0661 72.7295 38.0633C72.7138 38.0288 72.7131 37.9887 72.7038 37.9521C72.7024 37.9478 72.7017 37.9429 72.7003 37.938C72.6903 37.8943 72.6725 37.8535 72.6711 37.8092C72.6704 37.8035 72.6711 37.7979 72.6711 37.7923C72.6711 37.7888 72.6689 37.7859 72.6689 37.7824V23.7039C72.6689 23.3147 72.9878 23 73.3808 23H81.9228C82.3165 23 82.6347 23.3147 82.6347 23.7039V25.4975L86.5348 26.9898C86.9 27.1292 87.0822 27.534 86.9441 27.8951L86.3191 29.5331L89.5195 32.4023C89.8078 32.6614 89.8327 33.1013 89.5751 33.3899ZM76.9403 29.6872C76.9403 29.8815 77.0997 30.0392 77.2962 30.0392H78.008C78.9897 30.0392 79.7876 30.8283 79.7876 31.799C79.7876 32.6493 79.1754 33.3596 78.3639 33.5229V34.2627C78.3639 34.652 78.0458 34.9666 77.6521 34.9666C77.2592 34.9666 76.9403 34.652 76.9403 34.2627V33.5588H76.2284C75.8355 33.5588 75.5166 33.2441 75.5166 32.8549C75.5166 32.4656 75.8355 32.1509 76.2284 32.1509H78.0087C78.2045 32.1509 78.3639 31.9933 78.3639 31.799C78.3639 31.6054 78.2045 31.447 78.008 31.447H77.2962C76.3153 31.447 75.5166 30.6579 75.5166 29.6872C75.5166 28.8369 76.1295 28.1266 76.9403 27.9633V27.2235C76.9403 26.8342 77.2592 26.5195 77.6521 26.5195C78.0458 26.5195 78.3639 26.8342 78.3639 27.2235V27.9274H79.0758C79.4694 27.9274 79.7876 28.242 79.7876 28.6313C79.7876 29.0206 79.4694 29.3352 79.0758 29.3352H77.2962C77.0997 29.3352 76.9403 29.4936 76.9403 29.6872Z" fill="#00031A"/>
<path d="M119.778 25H118.782V17.3184H116.069V16.4336H122.491V17.3184H119.778V25ZM129.183 21.7832C129.183 22.8301 128.919 23.6484 128.392 24.2383C127.864 24.8242 127.136 25.1172 126.206 25.1172C125.632 25.1172 125.122 24.9824 124.677 24.7129C124.231 24.4434 123.888 24.0566 123.645 23.5527C123.403 23.0488 123.282 22.459 123.282 21.7832C123.282 20.7363 123.544 19.9219 124.067 19.3398C124.591 18.7539 125.317 18.4609 126.247 18.4609C127.145 18.4609 127.858 18.7598 128.386 19.3574C128.917 19.9551 129.183 20.7637 129.183 21.7832ZM124.29 21.7832C124.29 22.6035 124.454 23.2285 124.782 23.6582C125.11 24.0879 125.593 24.3027 126.229 24.3027C126.866 24.3027 127.349 24.0898 127.677 23.6641C128.009 23.2344 128.175 22.6074 128.175 21.7832C128.175 20.9668 128.009 20.3477 127.677 19.9258C127.349 19.5 126.862 19.2871 126.218 19.2871C125.581 19.2871 125.1 19.4961 124.776 19.9141C124.452 20.332 124.29 20.9551 124.29 21.7832ZM132.968 24.3145C133.14 24.3145 133.306 24.3027 133.466 24.2793C133.626 24.252 133.753 24.2246 133.847 24.1973V24.9414C133.741 24.9922 133.585 25.0332 133.378 25.0645C133.175 25.0996 132.991 25.1172 132.827 25.1172C131.585 25.1172 130.964 24.4629 130.964 23.1543V19.334H130.044V18.8652L130.964 18.4609L131.374 17.0898H131.936V18.5781H133.8V19.334H131.936V23.1133C131.936 23.5 132.028 23.7969 132.212 24.0039C132.395 24.2109 132.647 24.3145 132.968 24.3145ZM139.085 25L138.892 24.0859H138.845C138.524 24.4883 138.204 24.7617 137.884 24.9062C137.567 25.0469 137.171 25.1172 136.694 25.1172C136.058 25.1172 135.558 24.9531 135.194 24.625C134.835 24.2969 134.655 23.8301 134.655 23.2246C134.655 21.9277 135.692 21.248 137.767 21.1855L138.856 21.1504V20.752C138.856 20.248 138.747 19.877 138.528 19.6387C138.313 19.3965 137.968 19.2754 137.491 19.2754C136.956 19.2754 136.35 19.4395 135.675 19.7676L135.376 19.0234C135.692 18.8516 136.038 18.7168 136.413 18.6191C136.792 18.5215 137.171 18.4727 137.55 18.4727C138.315 18.4727 138.882 18.6426 139.249 18.9824C139.62 19.3223 139.806 19.8672 139.806 20.6172V25H139.085ZM136.888 24.3145C137.493 24.3145 137.968 24.1484 138.311 23.8164C138.659 23.4844 138.833 23.0195 138.833 22.4219V21.8418L137.86 21.8828C137.087 21.9102 136.528 22.0312 136.184 22.2461C135.845 22.457 135.675 22.7871 135.675 23.2363C135.675 23.5879 135.78 23.8555 135.991 24.0391C136.206 24.2227 136.505 24.3145 136.888 24.3145ZM142.788 25H141.815V15.8828H142.788V25ZM152.339 24.1387H152.286C151.837 24.791 151.165 25.1172 150.27 25.1172C149.431 25.1172 148.776 24.8301 148.308 24.2559C147.843 23.6816 147.61 22.8652 147.61 21.8066C147.61 20.748 147.845 19.9258 148.313 19.3398C148.782 18.7539 149.434 18.4609 150.27 18.4609C151.142 18.4609 151.809 18.7773 152.274 19.4102H152.35L152.309 18.9473L152.286 18.4961V15.8828H153.259V25H152.468L152.339 24.1387ZM150.393 24.3027C151.058 24.3027 151.538 24.123 151.835 23.7637C152.136 23.4004 152.286 22.8164 152.286 22.0117V21.8066C152.286 20.8965 152.134 20.248 151.829 19.8613C151.528 19.4707 151.046 19.2754 150.382 19.2754C149.811 19.2754 149.374 19.498 149.069 19.9434C148.768 20.3848 148.618 21.0098 148.618 21.8184C148.618 22.6387 148.768 23.2578 149.069 23.6758C149.37 24.0938 149.811 24.3027 150.393 24.3027ZM158.04 25.1172C157.091 25.1172 156.341 24.8281 155.79 24.25C155.243 23.6719 154.97 22.8691 154.97 21.8418C154.97 20.8066 155.224 19.9844 155.731 19.375C156.243 18.7656 156.929 18.4609 157.788 18.4609C158.593 18.4609 159.229 18.7266 159.698 19.2578C160.167 19.7852 160.401 20.4824 160.401 21.3496V21.9648H155.977C155.997 22.7188 156.186 23.291 156.546 23.6816C156.909 24.0723 157.419 24.2676 158.075 24.2676C158.767 24.2676 159.45 24.123 160.126 23.834V24.7012C159.782 24.8496 159.456 24.9551 159.147 25.0176C158.843 25.084 158.474 25.1172 158.04 25.1172ZM157.776 19.2754C157.261 19.2754 156.849 19.4434 156.54 19.7793C156.235 20.1152 156.056 20.5801 156.001 21.1738H159.358C159.358 20.5605 159.222 20.0918 158.948 19.7676C158.675 19.4395 158.284 19.2754 157.776 19.2754ZM165.054 25.1172C164.636 25.1172 164.253 25.041 163.905 24.8887C163.561 24.7324 163.272 24.4941 163.038 24.1738H162.968C163.015 24.5488 163.038 24.9043 163.038 25.2402V27.8828H162.065V18.5781H162.856L162.991 19.457H163.038C163.288 19.1055 163.579 18.8516 163.911 18.6953C164.243 18.5391 164.624 18.4609 165.054 18.4609C165.905 18.4609 166.561 18.752 167.022 19.334C167.487 19.916 167.72 20.7324 167.72 21.7832C167.72 22.8379 167.483 23.6582 167.011 24.2441C166.542 24.8262 165.89 25.1172 165.054 25.1172ZM164.913 19.2871C164.257 19.2871 163.782 19.4688 163.489 19.832C163.196 20.1953 163.046 20.7734 163.038 21.5664V21.7832C163.038 22.6855 163.188 23.332 163.489 23.7227C163.79 24.1094 164.272 24.3027 164.936 24.3027C165.491 24.3027 165.925 24.0781 166.237 23.6289C166.554 23.1797 166.712 22.5605 166.712 21.7715C166.712 20.9707 166.554 20.3574 166.237 19.9316C165.925 19.502 165.483 19.2871 164.913 19.2871ZM174.968 21.7832C174.968 22.8301 174.704 23.6484 174.177 24.2383C173.649 24.8242 172.921 25.1172 171.991 25.1172C171.417 25.1172 170.907 24.9824 170.462 24.7129C170.017 24.4434 169.673 24.0566 169.431 23.5527C169.188 23.0488 169.067 22.459 169.067 21.7832C169.067 20.7363 169.329 19.9219 169.852 19.3398C170.376 18.7539 171.102 18.4609 172.032 18.4609C172.931 18.4609 173.643 18.7598 174.171 19.3574C174.702 19.9551 174.968 20.7637 174.968 21.7832ZM170.075 21.7832C170.075 22.6035 170.239 23.2285 170.567 23.6582C170.895 24.0879 171.378 24.3027 172.015 24.3027C172.651 24.3027 173.134 24.0898 173.462 23.6641C173.794 23.2344 173.96 22.6074 173.96 21.7832C173.96 20.9668 173.794 20.3477 173.462 19.9258C173.134 19.5 172.647 19.2871 172.003 19.2871C171.366 19.2871 170.886 19.4961 170.561 19.9141C170.237 20.332 170.075 20.9551 170.075 21.7832ZM180.821 23.248C180.821 23.8457 180.599 24.3066 180.153 24.6309C179.708 24.9551 179.083 25.1172 178.278 25.1172C177.427 25.1172 176.763 24.9824 176.286 24.7129V23.8105C176.595 23.9668 176.925 24.0898 177.276 24.1797C177.632 24.2695 177.974 24.3145 178.302 24.3145C178.809 24.3145 179.2 24.2344 179.474 24.0742C179.747 23.9102 179.884 23.6621 179.884 23.3301C179.884 23.0801 179.774 22.8672 179.556 22.6914C179.341 22.5117 178.919 22.3008 178.29 22.0586C177.692 21.8359 177.267 21.6426 177.013 21.4785C176.763 21.3105 176.575 21.1211 176.45 20.9102C176.329 20.6992 176.268 20.4473 176.268 20.1543C176.268 19.6309 176.481 19.2188 176.907 18.918C177.333 18.6133 177.917 18.4609 178.659 18.4609C179.35 18.4609 180.026 18.6016 180.686 18.8828L180.341 19.6738C179.696 19.4082 179.112 19.2754 178.589 19.2754C178.128 19.2754 177.78 19.3477 177.546 19.4922C177.311 19.6367 177.194 19.8359 177.194 20.0898C177.194 20.2617 177.237 20.4082 177.323 20.5293C177.413 20.6504 177.556 20.7656 177.751 20.875C177.946 20.9844 178.321 21.1426 178.876 21.3496C179.638 21.627 180.151 21.9062 180.417 22.1875C180.686 22.4688 180.821 22.8223 180.821 23.248ZM183.382 25H182.409V18.5781H183.382V25ZM182.327 16.8379C182.327 16.6152 182.382 16.4531 182.491 16.3516C182.6 16.2461 182.737 16.1934 182.901 16.1934C183.058 16.1934 183.192 16.2461 183.306 16.3516C183.419 16.457 183.475 16.6191 183.475 16.8379C183.475 17.0566 183.419 17.2207 183.306 17.3301C183.192 17.4355 183.058 17.4883 182.901 17.4883C182.737 17.4883 182.6 17.4355 182.491 17.3301C182.382 17.2207 182.327 17.0566 182.327 16.8379ZM187.518 24.3145C187.69 24.3145 187.856 24.3027 188.017 24.2793C188.177 24.252 188.304 24.2246 188.397 24.1973V24.9414C188.292 24.9922 188.136 25.0332 187.929 25.0645C187.725 25.0996 187.542 25.1172 187.378 25.1172C186.136 25.1172 185.515 24.4629 185.515 23.1543V19.334H184.595V18.8652L185.515 18.4609L185.925 17.0898H186.487V18.5781H188.35V19.334H186.487V23.1133C186.487 23.5 186.579 23.7969 186.763 24.0039C186.946 24.2109 187.198 24.3145 187.518 24.3145Z" fill="#00031A"/>
<path d="M125.561 42.9834C125.561 43.915 125.225 44.665 124.551 45.2334C123.877 45.7959 122.934 46.1328 121.721 46.2441V48.0459H120.517V46.2793C119.087 46.25 117.833 45.998 116.755 45.5234V43.2031C117.265 43.4551 117.877 43.6777 118.592 43.8711C119.312 44.0645 119.954 44.1787 120.517 44.2139V41.4893L119.928 41.2607C118.767 40.8037 117.944 40.3086 117.458 39.7754C116.977 39.2363 116.737 38.5713 116.737 37.7803C116.737 36.9307 117.068 36.2334 117.73 35.6885C118.398 35.1377 119.327 34.8037 120.517 34.6865V33.3418H121.721V34.6514C123.062 34.71 124.275 34.9795 125.359 35.46L124.533 37.5166C123.619 37.1416 122.682 36.9131 121.721 36.8311V39.4238C122.863 39.8633 123.675 40.2441 124.155 40.5664C124.642 40.8887 124.996 41.2432 125.219 41.6299C125.447 42.0166 125.561 42.4678 125.561 42.9834ZM122.916 43.1152C122.916 42.8691 122.816 42.6611 122.617 42.4912C122.418 42.3213 122.119 42.1455 121.721 41.9639V44.1523C122.517 44.0176 122.916 43.6719 122.916 43.1152ZM119.383 37.7803C119.383 38.0381 119.471 38.252 119.646 38.4219C119.828 38.5859 120.118 38.7559 120.517 38.9316V36.8662C119.761 36.9775 119.383 37.2822 119.383 37.7803ZM131.643 38.791C132.886 38.791 133.873 39.1396 134.605 39.8369C135.344 40.5342 135.713 41.4893 135.713 42.7021C135.713 44.1377 135.27 45.2422 134.386 46.0156C133.501 46.7891 132.235 47.1758 130.589 47.1758C129.159 47.1758 128.005 46.9443 127.126 46.4814V44.1348C127.589 44.3809 128.128 44.583 128.743 44.7412C129.358 44.8936 129.941 44.9697 130.492 44.9697C132.15 44.9697 132.979 44.29 132.979 42.9307C132.979 41.6357 132.121 40.9883 130.404 40.9883C130.094 40.9883 129.751 41.0205 129.376 41.085C129.001 41.1436 128.696 41.208 128.462 41.2783L127.381 40.6982L127.864 34.1504H134.834V36.4531H130.246L130.009 38.9756L130.316 38.9141C130.674 38.832 131.116 38.791 131.643 38.791ZM146.163 40.5752C146.163 42.8193 145.794 44.4805 145.056 45.5586C144.323 46.6367 143.192 47.1758 141.663 47.1758C140.181 47.1758 139.061 46.6191 138.306 45.5059C137.556 44.3926 137.181 42.749 137.181 40.5752C137.181 38.3076 137.547 36.6377 138.279 35.5654C139.012 34.4873 140.14 33.9482 141.663 33.9482C143.145 33.9482 144.265 34.5107 145.02 35.6357C145.782 36.7607 146.163 38.4072 146.163 40.5752ZM139.879 40.5752C139.879 42.1514 140.014 43.2822 140.283 43.9678C140.559 44.6475 141.018 44.9873 141.663 44.9873C142.296 44.9873 142.753 44.6416 143.034 43.9502C143.315 43.2588 143.456 42.1338 143.456 40.5752C143.456 38.999 143.312 37.8682 143.025 37.1826C142.744 36.4912 142.29 36.1455 141.663 36.1455C141.024 36.1455 140.567 36.4912 140.292 37.1826C140.017 37.8682 139.879 38.999 139.879 40.5752ZM156.446 40.5752C156.446 42.8193 156.077 44.4805 155.339 45.5586C154.606 46.6367 153.475 47.1758 151.946 47.1758C150.464 47.1758 149.345 46.6191 148.589 45.5059C147.839 44.3926 147.464 42.749 147.464 40.5752C147.464 38.3076 147.83 36.6377 148.562 35.5654C149.295 34.4873 150.423 33.9482 151.946 33.9482C153.429 33.9482 154.548 34.5107 155.304 35.6357C156.065 36.7607 156.446 38.4072 156.446 40.5752ZM150.162 40.5752C150.162 42.1514 150.297 43.2822 150.566 43.9678C150.842 44.6475 151.302 44.9873 151.946 44.9873C152.579 44.9873 153.036 44.6416 153.317 43.9502C153.599 43.2588 153.739 42.1338 153.739 40.5752C153.739 38.999 153.596 37.8682 153.309 37.1826C153.027 36.4912 152.573 36.1455 151.946 36.1455C151.308 36.1455 150.85 36.4912 150.575 37.1826C150.3 37.8682 150.162 38.999 150.162 40.5752Z" fill="#00031A"/>
<line x1="90.2529" y1="210.926" x2="90.2529" y2="398.118" stroke="#E4E7FF"/>
<line x1="124.727" y1="60.5443" x2="124.727" y2="387.659" stroke="#E4E7FF"/>
<rect y="150.736" width="179.506" height="65" rx="13" fill="white"/>
<rect opacity="0.5" x="10" y="160.736" width="45.5058" height="45" rx="7.89474" fill="#5465FF"/>
<path fill-rule="evenodd" clip-rule="evenodd" d="M39.5847 183.715L37.3203 181.686L34.2822 189.649L39.5847 183.715ZM34.1768 185.936L36.3514 180.239C36.3514 180.238 36.3521 180.236 36.3528 180.235L36.9052 178.788L34.1768 177.744V185.936ZM32.9234 189.223H28.7393L32.3903 190.62L32.9234 189.223ZM32.1476 192.037L28.2432 190.543L31.1532 193.15L32.1476 192.037ZM25.6348 187.815H32.7531V175.144H25.6348V187.815ZM41.117 184.126L31.7422 194.616C31.6162 194.758 31.4382 194.843 31.2481 194.853C31.2353 194.853 31.2218 194.854 31.2083 194.854C31.0325 194.854 30.8616 194.789 30.7306 194.672L24.4451 189.039C24.4423 189.037 24.4416 189.033 24.438 189.031C24.4345 189.027 24.4295 189.025 24.4266 189.021C24.3846 188.981 24.3576 188.93 24.3263 188.881C24.3106 188.855 24.2878 188.834 24.2757 188.807C24.2743 188.804 24.2722 188.803 24.2714 188.8C24.2558 188.765 24.2551 188.725 24.2458 188.689C24.2444 188.684 24.2437 188.679 24.2423 188.674C24.2323 188.631 24.2145 188.59 24.2131 188.546C24.2124 188.54 24.2131 188.534 24.2131 188.529C24.2131 188.525 24.2109 188.522 24.2109 188.519V174.44C24.2109 174.051 24.5298 173.736 24.9228 173.736H33.4648C33.8585 173.736 34.1766 174.051 34.1766 174.44V176.234L38.0768 177.726C38.442 177.866 38.6242 178.27 38.4861 178.632L37.8611 180.27L41.0615 183.139C41.3498 183.398 41.3747 183.838 41.117 184.126ZM28.4823 180.424C28.4823 180.618 28.6417 180.776 28.8382 180.776H29.55C30.5316 180.776 31.3296 181.565 31.3296 182.535C31.3296 183.386 30.7174 184.096 29.9059 184.259V184.999C29.9059 185.388 29.5877 185.703 29.1941 185.703C28.8012 185.703 28.4823 185.388 28.4823 184.999V184.295H27.7704C27.3775 184.295 27.0586 183.981 27.0586 183.591C27.0586 183.202 27.3775 182.887 27.7704 182.887H29.5507C29.7465 182.887 29.9059 182.73 29.9059 182.535C29.9059 182.342 29.7465 182.183 29.55 182.183H28.8382C27.8573 182.183 27.0586 181.394 27.0586 180.424C27.0586 179.573 27.6715 178.863 28.4823 178.7V177.96C28.4823 177.571 28.8012 177.256 29.1941 177.256C29.5877 177.256 29.9059 177.571 29.9059 177.96V178.664H30.6178C31.0114 178.664 31.3296 178.978 31.3296 179.368C31.3296 179.757 31.0114 180.072 30.6178 180.072H28.8382C28.6417 180.072 28.4823 180.23 28.4823 180.424Z" fill="#1A0003"/>
<path d="M71.3202 175.736H70.3241V168.055H67.6112V167.17H74.0331V168.055H71.3202V175.736ZM80.7245 172.52C80.7245 173.567 80.4608 174.385 79.9335 174.975C79.4062 175.561 78.6776 175.854 77.748 175.854C77.1737 175.854 76.664 175.719 76.2187 175.449C75.7733 175.18 75.4296 174.793 75.1874 174.289C74.9452 173.785 74.8241 173.195 74.8241 172.52C74.8241 171.473 75.0858 170.658 75.6093 170.076C76.1327 169.49 76.8593 169.197 77.789 169.197C78.6874 169.197 79.4003 169.496 79.9276 170.094C80.4589 170.692 80.7245 171.5 80.7245 172.52ZM75.8319 172.52C75.8319 173.34 75.996 173.965 76.3241 174.395C76.6523 174.824 77.1347 175.039 77.7714 175.039C78.4081 175.039 78.8905 174.826 79.2187 174.401C79.5507 173.971 79.7167 173.344 79.7167 172.52C79.7167 171.703 79.5507 171.084 79.2187 170.662C78.8905 170.236 78.4042 170.024 77.7597 170.024C77.123 170.024 76.6425 170.233 76.3183 170.651C75.994 171.068 75.8319 171.692 75.8319 172.52ZM84.5097 175.051C84.6815 175.051 84.8476 175.039 85.0077 175.016C85.1679 174.988 85.2948 174.961 85.3886 174.934V175.678C85.2831 175.729 85.1269 175.77 84.9198 175.801C84.7167 175.836 84.5331 175.854 84.369 175.854C83.1269 175.854 82.5058 175.199 82.5058 173.891V170.07H81.5858V169.602L82.5058 169.197L82.9159 167.826H83.4784V169.315H85.3417V170.07H83.4784V173.85C83.4784 174.236 83.5702 174.533 83.7538 174.74C83.9374 174.947 84.1894 175.051 84.5097 175.051ZM90.6269 175.736L90.4335 174.822H90.3866C90.0663 175.225 89.746 175.498 89.4257 175.643C89.1093 175.783 88.7128 175.854 88.2362 175.854C87.5995 175.854 87.0995 175.69 86.7362 175.361C86.3769 175.033 86.1972 174.567 86.1972 173.961C86.1972 172.664 87.2343 171.984 89.3085 171.922L90.3983 171.887V171.488C90.3983 170.984 90.289 170.613 90.0702 170.375C89.8554 170.133 89.5097 170.012 89.0331 170.012C88.498 170.012 87.8925 170.176 87.2167 170.504L86.9179 169.76C87.2343 169.588 87.58 169.453 87.955 169.356C88.3339 169.258 88.7128 169.209 89.0917 169.209C89.8573 169.209 90.4237 169.379 90.7909 169.719C91.162 170.059 91.3476 170.604 91.3476 171.354V175.736H90.6269ZM88.4296 175.051C89.0351 175.051 89.5097 174.885 89.8534 174.553C90.2011 174.221 90.3749 173.756 90.3749 173.158V172.578L89.4023 172.619C88.6288 172.647 88.0702 172.768 87.7265 172.983C87.3866 173.193 87.2167 173.524 87.2167 173.973C87.2167 174.324 87.3222 174.592 87.5331 174.776C87.748 174.959 88.0468 175.051 88.4296 175.051ZM94.33 175.736H93.3573V166.619H94.33V175.736ZM107.133 175.736H106.148L104.42 170C104.338 169.746 104.246 169.426 104.144 169.039C104.043 168.652 103.99 168.42 103.986 168.342C103.9 168.858 103.764 169.422 103.576 170.035L101.9 175.736H100.916L98.6366 167.17H99.6913L101.045 172.461C101.232 173.203 101.369 173.875 101.455 174.477C101.56 173.762 101.717 173.063 101.924 172.379L103.459 167.17H104.514L106.125 172.426C106.312 173.031 106.471 173.715 106.6 174.477C106.674 173.922 106.814 173.246 107.021 172.449L108.369 167.17H109.424L107.133 175.736ZM111.592 175.736H110.619V169.315H111.592V175.736ZM110.537 167.574C110.537 167.352 110.592 167.19 110.701 167.088C110.81 166.983 110.947 166.93 111.111 166.93C111.267 166.93 111.402 166.983 111.516 167.088C111.629 167.193 111.685 167.356 111.685 167.574C111.685 167.793 111.629 167.957 111.516 168.067C111.402 168.172 111.267 168.225 111.111 168.225C110.947 168.225 110.81 168.172 110.701 168.067C110.592 167.957 110.537 167.793 110.537 167.574ZM115.728 175.051C115.9 175.051 116.066 175.039 116.226 175.016C116.387 174.988 116.514 174.961 116.607 174.934V175.678C116.502 175.729 116.346 175.77 116.139 175.801C115.935 175.836 115.752 175.854 115.588 175.854C114.346 175.854 113.725 175.199 113.725 173.891V170.07H112.805V169.602L113.725 169.197L114.135 167.826H114.697V169.315H116.56V170.07H114.697V173.85C114.697 174.236 114.789 174.533 114.973 174.74C115.156 174.947 115.408 175.051 115.728 175.051ZM122.291 175.736V171.582C122.291 171.059 122.172 170.668 121.934 170.41C121.695 170.152 121.322 170.024 120.814 170.024C120.139 170.024 119.644 170.207 119.332 170.574C119.023 170.942 118.869 171.543 118.869 172.379V175.736H117.896V166.619H118.869V169.379C118.869 169.711 118.853 169.986 118.822 170.205H118.881C119.072 169.897 119.344 169.654 119.695 169.479C120.051 169.299 120.455 169.209 120.908 169.209C121.693 169.209 122.281 169.397 122.672 169.772C123.066 170.143 123.264 170.734 123.264 171.547V175.736H122.291ZM129.639 174.875H129.586C129.137 175.527 128.465 175.854 127.57 175.854C126.73 175.854 126.076 175.567 125.607 174.992C125.142 174.418 124.91 173.602 124.91 172.543C124.91 171.484 125.144 170.662 125.613 170.076C126.082 169.49 126.734 169.197 127.57 169.197C128.441 169.197 129.109 169.514 129.574 170.147H129.65L129.609 169.684L129.586 169.233V166.619H130.559V175.736H129.767L129.639 174.875ZM127.693 175.039C128.357 175.039 128.838 174.859 129.135 174.5C129.435 174.137 129.586 173.553 129.586 172.748V172.543C129.586 171.633 129.434 170.984 129.129 170.598C128.828 170.207 128.346 170.012 127.682 170.012C127.111 170.012 126.674 170.234 126.369 170.68C126.068 171.121 125.918 171.746 125.918 172.555C125.918 173.375 126.068 173.994 126.369 174.412C126.67 174.83 127.111 175.039 127.693 175.039ZM135.557 169.197C135.842 169.197 136.098 169.221 136.324 169.268L136.189 170.17C135.924 170.111 135.689 170.082 135.486 170.082C134.967 170.082 134.521 170.293 134.15 170.715C133.783 171.137 133.6 171.662 133.6 172.291V175.736H132.627V169.315H133.43L133.541 170.504H133.588C133.826 170.086 134.113 169.764 134.449 169.537C134.785 169.311 135.154 169.197 135.557 169.197ZM141.475 175.736L141.281 174.822H141.234C140.914 175.225 140.594 175.498 140.273 175.643C139.957 175.783 139.56 175.854 139.084 175.854C138.447 175.854 137.947 175.69 137.584 175.361C137.225 175.033 137.045 174.567 137.045 173.961C137.045 172.664 138.082 171.984 140.156 171.922L141.246 171.887V171.488C141.246 170.984 141.137 170.613 140.918 170.375C140.703 170.133 140.357 170.012 139.881 170.012C139.346 170.012 138.74 170.176 138.064 170.504L137.766 169.76C138.082 169.588 138.428 169.453 138.803 169.356C139.182 169.258 139.56 169.209 139.939 169.209C140.705 169.209 141.271 169.379 141.639 169.719C142.01 170.059 142.195 170.604 142.195 171.354V175.736H141.475ZM139.277 175.051C139.883 175.051 140.357 174.885 140.701 174.553C141.049 174.221 141.223 173.756 141.223 173.158V172.578L140.25 172.619C139.476 172.647 138.918 172.768 138.574 172.983C138.234 173.193 138.064 173.524 138.064 173.973C138.064 174.324 138.17 174.592 138.381 174.776C138.596 174.959 138.894 175.051 139.277 175.051ZM149.449 175.736L148.271 171.969C148.197 171.738 148.059 171.215 147.855 170.399H147.809C147.652 171.082 147.516 171.609 147.398 171.981L146.185 175.736H145.06L143.309 169.315H144.328C144.742 170.928 145.057 172.156 145.271 173C145.49 173.844 145.615 174.412 145.646 174.705H145.693C145.736 174.483 145.805 174.195 145.898 173.844C145.996 173.488 146.08 173.207 146.15 173L147.328 169.315H148.383L149.531 173C149.75 173.672 149.898 174.236 149.976 174.693H150.023C150.039 174.553 150.08 174.336 150.146 174.043C150.217 173.75 150.625 172.174 151.371 169.315H152.379L150.603 175.736H149.449ZM157.494 175.736L157.301 174.822H157.254C156.934 175.225 156.613 175.498 156.293 175.643C155.976 175.783 155.58 175.854 155.103 175.854C154.467 175.854 153.967 175.69 153.603 175.361C153.244 175.033 153.064 174.567 153.064 173.961C153.064 172.664 154.101 171.984 156.176 171.922L157.266 171.887V171.488C157.266 170.984 157.156 170.613 156.937 170.375C156.723 170.133 156.377 170.012 155.9 170.012C155.365 170.012 154.76 170.176 154.084 170.504L153.785 169.76C154.101 169.588 154.447 169.453 154.822 169.356C155.201 169.258 155.58 169.209 155.959 169.209C156.725 169.209 157.291 169.379 157.658 169.719C158.029 170.059 158.215 170.604 158.215 171.354V175.736H157.494ZM155.297 175.051C155.902 175.051 156.377 174.885 156.721 174.553C157.068 174.221 157.242 173.756 157.242 173.158V172.578L156.269 172.619C155.496 172.647 154.937 172.768 154.594 172.983C154.254 173.193 154.084 173.524 154.084 173.973C154.084 174.324 154.189 174.592 154.4 174.776C154.615 174.959 154.914 175.051 155.297 175.051ZM161.197 175.736H160.225V166.619H161.197V175.736Z" fill="#00031A"/>
<path d="M80.5224 197.736H77.0595L71.4696 188.016H71.3905C71.5019 189.733 71.5575 190.957 71.5575 191.69V197.736H69.123V184.887H72.5595L78.1405 194.511H78.2021C78.1142 192.841 78.0702 191.66 78.0702 190.969V184.887H80.5224V197.736ZM89.5839 197.736H86.8681V190.301L86.8944 189.079L86.9384 187.743C86.4872 188.194 86.1737 188.49 85.998 188.631L84.5214 189.818L83.2118 188.183L87.3515 184.887H89.5839V197.736ZM102.064 191.312C102.064 193.556 101.695 195.217 100.957 196.295C100.225 197.373 99.0937 197.912 97.5644 197.912C96.0819 197.912 94.9628 197.356 94.2069 196.242C93.4569 195.129 93.0819 193.485 93.0819 191.312C93.0819 189.044 93.4482 187.374 94.1806 186.302C94.913 185.224 96.0409 184.685 97.5644 184.685C99.0468 184.685 100.166 185.247 100.922 186.372C101.684 187.497 102.064 189.144 102.064 191.312ZM95.7802 191.312C95.7802 192.888 95.9149 194.019 96.1845 194.704C96.4599 195.384 96.9198 195.724 97.5644 195.724C98.1972 195.724 98.6542 195.378 98.9355 194.687C99.2167 193.995 99.3573 192.87 99.3573 191.312C99.3573 189.735 99.2138 188.605 98.9267 187.919C98.6454 187.228 98.1913 186.882 97.5644 186.882C96.9257 186.882 96.4687 187.228 96.1933 187.919C95.9179 188.605 95.7802 189.735 95.7802 191.312ZM106.749 195.847C106.444 197.03 105.929 198.434 105.202 200.057H103.268C103.649 198.498 103.945 197.027 104.156 195.645H106.617L106.749 195.847ZM113.332 189.527C114.574 189.527 115.561 189.876 116.294 190.573C117.032 191.271 117.401 192.226 117.401 193.439C117.401 194.874 116.959 195.979 116.074 196.752C115.189 197.526 113.924 197.912 112.277 197.912C110.848 197.912 109.693 197.681 108.814 197.218V194.871C109.277 195.117 109.816 195.319 110.432 195.478C111.047 195.63 111.63 195.706 112.181 195.706C113.839 195.706 114.668 195.026 114.668 193.667C114.668 192.372 113.809 191.725 112.093 191.725C111.782 191.725 111.439 191.757 111.064 191.821C110.689 191.88 110.385 191.944 110.15 192.015L109.069 191.435L109.553 184.887H116.522V187.19H111.934L111.697 189.712L112.005 189.651C112.362 189.568 112.805 189.527 113.332 189.527ZM127.869 190.371C127.869 192.902 127.336 194.792 126.269 196.04C125.203 197.288 123.589 197.912 121.427 197.912C120.665 197.912 120.088 197.871 119.695 197.789V195.609C120.187 195.733 120.703 195.794 121.242 195.794C122.15 195.794 122.897 195.662 123.483 195.399C124.069 195.129 124.517 194.71 124.828 194.142C125.139 193.568 125.317 192.779 125.364 191.777H125.259C124.919 192.328 124.526 192.715 124.081 192.938C123.636 193.16 123.079 193.272 122.411 193.272C121.292 193.272 120.41 192.914 119.766 192.199C119.121 191.479 118.799 190.48 118.799 189.202C118.799 187.825 119.188 186.738 119.968 185.942C120.753 185.139 121.819 184.737 123.167 184.737C124.116 184.737 124.945 184.96 125.654 185.405C126.369 185.851 126.917 186.498 127.298 187.348C127.679 188.192 127.869 189.199 127.869 190.371ZM123.22 186.917C122.657 186.917 122.218 187.11 121.901 187.497C121.585 187.884 121.427 188.441 121.427 189.167C121.427 189.788 121.57 190.28 121.857 190.644C122.144 191.007 122.581 191.189 123.167 191.189C123.718 191.189 124.189 191.01 124.582 190.652C124.975 190.289 125.171 189.873 125.171 189.404C125.171 188.707 124.986 188.118 124.617 187.638C124.254 187.157 123.788 186.917 123.22 186.917ZM129.135 192.278C129.135 189.735 129.671 187.843 130.743 186.601C131.821 185.359 133.433 184.737 135.577 184.737C136.309 184.737 136.884 184.781 137.3 184.869V187.04C136.778 186.923 136.263 186.864 135.753 186.864C134.821 186.864 134.059 187.005 133.468 187.286C132.882 187.568 132.442 187.984 132.149 188.534C131.856 189.085 131.684 189.867 131.631 190.881H131.745C132.325 189.885 133.254 189.387 134.531 189.387C135.68 189.387 136.579 189.747 137.229 190.468C137.88 191.189 138.205 192.185 138.205 193.456C138.205 194.827 137.818 195.914 137.045 196.717C136.271 197.514 135.199 197.912 133.828 197.912C132.879 197.912 132.05 197.693 131.341 197.253C130.638 196.814 130.093 196.172 129.706 195.328C129.325 194.484 129.135 193.468 129.135 192.278ZM133.775 195.741C134.355 195.741 134.801 195.548 135.111 195.161C135.422 194.769 135.577 194.212 135.577 193.491C135.577 192.864 135.431 192.372 135.138 192.015C134.85 191.651 134.414 191.47 133.828 191.47C133.277 191.47 132.806 191.649 132.413 192.006C132.026 192.363 131.833 192.779 131.833 193.254C131.833 193.951 132.015 194.54 132.378 195.021C132.747 195.501 133.213 195.741 133.775 195.741ZM139.813 196.48C139.813 195.987 139.945 195.615 140.209 195.363C140.473 195.111 140.856 194.985 141.36 194.985C141.847 194.985 142.222 195.114 142.485 195.372C142.755 195.63 142.89 195.999 142.89 196.48C142.89 196.943 142.755 197.309 142.485 197.578C142.216 197.842 141.841 197.974 141.36 197.974C140.868 197.974 140.487 197.845 140.218 197.587C139.948 197.323 139.813 196.954 139.813 196.48ZM149.068 184.72C150.299 184.72 151.289 185.001 152.039 185.564C152.795 186.12 153.173 186.873 153.173 187.822C153.173 188.479 152.991 189.065 152.628 189.58C152.265 190.09 151.679 190.547 150.87 190.951C151.831 191.467 152.519 192.006 152.935 192.568C153.357 193.125 153.568 193.737 153.568 194.405C153.568 195.46 153.155 196.31 152.329 196.954C151.503 197.593 150.416 197.912 149.068 197.912C147.662 197.912 146.558 197.613 145.755 197.016C144.952 196.418 144.551 195.571 144.551 194.476C144.551 193.743 144.744 193.093 145.131 192.525C145.523 191.956 146.15 191.455 147.012 191.022C146.279 190.559 145.752 190.064 145.43 189.536C145.107 189.009 144.946 188.432 144.946 187.805C144.946 186.885 145.327 186.141 146.089 185.572C146.85 185.004 147.844 184.72 149.068 184.72ZM147.064 194.318C147.064 194.821 147.24 195.214 147.592 195.495C147.943 195.776 148.424 195.917 149.033 195.917C149.707 195.917 150.211 195.774 150.545 195.486C150.879 195.193 151.046 194.81 151.046 194.335C151.046 193.943 150.879 193.576 150.545 193.236C150.217 192.891 149.681 192.525 148.936 192.138C147.688 192.712 147.064 193.439 147.064 194.318ZM149.051 186.706C148.588 186.706 148.213 186.826 147.926 187.067C147.644 187.301 147.504 187.617 147.504 188.016C147.504 188.367 147.615 188.684 147.838 188.965C148.066 189.24 148.476 189.525 149.068 189.818C149.642 189.548 150.044 189.273 150.272 188.991C150.501 188.71 150.615 188.385 150.615 188.016C150.615 187.611 150.469 187.292 150.176 187.058C149.883 186.823 149.508 186.706 149.051 186.706ZM163.834 191.312C163.834 193.556 163.465 195.217 162.726 196.295C161.994 197.373 160.863 197.912 159.334 197.912C157.851 197.912 156.732 197.356 155.976 196.242C155.226 195.129 154.851 193.485 154.851 191.312C154.851 189.044 155.218 187.374 155.95 186.302C156.683 185.224 157.81 184.685 159.334 184.685C160.816 184.685 161.935 185.247 162.691 186.372C163.453 187.497 163.834 189.144 163.834 191.312ZM157.55 191.312C157.55 192.888 157.684 194.019 157.954 194.704C158.229 195.384 158.689 195.724 159.334 195.724C159.967 195.724 160.424 195.378 160.705 194.687C160.986 193.995 161.127 192.87 161.127 191.312C161.127 189.735 160.983 188.605 160.696 187.919C160.415 187.228 159.961 186.882 159.334 186.882C158.695 186.882 158.238 187.228 157.963 187.919C157.687 188.605 157.55 189.735 157.55 191.312Z" fill="#00031A"/>
</svg>
