<svg width="1440" height="329" viewBox="0 0 1440 329" fill="none" xmlns="http://www.w3.org/2000/svg">
<path d="M-178 328.19C360.932 328.19 899.863 328.19 1438.8 328.19" stroke="#E5E8FF" stroke-miterlimit="10"/>
<path d="M-178 319.013C94.9015 319.081 367.668 317.44 640.502 315.584C758.551 314.776 877.408 315.041 995.445 316.743C1143.2 318.871 1291.03 316.867 1438.75 319.013" stroke="#E5E8FF" stroke-miterlimit="10"/>
<path d="M-178 309.971C-100.675 309.971 -23.3266 310.298 53.9876 310.138C123.083 309.996 192.022 306.918 261.095 306.388C389.765 305.401 518.412 306.548 647.071 305.383C761.268 304.347 876.644 301.602 990.763 305.79C1057.28 308.257 1123.1 309.379 1189.67 310.397C1272.76 311.667 1355.74 308.22 1438.8 309.971" stroke="#E5E8FF" stroke-miterlimit="10"/>
<path d="M-178 301.053C-101.786 301.053 -25.3701 301.756 50.8214 300.998C122.421 300.282 193.605 295.268 265.148 293.979C394.065 291.654 521.971 298.296 650.753 297.112C764.075 296.088 875.791 287.774 989.236 295.212C1055.55 299.561 1119.8 302.965 1186.6 303.958C1270.81 305.192 1354.6 299.19 1438.8 301.053" stroke="#E5E8FF" stroke-miterlimit="10"/>
<path d="M-178 292.307C-103.167 292.307 -27.784 293.43 46.9928 291.882C121.77 290.334 195.48 283.21 270.032 280.91C337.803 278.819 404.619 279.38 472.03 283.932C532.447 288.015 591.134 290.963 652.045 290.519C705.433 290.124 755.452 285.671 808.178 281.52C868.516 276.765 930.639 278.985 990.415 285.042C1056.21 291.715 1118.27 298.099 1185.45 298.827C1270.2 299.752 1353.99 290.71 1438.8 292.307" stroke="#E5E8FF" stroke-miterlimit="10"/>
<path d="M-178 283.685C-104.784 283.685 -30.4562 285.196 42.6364 282.779C120.737 280.201 197.512 270.863 275.444 267.36C342.356 264.313 409.715 266.401 475.578 273.564C534.378 279.868 591.224 285.499 651.326 285.24C706.982 284.999 757.338 277.259 811.366 270.999C872.692 263.893 933.378 266.589 993.772 275.205C1058.5 284.456 1118.25 294.423 1185.9 294.688C1270.79 295.027 1353.76 282.649 1438.8 283.691" stroke="#E5E8FF" stroke-miterlimit="10"/>
<path d="M-178 275.199C-106.513 275.162 -33.2744 277.049 37.9657 273.749C119.749 269.993 199.645 258.404 281.125 253.563C349.502 249.504 412.692 253.279 478.643 263.474C535.108 272.207 589.798 280.953 649.024 280.971C707.588 280.971 759.685 269.346 815.262 260.859C878.576 251.194 936.96 254.007 998.825 265.682C1061.79 277.561 1119.6 291.586 1187.62 291.277C1272.39 290.858 1353.79 274.915 1438.8 275.199" stroke="#E5E8FF" stroke-miterlimit="10"/>
<path d="M-178 266.848C-108.321 266.792 -36.1824 268.889 33.0816 264.831C118.615 259.823 201.498 245.995 286.728 239.753C356.059 234.677 416.24 240.105 481.125 253.686C534.659 264.892 587.238 277.036 645.499 277.419C707.072 277.826 762.582 261.858 819.529 251.108C885.29 238.693 941.44 241.332 1004.99 256.461C1065.51 270.869 1121.94 289.365 1190.25 288.329C1274.71 287.046 1353.97 267.44 1438.77 266.848" stroke="#E5E8FF" stroke-miterlimit="10"/>
<path d="M-178 258.632C-110.106 258.558 -39.0904 260.791 28.2986 256.061C117.492 249.801 203.373 233.802 292.151 226.166C362.885 220.079 419.653 227.048 483.168 244.206C533.401 257.775 583.859 273.447 641.311 274.273C705.893 275.192 765.86 254.451 824.121 241.702C854.638 235.06 886.806 228.837 920.073 230.268C952.634 231.674 983.465 239.205 1011.94 247.537C1069.33 264.294 1125.25 287.361 1193.55 285.597C1277.64 283.42 1354.25 260.162 1438.81 258.651" stroke="#E5E8FF" stroke-miterlimit="10"/>
<path d="M-177.944 250.559C-111.701 250.467 -41.8418 252.755 23.7058 247.475C116.301 240.037 204.865 221.972 296.933 213.017C369.285 205.974 422.774 214.355 484.571 235.048C531.424 250.738 579.771 269.913 636.707 271.214C704.073 272.75 769.194 247.13 828.567 232.63C859.667 225.031 893.968 217.02 928.707 218.784C961.267 220.437 991.773 229.466 1019 238.828C1073.29 257.504 1128.63 285.227 1197.09 282.754C1280.83 279.719 1354.49 252.927 1438.82 250.559" stroke="#E5E8FF" stroke-miterlimit="10"/>
<path d="M-177.932 242.628C-113.272 242.517 -44.4457 244.805 19.429 239.137C115.044 230.644 205.989 210.673 300.909 200.521C337.051 196.661 371.306 194.428 406.708 201.2C435.552 206.72 460.926 216.409 485.403 226.203C529.191 243.713 575.416 266.169 632.217 267.927C702.053 270.092 772.406 239.828 832.744 223.847C864.384 215.466 900.796 205.758 936.859 207.812C969.566 209.662 999.667 220.067 1025.73 230.342C1077.13 250.596 1131.81 282.655 1200.64 279.553C1284.08 275.785 1354.68 245.674 1438.86 242.597" stroke="#E5E8FF" stroke-miterlimit="10"/>
<path d="M-177.922 234.826C-114.62 234.709 -46.7254 236.984 15.6784 231.057C113.719 221.744 206.393 200.059 303.704 188.951C339.969 184.813 374.124 182.247 409.346 189.932C437.92 196.204 462.273 206.967 485.559 217.723C526.777 236.738 571.07 262.012 628.152 264.14C664.631 265.503 701.312 255.049 732.817 246.199C767.769 236.38 801.373 225.192 836.314 215.361C868.426 206.331 906.6 195.254 943.876 197.567C976.818 199.609 1006.45 211.074 1031.58 222.114C1080.62 243.701 1134.26 279.387 1203.76 275.772C1287.05 271.455 1354.7 238.347 1438.87 234.801" stroke="#E5E8FF" stroke-miterlimit="10"/>
<path d="M-177.91 227.166C-115.742 227.048 -48.5663 229.33 12.6361 223.292C112.406 213.455 206.158 190.289 305.096 178.491C341.194 174.174 375.607 171.417 410.469 179.65C439.01 186.392 462.633 198.079 485.077 209.576C524.576 229.799 567.197 257.171 624.975 259.533C662.453 261.05 700.201 249.727 732.2 240.364C768.319 229.787 802.935 217.748 839.054 207.158C871.615 197.604 910.912 185.658 949.187 188.094C982.477 190.215 1011.6 202.396 1036.05 214.072C1083.57 236.762 1135.58 275.007 1206.19 271.153C1289.48 266.607 1354.54 230.841 1438.89 227.19" stroke="#E5E8FF" stroke-miterlimit="10"/>
<path d="M-177.888 219.641C-116.596 219.542 -49.8356 221.867 10.4686 215.879C111.08 205.887 205.09 181.507 304.793 169.387C340.396 165.07 375.449 162.258 409.817 170.547C438.594 177.485 461.891 189.802 483.92 201.786C522.79 222.965 564.153 251.435 623.144 253.729C661.453 255.222 699.302 243.781 731.75 233.993C768.633 222.891 803.888 210.235 840.76 199.121C873.736 189.179 913.202 177.041 952.263 179.459C985.946 181.544 1014.58 193.947 1038.72 206.122C1085.87 229.898 1135.4 269.111 1207.66 265.293C1291.16 260.884 1354.26 222.916 1438.95 219.653" stroke="#E5E8FF" stroke-miterlimit="10"/>
<path d="M-177.876 212.24C-116.809 212.03 -50.2618 214.645 9.78416 208.539C109.711 198.357 202.52 173.248 301.436 160.845C336.938 156.399 371.969 153.734 406.314 161.925C435.507 168.9 459.264 181.365 481.619 193.497C521.208 214.984 563.009 243.818 622.774 246.507C661.353 248.24 698.977 236.941 731.571 226.999C768.51 215.725 803.698 202.822 840.626 191.541C873.759 181.414 913.022 169.443 952.376 172.033C986.284 174.266 1014.75 186.694 1038.93 199.004C1086.28 223.113 1134.86 261.809 1207.69 258.213C1291.43 254.093 1353.88 215.089 1438.92 212.24" stroke="#E5E8FF" stroke-miterlimit="10"/>
<path d="M-177.866 205.005C-116.54 204.623 -50.1949 207.923 10.0644 201.391C108.217 190.752 198.937 165.231 296.046 152.39C331.975 147.634 366.085 145.161 400.925 153.407C430.644 160.432 455.244 172.767 478.418 184.794C519.321 206.048 562.885 235.171 622.65 238.841C660.993 241.197 698.752 229.867 731.065 219.931C767.555 208.712 802.215 195.797 838.694 184.566C871.76 174.383 911.023 162.505 950.321 165.582C984.127 168.228 1013.01 180.835 1037.53 193.009C1085.12 216.631 1135.11 254.599 1207.07 251.108C1291 247.031 1353.65 207.805 1438.9 205.005" stroke="#E5E8FF" stroke-miterlimit="10"/>
<path d="M-177.843 197.894C-116.169 197.438 -50.0036 201.656 10.6262 194.742C106.781 183.777 195.132 157.922 290.197 144.785C326.429 139.765 359.742 137.526 394.974 145.667C425.154 152.643 450.743 164.657 474.781 176.591C517.054 197.561 562.627 226.58 622.336 231.137C660.331 234.042 697.798 222.947 729.819 213.054C765.692 201.952 799.622 189.118 835.472 178.022C868.437 167.821 907.33 156.281 946.447 159.797C980.288 162.844 1009.68 175.506 1034.75 187.551C1082.98 210.68 1134.6 247.697 1206.01 244.256C1290.32 240.198 1353.32 200.719 1438.93 197.931" stroke="#E5E8FF" stroke-miterlimit="10"/>
<path d="M-177.82 190.919C-115.72 190.481 -49.5883 195.816 11.4682 188.55C105.422 177.381 191.202 151.261 284.033 137.896C320.411 132.66 353.095 130.692 388.619 138.599C419.338 145.433 445.881 157.102 470.851 168.82C514.887 189.414 562.054 218.013 621.932 223.409C659.477 226.789 696.282 216.175 727.989 206.35C763.076 195.47 796.142 182.747 831.206 171.855C864.047 161.647 902.188 150.681 941.069 154.585C975.067 158.008 1005.07 170.621 1030.89 182.5C1080.08 205.116 1133.55 240.999 1204.57 237.576C1289.4 233.487 1352.88 193.743 1439.01 190.937" stroke="#E5E8FF" stroke-miterlimit="10"/>
<path d="M-177.809 184.079C-115.203 183.733 -49.0943 190.351 12.5123 182.771C104.108 171.503 187.16 145.149 277.599 131.71C313.955 126.295 346.19 124.611 381.894 132.172C413.163 138.796 440.637 150.058 466.63 161.419C512.663 181.544 561.268 209.458 621.37 215.632C693.902 223.089 767.196 184.282 825.974 165.989C858.691 155.8 895.799 145.593 934.344 149.867C968.611 153.672 999.24 166.162 1025.95 177.862C1076.39 199.948 1131.85 234.548 1202.7 231.107C1288.15 226.962 1352.24 186.928 1438.99 184.079" stroke="#E5E8FF" stroke-miterlimit="10"/>
<path d="M-177.786 177.381C-114.63 177.189 -48.51 185.226 13.7366 177.381C102.874 166.106 183.062 139.629 270.987 126.146C307.219 120.596 339.139 119.214 374.944 126.338C406.786 132.684 435.215 143.447 462.229 154.45C510.261 174.001 560.314 200.984 620.72 207.923C692.151 216.113 762.29 178.429 819.978 160.432C851.876 150.496 889.063 140.48 926.552 145.599C961.358 150.348 992.021 161.863 1020.25 173.581C1072.13 195.106 1129.73 228.306 1200.58 224.828C1286.76 220.603 1351.53 180.267 1439.01 177.337" stroke="#E5E8FF" stroke-miterlimit="10"/>
<path d="M-177.764 170.812C-114.013 170.812 -47.8256 180.39 15.1171 172.255C101.717 161.061 178.964 134.473 264.294 121.064C412.501 97.7571 489.815 183.801 620.001 200.269C690.174 209.156 756.766 172.829 813.41 155.196C845.162 145.328 880.911 136.342 917.929 141.751C953.173 146.9 984.554 158.162 1013.91 169.659C1067.41 190.629 1127.25 222.318 1198.24 218.784C1285.22 214.466 1350.76 173.816 1439.04 170.812" stroke="#E5E8FF" stroke-miterlimit="10"/>
<path d="M-177.742 164.385C-113.373 164.645 -47.0734 175.795 16.6216 167.42C100.639 156.374 174.933 129.724 257.603 116.432C402.744 93.1067 491.14 175.025 619.226 192.67C688.187 202.18 750.781 167.463 806.392 150.169C838.01 140.338 872.198 132.536 908.688 138.192C944.404 143.743 976.582 154.721 1007.12 165.977C1062.34 186.33 1124.45 216.495 1195.75 212.881C1283.58 208.434 1349.94 167.488 1439.08 164.385" stroke="#E5E8FF" stroke-miterlimit="10"/>
<path d="M-177.719 158.095C-112.711 158.619 -46.2763 171.398 18.2158 162.813C99.6619 151.97 170.913 125.289 251.023 112.177C393.088 88.919 492.42 166.359 618.429 185.183C686.154 195.298 744.494 162.289 799.128 145.334C830.633 135.558 863.126 129.008 899.055 134.849C935.264 140.764 968.274 151.502 1000.03 162.48C1057.02 182.216 1121.42 210.809 1193.08 207.115C1281.77 202.532 1349.01 161.277 1439.03 158.07" stroke="#E5E8FF" stroke-miterlimit="10"/>
<path d="M-177.697 151.939C-112.06 152.735 -45.4343 167.149 19.9112 158.384C98.8422 147.789 167.152 121.095 244.679 108.205C383.724 85.0827 493.677 157.873 617.62 177.825C684.122 188.532 738.083 157.28 791.785 140.653C823.155 130.939 854.065 125.678 889.399 131.728C926.114 138.019 959.988 148.486 992.93 159.192C1051.71 178.312 1118.38 205.326 1190.48 201.539C1280.11 196.827 1348.18 155.282 1439.1 151.939" stroke="#E5E8FF" stroke-miterlimit="10"/>
<path d="M-177.674 145.926C-111.431 146.987 -44.5806 162.998 21.5171 154.086C98.023 143.767 163.447 117.08 238.504 104.443C374.798 81.4995 494.946 149.553 616.88 170.621C682.169 181.908 731.739 152.414 784.566 136.083C815.801 126.43 845.196 122.458 879.856 128.682C917.076 135.355 951.803 145.581 985.924 155.992C1046.43 174.457 1115.32 199.948 1187.92 196.081C1278.45 191.239 1347.36 149.355 1439.17 145.938" stroke="#E5E8FF" stroke-miterlimit="10"/>
<path d="M-177.652 140.042C-110.746 141.356 -43.7386 158.903 23.1676 149.867C97.3717 139.845 160.034 113.176 232.756 100.81C366.433 78.0763 496.192 141.405 616.082 163.59C680.282 175.469 725.418 147.61 777.515 131.605C808.649 122.045 836.505 119.27 870.582 125.672C908.284 132.727 943.854 142.75 979.086 152.858C1041.25 170.689 1112.27 194.681 1185.37 190.715C1276.76 185.75 1346.47 143.564 1439.12 140.042" stroke="#E5E8FF" stroke-miterlimit="10"/>
<path d="M-177.629 134.3C-110.095 135.83 -42.8965 154.82 24.7618 145.691C96.844 135.971 156.912 109.303 227.456 97.2266C295.889 85.5082 368.69 98.7376 432.61 112.874C494.25 126.51 552.848 144.396 615.409 156.762C678.8 169.295 719.231 142.75 770.935 127.158C839.593 106.466 909.912 132.709 972.754 149.725C1036.43 166.945 1109.44 189.506 1183.03 185.454C1275.22 180.384 1345.69 137.902 1439.17 134.294" stroke="#E5E8FF" stroke-miterlimit="10"/>
<path d="M-177.607 128.687C-109.443 130.396 -42.2342 150.7 26.2887 141.504C96.4509 132.08 154.128 105.43 222.774 93.6186C290.579 81.9372 365.299 94.6239 429.522 107.57C492.408 120.25 552.264 136.995 614.813 150.169C677.363 163.343 713.898 138.099 764.939 122.73C832.036 102.531 905.286 130.747 967.039 146.567C1032.05 163.22 1106.91 184.412 1180.9 180.304C1273.81 175.142 1344.99 132.376 1439.14 128.687" stroke="#E5E8FF" stroke-miterlimit="10"/>
<path d="M-177.585 123.217C-108.781 125.067 -41.6278 146.506 27.6922 137.254C96.1815 128.12 151.736 101.482 218.564 89.8997C285.852 78.2738 362.279 90.4424 426.794 102.315C490.792 114.101 551.848 129.841 614.297 143.823C643.759 150.416 665.349 150.687 693.834 142.182C716.986 135.268 736.567 125.228 759.685 118.264C790.528 108.964 815.094 109.223 847.396 116.137C886.21 124.457 924.025 134.023 962.11 143.317C1028.21 159.402 1104.7 179.361 1179.03 175.216C1272.58 169.998 1344.35 126.948 1439.18 123.217" stroke="#E5E8FF" stroke-miterlimit="10"/>
<path d="M-177.562 117.876C-108.118 119.726 -41.1671 142.188 28.9613 132.906C96.092 124.019 149.749 97.2822 215.23 85.9955C282.169 74.4559 360 86.1188 424.773 97.0971C489.546 108.075 551.736 123.001 613.983 137.803C642.748 144.643 663.778 145.611 692.016 137.149C714.404 130.439 733.087 120.534 755.419 113.774C786.093 104.486 810.277 105.473 842.018 112.615C881.023 121.391 919.422 130.939 958.225 139.974C1025.15 155.554 1103.14 174.402 1177.58 170.245C1271.65 164.996 1343.9 121.687 1439.19 117.931" stroke="#E5E8FF" stroke-miterlimit="10"/>
<path d="M-177.54 112.683C-107.445 114.484 -40.8757 137.723 30.0387 128.416C96.1701 119.726 148.155 92.7859 212.725 81.8323C279.575 70.4778 358.248 81.6103 423.425 91.8053C489.13 102.074 551.859 116.377 613.848 131.993C642.029 139.086 662.823 140.579 690.848 132.117C712.629 125.548 730.56 115.705 752.275 109.075C782.803 99.7553 806.965 101.266 838.223 108.68C877.284 117.931 916.132 127.503 955.53 136.348C1022.9 151.477 1102.19 169.35 1176.57 165.224C1271.01 159.982 1343.61 116.426 1439.3 112.683" stroke="#E5E8FF" stroke-miterlimit="10"/>
<path d="M-177.517 107.619C-106.783 109.254 -40.7859 133.054 30.9145 123.723C96.361 115.205 147.223 88.148 211.019 77.3239C277.655 66.0249 357.361 76.9169 422.707 86.4766C489.085 96.1906 552.095 110.105 613.792 126.566C641.513 133.967 662.419 135.756 690.297 127.238C711.63 120.719 728.999 110.869 750.298 104.289C780.714 94.8892 805.213 96.6655 836.101 104.418C875.084 114.2 914.224 123.84 954.06 132.536C1021.63 147.283 1101.84 164.355 1175.92 160.29C1270.58 155.103 1343.36 111.314 1439.28 107.619" stroke="#E5E8FF" stroke-miterlimit="10"/>
<path d="M-177.483 102.685C-106.389 104.153 -40.8529 128.213 31.2853 118.795C96.5073 110.284 147.066 83.251 210.66 72.4886C277.229 61.2266 357.294 72.3406 422.662 81.6968C489.276 91.2319 552.084 105.041 613.859 121.576C641.48 128.978 662.677 130.519 690.365 122.057C711.552 115.582 728.809 105.818 749.996 99.3237C780.311 90.0354 805.259 91.7623 835.854 99.737C874.668 109.852 913.853 119.566 953.858 128.176C1021.1 142.651 1102.36 159.532 1175.86 155.313C1270.39 149.898 1343.64 106.848 1439.31 102.704" stroke="#E5E8FF" stroke-miterlimit="10"/>
<path d="M-177.461 97.8312C-106.21 99.225 -40.8642 123.445 31.4425 113.916C96.5634 105.331 147.38 78.5266 211.019 67.832C277.588 56.644 357.474 68.2453 422.741 77.6632C489.141 87.2476 551.68 101.032 613.882 116.784C672.76 131.691 701.941 108.766 750.433 94.4698C780.748 85.533 805.854 87.1612 836.169 95.1668C874.814 105.374 913.932 115.063 953.925 123.575C1020.78 137.797 1103.09 154.758 1176.07 150.182C1270.19 144.273 1344.34 102.975 1439.37 97.9237" stroke="#E5E8FF" stroke-miterlimit="10"/>
<path d="M-177.439 93.0512C-105.974 94.3957 -40.7857 118.795 31.7456 109.186C96.8665 100.551 147.885 74.0303 211.558 63.4344C278.127 52.3328 357.777 64.3781 422.943 73.8268C489.085 83.4174 551.388 97.1403 613.949 112.097C672.333 126.06 702.558 103.542 751.085 89.8934C781.4 81.3451 806.729 82.924 836.775 90.9419C875.241 101.205 914.246 110.82 954.228 119.183C1020.81 133.116 1103.94 149.898 1176.31 145.013C1269.96 138.698 1345.02 99.1941 1439.36 93.3411" stroke="#E5E8FF" stroke-miterlimit="10"/>
<path d="M-177.416 88.3578C-105.704 89.6653 -40.6168 114.262 32.1839 104.609C97.2262 95.9871 148.548 69.7687 212.266 59.2838C278.835 48.3672 358.226 60.7147 423.269 70.1696C489.097 79.7294 551.265 93.3474 614.05 107.477C672.019 120.509 703.277 98.4912 751.927 85.4776C782.321 77.3548 807.841 78.9337 837.662 86.9454C875.915 97.2268 914.842 106.731 954.756 114.897C1021.17 128.496 1104.8 144.865 1176.68 139.728C1269.87 133.073 1345.8 95.4259 1439.41 88.8512" stroke="#E5E8FF" stroke-miterlimit="10"/>
<path d="M-177.394 83.7444C-105.379 85.0396 -40.4152 109.827 32.756 100.169C97.7421 91.5957 149.379 65.6733 213.152 55.3981C279.699 44.6727 358.686 57.2978 423.706 66.7218C489.175 76.2199 551.152 89.6961 614.196 102.975C671.727 115.094 704.085 93.6557 752.96 81.3452C783.454 73.6604 809.177 75.2948 838.807 83.2818C876.761 93.6154 915.707 102.81 955.474 110.826C1021.83 124.05 1105.7 139.814 1177.17 134.442C1269.75 127.516 1346.6 91.7684 1439.4 84.5708" stroke="#E5E8FF" stroke-miterlimit="10"/>
<path d="M-177.36 79.2174C-105.019 80.5126 -40.0781 105.516 33.4524 95.8699C98.3825 87.3648 150.367 61.7878 214.219 51.7223C280.743 41.2374 359.394 54.0598 424.29 63.4407C489.411 72.8402 551.22 86.1313 614.41 98.5467C671.514 109.772 705.04 88.9684 754.206 77.4042C784.847 70.1943 810.76 71.9212 840.222 79.8712C877.948 90.1363 916.752 99.159 956.429 106.891C1022.82 119.701 1106.68 134.609 1177.76 129.095C1269.75 121.959 1347.48 88.1666 1439.47 80.4078" stroke="#E5E8FF" stroke-miterlimit="10"/>
<path d="M-177.337 74.7888C-104.626 76.0902 -39.6964 101.309 34.2495 91.7374C99.1346 83.3371 151.49 58.1302 215.364 48.3052C281.855 38.0794 360.09 51.056 424.93 60.3567C489.568 69.6081 551.354 82.6895 614.611 94.2229C671.312 104.566 706.073 84.472 755.576 73.691C786.385 66.9807 812.5 68.8371 841.838 76.7748C879.306 86.9418 917.936 95.7615 957.484 103.178C1023.99 115.513 1107.59 129.428 1178.37 123.784C1269.72 116.506 1348.29 84.7063 1439.45 76.4726" stroke="#E5E8FF" stroke-miterlimit="10"/>
<path d="M-177.315 70.447C-104.2 71.7792 -39.2136 97.239 35.1589 87.7162C99.9992 79.464 152.736 54.658 216.678 45.0982C283.124 35.1684 360.932 48.2375 425.626 57.4334C489.815 66.5614 551.534 79.3468 614.814 89.9921C671.121 99.4593 707.184 80.1239 757.058 70.1694C788.058 64.0018 814.376 66.0001 843.624 73.87C880.843 83.9164 919.312 92.5006 958.742 99.558C1025.46 111.418 1108.59 124.154 1179.11 118.412C1269.8 111.011 1349.18 81.2773 1439.48 72.618" stroke="#E5E8FF" stroke-miterlimit="10"/>
<path d="M-177.293 66.2037C-103.74 67.5729 -38.765 93.2794 36.1577 83.8861C100.953 75.7573 154.105 51.3706 218.115 42.1069C284.504 32.504 361.83 45.6163 426.434 54.695C490.174 63.6565 551.837 76.1212 615.06 85.8659C670.986 94.5006 708.43 75.9546 758.697 66.8574C789.91 61.2141 816.43 63.4283 845.611 71.1747C882.57 81.0689 920.857 89.3908 960.134 96.0671C1027.11 107.385 1109.56 118.807 1179.88 112.997C1269.9 105.596 1350.03 77.9036 1439.48 68.8866" stroke="#E5E8FF" stroke-miterlimit="10"/>
<path d="M-177.27 62.0653C-103.257 63.4838 -38.2145 89.437 37.1798 80.1733C102.009 72.2356 155.576 48.2684 219.664 39.3254C285.987 30.074 362.773 43.1801 427.378 52.1231C490.646 60.8934 552.264 73.0004 615.42 81.8385C670.963 89.6159 709.868 71.9334 760.55 63.7367C791.987 58.6546 818.698 61.0846 847.857 68.7941C884.547 78.5145 922.642 86.5456 961.751 92.8045C1028.98 103.542 1110.61 113.558 1180.77 107.681C1270.08 100.236 1350.93 74.7026 1439.53 65.3772" stroke="#E5E8FF" stroke-miterlimit="10"/>
<path d="M-177.248 58.0502C-102.774 59.5119 -37.6531 85.7118 38.4036 76.6023C103.132 68.8435 157.148 45.345 221.304 36.7412C287.547 27.8537 363.806 40.929 428.265 49.6931C491.073 58.2537 552.646 69.9598 615.667 77.8975C670.862 84.8545 711.305 68.0294 762.38 60.7763C794.042 56.2678 820.966 58.926 850.136 66.58C886.549 76.106 924.44 83.8236 963.356 89.6406C1031.03 99.7554 1111.64 108.205 1181.69 102.34C1270.3 94.9385 1351.79 71.551 1439.55 61.9604" stroke="#E5E8FF" stroke-miterlimit="10"/>
<path d="M-177.225 54.103C-102.213 55.6511 -36.9683 82.1038 39.6274 73.167C104.344 65.6241 158.832 42.5943 223.033 34.3482C289.22 25.8555 364.906 38.8567 429.275 47.4728C491.611 55.8176 553.139 67.0796 615.992 74.1168C670.862 80.2844 712.899 64.3659 764.356 58.0811C796.254 54.1647 823.38 57.1066 852.595 64.6557C888.731 73.9681 926.412 81.3518 965.119 86.7049C1033.2 96.1536 1112.7 102.981 1182.66 97.1096C1270.57 89.7393 1352.64 68.5845 1439.57 58.7719" stroke="#E5E8FF" stroke-miterlimit="10"/>
<path d="M-177.203 50.2851C-101.651 51.9133 -36.2947 78.619 40.9409 69.8795C105.602 62.5586 160.528 40.0161 224.84 32.1462C290.938 24.0543 366.04 36.9631 430.308 45.388C492.195 53.4984 553.645 64.2855 616.295 70.4223C670.885 75.7696 714.549 60.8132 766.399 55.4659C798.522 52.1539 825.839 55.3857 855.154 62.867C891.009 71.9478 928.472 78.9748 966.949 83.8368C1035.44 92.5701 1113.72 97.7015 1183.64 91.8546C1270.87 84.5707 1353.46 65.6485 1439.59 55.6386" stroke="#E5E8FF" stroke-miterlimit="10"/>
<path d="M-177.18 46.5847C-101.101 48.2993 -35.5762 75.2578 42.2545 66.728C106.926 59.6415 162.313 37.5985 226.704 30.1172C292.712 22.4509 367.219 35.2301 431.442 43.4577C492.891 51.3337 554.251 61.6027 616.7 66.8452C671.053 71.403 716.38 57.4211 768.6 53.0606C800.958 50.3531 828.466 53.8933 857.894 61.2635C893.47 70.1095 930.713 76.7737 968.948 81.1355C1037.9 89.1102 1114.84 92.49 1184.74 86.6863C1271.2 79.4949 1354.28 62.8548 1439.61 52.6782" stroke="#E5E8FF" stroke-miterlimit="10"/>
<path d="M-177.158 43.0013C-100.528 44.8084 -34.8347 71.989 43.636 63.7182C108.308 56.8784 164.155 35.335 228.624 28.2608C294.542 21.0447 368.443 33.6636 432.587 41.6814C493.621 49.3107 554.869 59.0309 617.048 63.3852C671.211 67.1782 718.187 54.1893 770.745 50.8156C803.305 48.7248 831.026 52.5857 860.567 59.8635C895.866 68.4578 932.884 74.7405 970.857 78.5821C1040.24 85.755 1115.83 87.3524 1185.73 81.5919C1271.56 74.5238 1354.97 60.1842 1439.56 49.8597" stroke="#E5E8FF" stroke-miterlimit="10"/>
<path d="M-177.135 39.5474C-99.9445 41.447 -34.0601 68.9051 45.0394 60.8503C109.7 54.2571 166.041 33.2318 230.589 26.5955C296.395 19.8111 369.678 32.2882 433.811 40.084C494.441 47.4851 555.554 56.607 617.475 60.0793C671.536 63.1138 720.119 51.1363 773.08 48.7556C805.876 47.2816 833.71 51.4817 863.531 58.6608C898.558 66.999 935.35 72.8919 973.046 76.2014C1131.36 90.5657 1286.49 66.3332 1439.72 47.2137" stroke="#E5E8FF" stroke-miterlimit="10"/>
<path d="M-177.113 36.2046C-99.3494 38.2091 -33.2742 65.9077 46.4765 58.1057C111.137 51.7777 167.961 31.2767 232.588 25.0289C298.281 18.6763 370.947 30.9991 434.945 38.5668C495.227 45.715 556.16 54.2448 617.8 56.8167C671.851 59.0925 721.96 48.182 775.314 46.7635C808.301 45.9 836.371 50.4641 866.36 57.5383C900.986 65.7597 937.757 71.0021 975.089 73.9009C1129.37 85.8845 1290.29 63.638 1439.68 44.648" stroke="#E5E8FF" stroke-miterlimit="10"/>
<path d="M-177.091 32.9974C-98.7549 35.1067 -32.4775 63.0459 47.9244 55.5029C112.596 49.4155 169.891 29.4634 234.597 23.635C300.178 17.7326 372.215 29.8889 436.146 37.2037C496.102 44.0806 556.822 52.0059 618.181 53.739C672.333 55.2686 723.857 45.3881 777.615 44.9749C810.793 44.722 839.042 49.6437 869.268 56.6316C903.669 64.5816 940.193 69.3738 977.211 71.7545C1047.73 76.2877 1119.24 72.4268 1189.18 66.8821C1273.1 60.2273 1357.14 52.9249 1439.7 42.2118" stroke="#E5E8FF" stroke-miterlimit="10"/>
<path d="M-177.068 29.9199C-98.8331 32.0971 -32.6455 60.0856 47.6777 53.1902C112.091 47.6394 169.499 28.4644 233.699 22.6483C298.595 16.7706 369.184 28.4335 432.554 35.4769C493.812 42.2613 555.868 49.8412 618.575 50.791C674.242 51.636 728.483 42.2983 784.027 43.3899C817.553 44.0499 845.499 50.0694 876.229 56.7551C908.15 63.6998 941.855 67.6779 975.943 69.559C1048.5 73.5618 1120.45 67.6594 1192.14 62.0901C1274.89 55.6634 1358.38 50.717 1439.76 39.9731" stroke="#E5E8FF" stroke-miterlimit="10"/>
<path d="M-177.057 26.9779C-98.2829 29.2599 -31.8259 57.4828 49.0924 50.8526C113.517 45.5732 171.385 26.9039 235.686 21.5134C300.448 16.1106 370.475 27.607 433.755 34.4222C494.722 40.9968 556.542 47.9909 618.923 47.9909C674.916 47.9909 730.358 39.8928 786.362 41.959C819.933 43.1925 848.115 49.5574 879.081 56.1012C910.788 62.7992 944.269 66.3579 978.065 67.7641C1050.85 70.7924 1121.57 63.0028 1193.24 57.5876C1275.45 51.3769 1358.93 48.731 1439.74 37.8513" stroke="#E5E8FF" stroke-miterlimit="10"/>
<path d="M-177.034 24.1778C-97.6654 26.5646 -31.0737 55.0157 50.5295 48.6446C114.977 43.6118 173.294 25.4668 237.685 20.4957C302.312 15.4938 371.789 26.91 435.035 33.5032C495.665 39.8373 557.249 46.2022 619.305 45.3017C675.701 44.4815 732.233 37.5984 788.709 40.6267C822.325 42.4338 850.731 49.138 881.899 55.5399C913.337 61.9974 946.661 65.1367 980.142 66.068C1053.12 68.1095 1122.67 58.4695 1194.32 53.2024C1276.02 47.1952 1359.37 46.8621 1439.7 35.8468" stroke="#E5E8FF" stroke-miterlimit="10"/>
<path d="M-177.012 21.5197C-97.0929 23.9867 -30.2205 52.6783 51.9554 46.5724C116.414 41.7802 175.18 24.1286 239.672 19.6016C304.164 15.0745 373.08 26.3366 436.158 32.7015C496.641 38.8074 557.934 44.5741 619.653 42.767C676.544 41.1018 734.041 35.4523 790.988 39.4303C824.671 41.7802 853.28 48.8483 884.74 55.1022C916.2 61.3561 949.097 64.0452 982.264 64.5139C1055.24 65.5562 1123.87 54.1092 1195.44 48.9901C1276.67 43.1802 1359.95 45.1539 1439.75 33.9782" stroke="#E5E8FF" stroke-miterlimit="10"/>
<path d="M-177.001 19.0032C-96.5316 21.5936 -29.4234 50.4579 53.3363 44.6357C117.828 40.0778 177.021 22.9628 241.603 18.8181C305.916 14.692 374.405 25.88 437.37 32.0291C497.674 37.913 558.63 43.0753 620.045 40.38C677.498 37.8575 735.848 33.4353 793.301 38.3447C826.883 41.2188 855.828 48.6569 887.513 54.769C918.614 60.7639 951.511 63.0706 984.318 63.0891C1057.3 63.1384 1125.05 49.9398 1196.52 44.9564C1277.36 39.3192 1360.45 43.5933 1439.75 32.2388" stroke="#E5E8FF" stroke-miterlimit="10"/>
<path d="M-176.989 16.6411C-95.9809 19.3178 -28.6706 48.4227 54.6842 42.8225C119.21 38.5052 178.829 21.8527 243.49 18.1521C307.735 14.4516 375.539 25.5532 438.516 31.4865C498.696 37.136 559.349 41.7185 620.405 38.1475C678.475 34.7553 737.578 31.5605 795.558 37.3827C829.129 40.744 858.321 48.5583 890.242 54.5286C921.196 60.3138 953.813 62.2072 986.317 61.7878C1059.19 60.8565 1126.23 45.968 1197.6 41.1017C1277.98 35.6249 1360.85 42.1996 1439.78 30.6168" stroke="#E5E8FF" stroke-miterlimit="10"/>
<path d="M-176.967 14.4268C-95.4533 17.196 -27.9071 46.4982 55.9978 41.1447C120.557 37.0186 180.626 20.9027 245.32 17.5537C309.43 14.2356 376.685 25.3187 439.627 31.0299C499.696 36.4635 560.045 40.4725 620.753 36.0441C679.474 31.7638 739.307 29.7779 797.691 36.4944C831.229 40.3491 860.668 48.5335 892.869 54.3804C923.633 59.9312 956.081 61.4608 988.305 60.6158C1060.98 58.7224 1127.45 42.2179 1198.7 37.4565C1278.7 32.1092 1361.32 40.9659 1439.87 29.155" stroke="#E5E8FF" stroke-miterlimit="10"/>
<path d="M-176.956 12.3669C-94.993 15.2225 -27.1999 44.7344 57.244 39.5968C121.837 35.6619 182.242 20.0332 247.083 17.0543C311.081 14.1185 377.841 25.1832 440.683 30.697C500.672 35.9703 560.718 39.3748 621.068 34.1077C680.474 28.9269 740.845 28.1251 799.735 35.7112C833.204 40.0285 862.924 48.583 895.339 54.2942C925.946 59.6846 958.214 60.801 990.101 59.5551C1062.52 56.7242 1128.53 38.6963 1199.64 33.9966C1279.36 28.748 1361.65 39.8743 1439.85 27.7797" stroke="#E5E8FF" stroke-miterlimit="10"/>
<path d="M-176.945 10.4734C-94.4658 13.3968 -26.493 43.1061 58.4224 38.172C123.072 34.4221 183.848 19.256 248.755 16.6409C312.652 14.0691 378.896 25.1337 441.681 30.4748C501.615 35.5754 561.369 38.4125 621.381 32.3251C681.394 26.2377 742.36 26.5954 801.71 35.0204C835.102 39.7632 865.113 48.589 897.708 54.2756C928.022 59.5735 960.336 60.2396 991.83 58.5929C1063.96 54.8923 1129.59 35.4089 1200.56 30.7709C1279.93 25.5839 1361.99 38.9614 1439.85 26.5399" stroke="#E5E8FF" stroke-miterlimit="10"/>
<path d="M-176.877 8.70941C-93.949 11.6945 -25.8303 41.6012 59.5904 36.8583C124.217 33.2872 185.352 18.5776 250.339 16.3017C314.09 14.069 379.907 25.1707 442.625 30.3576C502.525 35.2917 561.998 37.5922 621.662 30.703C682.449 23.6905 743.775 25.1522 803.552 34.4036C836.876 39.5473 867.146 48.7062 899.931 54.3126C930.122 59.4748 962.267 59.7709 993.435 57.7911C1027.44 55.6262 1060.6 50.6675 1093.25 45.166C1128.48 39.239 1164.74 30.1973 1201.44 27.8043C1280.54 22.642 1362.31 38.2398 1439.86 25.4482" stroke="#E5E8FF" stroke-miterlimit="10"/>
<path d="M-176.877 7.16751C-93.5448 10.202 -25.3025 40.2998 60.6121 35.7173C125.295 32.2634 186.756 17.9608 251.821 16.0242C315.471 14.106 380.816 25.2755 443.478 30.333C503.378 35.156 562.616 36.9138 621.932 29.2475C683.381 21.3036 745.111 23.8262 805.326 33.8793C838.504 39.4302 869.032 48.8666 901.985 54.3927C932.053 59.4316 964.052 59.3946 994.918 57.0756C1028.86 54.5346 1061.82 49.1441 1094.28 43.2911C1129.26 36.9878 1165.57 27.4774 1202.26 25.0658C1281.11 19.8912 1362.63 37.6786 1439.87 24.4491" stroke="#E5E8FF" stroke-miterlimit="10"/>
<path d="M-176.877 5.76758C-93.163 8.85137 -24.7412 39.1281 61.544 34.6812C126.272 31.3384 188.025 17.4675 253.145 15.8084C316.706 14.1863 381.613 25.4854 444.23 30.4133C504.142 35.1191 563.166 36.3835 622.134 27.9462C684.291 19.0834 746.301 22.5989 806.943 33.423C839.997 39.3193 870.75 49.0455 903.872 54.51C933.816 59.4441 965.624 59.0987 996.265 56.4775C1030.13 53.5787 1062.92 47.7812 1095.21 41.6074C1129.95 34.9649 1166.31 25.0351 1203 22.5866C1281.6 17.3441 1362.92 37.2963 1439.91 23.5919" stroke="#E5E8FF" stroke-miterlimit="10"/>
<path d="M-176.877 4.54013C-92.815 7.62392 -24.2808 38.1103 62.3749 33.7683C127.181 30.518 189.248 17.0295 254.437 15.6418C317.929 14.2849 382.433 25.7505 444.983 30.5797C504.916 35.1992 563.772 35.9948 622.381 26.836C685.178 17.0233 747.346 21.464 808.413 33.0035C841.356 39.239 872.31 49.2181 905.567 54.6333C935.41 59.4872 967.106 58.8704 997.455 55.9716C1031.27 52.7398 1063.89 46.5722 1096.03 40.1024C1130.58 33.1392 1166.96 22.8702 1203.7 20.3662C1282.13 15.0127 1363.25 37.0803 1439.91 22.8332" stroke="#E5E8FF" stroke-miterlimit="10"/>
<path d="M-176.877 3.49167C-92.4893 6.57546 -23.8878 37.253 63.1047 32.9789C127.922 29.7964 190.27 16.6656 255.515 15.4938C318.94 14.3775 383.017 26.0465 445.567 30.8079C505.534 35.3719 564.278 35.742 622.55 25.8738C685.997 15.1237 748.199 20.4032 809.716 32.6582C842.512 39.1958 873.647 49.4032 907.027 54.7813C936.78 59.5797 968.319 58.7286 998.454 55.5831C1032.23 52.0491 1064.7 45.5484 1096.71 38.8073C1131.1 31.5604 1167.44 21.0261 1204.28 18.4542C1282.55 12.9342 1363.57 37.0803 1439.92 22.2041" stroke="#E5E8FF" stroke-miterlimit="10"/>
<path d="M-176.877 2.61588C-92.9048 5.69967 -24.5279 36.3773 61.9594 32.3992C130.303 29.2599 196.367 15.0806 265.328 15.3704C324.284 15.6172 383.443 26.2562 441.682 30.8326C503.558 35.6927 562.784 35.557 622.707 25.1522C689.152 13.6435 751.41 19.6939 815.453 33.3798C844.162 39.5104 871.513 47.8736 900.436 53.6157C931.043 59.6907 964.647 59.0986 996.141 55.725C1031.88 51.9011 1066.09 44.6233 1099.8 37.2222C1133.77 29.7348 1169.89 19.1944 1206.53 16.7273C1284 11.5404 1364.57 37.1482 1439.91 21.7046" stroke="#E5E8FF" stroke-miterlimit="10"/>
<path d="M-176.877 1.92514C-92.669 4.96576 -24.292 35.8469 62.4311 31.8626C130.797 28.7171 197.164 14.8709 266.102 15.3335C325.014 15.7344 383.87 26.6695 442.075 31.252C503.996 36.1244 563.211 35.6433 622.841 24.5602C689.961 12.077 751.893 18.8367 816.464 33.1948C845.038 39.5474 872.468 47.9847 901.469 53.7329C932.009 59.8141 965.467 59.0987 996.781 55.5338C1032.5 51.4694 1066.57 43.8771 1100.18 36.2786C1134.11 28.6061 1170.22 17.9485 1206.94 15.3581C1284.27 9.943 1364.93 37.4689 1439.92 21.279" stroke="#E5E8FF" stroke-miterlimit="10"/>
<path d="M-176.877 1.43182C-92.5006 4.4231 -24.1798 35.4892 62.7903 31.4433C131.167 28.2608 197.68 14.7106 266.709 15.3212C325.598 15.8393 384.173 27.126 442.355 31.7455C504.31 36.6796 563.615 35.8963 622.864 24.147C690.635 10.714 752.073 18.0411 817.194 33.0037C845.701 39.5475 873.198 48.0711 902.221 53.8872C932.738 59.9992 965.905 59.2283 997.197 55.4969C1069.49 46.8623 1134.27 19.8297 1207.26 14.3776C1284.45 8.61089 1365.32 37.9933 1439.92 20.9892" stroke="#E5E8FF" stroke-miterlimit="10"/>
<path d="M-176.877 1.11795C-92.3659 4.04755 -24.0675 35.2987 63.0036 31.1541C131.392 27.8914 198.13 14.6065 267.124 15.3157C326.025 15.9325 384.342 27.6139 442.501 32.3136C504.479 37.3217 563.986 36.3102 622.897 23.9257C691.263 9.54904 752.017 17.3017 817.755 32.8687C846.026 39.5482 873.591 48.3987 902.682 53.9865C933.58 59.9136 965.748 59.4325 997.376 55.5346C1069.8 46.6039 1134.21 19.5467 1207.46 13.6998C1284.55 7.53224 1365.77 38.7094 1439.87 20.8049" stroke="#E5E8FF" stroke-miterlimit="10"/>
<path d="M-176.877 1C-92.276 3.84326 -24.1012 35.2794 63.0598 30.9806C131.448 27.607 198.275 14.544 267.405 15.3088C326.317 15.9626 384.409 28.1374 442.557 32.9481C504.535 38.0734 564.356 36.8954 622.92 23.8879C691.813 8.5738 751.713 16.604 818.081 32.7631C878.71 47.5159 928.663 64.3103 997.32 55.6633C1069.93 46.5168 1134.04 19.6878 1207.55 13.3722C1284.55 6.75436 1366.2 39.6153 1439.96 20.7733" stroke="#E5E8FF" stroke-miterlimit="10"/>
</svg>
