<svg width="60" height="57" viewBox="0 0 60 57" fill="none" xmlns="http://www.w3.org/2000/svg">
<path d="M6.50615 53.8261C6.50615 54.7098 6.18705 55.406 5.54884 55.9148C4.9151 56.4235 4.03144 56.6779 2.89784 56.6779C1.85351 56.6779 0.929676 56.4816 0.126343 56.0888V54.1608C0.786861 54.4554 1.34473 54.6629 1.79995 54.7834C2.25964 54.9039 2.67916 54.9641 3.05851 54.9641C3.51373 54.9641 3.86184 54.8771 4.10284 54.7031C4.34831 54.529 4.47104 54.2702 4.47104 53.9265C4.47104 53.7346 4.41748 53.565 4.31037 53.4177C4.20326 53.266 4.04482 53.1209 3.83507 52.9826C3.62977 52.8442 3.20802 52.6233 2.56982 52.3198C1.97178 52.0387 1.52325 51.7687 1.22423 51.5098C0.925213 51.251 0.686445 50.9497 0.507926 50.6061C0.329408 50.2624 0.240148 49.8607 0.240148 49.4011C0.240148 48.5352 0.532472 47.8546 1.11712 47.3593C1.70623 46.8639 2.51849 46.6162 3.5539 46.6162C4.06268 46.6162 4.54691 46.6764 5.00659 46.7969C5.47074 46.9174 5.95497 47.087 6.45929 47.3057L5.78984 48.9191C5.26768 48.7048 4.83477 48.5553 4.49112 48.4705C4.15194 48.3857 3.81721 48.3433 3.48695 48.3433C3.09421 48.3433 2.79296 48.4348 2.5832 48.6178C2.37344 48.8008 2.26857 49.0396 2.26857 49.3341C2.26857 49.5171 2.31096 49.6778 2.39576 49.8161C2.48056 49.95 2.61444 50.0817 2.79743 50.2111C2.98487 50.3361 3.42447 50.5637 4.11623 50.8939C5.03114 51.3313 5.65819 51.7709 5.99737 52.2127C6.33656 52.6501 6.50615 53.1879 6.50615 53.8261Z" fill="white"/>
<path d="M12.8726 56.544L12.4776 55.5265H12.424C12.0804 55.9594 11.7256 56.2606 11.3596 56.4302C10.9981 56.5954 10.525 56.6779 9.9404 56.6779C9.22186 56.6779 8.65507 56.4726 8.24001 56.062C7.82942 55.6514 7.62412 55.0668 7.62412 54.3081C7.62412 53.5137 7.90082 52.929 8.45423 52.5541C9.0121 52.1748 9.85114 51.965 10.9713 51.9249L12.2701 51.8847V51.5567C12.2701 50.798 11.8818 50.4186 11.1052 50.4186C10.5072 50.4186 9.80428 50.5994 8.99648 50.9609L8.32034 49.5818C9.18169 49.1311 10.1368 48.9057 11.1856 48.9057C12.1897 48.9057 12.9596 49.1244 13.4951 49.5617C14.0307 49.9991 14.2985 50.6641 14.2985 51.5567V56.544H12.8726ZM12.2701 53.0763L11.4801 53.1031C10.8865 53.1209 10.4447 53.2281 10.1546 53.4244C9.86453 53.6208 9.71948 53.9198 9.71948 54.3215C9.71948 54.8972 10.0497 55.1851 10.7103 55.1851C11.1833 55.1851 11.5605 55.0489 11.8416 54.7767C12.1273 54.5045 12.2701 54.143 12.2701 53.6922V53.0763Z" fill="white"/>
<path d="M19.5603 55.0512C19.9174 55.0512 20.3458 54.9731 20.8456 54.8169V56.3365C20.3369 56.5641 19.7121 56.6779 18.9712 56.6779C18.1545 56.6779 17.5587 56.4726 17.1838 56.062C16.8134 55.647 16.6281 55.0266 16.6281 54.201V50.5927H15.6508V49.7291L16.7754 49.0463L17.3645 47.4664H18.67V49.0596H20.7653V50.5927H18.67V54.201C18.67 54.4911 18.7503 54.7053 18.911 54.8436C19.0761 54.982 19.2925 55.0512 19.5603 55.0512Z" fill="white"/>
<path d="M27.6673 56.544L27.3928 55.5867H27.2857C27.067 55.9348 26.7568 56.2048 26.3552 56.3968C25.9535 56.5842 25.4961 56.6779 24.9828 56.6779C24.1036 56.6779 23.4409 56.4436 22.9946 55.975C22.5483 55.5019 22.3251 54.8236 22.3251 53.9399V49.0596H24.3669V53.4311C24.3669 53.9711 24.4629 54.3773 24.6548 54.6495C24.8467 54.9173 25.1524 55.0512 25.5719 55.0512C26.1432 55.0512 26.556 54.8615 26.8104 54.4821C27.0648 54.0983 27.192 53.4646 27.192 52.5809V49.0596H29.2338V56.544H27.6673Z" fill="white"/>
<path d="M35.5533 48.9191C35.83 48.9191 36.0599 48.9391 36.2429 48.9793L36.0889 50.8939C35.9238 50.8493 35.7229 50.827 35.4864 50.827C34.8348 50.827 34.326 50.9943 33.9601 51.3291C33.5986 51.6638 33.4178 52.1324 33.4178 52.7349V56.544H31.376V49.0596H32.9224L33.2237 50.3182H33.3241C33.5562 49.8987 33.8686 49.5617 34.2613 49.3073C34.6585 49.0485 35.0892 48.9191 35.5533 48.9191Z" fill="white"/>
<path d="M44.5105 56.544H42.4687V52.1726C42.4687 51.6325 42.3728 51.2286 42.1808 50.9609C41.9889 50.6886 41.6832 50.5525 41.2637 50.5525C40.6924 50.5525 40.2796 50.7444 40.0252 51.1282C39.7708 51.5076 39.6437 52.1391 39.6437 53.0228V56.544H37.6018V49.0596H39.1617L39.4361 50.0169H39.5499C39.7775 49.6554 40.0899 49.3832 40.4871 49.2002C40.8888 49.0128 41.344 48.9191 41.8528 48.9191C42.7231 48.9191 43.3836 49.1556 43.8344 49.6287C44.2851 50.0973 44.5105 50.7757 44.5105 51.6638V56.544Z" fill="white"/>
<path d="M48.815 56.544H46.7732V46.7568H52.3832V48.4571H48.815V50.9809H52.1355V52.6746H48.815V56.544Z" fill="white"/>
<path d="M54.0501 47.125C54.0501 46.46 54.4205 46.1275 55.1614 46.1275C55.9022 46.1275 56.2727 46.46 56.2727 47.125C56.2727 47.4418 56.1789 47.6895 55.9915 47.868C55.8085 48.0421 55.5318 48.1291 55.1614 48.1291C54.4205 48.1291 54.0501 47.7944 54.0501 47.125ZM56.1789 56.544H54.1371V49.0596H56.1789V56.544Z" fill="white"/>
<path d="M59.8091 14.0246V21.9414C59.8123 23.0497 59.4887 24.1343 58.8787 25.0597C58.2688 25.9851 57.3995 26.7101 56.3797 27.144L35.2373 36.149C32.3287 37.3825 29.2028 38.0223 26.0434 38.0308C22.884 38.0394 19.7548 37.4165 16.8394 36.1988L16.7679 36.1685L6.51649 31.4666C5.09518 30.8221 3.89653 29.7712 3.07171 28.4464C2.24689 27.1216 1.83284 25.5822 1.88178 24.0224V17.634L6.55768 19.5525V24.1351C6.53248 24.7805 6.70005 25.4188 7.03903 25.9686C7.378 26.5184 7.87303 26.9547 8.46098 27.2221L18.6755 31.8979C21.0134 32.8673 23.521 33.3614 26.0519 33.3513C28.5827 33.3413 31.0863 32.8273 33.4164 31.8394L34.4895 31.3842L54.5587 22.8388C54.7338 22.7627 54.8829 22.6374 54.988 22.478C55.0931 22.3187 55.1495 22.1322 55.1505 21.9414V14.0246C55.1523 13.8764 55.1169 13.73 55.0476 13.599C54.9784 13.4679 54.8774 13.3562 54.7539 13.2741C54.6305 13.192 54.4884 13.1421 54.3407 13.1289C54.1931 13.1158 54.0444 13.1398 53.9084 13.1987L30.2796 22.8431C27.4953 23.9905 24.3693 23.985 21.589 22.828L11.9533 18.8566L5.71224 16.2704C4.89283 15.9323 4.1961 15.3522 3.71513 14.6076C3.23417 13.863 2.99187 12.9894 3.02062 12.1034C3.04937 11.2174 3.34779 10.3613 3.87601 9.64948C4.40423 8.93762 5.1371 8.40389 5.97671 8.11961L27.5894 0.825045C31.4927 -0.440513 35.7229 -0.244837 39.4927 1.37566L51.1445 5.87163L44.6802 8.39925L37.7064 5.6917C34.9747 4.49834 31.901 4.34416 29.0635 5.25815L28.9963 5.27983L8.26371 12.2752L23.3558 18.5098C24.1715 18.8479 25.0459 19.0219 25.9289 19.0219C26.812 19.0219 27.6863 18.8479 28.5021 18.5098L52.146 8.88484C52.9903 8.53938 53.9066 8.40703 54.8141 8.49945C55.7216 8.59188 56.5924 8.90625 57.3497 9.41481C58.107 9.92338 58.7274 10.6105 59.1563 11.4156C59.5853 12.2207 59.8094 13.1189 59.8091 14.0311V14.0246Z" fill="white"/>
</svg>
