<svg width="1440" height="269" viewBox="0 0 1440 269" fill="none" xmlns="http://www.w3.org/2000/svg">
<path d="M-91 268C447.932 268 986.863 268 1525.8 268" stroke="#99A3FF" stroke-miterlimit="10"/>
<path d="M-91 260.511C181.902 260.566 454.668 259.227 727.502 257.713C845.551 257.053 964.408 257.27 1082.45 258.659C1230.2 260.395 1378.03 258.759 1525.75 260.511" stroke="#99A3FF" stroke-miterlimit="10"/>
<path d="M-91 253.132C-13.6745 253.132 63.6734 253.399 140.988 253.268C210.083 253.153 279.022 250.641 348.095 250.208C476.765 249.403 605.412 250.339 734.071 249.388C848.268 248.542 963.644 246.303 1077.76 249.72C1144.28 251.733 1210.1 252.649 1276.67 253.48C1359.76 254.517 1442.74 251.703 1525.8 253.132" stroke="#99A3FF" stroke-miterlimit="10"/>
<path d="M-91 245.855C-14.7861 245.855 61.6299 246.429 137.821 245.81C209.421 245.226 280.605 241.134 352.148 240.082C481.065 238.185 608.971 243.605 737.753 242.639C851.075 241.803 962.791 235.019 1076.24 241.089C1142.55 244.637 1206.8 247.415 1273.6 248.225C1357.81 249.232 1441.6 244.335 1525.8 245.855" stroke="#99A3FF" stroke-miterlimit="10"/>
<path d="M-91 238.718C-16.1671 238.718 59.216 239.634 133.993 238.371C208.77 237.107 282.48 231.294 357.032 229.417C424.803 227.711 491.619 228.169 559.03 231.883C619.447 235.215 678.134 237.621 739.045 237.258C792.433 236.936 842.452 233.302 895.178 229.915C955.516 226.035 1017.64 227.847 1077.42 232.789C1143.21 238.235 1205.27 243.444 1272.45 244.038C1357.2 244.793 1440.99 237.414 1525.8 238.718" stroke="#99A3FF" stroke-miterlimit="10"/>
<path d="M-91 231.682C-17.7839 231.682 56.5438 232.915 129.636 230.942C207.737 228.838 284.512 221.218 362.444 218.36C429.356 215.873 496.715 217.578 562.578 223.423C621.378 228.567 678.224 233.162 738.326 232.95C793.982 232.754 844.338 226.438 898.366 221.329C959.692 215.531 1020.38 217.731 1080.77 224.762C1145.5 232.311 1205.25 240.444 1272.9 240.661C1357.79 240.938 1440.76 230.836 1525.8 231.687" stroke="#99A3FF" stroke-miterlimit="10"/>
<path d="M-91 224.757C-19.513 224.726 53.7256 226.266 124.966 223.574C206.749 220.509 286.645 211.052 368.125 207.101C436.502 203.789 499.692 206.869 565.643 215.189C622.108 222.316 676.798 229.452 736.024 229.467C794.588 229.467 846.685 219.98 902.262 213.055C965.576 205.168 1023.96 207.463 1085.82 216.991C1148.79 226.684 1206.6 238.129 1274.62 237.878C1359.39 237.535 1440.79 224.525 1525.8 224.757" stroke="#99A3FF" stroke-miterlimit="10"/>
<path d="M-91 217.942C-21.3206 217.897 50.8176 219.608 120.082 216.296C205.615 212.209 288.498 200.925 373.728 195.832C443.059 191.69 503.24 196.119 568.125 207.201C621.659 216.346 674.238 226.256 732.499 226.568C794.072 226.901 849.582 213.87 906.529 205.098C972.29 194.966 1028.44 197.12 1091.99 209.466C1152.51 221.223 1208.94 236.317 1277.25 235.472C1361.71 234.425 1440.97 218.425 1525.77 217.942" stroke="#99A3FF" stroke-miterlimit="10"/>
<path d="M-91 211.238C-23.1058 211.178 47.9096 212.999 115.299 209.139C204.492 204.031 290.373 190.975 379.151 184.744C449.885 179.777 506.653 185.464 570.168 199.466C620.401 210.538 670.859 223.327 728.311 224.002C792.893 224.752 852.86 207.826 911.121 197.422C941.638 192.002 973.806 186.924 1007.07 188.091C1039.63 189.239 1070.47 195.384 1098.94 202.184C1156.33 215.858 1212.25 234.682 1280.55 233.242C1364.64 231.466 1441.25 212.486 1525.81 211.253" stroke="#99A3FF" stroke-miterlimit="10"/>
<path d="M-90.9443 204.65C-24.7006 204.574 45.1584 206.442 110.706 202.133C203.301 196.064 291.866 181.322 383.933 174.014C456.285 168.266 509.774 175.106 571.571 191.992C618.425 204.796 666.771 220.443 723.707 221.505C791.074 222.758 856.194 201.851 915.567 190.019C946.668 183.818 980.968 177.28 1015.71 178.72C1048.27 180.069 1078.77 187.437 1106 195.077C1160.29 210.317 1215.63 232.94 1284.09 230.922C1367.83 228.446 1441.49 206.582 1525.82 204.65" stroke="#99A3FF" stroke-miterlimit="10"/>
<path d="M-90.9326 198.177C-26.272 198.087 42.554 199.954 106.429 195.329C202.044 188.398 292.989 172.101 387.908 163.817C424.05 160.667 458.306 158.845 493.707 164.371C522.551 168.875 547.926 176.782 572.402 184.775C616.191 199.063 662.415 217.388 719.216 218.823C789.053 220.589 859.406 195.892 919.744 182.852C951.384 176.012 987.795 168.09 1023.86 169.766C1056.57 171.276 1086.67 179.767 1112.73 188.152C1164.13 204.68 1218.81 230.841 1287.64 228.31C1371.08 225.235 1441.68 200.664 1525.86 198.152" stroke="#99A3FF" stroke-miterlimit="10"/>
<path d="M-90.9219 191.811C-27.6199 191.715 40.2743 193.572 102.678 188.736C200.719 181.136 293.393 163.44 390.703 154.375C426.969 150.998 461.124 148.904 496.345 155.176C524.92 160.294 549.273 169.077 572.559 177.854C613.776 193.371 658.07 213.996 715.152 215.733C751.63 216.845 788.311 208.314 819.817 201.092C854.768 193.079 888.373 183.949 923.314 175.927C955.425 168.558 993.6 159.519 1030.88 161.406C1063.82 163.072 1093.45 172.429 1118.58 181.438C1167.62 199.053 1221.26 228.174 1290.76 225.225C1374.05 221.702 1441.7 194.685 1525.87 191.791" stroke="#99A3FF" stroke-miterlimit="10"/>
<path d="M-90.9102 185.56C-28.7421 185.464 38.4334 187.326 99.6359 182.399C199.406 174.371 293.157 155.467 392.096 145.839C428.193 142.316 462.606 140.067 497.468 146.786C526.009 152.287 549.633 161.824 572.077 171.206C611.576 187.709 654.197 210.045 711.975 211.973C749.453 213.211 787.2 203.97 819.199 196.33C855.319 187.699 889.934 177.874 926.054 169.233C958.614 161.437 997.911 151.688 1036.19 153.676C1069.48 155.407 1098.6 165.347 1123.04 174.875C1170.57 193.391 1222.58 224.601 1293.19 221.455C1376.48 217.746 1441.54 188.559 1525.88 185.58" stroke="#99A3FF" stroke-miterlimit="10"/>
<path d="M-90.8877 179.419C-29.5954 179.339 37.1647 181.236 97.4689 176.349C198.081 168.196 292.091 148.3 391.793 138.411C427.396 134.887 462.449 132.592 496.817 139.357C525.594 145.019 548.892 155.07 570.92 164.849C609.791 182.132 651.154 205.364 710.144 207.237C748.453 208.455 786.302 199.118 818.75 191.131C855.633 182.072 890.889 171.744 927.76 162.675C960.736 154.561 1000.2 144.657 1039.26 146.629C1072.95 148.331 1101.58 158.452 1125.72 168.387C1172.87 187.789 1222.4 219.789 1294.66 216.674C1378.16 213.075 1441.26 182.092 1525.95 179.429" stroke="#99A3FF" stroke-miterlimit="10"/>
<path d="M-90.876 173.38C-29.8083 173.209 36.7386 175.343 96.7845 170.36C196.711 162.051 289.52 141.561 388.436 131.44C423.939 127.811 458.969 125.637 493.315 132.321C522.507 138.013 546.265 148.185 568.619 158.085C608.208 175.62 650.009 199.149 709.774 201.343C748.353 202.757 785.977 193.537 818.571 185.424C855.511 176.224 890.698 165.695 927.626 156.489C960.759 148.225 1000.02 138.456 1039.38 140.57C1073.28 142.392 1101.75 152.533 1125.93 162.579C1173.28 182.253 1221.86 213.83 1294.7 210.896C1378.43 207.534 1440.88 175.705 1525.92 173.38" stroke="#99A3FF" stroke-miterlimit="10"/>
<path d="M-90.8652 167.476C-29.5393 167.164 36.8054 169.857 97.0647 164.527C195.218 155.845 285.938 135.018 383.047 124.54C418.975 120.659 453.085 118.641 487.925 125.37C517.645 131.103 542.245 141.169 565.419 150.983C606.322 168.327 649.885 192.093 709.65 195.087C747.993 197.01 785.752 187.764 818.065 179.656C854.556 170.501 889.216 159.962 925.695 150.797C958.76 142.487 998.024 132.794 1037.32 135.305C1071.13 137.465 1100.01 147.752 1124.53 157.687C1172.12 176.963 1222.11 207.946 1294.07 205.098C1378 201.771 1440.66 169.761 1525.9 167.476" stroke="#99A3FF" stroke-miterlimit="10"/>
<path d="M-90.8428 161.673C-29.1688 161.301 36.9963 164.743 97.6261 159.101C193.781 150.153 282.132 129.054 377.197 118.334C413.429 114.237 446.742 112.41 481.974 119.054C512.154 124.746 537.742 134.55 561.781 144.289C604.054 161.401 649.627 185.082 709.336 188.801C747.331 191.171 784.798 182.117 816.819 174.044C852.692 164.985 886.622 154.511 922.472 145.457C955.437 137.132 994.33 127.716 1033.45 130.584C1067.29 133.071 1096.68 143.403 1121.75 153.233C1169.98 172.106 1221.6 202.314 1293.01 199.506C1377.32 196.194 1440.32 163.978 1525.93 161.703" stroke="#99A3FF" stroke-miterlimit="10"/>
<path d="M-90.8203 155.981C-28.7197 155.623 37.4117 159.977 98.4682 154.048C192.422 144.933 278.202 123.619 371.033 112.712C407.411 108.439 440.095 106.834 475.619 113.286C506.338 118.863 532.881 128.385 557.851 137.948C601.887 154.753 649.054 178.091 708.932 182.495C746.477 185.253 783.282 176.591 814.989 168.573C850.076 159.695 883.142 149.312 918.206 140.424C951.047 132.094 989.188 123.146 1028.07 126.331C1062.07 129.125 1092.07 139.417 1117.89 149.111C1167.08 167.567 1220.55 196.849 1291.57 194.055C1376.4 190.718 1439.88 158.286 1526.01 155.996" stroke="#99A3FF" stroke-miterlimit="10"/>
<path d="M-90.8096 150.399C-28.2037 150.117 37.9053 155.518 99.5119 149.332C191.108 140.137 274.159 118.631 364.599 107.664C400.954 103.245 433.189 101.871 468.893 108.042C500.163 113.447 527.637 122.637 553.629 131.908C599.663 148.331 648.268 171.11 708.37 176.148C780.901 182.233 854.196 150.565 912.973 135.637C945.691 127.323 982.799 118.993 1021.34 122.481C1055.61 125.587 1086.24 135.778 1112.95 145.326C1163.39 163.349 1218.85 191.584 1289.7 188.776C1375.15 185.394 1439.24 152.724 1525.99 150.399" stroke="#99A3FF" stroke-miterlimit="10"/>
<path d="M-90.7861 144.933C-27.6301 144.777 38.4901 151.335 100.737 144.933C189.874 135.733 270.062 114.126 357.987 103.124C394.219 98.5946 426.139 97.4672 461.944 103.28C493.786 108.459 522.215 117.242 549.229 126.221C597.261 142.175 647.315 164.195 707.72 169.857C779.151 176.541 849.29 145.789 906.979 131.103C938.877 122.995 976.063 114.821 1013.55 118.998C1048.36 122.874 1079.02 132.27 1107.25 141.833C1159.13 159.398 1216.73 186.491 1287.58 183.652C1373.76 180.205 1438.53 147.289 1526.01 144.898" stroke="#99A3FF" stroke-miterlimit="10"/>
<path d="M-90.7646 139.573C-27.0135 139.573 39.174 147.389 102.117 140.751C188.716 131.616 265.963 109.919 351.294 98.9771C499.5 79.9574 576.814 150.173 707 163.611C777.174 170.863 843.765 141.219 900.409 126.83C932.161 118.777 967.911 111.444 1004.93 115.858C1040.17 120.06 1071.55 129.251 1100.91 138.632C1154.41 155.744 1214.25 181.604 1285.24 178.72C1372.22 175.197 1437.76 142.024 1526.04 139.573" stroke="#99A3FF" stroke-miterlimit="10"/>
<path d="M-90.7422 134.329C-26.3735 134.54 39.9263 143.64 103.621 136.805C187.638 127.791 261.932 106.043 344.602 95.1973C489.743 76.1626 578.139 143.011 706.225 157.41C775.186 165.171 837.781 136.84 893.392 122.728C925.009 114.705 959.198 108.338 995.688 112.954C1031.4 117.483 1063.58 126.442 1094.12 135.627C1149.34 152.236 1211.45 176.853 1282.75 173.903C1370.58 170.274 1436.94 136.86 1526.08 134.329" stroke="#99A3FF" stroke-miterlimit="10"/>
<path d="M-90.7197 129.195C-25.7111 129.623 40.7234 140.051 105.216 133.045C186.662 124.197 257.913 102.425 338.023 91.7246C480.087 72.7452 579.419 135.939 705.428 151.3C773.154 159.554 831.493 132.618 886.128 118.782C917.633 110.805 950.126 105.46 986.054 110.226C1022.26 115.053 1055.27 123.815 1087.03 132.774C1144.02 148.879 1208.42 172.212 1280.08 169.197C1368.77 165.458 1436.01 131.792 1526.03 129.175" stroke="#99A3FF" stroke-miterlimit="10"/>
<path d="M-90.6973 124.172C-25.0599 124.822 41.5656 136.584 106.911 129.432C185.842 120.785 254.152 99.0024 331.679 88.4834C470.724 69.6148 580.677 129.014 704.62 145.296C771.122 154.033 825.082 128.531 878.785 114.962C910.155 107.035 941.065 102.742 976.399 107.679C1013.11 112.813 1046.99 121.354 1079.93 130.091C1138.71 145.693 1205.38 167.738 1277.48 164.648C1367.11 160.802 1435.18 126.9 1526.1 124.172" stroke="#99A3FF" stroke-miterlimit="10"/>
<path d="M-90.6738 119.265C-24.4301 120.131 42.4199 133.197 108.518 125.924C185.023 117.504 250.447 95.726 325.505 85.4134C461.799 66.6906 581.947 122.225 703.88 139.417C769.169 148.628 818.74 124.56 871.566 111.233C902.802 103.356 932.196 100.115 966.856 105.193C1004.08 110.639 1038.8 118.983 1072.92 127.479C1133.43 142.548 1202.32 163.349 1274.92 160.193C1365.45 156.243 1434.36 122.064 1526.17 119.275" stroke="#99A3FF" stroke-miterlimit="10"/>
<path d="M-90.6514 114.464C-23.7452 115.536 43.2619 129.855 110.168 122.481C184.372 114.303 247.034 92.54 319.756 82.4488C453.434 63.8972 583.193 115.576 703.083 133.68C767.283 143.373 812.419 120.639 864.515 107.579C895.65 99.7774 923.506 97.5126 957.582 102.737C995.285 108.495 1030.85 116.673 1066.09 124.922C1128.25 139.473 1199.27 159.051 1272.37 155.815C1363.76 151.763 1433.47 117.337 1526.12 114.464" stroke="#99A3FF" stroke-miterlimit="10"/>
<path d="M-90.6299 109.778C-23.095 111.026 44.103 126.523 111.761 119.074C183.844 111.142 243.912 89.3792 314.456 79.5246C382.889 69.9619 455.69 80.7576 519.609 92.2933C581.25 103.421 639.847 118.017 702.408 128.108C765.8 138.335 806.231 116.673 857.935 103.95C926.592 87.064 996.912 108.479 1059.75 122.365C1123.43 136.417 1196.44 154.828 1270.03 151.521C1362.22 147.384 1432.69 112.717 1526.17 109.773" stroke="#99A3FF" stroke-miterlimit="10"/>
<path d="M-90.6074 105.198C-22.4438 106.592 44.7654 123.161 113.288 115.656C183.451 107.966 241.127 86.2186 309.774 76.5804C377.578 67.0479 452.299 77.4008 516.522 87.965C579.408 98.3128 639.263 111.977 701.813 122.728C764.363 133.478 800.898 112.878 851.939 100.336C919.036 83.853 992.286 106.879 1054.04 119.789C1119.05 133.378 1193.91 150.671 1267.9 147.319C1360.81 143.106 1431.99 108.208 1526.14 105.198" stroke="#99A3FF" stroke-miterlimit="10"/>
<path d="M-90.585 100.734C-21.7813 102.244 45.3718 119.738 114.692 112.189C183.181 104.735 238.736 82.9975 305.564 73.5455C372.851 64.0583 449.279 73.9884 513.793 83.6769C577.791 93.295 638.848 106.139 701.297 117.549C730.758 122.929 752.349 123.151 780.834 116.21C803.986 110.568 823.567 102.374 846.685 96.6922C877.527 89.1025 902.094 89.3139 934.396 94.9559C973.21 101.745 1011.03 109.552 1049.11 117.136C1115.21 130.262 1191.7 146.549 1266.03 143.167C1359.58 138.909 1431.35 103.779 1526.18 100.734" stroke="#99A3FF" stroke-miterlimit="10"/>
<path d="M-90.5615 96.3751C-21.1179 97.885 45.8331 116.215 115.962 108.64C183.092 101.388 236.75 79.5699 302.23 70.3595C369.17 60.9428 447 70.4602 511.773 79.4189C576.546 88.3776 638.736 100.557 700.983 112.637C729.749 118.218 750.778 119.008 779.016 112.103C801.404 106.627 820.087 98.5443 842.419 93.0281C873.093 85.4484 897.278 86.2537 929.019 92.0819C968.024 99.2439 1006.42 107.035 1045.23 114.408C1112.15 127.122 1190.14 142.502 1264.58 139.11C1358.65 134.827 1430.9 99.4854 1526.19 96.4204" stroke="#99A3FF" stroke-miterlimit="10"/>
<path d="M-90.54 92.1373C-20.4452 93.6069 46.124 112.571 117.038 104.976C183.17 97.885 235.154 75.9009 299.725 66.9623C366.575 57.6966 445.248 66.7811 510.425 75.1006C576.13 83.4805 638.859 95.152 700.848 107.896C729.029 113.684 749.823 114.901 777.847 107.996C799.629 102.636 817.56 94.6034 839.274 89.193C869.803 81.5881 893.965 82.8212 925.223 88.8709C964.284 96.4204 1003.13 104.232 1042.53 111.449C1109.9 123.795 1189.19 138.38 1263.57 135.013C1358.01 130.735 1430.61 95.1923 1526.3 92.1373" stroke="#99A3FF" stroke-miterlimit="10"/>
<path d="M-90.5176 88.0053C-19.7828 89.339 46.2139 108.761 117.914 101.146C183.361 94.1959 234.222 72.1161 298.019 63.2832C364.655 54.0628 444.361 62.9511 509.706 70.7522C576.085 78.6792 639.095 90.0336 700.791 103.467C728.513 109.506 749.419 110.966 777.297 104.015C798.63 98.6953 815.999 90.6577 837.298 85.2875C867.714 77.6172 892.213 79.0667 923.101 85.3932C962.083 93.3755 1001.22 101.242 1041.06 108.339C1108.63 120.372 1188.84 134.304 1262.92 130.987C1357.58 126.754 1430.36 91.02 1526.28 88.0053" stroke="#99A3FF" stroke-miterlimit="10"/>
<path d="M-90.4834 83.9789C-19.3893 85.1768 46.147 104.81 118.285 97.1251C183.507 90.1796 234.066 68.12 297.66 59.3374C364.229 50.1472 444.294 59.2166 509.662 66.8517C576.276 74.6327 639.084 85.9015 700.859 99.395C728.479 105.435 749.677 106.693 777.365 99.7875C798.552 94.5029 815.809 86.5357 836.996 81.2359C867.31 73.6563 892.259 75.0655 922.854 81.5731C961.668 89.8272 1000.85 97.7542 1040.86 104.78C1108.1 116.593 1189.36 130.368 1262.86 126.925C1357.39 122.506 1430.64 87.3762 1526.31 83.994" stroke="#99A3FF" stroke-miterlimit="10"/>
<path d="M-90.4609 80.0179C-19.2097 81.1554 46.1358 100.92 118.442 93.144C183.563 86.138 234.38 64.2647 298.019 55.5375C364.588 46.4076 444.474 55.8747 509.741 63.5601C576.141 71.3813 638.68 82.63 700.882 95.4843C759.76 107.649 788.941 88.9414 837.433 77.275C867.748 69.9822 892.854 71.3109 923.169 77.8437C961.814 86.1733 1000.93 94.0801 1040.93 101.026C1107.78 112.632 1190.09 126.472 1263.07 122.738C1357.19 117.916 1431.34 84.2154 1526.37 80.0934" stroke="#99A3FF" stroke-miterlimit="10"/>
<path d="M-90.4385 76.1173C-18.9739 77.2145 46.2144 97.125 118.746 89.2836C183.867 82.2374 234.885 60.5956 298.558 51.9489C365.127 42.8896 444.777 52.719 509.943 60.4295C576.085 68.2558 638.388 79.4542 700.949 91.6592C759.333 103.054 789.558 84.6784 838.085 73.5404C868.4 66.5647 893.729 67.8532 923.775 74.3961C962.241 82.7709 1001.25 90.6174 1041.23 97.4421C1107.81 108.812 1190.94 122.506 1263.31 118.52C1356.96 113.366 1432.02 81.1302 1526.36 76.3539" stroke="#99A3FF" stroke-miterlimit="10"/>
<path d="M-90.416 72.2873C-18.7044 73.3543 46.3828 93.4259 119.183 85.5493C184.226 78.5132 235.548 57.1179 299.265 48.5618C365.835 39.6534 445.226 49.7295 510.268 57.4451C576.097 65.2462 638.265 76.359 701.05 87.8896C759.019 98.5243 790.277 80.5565 838.927 69.9369C869.32 63.3085 894.841 64.5969 924.662 71.1348C962.915 79.5248 1001.84 87.2806 1041.76 93.9443C1108.17 105.042 1191.8 118.4 1263.68 114.207C1356.87 108.776 1432.8 78.0551 1526.41 72.69" stroke="#99A3FF" stroke-miterlimit="10"/>
<path d="M-90.3936 68.5226C-18.3788 69.5795 46.5849 89.8071 119.756 81.9254C184.742 74.9296 236.379 53.7759 300.152 45.391C366.699 36.6386 445.686 46.9411 510.706 54.6315C576.175 62.3823 638.152 73.3794 701.196 84.2154C758.727 94.1053 791.085 76.6106 839.96 66.5648C870.454 60.2937 896.177 61.6274 925.807 68.1451C963.761 76.5777 1002.71 84.0812 1042.47 90.6224C1108.83 101.413 1192.7 114.277 1264.17 109.894C1356.75 104.242 1433.6 75.0705 1526.4 69.197" stroke="#99A3FF" stroke-miterlimit="10"/>
<path d="M-90.3594 64.8284C-18.019 65.8854 46.9222 86.2891 120.453 78.4175C185.383 71.477 237.367 50.6052 301.219 42.3914C367.744 33.8353 446.394 44.2989 511.29 51.954C576.411 59.6243 638.22 70.4704 701.41 80.6018C758.514 89.7619 792.04 72.7856 841.207 63.3487C871.847 57.4652 897.761 58.8744 927.222 65.3619C964.948 73.7387 1003.75 81.1015 1043.43 87.4114C1109.82 97.865 1193.68 110.03 1264.76 105.53C1356.75 99.707 1434.48 72.1313 1526.47 65.7998" stroke="#99A3FF" stroke-miterlimit="10"/>
<path d="M-90.3369 61.2146C-17.6261 62.2765 47.304 82.8564 121.25 75.0452C186.135 68.1903 238.49 47.6205 302.365 39.6029C368.855 31.2582 447.09 41.8476 511.93 49.4374C576.568 56.9869 638.355 67.6618 701.612 77.0735C758.312 85.5138 793.073 69.1164 842.576 60.3187C873.385 54.8428 899.501 56.3577 928.839 62.8352C966.306 71.1319 1004.94 78.3291 1044.48 84.3814C1110.99 94.4474 1194.59 105.802 1265.37 101.197C1356.72 95.2577 1435.29 69.3076 1526.45 62.5886" stroke="#99A3FF" stroke-miterlimit="10"/>
<path d="M-90.3145 57.6714C-17.1994 58.7585 47.7868 79.5347 122.159 71.7638C187 65.0296 239.736 44.787 303.678 36.9858C370.124 28.8827 447.932 39.5476 512.627 47.0518C576.816 54.5006 638.535 64.934 701.814 73.6209C758.121 81.3466 794.185 65.5682 844.058 57.4449C875.058 52.4119 901.376 54.0426 930.624 60.4647C967.843 68.663 1006.31 75.668 1045.74 81.4271C1112.46 91.1055 1195.59 101.499 1266.11 96.813C1356.8 90.7734 1436.18 66.5093 1526.48 59.443" stroke="#99A3FF" stroke-miterlimit="10"/>
<path d="M-90.293 54.2087C-16.74 55.3261 48.2349 76.3035 123.158 68.6383C187.953 62.0048 241.105 42.1044 305.114 34.5449C371.504 26.7085 448.83 37.4086 513.434 44.8172C577.174 52.1301 638.837 62.3018 702.06 70.2539C757.986 77.3001 795.43 62.1659 845.697 54.7422C876.91 50.137 903.43 51.9439 932.611 58.2653C969.57 66.3393 1007.86 73.1303 1047.13 78.5785C1114.11 87.814 1196.56 97.1351 1266.88 92.394C1356.9 86.3544 1437.03 63.7563 1526.48 56.3981" stroke="#99A3FF" stroke-miterlimit="10"/>
<path d="M-90.2705 50.8316C-16.2572 51.9892 48.7851 73.168 124.179 65.6084C189.008 59.131 242.576 39.5728 306.664 32.2749C372.986 24.7255 449.773 35.4206 514.377 42.7184C577.645 49.8753 639.263 59.7551 702.419 66.9673C757.963 73.3139 796.867 58.8843 847.549 52.1955C878.987 48.0483 905.698 50.0313 934.856 56.3226C971.546 64.2548 1009.64 70.8084 1048.75 75.916C1115.98 84.6784 1197.61 92.852 1267.77 88.0555C1357.08 81.9807 1437.93 61.1442 1526.52 53.5343" stroke="#99A3FF" stroke-miterlimit="10"/>
<path d="M-90.248 47.5551C-15.7744 48.748 49.3465 70.1281 125.403 62.6944C190.131 56.3629 244.148 37.1872 308.303 30.1662C374.547 22.9136 450.806 33.5836 515.264 40.7354C578.072 47.7212 639.645 57.2738 702.666 63.7513C757.862 69.4285 798.304 55.6985 849.379 49.7797C881.042 46.1006 907.966 48.2698 937.135 54.5158C973.548 62.2894 1011.44 68.5872 1050.36 73.3341C1118.03 81.5882 1198.64 88.4834 1268.69 83.697C1357.3 77.6574 1438.79 58.5723 1526.55 50.746" stroke="#99A3FF" stroke-miterlimit="10"/>
<path d="M-90.2256 44.3341C-15.213 45.5974 50.0314 67.1839 126.627 59.8911C191.344 53.7358 245.832 34.9426 310.032 28.2135C376.22 21.283 451.906 31.8926 516.275 38.9237C578.611 45.7333 640.139 54.9235 702.992 60.6662C757.862 65.6992 799.899 52.709 851.355 47.5804C883.253 44.3845 910.38 46.7852 939.594 52.9456C975.73 60.5448 1013.41 66.5702 1052.12 70.9385C1120.2 78.649 1199.7 84.2206 1269.66 79.4292C1357.57 73.4147 1439.64 56.1516 1526.57 48.1441" stroke="#99A3FF" stroke-miterlimit="10"/>
<path d="M-90.2031 41.2185C-14.6516 42.5472 50.705 64.34 127.941 57.2083C192.601 51.2341 247.527 32.8386 311.84 26.4165C377.938 19.8132 453.04 30.3472 517.308 37.2223C579.195 43.8407 640.644 52.6434 703.295 57.6512C757.884 62.0148 801.549 49.8098 853.399 45.4462C885.521 42.7435 912.839 45.3808 942.154 51.4858C978.009 58.8961 1015.47 64.6304 1053.95 68.5979C1122.44 75.7247 1200.72 79.9121 1270.64 75.1408C1357.87 69.1969 1440.46 53.7557 1526.59 45.5871" stroke="#99A3FF" stroke-miterlimit="10"/>
<path d="M-90.1807 38.1989C-14.1015 39.598 51.4236 61.5972 129.254 54.6366C193.926 48.8537 249.313 30.8658 313.704 24.7608C379.712 18.5048 454.219 28.9331 518.442 35.6471C579.891 42.0743 641.251 50.4542 703.699 54.7322C758.053 58.4516 803.379 47.0418 855.6 43.4835C887.958 41.274 915.466 44.163 944.894 50.1774C980.47 57.396 1017.71 62.8343 1055.95 66.3937C1124.9 72.9013 1201.84 75.6594 1271.74 70.9234C1358.2 65.0549 1441.28 51.4759 1526.61 43.1715" stroke="#99A3FF" stroke-miterlimit="10"/>
<path d="M-90.1572 35.2747C-13.5279 36.7493 52.1656 58.9297 130.636 52.1805C195.308 46.5989 251.155 29.0187 315.625 23.2458C381.543 17.3572 455.444 27.6547 519.588 34.1976C580.622 40.4234 641.869 48.3554 704.048 51.9087C758.211 55.004 805.188 44.4045 857.745 41.6515C890.305 39.9453 918.027 43.0959 947.567 49.0349C982.866 56.0481 1019.88 61.1751 1057.86 64.31C1127.24 70.1633 1202.83 71.4669 1272.73 66.7661C1358.56 60.9983 1441.97 49.2966 1526.56 40.8714" stroke="#99A3FF" stroke-miterlimit="10"/>
<path d="M-90.1348 32.4562C-12.944 34.0064 52.9404 56.4132 132.04 49.8401C196.7 44.4599 253.041 27.3024 317.59 21.8869C383.395 16.3506 456.679 26.5324 520.812 32.8941C581.441 38.9337 642.554 46.3774 704.475 49.211C758.537 51.6872 807.119 41.9132 860.08 39.9704C892.877 38.7676 920.71 42.195 950.531 48.0534C985.558 54.8578 1022.35 59.6666 1060.05 62.3672C1218.36 74.0891 1373.49 54.3145 1526.72 38.7122" stroke="#99A3FF" stroke-miterlimit="10"/>
<path d="M-90.1123 29.7282C-12.3489 31.364 53.7263 53.9671 133.477 47.6004C198.138 42.4365 254.961 25.7069 319.588 20.6085C385.282 15.4245 457.948 25.4804 521.946 31.6559C582.227 37.4891 643.16 44.4497 704.801 46.5485C758.851 48.4057 808.961 39.5023 862.315 38.3447C895.302 37.6401 923.371 41.3645 953.36 47.1373C987.987 53.8463 1024.76 58.1244 1062.09 60.4899C1216.37 70.269 1377.29 52.115 1526.68 36.6184" stroke="#99A3FF" stroke-miterlimit="10"/>
<path d="M-90.0908 27.1111C-11.7549 28.8324 54.5225 51.6318 134.924 45.4765C199.596 40.5089 256.891 24.2272 321.597 19.471C387.178 14.6545 459.215 24.5745 523.146 30.5436C583.102 36.1554 643.822 42.6228 705.181 44.037C759.333 45.2852 810.857 37.2224 864.615 36.8852C897.793 36.6788 926.042 40.6951 956.268 46.3975C990.669 52.885 1027.19 56.7957 1064.21 58.7384C1134.73 62.4376 1206.24 59.287 1276.18 54.7623C1360.1 49.3317 1444.14 43.3727 1526.7 34.6304" stroke="#99A3FF" stroke-miterlimit="10"/>
<path d="M-90.0684 24.5997C-11.8334 26.3764 54.3541 49.2161 134.677 43.5892C199.091 39.0595 256.498 23.412 320.699 18.6659C385.595 13.8694 456.184 23.3868 519.553 29.1345C580.812 34.6708 642.867 40.8563 705.574 41.6314C761.242 42.3209 815.483 34.701 871.026 35.5918C904.553 36.1303 932.498 41.0425 963.229 46.4983C995.149 52.1654 1028.85 55.4117 1062.94 56.9468C1135.5 60.2132 1207.45 55.3966 1279.14 50.8518C1361.89 45.6074 1445.38 41.571 1526.76 32.8035" stroke="#99A3FF" stroke-miterlimit="10"/>
<path d="M-90.0566 22.1989C-11.2828 24.0611 55.1742 47.092 136.093 41.6816C200.517 37.3733 258.385 22.1385 322.686 17.7397C387.448 13.3308 457.475 22.7122 520.755 28.2737C581.722 33.6389 643.542 39.3463 705.923 39.3463C761.916 39.3463 817.358 32.738 873.362 34.424C906.933 35.4306 935.115 40.6247 966.081 45.9647C997.788 51.4305 1031.27 54.3345 1065.06 55.482C1137.85 57.9532 1208.57 51.5966 1280.24 47.1776C1362.45 42.1094 1445.93 39.9502 1526.74 31.072" stroke="#99A3FF" stroke-miterlimit="10"/>
<path d="M-90.0342 19.914C-10.6653 21.8617 55.9265 45.0789 137.53 39.8798C201.977 35.7729 260.294 20.9659 324.685 16.9093C389.312 12.8275 458.789 22.1436 522.035 27.5238C582.665 32.6927 644.249 37.8868 706.305 37.152C762.702 36.4826 819.233 30.8658 875.709 33.3369C909.325 34.8116 937.731 40.2825 968.899 45.5067C1000.34 50.7763 1033.66 53.338 1067.14 54.098C1140.12 55.7639 1209.67 47.8974 1281.32 43.5992C1363.02 38.6971 1446.37 38.4253 1526.7 29.4364" stroke="#99A3FF" stroke-miterlimit="10"/>
<path d="M-90.0117 17.7449C-10.0926 19.7581 56.7798 43.1715 138.956 38.1889C203.414 34.2782 262.18 19.8738 326.672 16.1796C391.164 12.4854 460.08 21.6756 523.158 26.8697C583.642 31.8523 644.934 36.5582 706.653 35.0835C763.544 33.7246 821.041 29.1144 877.988 32.3607C911.671 34.2782 940.28 40.046 971.74 45.1495C1003.2 50.2529 1036.1 52.4473 1069.26 52.8298C1142.24 53.6804 1210.87 44.3392 1282.45 40.1618C1363.67 35.4207 1446.95 37.0313 1526.75 27.9115" stroke="#99A3FF" stroke-miterlimit="10"/>
<path d="M-90.001 15.6913C-9.53175 17.8051 57.5765 41.3595 140.336 36.6084C204.828 32.889 264.021 18.9225 328.603 15.5403C392.915 12.1732 461.405 21.3031 524.37 26.321C584.674 31.1224 645.629 35.335 707.045 33.1356C764.498 31.0771 822.848 27.4685 880.301 31.4747C913.883 33.8201 942.828 39.8899 974.512 44.8776C1005.61 49.7696 1038.51 51.652 1071.32 51.6671C1144.3 51.7073 1212.05 40.9367 1283.52 36.8701C1364.36 32.2699 1447.45 35.7578 1526.75 26.4921" stroke="#99A3FF" stroke-miterlimit="10"/>
<path d="M-89.9893 13.7637C-8.98109 15.948 58.3293 39.6987 141.684 35.1288C206.21 31.6057 265.829 18.0166 330.49 14.9968C394.735 11.977 462.539 21.0364 525.516 25.8781C585.696 30.4883 646.349 34.2279 707.405 31.3138C765.475 28.5456 824.578 25.9385 882.558 30.6897C916.129 33.4326 945.321 39.8094 977.241 44.6814C1008.2 49.4023 1040.81 50.9474 1073.32 50.6052C1146.19 49.8452 1213.23 37.6956 1284.6 33.7246C1364.98 29.2553 1447.85 34.6204 1526.78 25.1685" stroke="#99A3FF" stroke-miterlimit="10"/>
<path d="M-89.9668 11.9568C-8.45338 14.2166 59.0927 38.1283 142.998 33.7597C207.557 30.3926 267.626 17.2414 332.32 14.5085C396.43 11.8007 463.685 20.845 526.627 25.5056C586.696 29.9396 647.045 33.2111 707.753 29.5974C766.474 26.1045 826.307 24.4839 884.691 29.9648C918.228 33.1104 947.668 39.7892 979.869 44.5604C1010.63 49.0901 1043.08 50.3383 1075.3 49.6488C1147.98 48.1037 1214.45 34.6354 1285.7 30.7499C1365.7 26.3863 1448.32 33.6137 1526.87 23.9755" stroke="#99A3FF" stroke-miterlimit="10"/>
<path d="M-89.9551 10.2758C-7.99256 12.6061 59.8006 36.689 144.244 32.4965C208.838 29.2854 269.243 16.5319 334.083 14.1009C398.081 11.7052 464.841 20.7344 527.683 25.2339C587.673 29.5371 647.719 32.3153 708.068 28.0171C767.474 23.7894 827.846 23.1351 886.735 29.3257C920.205 32.8488 949.925 39.8295 982.339 44.4901C1012.95 48.8889 1045.21 49.7999 1077.1 48.7832C1149.52 46.4731 1215.53 31.7617 1286.64 27.9265C1366.36 23.6435 1448.65 32.723 1526.85 22.8533" stroke="#99A3FF" stroke-miterlimit="10"/>
<path d="M-89.9443 8.73065C-7.46533 11.1163 60.5074 35.3602 145.423 31.3338C210.072 28.2737 270.848 15.8976 335.756 13.7636C399.653 11.6649 465.896 20.6941 528.682 25.0526C588.616 29.2149 648.37 31.5301 708.382 26.5625C768.394 21.595 829.361 21.8869 888.711 28.7619C922.102 32.6323 952.114 39.8345 984.708 44.4749C1015.02 48.7983 1047.34 49.3418 1078.83 47.998C1150.96 44.9782 1216.59 29.079 1287.57 25.2942C1366.93 21.0615 1448.99 31.978 1526.85 21.8416" stroke="#99A3FF" stroke-miterlimit="10"/>
<path d="M-89.877 7.29114C-6.94885 9.7271 61.1699 34.1321 146.591 30.2617C211.217 27.3476 272.352 15.3439 337.339 13.4867C401.09 11.6648 466.907 20.7242 529.625 24.9569C589.525 28.9833 648.998 30.8606 708.663 25.2388C769.45 19.5163 830.775 20.7091 890.552 28.2586C923.876 32.4561 954.146 39.9301 986.931 44.505C1017.12 48.7177 1049.27 48.9592 1080.44 47.3436C1114.44 45.5771 1147.6 41.5305 1180.25 37.0411C1215.48 32.2044 1251.74 24.8261 1288.44 22.8733C1367.54 18.6607 1449.31 31.3891 1526.86 20.9507" stroke="#99A3FF" stroke-miterlimit="10"/>
<path d="M-89.877 6.0329C-6.54465 8.50913 61.6976 33.0701 147.612 29.3306C212.295 26.5121 273.756 14.8406 338.821 13.2603C402.471 11.695 467.816 20.8098 530.478 24.9368C590.378 28.8726 649.616 30.307 708.932 24.051C770.381 17.5685 832.112 19.627 892.326 27.8308C925.504 32.3605 956.032 40.0609 988.986 44.5705C1019.05 48.6824 1051.05 48.6522 1081.92 46.7598C1115.86 44.6862 1148.82 40.2874 1181.28 35.5111C1216.26 30.3674 1252.57 22.6065 1289.26 20.6386C1368.11 16.416 1449.63 30.9311 1526.87 20.1353" stroke="#99A3FF" stroke-miterlimit="10"/>
<path d="M-89.877 4.89053C-6.16292 7.40703 62.2589 32.114 148.544 28.4852C213.272 25.7573 275.025 14.4381 340.146 13.0842C403.706 11.7606 468.613 20.981 531.23 25.0024C591.142 28.8425 650.166 29.8743 709.134 22.9892C771.291 15.7568 833.302 18.6256 893.943 27.4584C926.997 32.27 957.75 40.207 990.872 44.6662C1020.82 48.6926 1052.62 48.4108 1083.26 46.2718C1117.13 43.9063 1149.92 39.1752 1182.21 34.1372C1216.95 28.7167 1253.31 20.6136 1290 18.6155C1368.6 14.3375 1449.92 30.6192 1526.91 19.4359" stroke="#99A3FF" stroke-miterlimit="10"/>
<path d="M-89.877 3.88892C-5.81485 6.40541 62.7193 31.2835 149.375 27.7402C214.182 25.0879 276.248 14.0807 341.437 12.9483C404.93 11.841 469.433 21.1974 531.983 25.1382C591.916 28.9079 650.772 29.5572 709.381 22.0832C772.178 14.0757 834.346 17.6994 895.413 27.1162C928.356 32.2045 959.311 40.3479 992.567 44.7668C1022.41 48.7278 1054.11 48.2245 1084.46 45.859C1118.27 43.2217 1150.89 38.1887 1183.03 32.9091C1217.58 27.2269 1253.96 18.847 1290.7 16.8036C1369.13 12.4349 1450.25 30.443 1526.91 18.8168" stroke="#99A3FF" stroke-miterlimit="10"/>
<path d="M-89.877 3.03333C-5.48923 5.54982 63.1123 30.5839 150.105 27.096C214.923 24.499 277.27 13.7838 342.515 12.8275C405.94 11.9165 470.017 21.439 532.567 25.3244C592.534 29.0488 651.278 29.3508 709.55 21.298C772.998 12.5255 835.199 16.8338 896.716 26.8343C929.512 32.1693 960.647 40.4989 994.027 44.8876C1023.78 48.8033 1055.32 48.1088 1085.45 45.5419C1119.23 42.658 1151.7 37.3533 1183.71 31.8522C1218.1 25.9384 1254.44 17.3421 1291.28 15.2434C1369.55 10.7388 1450.57 30.443 1526.92 18.3034" stroke="#99A3FF" stroke-miterlimit="10"/>
<path d="M-89.877 2.3186C-5.90468 4.8351 62.4723 29.8692 148.96 26.6229C217.303 24.0611 283.367 12.4903 352.328 12.7268C411.285 12.9281 470.443 21.61 528.682 25.3445C590.558 29.3105 649.784 29.1998 709.707 20.7091C776.152 11.3176 838.41 16.2549 902.453 27.4231C931.163 32.4259 958.513 39.2507 987.436 43.9364C1018.04 48.8939 1051.65 48.4107 1083.14 45.6577C1118.88 42.5372 1153.09 36.5983 1186.8 30.5587C1220.77 24.4487 1256.89 15.8473 1293.53 13.8341C1371 9.60134 1451.57 30.4983 1526.91 17.8957" stroke="#99A3FF" stroke-miterlimit="10"/>
<path d="M-89.877 1.75497C-5.66888 4.23624 62.7081 29.4364 149.431 26.1851C217.797 23.6183 284.164 12.3192 353.102 12.6967C412.014 13.0238 470.87 21.9473 529.075 25.6868C590.996 29.6629 650.211 29.2703 709.842 20.226C776.961 10.0393 838.893 15.5554 903.464 27.2722C932.039 32.4562 959.468 39.3413 988.469 44.0321C1019.01 48.9946 1052.47 48.4108 1083.78 45.5017C1119.5 42.185 1153.57 35.9894 1187.18 29.7887C1221.11 23.5277 1257.22 14.8307 1293.94 12.7168C1371.27 8.29786 1451.93 30.7601 1526.92 17.5485" stroke="#99A3FF" stroke-miterlimit="10"/>
<path d="M-89.877 1.35245C-5.50046 3.79345 62.8204 29.1446 149.79 25.843C218.167 23.2459 284.681 12.1885 353.709 12.6867C412.598 13.1095 471.173 22.3199 529.356 26.0896C591.31 30.116 650.615 29.4768 709.864 19.8889C777.635 8.92709 839.073 14.9063 904.194 27.1163C932.701 32.4563 960.198 39.4119 989.221 44.158C1019.74 49.1457 1052.91 48.5166 1084.2 45.4716C1156.49 38.4254 1221.27 16.3658 1294.26 11.9167C1371.45 7.21084 1452.32 31.188 1526.92 17.3121" stroke="#99A3FF" stroke-miterlimit="10"/>
<path d="M-89.877 1.09622C-5.36574 3.48689 62.9326 28.989 150.004 25.6069C218.392 22.9444 285.13 12.1034 354.124 12.6822C413.025 13.1855 471.342 22.7179 529.501 26.5531C591.479 30.6399 650.986 29.8144 709.898 19.7082C778.263 7.97632 839.017 14.3028 904.755 27.006C933.027 32.4568 960.591 39.6791 989.682 44.239C1020.58 49.0757 1052.75 48.6831 1084.38 45.5023C1156.8 38.2145 1221.21 16.1348 1294.46 11.3635C1371.55 6.33053 1452.77 31.7723 1526.87 17.1615" stroke="#99A3FF" stroke-miterlimit="10"/>
<path d="M-89.877 1C-5.27592 3.32021 62.8989 28.9733 150.06 25.4654C218.448 22.7123 285.276 12.0524 354.405 12.6765C413.317 13.21 471.409 23.1451 529.558 27.0709C591.535 31.2533 651.356 30.292 709.92 19.6774C778.814 7.18051 838.713 13.7335 905.081 26.9199C965.71 38.9588 1015.66 52.6636 1084.32 45.6074C1156.93 38.1434 1221.04 16.25 1294.55 11.0962C1371.55 5.69578 1453.2 32.5115 1526.96 17.1358" stroke="#99A3FF" stroke-miterlimit="10"/>
</svg>
