<svg width="390" height="252" viewBox="0 0 390 252" fill="none" xmlns="http://www.w3.org/2000/svg">
<g clip-path="url(#clip0_123_242)">
<rect width="390" height="2116" transform="translate(0 -502)" fill="white"/>
<mask id="mask0_123_242" style="mask-type:alpha" maskUnits="userSpaceOnUse" x="0" y="-502" width="390" height="755">
<rect y="-502" width="390" height="754.015" fill="#5465FF"/>
</mask>
<g mask="url(#mask0_123_242)">
<rect y="-502" width="390" height="754.015" fill="#5465FF"/>
<path d="M-916.843 252.015C-381.459 252.015 153.925 252.015 689.309 252.015" stroke="#99A3FF" stroke-width="0.993417" stroke-miterlimit="10"/>
<path d="M-916.843 244.575C-645.738 244.63 -374.767 243.3 -103.729 241.795C13.5424 241.14 131.617 241.355 248.877 242.735C395.662 244.46 542.513 242.835 689.264 244.575" stroke="#99A3FF" stroke-width="0.993417" stroke-miterlimit="10"/>
<path d="M-916.843 237.246C-840.027 237.246 -763.188 237.511 -686.383 237.381C-617.742 237.266 -549.258 234.771 -480.639 234.341C-352.816 233.541 -225.016 234.471 -97.204 233.526C16.2417 232.686 130.858 230.461 244.226 233.856C310.301 235.856 375.696 236.766 441.827 237.591C524.366 238.621 606.804 235.826 689.309 237.246" stroke="#99A3FF" stroke-width="0.993417" stroke-miterlimit="10"/>
<path d="M-916.843 230.016C-841.131 230.016 -765.218 230.586 -689.528 229.971C-618.4 229.391 -547.685 225.326 -476.613 224.281C-348.544 222.396 -221.48 227.781 -93.5455 226.821C19.0302 225.991 130.011 219.251 242.709 225.281C308.584 228.806 372.417 231.566 438.771 232.371C522.425 233.371 605.666 228.506 689.309 230.016" stroke="#99A3FF" stroke-width="0.993417" stroke-miterlimit="10"/>
<path d="M-916.843 222.926C-842.503 222.926 -767.616 223.836 -693.332 222.581C-619.047 221.326 -545.822 215.552 -471.761 213.687C-404.436 211.992 -338.06 212.447 -271.092 216.137C-211.073 219.446 -152.772 221.836 -92.2628 221.476C-39.2263 221.156 10.464 217.546 62.8424 214.182C122.783 210.327 184.497 212.127 243.88 217.037C309.242 222.446 370.889 227.621 437.633 228.211C521.823 228.961 605.064 221.631 689.309 222.926" stroke="#99A3FF" stroke-width="0.993417" stroke-miterlimit="10"/>
<path d="M-916.843 215.936C-844.109 215.936 -770.271 217.161 -697.659 215.201C-620.073 213.111 -543.803 205.542 -466.385 202.702C-399.913 200.232 -332.997 201.925 -267.568 207.732C-209.155 212.841 -152.683 217.406 -92.9766 217.196C-37.6871 217.001 12.3379 210.727 66.0101 205.652C126.932 199.892 187.219 202.077 247.215 209.062C311.517 216.561 370.878 224.641 438.08 224.856C522.414 225.131 604.829 215.096 689.309 215.941" stroke="#99A3FF" stroke-width="0.993417" stroke-miterlimit="10"/>
<path d="M-916.843 209.057C-845.827 209.027 -773.07 210.557 -702.299 207.882C-621.055 204.837 -541.684 195.442 -460.741 191.517C-392.814 188.227 -330.04 191.287 -264.523 199.552C-208.43 206.632 -154.1 213.722 -95.2631 213.737C-37.0847 213.737 14.669 204.312 69.8805 197.432C132.777 189.597 190.777 191.877 252.235 201.342C314.785 210.972 372.216 222.341 439.786 222.091C523.998 221.751 604.863 208.827 689.309 209.057" stroke="#99A3FF" stroke-width="0.993417" stroke-miterlimit="10"/>
<path d="M-916.843 202.287C-847.623 202.242 -775.959 203.942 -707.151 200.652C-622.181 196.592 -539.844 185.382 -455.175 180.322C-386.3 176.208 -326.516 180.607 -262.058 191.617C-208.876 200.702 -156.643 210.547 -98.7655 210.857C-37.5978 211.187 17.5467 198.242 74.119 189.527C139.447 179.462 195.227 181.602 258.358 193.867C318.477 205.547 374.536 220.541 442.396 219.701C526.306 218.661 605.041 202.767 689.286 202.287" stroke="#99A3FF" stroke-width="0.993417" stroke-miterlimit="10"/>
<path d="M-916.843 195.627C-849.396 195.567 -778.848 197.377 -711.903 193.542C-623.297 188.468 -537.981 175.498 -449.788 169.308C-379.519 164.373 -323.125 170.023 -260.028 183.933C-210.125 194.932 -160 207.637 -102.926 208.307C-38.7691 209.052 20.8035 192.238 78.6807 181.903C108.997 176.518 140.953 171.473 174.001 172.633C206.348 173.773 236.976 179.878 265.262 186.633C322.28 200.217 377.826 218.917 445.675 217.487C529.217 215.722 605.32 196.867 689.32 195.642" stroke="#99A3FF" stroke-width="0.993417" stroke-miterlimit="10"/>
<path d="M-916.788 189.082C-850.98 189.007 -781.581 190.862 -716.465 186.582C-624.479 180.553 -536.498 165.908 -445.036 158.648C-373.161 152.938 -320.024 159.733 -258.633 176.508C-212.088 189.227 -164.06 204.772 -107.499 205.827C-40.576 207.072 24.1163 186.302 83.0977 174.548C113.994 168.388 148.069 161.893 182.579 163.323C214.925 164.663 245.23 171.983 272.278 179.573C326.207 194.712 381.184 217.186 449.2 215.182C532.385 212.722 605.554 191.002 689.331 189.082" stroke="#99A3FF" stroke-width="0.993417" stroke-miterlimit="10"/>
<path d="M-916.776 182.652C-852.541 182.562 -784.168 184.417 -720.714 179.822C-625.728 172.938 -535.382 156.748 -441.087 148.518C-405.183 145.388 -371.153 143.579 -335.985 149.068C-307.33 153.543 -282.123 161.398 -257.807 169.338C-214.307 183.532 -168.387 201.737 -111.96 203.162C-42.5831 204.917 27.3068 180.382 87.2475 167.428C118.679 160.633 154.851 152.763 190.677 154.428C223.168 155.928 253.071 164.363 278.96 172.693C330.022 189.112 384.341 215.101 452.725 212.587C535.609 209.532 605.745 185.122 689.376 182.627" stroke="#99A3FF" stroke-width="0.993417" stroke-miterlimit="10"/>
<path d="M-916.766 176.328C-853.881 176.233 -786.434 178.078 -724.441 173.273C-627.045 165.723 -534.982 148.144 -438.311 139.139C-402.284 135.784 -368.354 133.704 -333.365 139.934C-304.978 145.019 -280.786 153.744 -257.653 162.463C-216.707 177.878 -172.705 198.367 -115.999 200.092C-79.7602 201.197 -43.3206 192.722 -12.023 185.548C22.6989 177.588 56.0824 168.518 90.7931 160.548C122.693 153.229 160.616 144.249 197.647 146.124C230.372 147.779 259.807 157.073 284.77 166.023C333.489 183.523 386.782 212.452 455.825 209.522C538.564 206.022 605.766 179.183 689.386 176.308" stroke="#99A3FF" stroke-width="0.993417" stroke-miterlimit="10"/>
<path d="M-916.754 170.118C-854.995 170.023 -788.262 171.873 -727.462 166.978C-628.349 159.003 -535.215 140.224 -436.927 130.659C-401.068 127.159 -366.881 124.924 -332.248 131.599C-303.895 137.064 -280.428 146.538 -258.131 155.858C-218.892 172.253 -176.552 194.442 -119.155 196.357C-81.923 197.587 -44.4238 188.407 -12.6354 180.817C23.2465 172.243 57.6338 162.483 93.5157 153.898C125.862 146.153 164.9 136.469 202.924 138.444C235.995 140.164 264.928 150.038 289.21 159.503C336.424 177.897 388.088 208.902 458.235 205.777C540.974 202.092 605.61 173.098 689.398 170.138" stroke="#99A3FF" stroke-width="0.993417" stroke-miterlimit="10"/>
<path d="M-916.731 164.018C-855.843 163.938 -789.522 165.823 -729.615 160.968C-629.665 152.868 -536.274 133.104 -437.228 123.279C-401.859 119.779 -367.037 117.499 -332.895 124.219C-304.308 129.844 -281.164 139.829 -259.28 149.543C-220.666 166.713 -179.575 189.792 -120.973 191.652C-82.9157 192.862 -45.3161 183.588 -13.0815 175.653C23.5588 166.653 58.5818 156.393 95.211 147.384C127.97 139.324 167.175 129.484 205.98 131.444C239.441 133.134 267.883 143.189 291.864 153.058C338.71 172.333 387.91 204.122 459.696 201.027C542.647 197.452 605.331 166.673 689.465 164.028" stroke="#99A3FF" stroke-width="0.993417" stroke-miterlimit="10"/>
<path d="M-916.72 158.018C-856.055 157.848 -789.946 159.968 -730.295 155.018C-631.026 146.764 -538.828 126.409 -440.563 116.354C-405.295 112.75 -370.495 110.59 -336.375 117.229C-307.375 122.884 -283.774 132.989 -261.566 142.824C-222.238 160.243 -180.712 183.618 -121.34 185.797C-83.0158 187.202 -45.6393 178.043 -13.2598 169.983C23.4363 160.843 58.3925 150.383 95.0774 141.239C127.992 133.029 166.997 123.324 206.092 125.424C239.776 127.234 268.051 137.309 292.076 147.289C339.112 166.833 387.375 198.202 459.73 195.287C542.915 191.947 604.953 160.328 689.432 158.018" stroke="#99A3FF" stroke-width="0.993417" stroke-miterlimit="10"/>
<path d="M-916.709 152.153C-855.787 151.843 -789.879 154.518 -730.017 149.223C-632.51 140.599 -542.387 119.909 -445.917 109.5C-410.225 105.645 -376.34 103.64 -341.729 110.325C-312.205 116.019 -287.767 126.019 -264.746 135.769C-224.112 152.998 -180.835 176.608 -121.464 179.583C-83.3732 181.493 -45.8629 172.308 -13.7621 164.253C22.4878 155.158 56.9197 144.689 93.1585 135.584C126.007 127.329 165.012 117.699 204.05 120.194C237.634 122.339 266.322 132.559 290.682 142.429C337.963 161.578 387.62 192.357 459.105 189.527C542.491 186.222 604.729 154.423 689.409 152.153" stroke="#99A3FF" stroke-width="0.993417" stroke-miterlimit="10"/>
<path d="M-916.687 146.389C-855.419 146.019 -789.689 149.439 -729.458 143.834C-633.937 134.944 -546.167 113.985 -451.728 103.335C-415.734 99.265 -382.641 97.45 -347.64 104.05C-317.659 109.705 -292.239 119.444 -268.359 129.119C-226.365 146.119 -181.091 169.643 -121.775 173.338C-84.0306 175.693 -46.8103 166.698 -14.9996 158.678C20.6369 149.678 54.3439 139.274 89.958 130.279C122.706 122.009 161.343 112.655 200.202 115.504C233.82 117.974 263.021 128.239 287.927 138.004C335.833 156.753 387.118 186.762 458.057 183.973C541.811 180.683 604.395 148.679 689.443 146.419" stroke="#99A3FF" stroke-width="0.993417" stroke-miterlimit="10"/>
<path d="M-916.665 140.733C-854.973 140.378 -789.277 144.703 -728.623 138.814C-635.287 129.759 -550.072 108.584 -457.852 97.7497C-421.714 93.5048 -389.245 91.9099 -353.954 98.3197C-323.437 103.86 -297.07 113.319 -272.263 122.819C-228.518 139.514 -181.661 162.698 -122.177 167.073C-84.8791 169.813 -48.3168 161.208 -16.8184 153.243C18.0373 144.423 50.8853 134.109 85.7188 125.279C118.344 117.004 156.233 108.114 194.859 111.279C228.633 114.054 258.436 124.279 284.09 133.909C332.955 152.243 386.069 181.332 456.628 178.557C540.895 175.242 603.959 143.023 689.52 140.748" stroke="#99A3FF" stroke-width="0.993417" stroke-miterlimit="10"/>
<path d="M-916.654 135.189C-854.46 134.909 -788.786 140.273 -727.585 134.129C-636.592 124.994 -554.087 103.63 -464.243 92.7348C-428.127 88.3449 -396.104 86.98 -360.635 93.1098C-329.572 98.4797 -302.278 107.609 -276.457 116.819C-230.727 133.134 -182.442 155.763 -122.735 160.768C-50.6814 166.813 22.1308 135.354 80.5212 120.524C113.023 112.264 149.887 103.989 188.178 107.454C222.219 110.539 252.647 120.664 279.182 130.149C329.285 148.053 384.385 176.102 454.766 173.312C539.657 169.953 603.324 137.499 689.498 135.189" stroke="#99A3FF" stroke-width="0.993417" stroke-miterlimit="10"/>
<path d="M-916.631 129.759C-853.891 129.604 -788.206 136.119 -726.369 129.759C-637.819 120.619 -558.158 99.1548 -470.813 88.2251C-434.819 83.7253 -403.109 82.6053 -367.539 88.3801C-335.907 93.525 -307.666 102.25 -280.829 111.169C-233.113 127.019 -183.39 148.893 -123.382 154.518C-52.4212 161.158 17.2567 130.609 74.5651 116.019C106.253 107.965 143.195 99.8448 180.437 103.995C215.014 107.845 245.475 117.179 273.516 126.679C325.058 144.129 382.277 171.043 452.658 168.223C538.275 164.798 602.621 132.099 689.521 129.724" stroke="#99A3FF" stroke-width="0.993417" stroke-miterlimit="10"/>
<path d="M-916.609 124.434C-853.278 124.434 -787.526 132.199 -724.998 125.604C-638.968 116.529 -562.23 94.9751 -477.461 84.1054C-330.23 65.2109 -253.425 134.964 -124.096 148.314C-54.3848 155.518 11.7686 126.069 68.0397 111.775C99.5827 103.775 135.097 96.49 171.871 100.875C206.883 105.05 238.058 114.18 267.225 123.499C320.373 140.499 379.812 166.188 450.337 163.323C536.746 159.823 601.851 126.869 689.554 124.434" stroke="#99A3FF" stroke-width="0.993417" stroke-miterlimit="10"/>
<path d="M-916.587 119.224C-852.642 119.434 -786.779 128.474 -723.503 121.684C-640.039 112.729 -566.234 91.125 -484.109 80.3503C-339.923 61.4408 -252.109 127.849 -124.866 142.153C-56.3594 149.863 5.82323 121.719 61.0682 107.699C92.4773 99.7297 126.441 93.4049 162.691 97.9898C198.171 102.49 230.138 111.389 260.476 120.514C315.331 137.014 377.034 161.468 447.861 158.538C535.117 154.933 601.036 121.739 689.586 119.224" stroke="#99A3FF" stroke-width="0.993417" stroke-miterlimit="10"/>
<path d="M-916.565 114.124C-851.984 114.549 -785.987 124.909 -721.919 117.949C-641.01 109.16 -570.227 87.5302 -490.645 76.9005C-349.515 58.046 -250.837 120.824 -125.658 136.084C-58.378 144.284 -0.422652 117.524 53.8519 103.78C85.1495 95.8549 117.429 90.5451 153.121 95.2799C189.092 100.075 221.884 108.78 253.427 117.679C310.044 133.679 374.023 156.858 445.206 153.863C533.322 150.148 600.111 116.704 689.542 114.104" stroke="#99A3FF" stroke-width="0.993417" stroke-miterlimit="10"/>
<path d="M-916.543 109.134C-851.338 109.779 -785.151 121.464 -720.236 114.359C-641.824 105.77 -573.964 84.1302 -496.947 73.6805C-358.818 54.936 -249.588 113.944 -126.461 130.119C-60.3972 138.799 -6.79184 113.464 46.5569 99.9847C77.7208 92.1099 108.427 87.8451 143.528 92.7499C180.001 97.8498 213.653 106.335 246.378 115.014C304.768 130.514 371 152.413 442.63 149.343C531.671 145.523 599.285 111.844 689.609 109.134" stroke="#99A3FF" stroke-width="0.993417" stroke-miterlimit="10"/>
<path d="M-916.519 104.26C-850.711 105.12 -784.302 118.099 -718.639 110.875C-642.637 102.51 -577.643 80.8755 -503.08 70.6308C-367.684 52.0313 -248.326 107.2 -127.196 124.279C-62.3363 133.429 -13.0921 109.52 39.3866 96.28C70.4166 88.4552 99.6173 85.2353 134.049 90.2802C171.024 95.69 205.523 103.98 239.419 112.42C299.527 127.389 367.967 148.054 440.088 144.919C530.021 140.994 598.472 107.04 689.677 104.27" stroke="#99A3FF" stroke-width="0.993417" stroke-miterlimit="10"/>
<path d="M-916.497 99.4902C-850.031 100.555 -783.465 114.78 -717 107.455C-643.284 99.3302 -581.034 77.7108 -508.791 67.6861C-375.993 49.2566 -247.089 100.595 -127.988 118.58C-64.2104 128.209 -19.372 105.625 32.3818 92.6503C63.3114 84.9006 90.984 82.6506 124.836 87.8405C162.29 93.5603 197.626 101.685 232.627 109.88C294.385 124.334 364.933 143.784 437.556 140.569C528.337 136.544 597.591 102.345 689.633 99.4902" stroke="#99A3FF" stroke-width="0.993417" stroke-miterlimit="10"/>
<path d="M-916.476 94.8347C-849.385 96.0747 -782.63 111.469 -715.417 104.069C-643.809 96.1897 -584.136 74.5703 -514.056 64.7806C-446.074 55.2809 -373.752 66.0056 -310.254 77.4652C-249.019 88.5199 -190.807 103.02 -128.658 113.044C-65.6835 123.204 -25.5186 101.685 25.8448 89.0449C94.0505 72.2704 163.907 93.5448 226.335 107.339C289.588 121.299 362.122 139.588 435.224 136.304C526.808 132.194 596.821 97.7547 689.676 94.8297" stroke="#99A3FF" stroke-width="0.993417" stroke-miterlimit="10"/>
<path d="M-916.454 90.2851C-848.739 91.6701 -781.972 108.13 -713.9 100.675C-644.2 93.0351 -586.903 71.4307 -518.708 61.856C-451.35 52.3862 -377.121 62.6709 -313.321 73.1656C-250.849 83.4453 -191.388 97.02 -129.25 107.7C-67.1117 118.379 -30.8171 97.9149 19.8882 85.4553C86.5435 69.0808 159.311 91.9551 220.657 104.78C285.238 118.279 359.612 135.459 433.115 132.129C525.413 127.944 596.117 93.2751 689.653 90.2851" stroke="#99A3FF" stroke-width="0.993417" stroke-miterlimit="10"/>
<path d="M-916.431 85.8504C-848.08 87.3503 -781.369 104.73 -712.506 97.23C-644.467 89.8252 -589.278 68.2309 -522.89 58.8411C-456.046 49.4164 -380.121 59.2811 -316.032 68.9059C-252.455 78.4606 -191.8 91.2202 -129.763 102.555C-100.495 107.9 -79.046 108.12 -50.7487 101.225C-27.7495 95.6201 -8.29722 87.4803 14.6685 81.8355C45.3081 74.2957 69.7127 74.5057 101.802 80.1105C140.361 86.8553 177.927 94.6101 215.761 102.145C281.424 115.185 357.415 131.364 431.253 128.004C524.187 123.774 595.482 88.8753 689.687 85.8504" stroke="#99A3FF" stroke-width="0.993417" stroke-miterlimit="10"/>
<path d="M-916.408 81.5204C-847.422 83.0203 -780.911 101.23 -711.245 93.705C-644.556 86.5002 -591.252 64.8259 -526.203 55.6761C-459.703 46.3214 -382.385 55.7761 -318.039 64.6759C-253.692 73.5756 -191.911 85.6753 -130.074 97.6749C-101.498 103.22 -80.607 104.005 -52.5551 97.1449C-30.3144 91.7051 -11.7544 83.6753 10.4305 78.1955C40.9028 70.6657 64.9282 71.4657 96.46 77.2555C135.208 84.3703 173.355 92.1101 211.902 99.4349C278.39 112.064 355.865 127.344 429.815 123.974C523.261 119.719 595.036 84.6103 689.699 81.5654" stroke="#99A3FF" stroke-width="0.993417" stroke-miterlimit="10"/>
<path d="M-916.386 77.3104C-846.753 78.7703 -780.622 97.6098 -710.174 90.065C-644.478 83.0202 -592.836 61.1809 -528.69 52.3011C-462.28 43.0964 -384.125 52.1211 -319.377 60.3859C-254.105 68.7106 -191.789 80.3053 -130.208 92.9649C-102.212 98.7148 -81.5554 99.9247 -53.7155 93.0649C-32.077 87.7401 -14.2644 79.7603 7.30709 74.3855C37.6344 66.8307 61.6374 68.0557 92.6897 74.0655C131.494 81.5653 170.086 89.325 209.225 96.4948C276.148 108.759 354.916 123.249 428.81 119.904C522.625 115.654 594.746 80.3453 689.81 77.3104" stroke="#99A3FF" stroke-width="0.993417" stroke-miterlimit="10"/>
<path d="M-916.365 73.2056C-846.096 74.5305 -780.533 93.825 -709.305 86.2602C-644.289 79.3554 -593.762 57.421 -530.386 48.6463C-464.188 39.4865 -385.007 48.3163 -320.092 56.0661C-254.151 63.9408 -191.555 75.2205 -130.265 88.5651C-102.726 94.5649 -81.9577 96.0149 -54.2627 89.1101C-33.0704 83.8253 -15.8155 75.8405 5.34335 70.5056C35.5591 62.8859 59.8968 64.3258 90.581 70.6106C129.307 78.5404 168.189 86.3552 207.763 93.405C274.887 105.36 354.57 119.199 428.163 115.904C522.201 111.699 594.5 76.2005 689.787 73.2056" stroke="#99A3FF" stroke-width="0.993417" stroke-miterlimit="10"/>
<path d="M-916.33 69.2055C-845.704 70.3955 -780.599 89.9 -708.935 82.2652C-644.143 75.3654 -593.917 53.451 -530.742 44.7263C-464.611 35.5965 -385.073 44.6063 -320.135 52.191C-253.959 59.9208 -191.565 71.1155 -130.196 84.5201C-102.758 90.5199 -81.6995 91.7699 -54.1941 84.9101C-33.1469 79.6602 -16.0034 71.7455 5.04391 66.4806C35.1593 58.9508 59.943 60.3508 90.3372 66.8156C128.896 75.0154 167.823 82.8902 207.564 89.87C274.364 101.605 355.085 115.289 428.109 111.869C522.013 107.479 594.781 72.5804 689.822 69.2205" stroke="#99A3FF" stroke-width="0.993417" stroke-miterlimit="10"/>
<path d="M-916.308 65.2706C-845.526 66.4005 -780.611 86.035 -708.78 78.3102C-644.088 71.3504 -593.605 49.621 -530.386 40.9513C-464.254 31.8815 -384.895 41.2863 -320.058 48.9211C-254.094 56.6908 -191.967 67.8655 -130.175 80.6351C-71.6842 92.7198 -42.6954 74.1353 5.47798 62.5457C35.5933 55.3009 60.5333 56.6208 90.6487 63.1106C129.04 71.3854 167.9 79.2402 207.63 86.14C274.04 97.6696 355.809 111.419 428.309 107.709C521.811 102.92 595.471 69.4405 689.877 65.3456" stroke="#99A3FF" stroke-width="0.993417" stroke-miterlimit="10"/>
<path d="M-916.285 61.396C-845.291 62.486 -780.532 82.2654 -708.478 74.4757C-643.786 67.4759 -593.103 45.9765 -529.849 37.3867C-463.718 28.387 -384.593 38.1517 -319.856 45.8115C-254.149 53.5863 -192.256 64.711 -130.107 76.8356C-72.1073 88.1553 -42.0812 69.9008 6.12567 58.8361C36.241 51.9063 61.4041 53.1863 91.2517 59.6861C129.465 68.0059 168.213 75.8006 207.932 82.5804C274.074 93.8751 356.657 107.48 428.555 103.52C521.589 98.4 596.152 66.3759 689.867 61.631" stroke="#99A3FF" stroke-width="0.993417" stroke-miterlimit="10"/>
<path d="M-916.263 57.5913C-845.024 58.6513 -780.365 78.5907 -708.043 70.766C-643.429 63.7762 -592.445 42.5218 -529.147 34.022C-463.016 25.1723 -384.147 35.182 -319.533 42.8468C-254.138 50.5965 -192.38 61.6362 -130.007 73.0909C-72.4201 83.6556 -41.3678 65.8061 6.96172 55.2564C37.1551 48.6716 62.5078 49.9516 92.1324 56.4464C130.133 64.7811 168.804 72.4859 208.456 79.1057C274.431 90.1304 357.516 103.4 428.922 99.2351C521.499 93.8403 596.921 63.3212 689.922 57.9913" stroke="#99A3FF" stroke-width="0.993417" stroke-miterlimit="10"/>
<path d="M-916.241 53.8514C-844.7 54.9014 -780.164 74.9958 -707.474 67.166C-642.916 60.2162 -591.62 39.2018 -528.266 30.872C-462.157 22.1773 -383.69 32.412 -319.098 40.0518C-254.06 47.7516 -192.491 58.6762 -129.862 69.4409C-72.7098 79.2656 -40.5645 61.8862 7.98815 51.9064C38.282 45.6766 63.8354 47.0016 93.2704 53.4764C130.974 61.8535 169.664 69.3075 209.17 75.8058C275.089 86.5254 358.408 99.3051 429.402 94.9502C521.377 89.3354 597.725 60.3562 689.911 54.5214" stroke="#99A3FF" stroke-width="0.993417" stroke-miterlimit="10"/>
<path d="M-916.207 50.181C-844.342 51.231 -779.829 71.5004 -706.782 63.6807C-642.28 56.7859 -590.637 36.0514 -527.206 27.8917C-461.119 19.3919 -382.986 29.7866 -318.517 37.3914C-253.825 45.0112 -192.423 55.7859 -129.649 65.8506C-72.9211 74.9503 -39.6158 58.0858 9.22687 48.7111C39.6657 42.8663 65.4087 44.2662 94.6764 50.711C132.154 59.0326 170.702 66.347 210.119 72.6154C276.071 83.0001 359.379 95.0848 429.994 90.6149C521.377 84.83 598.595 57.4358 689.979 51.146" stroke="#99A3FF" stroke-width="0.993417" stroke-miterlimit="10"/>
<path d="M-916.185 46.5913C-843.953 47.6463 -779.45 68.0907 -705.991 60.3309C-641.533 53.5211 -589.523 33.0867 -526.069 25.1219C-460.016 16.8321 -382.296 27.3518 -317.882 34.8916C-253.67 42.3914 -192.29 52.9961 -129.45 62.3458C-73.1228 70.7306 -38.5905 54.4411 10.5867 45.7013C41.1928 40.2615 67.1366 41.7664 96.2816 48.2012C133.502 56.4433 171.878 63.5931 211.166 69.6056C277.23 79.6053 360.282 90.885 430.595 86.3102C521.343 80.4103 599.397 54.6311 689.955 47.9563" stroke="#99A3FF" stroke-width="0.993417" stroke-miterlimit="10"/>
<path d="M-916.162 43.0716C-843.528 44.1516 -778.97 64.791 -705.087 57.0712C-640.674 50.3814 -588.284 30.272 -524.763 22.5222C-458.755 14.4724 -381.459 25.0671 -317.19 32.5219C-253.424 39.9217 -192.111 50.2864 -129.248 58.9162C-73.3116 66.5909 -37.4855 50.9164 12.0599 42.8466C42.8556 37.8468 69.0001 39.4667 98.0559 45.8465C135.03 53.9909 173.246 60.9498 212.416 66.6709C278.692 76.2857 361.275 86.6104 431.332 81.9555C521.422 75.9557 600.28 51.8514 689.99 44.8316" stroke="#99A3FF" stroke-width="0.993417" stroke-miterlimit="10"/>
<path d="M-916.141 39.6315C-843.072 40.7414 -778.525 61.5808 -704.095 53.966C-639.726 47.3762 -586.924 27.6068 -523.336 20.097C-457.384 12.3122 -380.567 22.9419 -316.388 30.3017C-253.068 37.5665 -191.811 47.6712 -129.003 55.571C-73.4462 62.5708 -36.2482 47.5362 13.6875 40.1614C44.6952 35.5866 71.0405 37.3815 100.029 43.6613C136.745 51.6822 174.78 58.4284 213.798 63.8408C280.331 73.0155 362.245 82.2752 432.101 77.5654C521.522 71.5655 601.126 49.1162 689.989 41.8064" stroke="#99A3FF" stroke-width="0.993417" stroke-miterlimit="10"/>
<path d="M-916.119 36.2767C-842.593 37.4267 -777.978 58.4661 -703.08 50.9563C-638.678 44.5215 -585.463 25.0921 -521.797 17.8423C-455.912 10.3425 -379.63 20.9672 -315.451 28.217C-252.599 35.3268 -191.387 45.1415 -128.647 52.3063C-73.469 58.6111 -34.8209 44.2765 15.5275 37.6317C46.7582 33.5118 73.2932 35.4818 102.26 41.7316C138.708 49.6116 176.553 56.1221 215.404 61.196C282.193 69.9008 363.282 78.0205 432.982 73.2557C521.7 67.2208 602.018 46.5214 690.033 38.9617" stroke="#99A3FF" stroke-width="0.993417" stroke-miterlimit="10"/>
<path d="M-916.096 33.0219C-842.112 34.2068 -777.42 55.4462 -701.864 48.0614C-637.562 41.7716 -583.901 22.7222 -520.168 15.7474C-454.361 8.54257 -378.604 19.1423 -314.57 26.2471C-252.175 33.1869 -191.007 42.6766 -128.401 49.1114C-73.5687 54.7512 -33.3926 41.1116 17.3462 35.2318C48.8 31.5769 75.5469 33.7318 104.525 39.9367C140.698 47.6591 178.339 53.9155 217 58.6311C284.224 66.8309 364.308 73.6807 433.897 68.9258C521.923 62.926 602.878 43.9665 690.056 36.1918" stroke="#99A3FF" stroke-width="0.993417" stroke-miterlimit="10"/>
<path d="M-916.074 29.8217C-841.555 31.0767 -776.741 52.5211 -700.649 45.2763C-636.358 39.1614 -582.229 20.492 -518.451 13.8072C-452.699 6.92238 -377.511 17.4621 -313.566 24.4469C-251.64 31.2117 -190.517 40.3414 -128.078 46.0462C-73.5695 51.0461 -31.8095 38.1415 19.3085 33.0466C50.9965 29.8717 77.9442 32.2566 106.966 38.3765C142.865 45.9257 180.298 51.9114 218.75 56.251C286.387 63.9107 365.356 69.4456 434.856 64.6857C522.19 58.7109 603.725 41.5614 690.078 33.6066" stroke="#99A3FF" stroke-width="0.993417" stroke-miterlimit="10"/>
<path d="M-916.051 26.7272C-840.997 28.0471 -776.071 49.6965 -699.343 42.6117C-635.108 36.6769 -580.544 18.4024 -516.655 12.0226C-450.992 5.46277 -376.384 15.9275 -312.54 22.7573C-251.06 29.3321 -190.015 38.0768 -127.776 43.0517C-73.5465 47.3866 -30.1692 35.2619 21.3392 30.927C53.2503 28.2421 80.3876 30.862 109.51 36.9269C145.129 44.2884 182.345 49.985 220.569 53.9264C288.607 61.0062 366.372 65.166 435.838 60.4262C522.492 54.5213 604.54 39.1818 690.101 31.067" stroke="#99A3FF" stroke-width="0.993417" stroke-miterlimit="10"/>
<path d="M-916.029 23.7272C-840.451 25.1172 -775.357 46.9715 -698.039 40.0567C-633.793 34.3119 -578.771 16.4424 -514.804 10.3776C-449.23 4.16276 -375.213 14.5225 -311.413 21.1923C-250.369 27.5771 -189.413 35.9019 -127.375 40.1517C-73.3795 43.8466 -28.3515 32.512 23.525 28.9771C55.6703 26.7821 82.9972 29.652 112.231 35.6269C147.573 42.798 184.571 48.2005 222.554 51.7364C291.05 58.2012 367.487 60.9411 436.931 56.2363C522.815 50.4064 605.353 36.9168 690.123 28.6671" stroke="#99A3FF" stroke-width="0.993417" stroke-miterlimit="10"/>
<path d="M-916.006 20.8221C-839.881 22.2871 -774.62 44.3214 -696.666 37.6166C-632.42 32.0718 -576.941 14.6073 -512.896 8.87244C-447.412 3.02261 -373.997 13.2523 -310.275 19.7521C-249.643 25.937 -188.799 33.8167 -127.029 37.3466C-73.2229 40.4215 -26.5552 29.8918 25.6559 27.1569C58.002 25.462 85.5408 28.5919 114.887 34.4917C149.954 41.4588 186.728 46.552 224.451 49.6663C293.381 55.4811 368.469 56.7761 437.913 52.1062C523.173 46.3764 606.034 34.7517 690.067 26.3819" stroke="#99A3FF" stroke-width="0.993417" stroke-miterlimit="10"/>
<path d="M-915.984 18.0224C-839.301 19.5623 -773.851 41.8217 -695.272 35.2919C-631.037 29.947 -575.067 12.9025 -510.944 7.52266C-445.571 2.02281 -372.77 12.1375 -309.059 18.4573C-248.829 24.4572 -188.118 31.852 -126.605 34.6669C-72.8992 37.1268 -24.6365 27.4171 27.9761 25.4871C60.5565 24.2922 88.2068 27.6971 117.831 33.5169C152.628 40.2765 189.178 45.0536 226.626 47.7365C383.895 59.3812 538.007 39.7367 690.224 24.2372" stroke="#99A3FF" stroke-width="0.993417" stroke-miterlimit="10"/>
<path d="M-915.962 15.3126C-838.711 16.9376 -773.07 39.3919 -693.845 33.0671C-629.61 27.9373 -573.16 11.3177 -508.959 6.25288C-443.698 1.10303 -371.51 11.0927 -307.933 17.2276C-248.048 23.0224 -187.516 29.9372 -126.282 32.0221C-72.5872 33.8671 -22.8076 25.0223 30.1954 23.8724C62.9653 23.1724 90.8499 26.8723 120.642 32.6071C155.04 39.2719 191.569 43.5218 228.655 45.8717C381.92 55.5865 541.777 37.552 690.19 22.1574" stroke="#99A3FF" stroke-width="0.993417" stroke-miterlimit="10"/>
<path d="M-915.94 12.7123C-838.12 14.4223 -772.279 37.0716 -692.406 30.9568C-628.16 26.022 -571.242 9.84743 -506.963 5.12256C-441.813 0.337701 -370.25 10.1924 -306.74 16.1222C-247.179 21.6971 -186.859 28.1219 -125.903 29.5269C-72.1084 30.7668 -20.9234 22.7571 32.4811 22.4221C65.4407 22.2171 93.5037 26.207 123.53 31.8718C157.705 38.3166 193.989 42.2015 230.763 44.1314C300.82 47.8063 371.859 44.6764 441.336 40.1816C524.7 34.7867 608.186 28.8669 690.211 20.1821" stroke="#99A3FF" stroke-width="0.993417" stroke-miterlimit="10"/>
<path d="M-915.917 10.2175C-838.198 11.9824 -772.446 34.6718 -692.651 29.0819C-628.662 24.5821 -571.632 9.03752 -507.855 4.32265C-443.385 -0.442209 -373.261 9.01252 -310.309 14.7224C-249.454 20.2222 -187.807 26.367 -125.512 27.137C-70.2117 27.822 -16.3275 20.2522 38.8505 21.1372C72.1558 21.6722 99.9177 26.552 130.446 31.9719C162.156 37.6017 195.64 40.8266 229.503 42.3516C301.579 45.5965 373.064 40.8116 444.281 36.2967C526.485 31.0869 609.425 27.077 690.268 18.3672" stroke="#99A3FF" stroke-width="0.993417" stroke-miterlimit="10"/>
<path d="M-915.906 7.83254C-837.651 9.68248 -771.631 32.5618 -691.246 27.187C-627.245 22.9071 -569.758 7.77254 -505.88 3.40266C-441.545 -0.977211 -371.978 8.34252 -309.115 13.8674C-248.55 19.1972 -187.137 24.867 -125.166 24.867C-69.5423 24.867 -14.4647 18.3022 41.1706 19.9772C74.5206 20.9772 102.517 26.137 133.279 31.4419C164.777 36.8717 198.038 39.7566 231.611 40.8966C303.922 43.3515 374.168 37.0367 445.375 32.6468C527.043 27.612 609.972 25.467 690.246 16.6473" stroke="#99A3FF" stroke-width="0.993417" stroke-miterlimit="10"/>
<path d="M-915.884 5.56247C-837.037 7.49742 -770.884 30.5617 -689.818 25.3969C-625.795 21.317 -567.862 6.60744 -503.895 2.57756C-439.693 -1.47733 -370.673 7.77741 -307.844 13.1223C-247.613 18.2571 -186.434 23.417 -124.787 22.687C-68.7614 22.022 -12.6019 16.4422 43.5019 18.8971C76.8965 20.362 105.116 25.7969 136.079 30.9867C167.309 36.2216 200.414 38.7665 233.675 39.5215C306.175 41.1764 375.261 33.3617 446.445 29.0918C527.6 24.2219 610.407 23.9519 690.212 15.0222" stroke="#99A3FF" stroke-width="0.993417" stroke-miterlimit="10"/>
<path d="M-915.862 3.4078C-836.469 5.40774 -770.037 28.6671 -688.402 23.7172C-624.368 19.8323 -565.988 5.52274 -501.921 1.85284C-437.853 -1.81705 -369.391 7.31269 -306.729 12.4725C-246.643 17.4224 -185.754 22.0973 -124.442 20.6323C-67.9252 19.2823 -10.8063 14.7025 45.7659 17.9274C79.2274 19.8323 107.647 25.5622 138.9 30.632C170.153 35.7019 202.834 37.8818 235.783 38.2618C308.282 39.1068 376.455 29.827 447.56 25.6772C528.247 20.9673 610.986 22.5672 690.257 13.5075" stroke="#99A3FF" stroke-width="0.993417" stroke-miterlimit="10"/>
<path d="M-915.851 1.36753C-835.911 3.46747 -769.245 26.8668 -687.03 22.1469C-622.963 18.452 -564.16 4.57744 -500.003 1.21754C-436.114 -2.12737 -368.075 6.94237 -305.524 11.9272C-245.617 16.6971 -185.063 20.882 -124.052 18.697C-66.9775 16.6521 -9.011 13.0672 48.0632 17.0471C81.4243 19.377 110.179 25.4068 141.655 30.3617C172.551 35.2216 205.232 37.0915 237.823 37.1065C310.323 37.1465 377.625 26.4468 448.631 22.4069C528.938 17.8371 611.477 21.302 690.256 12.0972" stroke="#99A3FF" stroke-width="0.993417" stroke-miterlimit="10"/>
<path d="M-915.839 -0.547119C-835.364 1.62282 -768.497 25.2171 -685.691 20.6773C-621.59 17.1774 -562.363 3.67776 -498.128 0.677845C-434.306 -2.32207 -366.948 6.67767 -304.386 11.4875C-244.601 16.0674 -184.348 19.7823 -123.694 16.8874C-66.0061 14.1375 -7.29233 11.5475 50.3061 16.2674C83.656 18.9923 112.656 25.3271 144.366 30.167C175.117 34.8569 207.519 36.3918 239.81 36.0518C312.198 35.2968 378.798 23.2272 449.703 19.2823C529.553 14.8424 611.879 20.1723 690.291 10.7826" stroke="#99A3FF" stroke-width="0.993417" stroke-miterlimit="10"/>
<path d="M-915.817 -2.34204C-834.841 -0.097106 -767.739 23.6572 -684.387 19.3173C-620.252 15.9724 -560.579 2.90781 -496.311 0.192886C-432.622 -2.49704 -365.811 6.4877 -303.282 11.1176C-243.609 15.5224 -183.658 18.7723 -123.349 15.1825C-65.0143 11.7126 -5.57548 10.1026 52.4244 15.5474C85.7409 18.6724 114.986 25.3072 146.975 30.047C177.537 34.5469 209.771 35.7869 241.783 35.1019C313.982 33.5669 380.012 20.1873 450.795 16.3274C530.266 11.9925 612.347 19.1723 690.379 9.59761" stroke="#99A3FF" stroke-width="0.993417" stroke-miterlimit="10"/>
<path d="M-915.805 -4.01221C-834.382 -1.69727 -767.035 22.227 -683.147 18.0622C-618.979 14.8722 -558.972 2.20261 -494.558 -0.212317C-430.982 -2.59225 -364.661 6.37749 -302.233 10.8474C-242.638 15.1222 -182.987 17.8822 -123.035 13.6123C-64.0205 9.41241 -4.04636 8.76242 54.4555 14.9122C87.7051 18.4121 117.229 25.3469 149.43 29.9768C179.836 34.3467 211.892 35.2517 243.569 34.2417C315.511 31.9468 381.084 17.3322 451.733 13.5223C530.925 9.26741 612.671 18.2871 690.358 8.48243" stroke="#99A3FF" stroke-width="0.993417" stroke-miterlimit="10"/>
<path d="M-915.794 -5.54706C-833.858 -3.17713 -766.333 20.9072 -681.977 16.9073C-617.753 13.8674 -557.377 1.57274 -492.897 -0.547202C-429.42 -2.63214 -363.613 6.3376 -301.241 10.6675C-241.701 14.8024 -182.341 17.1023 -122.723 12.1674C-63.1062 7.23257 -2.54087 7.52257 56.4183 14.3524C89.5898 18.1973 119.404 25.3521 151.784 29.9619C181.899 34.2568 214 34.7968 245.286 33.4618C316.938 30.4619 382.144 14.6674 452.647 10.9075C531.493 6.70259 613.006 17.5473 690.358 7.47757" stroke="#99A3FF" stroke-width="0.993417" stroke-miterlimit="10"/>
<path d="M-915.728 -6.97736C-833.346 -4.55743 -765.676 19.6869 -680.817 15.842C-616.616 12.9471 -555.883 1.02241 -491.325 -0.822534C-427.993 -2.63248 -362.61 6.36726 -300.304 10.5721C-240.799 14.572 -181.717 16.437 -122.445 10.8521C-62.0584 5.16729 -1.13618 6.35226 58.2468 13.852C91.3514 18.0219 121.422 25.4467 153.991 29.9916C183.984 34.1765 215.917 34.4165 246.88 32.8115C280.665 31.0565 313.603 27.0367 346.038 22.5768C381.039 17.7719 417.054 10.4421 453.516 8.5022C532.095 4.31732 613.328 16.962 690.368 6.59225" stroke="#99A3FF" stroke-width="0.993417" stroke-miterlimit="10"/>
<path d="M-915.728 -8.22705C-832.944 -5.76712 -765.151 18.6322 -679.802 14.9173C-615.545 12.1174 -554.489 0.522697 -489.852 -1.04726C-426.621 -2.60221 -361.706 6.45253 -299.457 10.5524C-239.951 14.4623 -181.103 15.8873 -122.178 9.67243C-61.1326 3.23262 0.191145 5.27756 60.0091 13.4273C92.9687 17.9272 123.296 25.577 156.033 30.0568C185.902 34.1417 217.691 34.1117 248.353 32.2318C282.071 30.1718 314.818 25.802 347.064 21.0571C381.808 15.9473 417.88 8.23747 454.331 6.28253C532.664 2.08765 613.641 16.5072 690.379 5.78254" stroke="#99A3FF" stroke-width="0.993417" stroke-miterlimit="10"/>
<path d="M-915.728 -9.36206C-832.565 -6.86213 -764.594 17.6822 -678.876 14.0773C-614.575 11.3673 -553.229 0.122666 -488.536 -1.2223C-425.394 -2.53726 -360.914 6.62248 -298.709 10.6174C-239.192 14.4323 -180.557 15.4572 -121.977 8.61742C-60.2292 1.43263 1.37335 4.28255 61.6152 13.0573C94.4521 17.8372 125.002 25.7219 157.906 30.1518C187.653 34.1517 219.252 33.8717 249.691 31.7468C283.331 29.3968 315.911 24.697 347.99 19.6921C382.5 14.3073 418.616 6.25749 455.067 4.27255C533.143 0.0226684 613.931 16.1972 690.412 5.08752" stroke="#99A3FF" stroke-width="0.993417" stroke-miterlimit="10"/>
<path d="M-915.728 -10.357C-832.219 -7.85707 -764.136 16.8572 -678.051 13.3373C-613.671 10.7024 -552.013 -0.232287 -487.254 -1.35725C-424.179 -2.45722 -360.1 6.83751 -297.962 10.7524C-238.423 14.4973 -179.954 15.1423 -121.731 7.71748C-59.3481 -0.237286 2.41066 3.36261 63.0763 12.7173C95.8017 17.7722 126.553 25.862 159.59 30.2518C189.237 34.1867 220.725 33.6867 250.873 31.3368C284.469 28.7169 316.871 23.717 348.804 18.4722C383.124 12.8273 419.263 4.50258 455.758 2.47264C533.679 -1.86724 614.265 16.0222 690.412 4.47258" stroke="#99A3FF" stroke-width="0.993417" stroke-miterlimit="10"/>
<path d="M-915.728 -11.2068C-831.896 -8.70689 -763.746 16.1624 -677.326 12.6975C-612.935 10.1176 -550.998 -0.527127 -486.183 -1.4771C-423.175 -2.38207 -359.52 7.07765 -297.382 10.9375C-237.809 14.6374 -179.452 14.9374 -121.564 6.93766C-58.5337 -1.77709 3.25859 2.50279 64.3704 12.4375C96.9508 17.7373 127.88 26.0121 161.041 30.372C190.598 34.2619 221.93 33.5719 251.866 31.022C285.417 28.157 317.674 22.8872 349.473 17.4224C383.638 11.5475 419.743 3.00777 456.338 0.922831C534.092 -3.55204 614.578 16.0224 690.424 3.96274" stroke="#99A3FF" stroke-width="0.993417" stroke-miterlimit="10"/>
<path d="M-915.728 -11.9168C-832.309 -9.41688 -764.382 15.4524 -678.464 12.2275C-610.57 9.68257 -544.941 -1.8121 -476.434 -1.57711C-417.866 -1.37711 -359.096 7.24764 -301.241 10.9575C-239.772 14.8974 -180.936 14.7874 -121.408 6.35267C-55.3996 -2.97707 6.44837 1.92779 70.0698 13.0225C98.5902 17.9923 125.761 24.7721 154.493 29.427C184.899 34.3519 218.282 33.8719 249.568 31.137C285.071 28.037 319.057 22.1372 352.541 16.1374C386.292 10.0676 422.174 1.5228 458.569 -0.477138C535.53 -4.68202 615.57 16.0774 690.412 3.55775" stroke="#99A3FF" stroke-width="0.993417" stroke-miterlimit="10"/>
<path d="M-915.728 -12.4773C-832.074 -10.0124 -764.147 15.0219 -677.995 11.792C-610.08 9.24208 -544.149 -1.9826 -475.665 -1.60761C-417.141 -1.28262 -358.672 7.58213 -300.851 11.297C-239.337 15.2469 -180.512 14.8569 -121.274 5.87218C-54.5964 -4.24753 6.92813 1.23231 71.0738 12.872C99.4603 18.0218 126.709 24.8616 155.52 29.5215C185.858 34.4514 219.096 33.8714 250.204 30.9815C285.685 27.6865 319.537 21.5317 352.92 15.3719C386.627 9.15208 422.498 0.512331 458.982 -1.58761C535.798 -5.97748 615.927 16.3369 690.424 3.21225" stroke="#99A3FF" stroke-width="0.993417" stroke-miterlimit="10"/>
<path d="M-915.728 -12.8765C-831.907 -10.4516 -764.036 14.7327 -677.638 11.4528C-609.711 8.87288 -543.636 -2.11181 -475.062 -1.61682C-416.561 -1.19683 -358.371 7.9529 -300.572 11.6978C-239.025 15.6977 -180.11 15.0627 -121.252 5.53797C-53.9272 -5.35171 7.10663 0.588115 71.7989 12.7178C100.118 18.0226 127.434 24.9324 156.267 29.6473C186.583 34.6021 219.531 33.9772 250.617 30.9522C322.437 23.9524 386.783 2.03807 459.294 -2.3818C535.977 -7.05666 616.318 16.7626 690.424 2.97805" stroke="#99A3FF" stroke-width="0.993417" stroke-miterlimit="10"/>
<path d="M-915.728 -13.1311C-831.773 -10.7562 -763.924 14.5781 -677.426 11.2182C-609.488 8.57324 -543.19 -2.19645 -474.65 -1.62147C-416.137 -1.12148 -358.204 8.34824 -300.427 12.1581C-238.858 16.218 -179.742 15.398 -121.218 5.35833C-53.3026 -6.29633 7.05076 -0.0115142 72.3564 12.6081C100.442 18.023 127.824 25.1978 156.724 29.7276C187.419 34.5325 219.375 34.1425 250.795 30.9826C322.738 23.7428 386.727 1.80843 459.495 -2.93143C536.077 -7.93128 616.764 17.343 690.379 2.8284" stroke="#99A3FF" stroke-width="0.993417" stroke-miterlimit="10"/>
<path d="M-915.728 -13.2269C-831.684 -10.9219 -763.958 14.5623 -677.371 11.0774C-609.433 8.34251 -543.045 -2.24718 -474.371 -1.6272C-415.847 -1.09722 -358.137 8.7725 -300.371 12.6724C-238.802 16.8273 -179.374 15.8723 -121.196 5.3276C-52.7561 -7.08704 6.74948 -0.577234 72.6798 12.5224C132.91 24.482 182.534 38.0966 250.74 31.0868C322.871 23.6721 386.56 1.92269 459.584 -3.19716C536.077 -8.562 617.188 18.0772 690.468 2.80267" stroke="#99A3FF" stroke-width="0.993417" stroke-miterlimit="10"/>
</g>
</g>
<defs>
<clipPath id="clip0_123_242">
<rect width="390" height="2116" fill="white" transform="translate(0 -502)"/>
</clipPath>
</defs>
</svg>
