<svg width="390" height="271" viewBox="0 0 390 271" fill="none" xmlns="http://www.w3.org/2000/svg">
<g clip-path="url(#clip0_123_242)">
<rect width="390" height="2116" transform="translate(0 -483)" fill="white"/>
<mask id="mask0_123_242" style="mask-type:alpha" maskUnits="userSpaceOnUse" x="0" y="-483" width="390" height="755">
<rect y="-483" width="390" height="754.015" fill="#5465FF"/>
</mask>
<g mask="url(#mask0_123_242)">
<rect y="-483" width="390" height="754.015" fill="#5465FF"/>
<path d="M-916.843 271.015C-381.459 271.015 153.925 271.015 689.309 271.015" stroke="#99A3FF" stroke-width="0.993417" stroke-miterlimit="10"/>
<path d="M-916.843 263.575C-645.738 263.63 -374.767 262.3 -103.729 260.795C13.5424 260.14 131.617 260.355 248.877 261.735C395.662 263.46 542.513 261.835 689.264 263.575" stroke="#99A3FF" stroke-width="0.993417" stroke-miterlimit="10"/>
<path d="M-916.843 256.246C-840.027 256.246 -763.188 256.511 -686.383 256.381C-617.742 256.266 -549.258 253.771 -480.639 253.341C-352.816 252.541 -225.016 253.471 -97.204 252.526C16.2417 251.686 130.858 249.461 244.226 252.856C310.301 254.856 375.696 255.766 441.827 256.591C524.366 257.621 606.804 254.826 689.309 256.246" stroke="#99A3FF" stroke-width="0.993417" stroke-miterlimit="10"/>
<path d="M-916.843 249.016C-841.131 249.016 -765.218 249.586 -689.528 248.971C-618.4 248.391 -547.685 244.326 -476.613 243.281C-348.544 241.396 -221.48 246.781 -93.5455 245.821C19.0302 244.991 130.011 238.251 242.709 244.281C308.584 247.806 372.417 250.566 438.771 251.371C522.425 252.371 605.666 247.506 689.309 249.016" stroke="#99A3FF" stroke-width="0.993417" stroke-miterlimit="10"/>
<path d="M-916.843 241.926C-842.503 241.926 -767.616 242.836 -693.332 241.581C-619.047 240.326 -545.822 234.552 -471.761 232.687C-404.436 230.992 -338.06 231.447 -271.092 235.137C-211.073 238.446 -152.772 240.836 -92.2628 240.476C-39.2263 240.156 10.464 236.546 62.8424 233.182C122.783 229.327 184.497 231.127 243.88 236.037C309.242 241.446 370.889 246.621 437.633 247.211C521.823 247.961 605.064 240.631 689.309 241.926" stroke="#99A3FF" stroke-width="0.993417" stroke-miterlimit="10"/>
<path d="M-916.843 234.936C-844.109 234.936 -770.271 236.161 -697.659 234.201C-620.073 232.111 -543.803 224.542 -466.385 221.702C-399.913 219.232 -332.997 220.925 -267.568 226.732C-209.155 231.841 -152.683 236.406 -92.9766 236.196C-37.6871 236.001 12.3379 229.727 66.0101 224.652C126.932 218.892 187.219 221.077 247.215 228.062C311.517 235.561 370.878 243.641 438.08 243.856C522.414 244.131 604.829 234.096 689.309 234.941" stroke="#99A3FF" stroke-width="0.993417" stroke-miterlimit="10"/>
<path d="M-916.843 228.057C-845.827 228.027 -773.07 229.557 -702.299 226.882C-621.055 223.837 -541.684 214.442 -460.741 210.517C-392.814 207.227 -330.04 210.287 -264.523 218.552C-208.43 225.632 -154.1 232.722 -95.2631 232.737C-37.0847 232.737 14.669 223.312 69.8805 216.432C132.777 208.597 190.777 210.877 252.235 220.342C314.785 229.972 372.216 241.341 439.786 241.091C523.998 240.751 604.863 227.827 689.309 228.057" stroke="#99A3FF" stroke-width="0.993417" stroke-miterlimit="10"/>
<path d="M-916.843 221.287C-847.623 221.242 -775.959 222.942 -707.151 219.652C-622.181 215.592 -539.844 204.382 -455.175 199.322C-386.3 195.208 -326.516 199.607 -262.058 210.617C-208.876 219.702 -156.643 229.547 -98.7655 229.857C-37.5978 230.187 17.5467 217.242 74.119 208.527C139.447 198.462 195.227 200.602 258.358 212.867C318.477 224.547 374.536 239.541 442.396 238.701C526.306 237.661 605.041 221.767 689.286 221.287" stroke="#99A3FF" stroke-width="0.993417" stroke-miterlimit="10"/>
<path d="M-916.843 214.627C-849.396 214.567 -778.848 216.377 -711.903 212.542C-623.297 207.468 -537.981 194.498 -449.788 188.308C-379.519 183.373 -323.125 189.023 -260.028 202.933C-210.125 213.932 -160 226.637 -102.926 227.307C-38.7691 228.052 20.8035 211.238 78.6807 200.903C108.997 195.518 140.953 190.473 174.001 191.633C206.348 192.773 236.976 198.878 265.262 205.633C322.28 219.217 377.826 237.917 445.675 236.487C529.217 234.722 605.32 215.867 689.32 214.642" stroke="#99A3FF" stroke-width="0.993417" stroke-miterlimit="10"/>
<path d="M-916.788 208.082C-850.98 208.007 -781.581 209.862 -716.465 205.582C-624.479 199.553 -536.498 184.908 -445.036 177.648C-373.161 171.938 -320.024 178.733 -258.633 195.508C-212.088 208.227 -164.06 223.772 -107.499 224.827C-40.576 226.072 24.1163 205.302 83.0977 193.548C113.994 187.388 148.069 180.893 182.579 182.323C214.925 183.663 245.23 190.983 272.278 198.573C326.207 213.712 381.184 236.186 449.2 234.182C532.385 231.722 605.554 210.002 689.331 208.082" stroke="#99A3FF" stroke-width="0.993417" stroke-miterlimit="10"/>
<path d="M-916.776 201.652C-852.541 201.562 -784.168 203.417 -720.714 198.822C-625.728 191.938 -535.382 175.748 -441.087 167.518C-405.183 164.388 -371.153 162.579 -335.985 168.068C-307.33 172.543 -282.123 180.398 -257.807 188.338C-214.307 202.532 -168.387 220.737 -111.96 222.162C-42.5831 223.917 27.3068 199.382 87.2475 186.428C118.679 179.633 154.851 171.763 190.677 173.428C223.168 174.928 253.071 183.363 278.96 191.693C330.022 208.112 384.341 234.101 452.725 231.587C535.609 228.532 605.745 204.122 689.376 201.627" stroke="#99A3FF" stroke-width="0.993417" stroke-miterlimit="10"/>
<path d="M-916.766 195.328C-853.881 195.233 -786.434 197.078 -724.441 192.273C-627.045 184.723 -534.982 167.144 -438.311 158.139C-402.284 154.784 -368.354 152.704 -333.365 158.934C-304.978 164.019 -280.786 172.744 -257.653 181.463C-216.707 196.878 -172.705 217.367 -115.999 219.092C-79.7602 220.197 -43.3206 211.722 -12.023 204.548C22.6989 196.588 56.0824 187.518 90.7931 179.548C122.693 172.229 160.616 163.249 197.647 165.124C230.372 166.779 259.807 176.073 284.77 185.023C333.489 202.523 386.782 231.452 455.825 228.522C538.564 225.022 605.766 198.183 689.386 195.308" stroke="#99A3FF" stroke-width="0.993417" stroke-miterlimit="10"/>
<path d="M-916.754 189.118C-854.995 189.023 -788.262 190.873 -727.462 185.978C-628.349 178.003 -535.215 159.224 -436.927 149.659C-401.068 146.159 -366.881 143.924 -332.248 150.599C-303.895 156.064 -280.428 165.538 -258.131 174.858C-218.892 191.253 -176.552 213.442 -119.155 215.357C-81.923 216.587 -44.4238 207.407 -12.6354 199.817C23.2465 191.243 57.6338 181.483 93.5157 172.898C125.862 165.153 164.9 155.469 202.924 157.444C235.995 159.164 264.928 169.038 289.21 178.503C336.424 196.897 388.088 227.902 458.235 224.777C540.974 221.092 605.61 192.098 689.398 189.138" stroke="#99A3FF" stroke-width="0.993417" stroke-miterlimit="10"/>
<path d="M-916.731 183.018C-855.843 182.938 -789.522 184.823 -729.615 179.968C-629.665 171.868 -536.274 152.104 -437.228 142.279C-401.859 138.779 -367.037 136.499 -332.895 143.219C-304.308 148.844 -281.164 158.829 -259.28 168.543C-220.666 185.713 -179.575 208.792 -120.973 210.652C-82.9157 211.862 -45.3161 202.588 -13.0815 194.653C23.5588 185.653 58.5818 175.393 95.211 166.384C127.97 158.324 167.175 148.484 205.98 150.444C239.441 152.134 267.883 162.189 291.864 172.058C338.71 191.333 387.91 223.122 459.696 220.027C542.647 216.452 605.331 185.673 689.465 183.028" stroke="#99A3FF" stroke-width="0.993417" stroke-miterlimit="10"/>
<path d="M-916.72 177.018C-856.055 176.848 -789.946 178.968 -730.295 174.018C-631.026 165.764 -538.828 145.409 -440.563 135.354C-405.295 131.75 -370.495 129.59 -336.375 136.229C-307.375 141.884 -283.774 151.989 -261.566 161.824C-222.238 179.243 -180.712 202.618 -121.34 204.797C-83.0158 206.202 -45.6393 197.043 -13.2598 188.983C23.4363 179.843 58.3925 169.383 95.0774 160.239C127.992 152.029 166.997 142.324 206.092 144.424C239.776 146.234 268.051 156.309 292.076 166.289C339.112 185.833 387.375 217.202 459.73 214.287C542.915 210.947 604.953 179.328 689.432 177.018" stroke="#99A3FF" stroke-width="0.993417" stroke-miterlimit="10"/>
<path d="M-916.709 171.153C-855.787 170.843 -789.879 173.518 -730.017 168.223C-632.51 159.599 -542.387 138.909 -445.917 128.5C-410.225 124.645 -376.34 122.64 -341.729 129.325C-312.205 135.019 -287.767 145.019 -264.746 154.769C-224.112 171.998 -180.835 195.608 -121.464 198.583C-83.3732 200.493 -45.8629 191.308 -13.7621 183.253C22.4878 174.158 56.9197 163.689 93.1585 154.584C126.007 146.329 165.012 136.699 204.05 139.194C237.634 141.339 266.322 151.559 290.682 161.429C337.963 180.578 387.62 211.357 459.105 208.527C542.491 205.222 604.729 173.423 689.409 171.153" stroke="#99A3FF" stroke-width="0.993417" stroke-miterlimit="10"/>
<path d="M-916.687 165.389C-855.419 165.019 -789.689 168.439 -729.458 162.834C-633.937 153.944 -546.167 132.985 -451.728 122.335C-415.734 118.265 -382.641 116.45 -347.64 123.05C-317.659 128.705 -292.239 138.444 -268.359 148.119C-226.365 165.119 -181.091 188.643 -121.775 192.338C-84.0306 194.693 -46.8103 185.698 -14.9996 177.678C20.6369 168.678 54.3439 158.274 89.958 149.279C122.706 141.009 161.343 131.655 200.202 134.504C233.82 136.974 263.021 147.239 287.927 157.004C335.833 175.753 387.118 205.762 458.057 202.973C541.811 199.683 604.395 167.679 689.443 165.419" stroke="#99A3FF" stroke-width="0.993417" stroke-miterlimit="10"/>
<path d="M-916.665 159.733C-854.973 159.378 -789.277 163.703 -728.623 157.814C-635.287 148.759 -550.072 127.584 -457.852 116.75C-421.714 112.505 -389.245 110.91 -353.954 117.32C-323.437 122.86 -297.07 132.319 -272.263 141.819C-228.518 158.514 -181.661 181.698 -122.177 186.073C-84.8791 188.813 -48.3168 180.208 -16.8184 172.243C18.0373 163.423 50.8853 153.109 85.7188 144.279C118.344 136.004 156.233 127.114 194.859 130.279C228.633 133.054 258.436 143.279 284.09 152.909C332.955 171.243 386.069 200.332 456.628 197.557C540.895 194.242 603.959 162.023 689.52 159.748" stroke="#99A3FF" stroke-width="0.993417" stroke-miterlimit="10"/>
<path d="M-916.654 154.189C-854.46 153.909 -788.786 159.273 -727.585 153.129C-636.592 143.994 -554.087 122.63 -464.243 111.735C-428.127 107.345 -396.104 105.98 -360.635 112.11C-329.572 117.48 -302.278 126.609 -276.457 135.819C-230.727 152.134 -182.442 174.763 -122.735 179.768C-50.6814 185.813 22.1308 154.354 80.5212 139.524C113.023 131.264 149.887 122.989 188.178 126.454C222.219 129.539 252.647 139.664 279.182 149.149C329.285 167.053 384.385 195.102 454.766 192.312C539.657 188.953 603.324 156.499 689.498 154.189" stroke="#99A3FF" stroke-width="0.993417" stroke-miterlimit="10"/>
<path d="M-916.631 148.759C-853.891 148.604 -788.206 155.119 -726.369 148.759C-637.819 139.619 -558.158 118.155 -470.813 107.225C-434.819 102.725 -403.109 101.605 -367.539 107.38C-335.907 112.525 -307.666 121.25 -280.829 130.169C-233.113 146.019 -183.39 167.893 -123.382 173.518C-52.4212 180.158 17.2567 149.609 74.5651 135.019C106.253 126.965 143.195 118.845 180.437 122.995C215.014 126.845 245.475 136.179 273.516 145.679C325.058 163.129 382.277 190.043 452.658 187.223C538.275 183.798 602.621 151.099 689.521 148.724" stroke="#99A3FF" stroke-width="0.993417" stroke-miterlimit="10"/>
<path d="M-916.609 143.434C-853.278 143.434 -787.526 151.199 -724.998 144.604C-638.968 135.529 -562.23 113.975 -477.461 103.105C-330.23 84.2109 -253.425 153.964 -124.096 167.314C-54.3848 174.518 11.7686 145.069 68.0397 130.775C99.5827 122.775 135.097 115.49 171.871 119.875C206.883 124.05 238.058 133.18 267.225 142.499C320.373 159.499 379.812 185.188 450.337 182.323C536.746 178.823 601.851 145.869 689.554 143.434" stroke="#99A3FF" stroke-width="0.993417" stroke-miterlimit="10"/>
<path d="M-916.587 138.224C-852.642 138.434 -786.779 147.474 -723.503 140.684C-640.039 131.729 -566.234 110.125 -484.109 99.3503C-339.923 80.4408 -252.109 146.849 -124.866 161.153C-56.3594 168.863 5.82323 140.719 61.0682 126.699C92.4773 118.73 126.441 112.405 162.691 116.99C198.171 121.49 230.138 130.389 260.476 139.514C315.331 156.014 377.034 180.468 447.861 177.538C535.117 173.933 601.036 140.739 689.586 138.224" stroke="#99A3FF" stroke-width="0.993417" stroke-miterlimit="10"/>
<path d="M-916.565 133.124C-851.984 133.549 -785.987 143.909 -721.919 136.949C-641.01 128.16 -570.227 106.53 -490.645 95.9005C-349.515 77.046 -250.837 139.824 -125.658 155.084C-58.378 163.284 -0.422652 136.524 53.8519 122.78C85.1495 114.855 117.429 109.545 153.121 114.28C189.092 119.075 221.884 127.78 253.427 136.679C310.044 152.679 374.023 175.858 445.206 172.863C533.322 169.148 600.111 135.704 689.542 133.104" stroke="#99A3FF" stroke-width="0.993417" stroke-miterlimit="10"/>
<path d="M-916.543 128.134C-851.338 128.779 -785.151 140.464 -720.236 133.359C-641.824 124.77 -573.964 103.13 -496.947 92.6805C-358.818 73.936 -249.588 132.944 -126.461 149.119C-60.3972 157.799 -6.79184 132.464 46.5569 118.985C77.7208 111.11 108.427 106.845 143.528 111.75C180.001 116.85 213.653 125.335 246.378 134.014C304.768 149.514 371 171.413 442.63 168.343C531.671 164.523 599.285 130.844 689.609 128.134" stroke="#99A3FF" stroke-width="0.993417" stroke-miterlimit="10"/>
<path d="M-916.519 123.26C-850.711 124.12 -784.302 137.099 -718.639 129.875C-642.637 121.51 -577.643 99.8755 -503.08 89.6308C-367.684 71.0313 -248.326 126.2 -127.196 143.279C-62.3363 152.429 -13.0921 128.52 39.3866 115.28C70.4166 107.455 99.6173 104.235 134.049 109.28C171.024 114.69 205.523 122.98 239.419 131.42C299.527 146.389 367.967 167.054 440.088 163.919C530.021 159.994 598.472 126.04 689.677 123.27" stroke="#99A3FF" stroke-width="0.993417" stroke-miterlimit="10"/>
<path d="M-916.497 118.49C-850.031 119.555 -783.465 133.78 -717 126.455C-643.284 118.33 -581.034 96.7108 -508.791 86.6861C-375.993 68.2566 -247.089 119.595 -127.988 137.58C-64.2104 147.209 -19.372 124.625 32.3818 111.65C63.3114 103.901 90.984 101.651 124.836 106.84C162.29 112.56 197.626 120.685 232.627 128.88C294.385 143.334 364.933 162.784 437.556 159.569C528.337 155.544 597.591 121.345 689.633 118.49" stroke="#99A3FF" stroke-width="0.993417" stroke-miterlimit="10"/>
<path d="M-916.476 113.835C-849.385 115.075 -782.63 130.469 -715.417 123.069C-643.809 115.19 -584.136 93.5703 -514.056 83.7806C-446.074 74.2809 -373.752 85.0056 -310.254 96.4652C-249.019 107.52 -190.807 122.02 -128.658 132.044C-65.6835 142.204 -25.5186 120.685 25.8448 108.045C94.0505 91.2704 163.907 112.545 226.335 126.339C289.588 140.299 362.122 158.588 435.224 155.304C526.808 151.194 596.821 116.755 689.676 113.83" stroke="#99A3FF" stroke-width="0.993417" stroke-miterlimit="10"/>
<path d="M-916.454 109.285C-848.739 110.67 -781.972 127.13 -713.9 119.675C-644.2 112.035 -586.903 90.4307 -518.708 80.856C-451.35 71.3862 -377.121 81.6709 -313.321 92.1656C-250.849 102.445 -191.388 116.02 -129.25 126.7C-67.1117 137.379 -30.8171 116.915 19.8882 104.455C86.5435 88.0808 159.311 110.955 220.657 123.78C285.238 137.279 359.612 154.459 433.115 151.129C525.413 146.944 596.117 112.275 689.653 109.285" stroke="#99A3FF" stroke-width="0.993417" stroke-miterlimit="10"/>
<path d="M-916.431 104.85C-848.08 106.35 -781.369 123.73 -712.506 116.23C-644.467 108.825 -589.278 87.2309 -522.89 77.8411C-456.046 68.4164 -380.121 78.2811 -316.032 87.9059C-252.455 97.4606 -191.8 110.22 -129.763 121.555C-100.495 126.9 -79.046 127.12 -50.7487 120.225C-27.7495 114.62 -8.29722 106.48 14.6685 100.835C45.3081 93.2957 69.7127 93.5057 101.802 99.1105C140.361 105.855 177.927 113.61 215.761 121.145C281.424 134.185 357.415 150.364 431.253 147.004C524.187 142.774 595.482 107.875 689.687 104.85" stroke="#99A3FF" stroke-width="0.993417" stroke-miterlimit="10"/>
<path d="M-916.408 100.52C-847.422 102.02 -780.911 120.23 -711.245 112.705C-644.556 105.5 -591.252 83.8259 -526.203 74.6761C-459.703 65.3214 -382.385 74.7761 -318.039 83.6759C-253.692 92.5756 -191.911 104.675 -130.074 116.675C-101.498 122.22 -80.607 123.005 -52.5551 116.145C-30.3144 110.705 -11.7544 102.675 10.4305 97.1955C40.9028 89.6657 64.9282 90.4657 96.46 96.2555C135.208 103.37 173.355 111.11 211.902 118.435C278.39 131.064 355.865 146.344 429.815 142.974C523.261 138.719 595.036 103.61 689.699 100.565" stroke="#99A3FF" stroke-width="0.993417" stroke-miterlimit="10"/>
<path d="M-916.386 96.3104C-846.753 97.7703 -780.622 116.61 -710.174 109.065C-644.478 102.02 -592.836 80.1809 -528.69 71.3011C-462.28 62.0964 -384.125 71.1211 -319.377 79.3859C-254.105 87.7106 -191.789 99.3053 -130.208 111.965C-102.212 117.715 -81.5554 118.925 -53.7155 112.065C-32.077 106.74 -14.2644 98.7603 7.30709 93.3855C37.6344 85.8307 61.6374 87.0557 92.6897 93.0655C131.494 100.565 170.086 108.325 209.225 115.495C276.148 127.759 354.916 142.249 428.81 138.904C522.625 134.654 594.746 99.3453 689.81 96.3104" stroke="#99A3FF" stroke-width="0.993417" stroke-miterlimit="10"/>
<path d="M-916.365 92.2056C-846.096 93.5305 -780.533 112.825 -709.305 105.26C-644.289 98.3554 -593.762 76.421 -530.386 67.6463C-464.188 58.4865 -385.007 67.3163 -320.092 75.0661C-254.151 82.9408 -191.555 94.2205 -130.265 107.565C-102.726 113.565 -81.9577 115.015 -54.2627 108.11C-33.0704 102.825 -15.8155 94.8405 5.34335 89.5056C35.5591 81.8859 59.8968 83.3258 90.581 89.6106C129.307 97.5404 168.189 105.355 207.763 112.405C274.887 124.36 354.57 138.199 428.163 134.904C522.201 130.699 594.5 95.2005 689.787 92.2056" stroke="#99A3FF" stroke-width="0.993417" stroke-miterlimit="10"/>
<path d="M-916.33 88.2055C-845.704 89.3955 -780.599 108.9 -708.935 101.265C-644.143 94.3654 -593.917 72.451 -530.742 63.7263C-464.611 54.5965 -385.073 63.6063 -320.135 71.191C-253.959 78.9208 -191.565 90.1155 -130.196 103.52C-102.758 109.52 -81.6995 110.77 -54.1941 103.91C-33.1469 98.6602 -16.0034 90.7455 5.04391 85.4806C35.1593 77.9508 59.943 79.3508 90.3372 85.8156C128.896 94.0154 167.823 101.89 207.564 108.87C274.364 120.605 355.085 134.289 428.109 130.869C522.013 126.479 594.781 91.5804 689.822 88.2205" stroke="#99A3FF" stroke-width="0.993417" stroke-miterlimit="10"/>
<path d="M-916.308 84.2706C-845.526 85.4005 -780.611 105.035 -708.78 97.3102C-644.088 90.3504 -593.605 68.621 -530.386 59.9513C-464.254 50.8815 -384.895 60.2863 -320.058 67.9211C-254.094 75.6908 -191.967 86.8655 -130.175 99.6351C-71.6842 111.72 -42.6954 93.1353 5.47798 81.5457C35.5933 74.3009 60.5333 75.6208 90.6487 82.1106C129.04 90.3854 167.9 98.2402 207.63 105.14C274.04 116.67 355.809 130.419 428.309 126.709C521.811 121.92 595.471 88.4405 689.877 84.3456" stroke="#99A3FF" stroke-width="0.993417" stroke-miterlimit="10"/>
<path d="M-916.285 80.396C-845.291 81.486 -780.532 101.265 -708.478 93.4757C-643.786 86.4759 -593.103 64.9765 -529.849 56.3867C-463.718 47.387 -384.593 57.1517 -319.856 64.8115C-254.149 72.5863 -192.256 83.711 -130.107 95.8356C-72.1073 107.155 -42.0812 88.9008 6.12567 77.8361C36.241 70.9063 61.4041 72.1863 91.2517 78.6861C129.465 87.0059 168.213 94.8006 207.932 101.58C274.074 112.875 356.657 126.48 428.555 122.52C521.589 117.4 596.152 85.3759 689.867 80.631" stroke="#99A3FF" stroke-width="0.993417" stroke-miterlimit="10"/>
<path d="M-916.263 76.5913C-845.024 77.6513 -780.365 97.5907 -708.043 89.766C-643.429 82.7762 -592.445 61.5218 -529.147 53.022C-463.016 44.1723 -384.147 54.182 -319.533 61.8468C-254.138 69.5965 -192.38 80.6362 -130.007 92.0909C-72.4201 102.656 -41.3678 84.8061 6.96172 74.2564C37.1551 67.6716 62.5078 68.9516 92.1324 75.4464C130.133 83.7811 168.804 91.4859 208.456 98.1057C274.431 109.13 357.516 122.4 428.922 118.235C521.499 112.84 596.921 82.3212 689.922 76.9913" stroke="#99A3FF" stroke-width="0.993417" stroke-miterlimit="10"/>
<path d="M-916.241 72.8514C-844.7 73.9014 -780.164 93.9958 -707.474 86.166C-642.916 79.2162 -591.62 58.2018 -528.266 49.872C-462.157 41.1773 -383.69 51.412 -319.098 59.0518C-254.06 66.7516 -192.491 77.6762 -129.862 88.4409C-72.7098 98.2656 -40.5645 80.8862 7.98815 70.9064C38.282 64.6766 63.8354 66.0016 93.2704 72.4764C130.974 80.8535 169.664 88.3075 209.17 94.8058C275.089 105.525 358.408 118.305 429.402 113.95C521.377 108.335 597.725 79.3562 689.911 73.5214" stroke="#99A3FF" stroke-width="0.993417" stroke-miterlimit="10"/>
<path d="M-916.207 69.181C-844.342 70.231 -779.829 90.5004 -706.782 82.6807C-642.28 75.7859 -590.637 55.0514 -527.206 46.8917C-461.119 38.3919 -382.986 48.7866 -318.517 56.3914C-253.825 64.0112 -192.423 74.7859 -129.649 84.8506C-72.9211 93.9503 -39.6158 77.0858 9.22687 67.7111C39.6657 61.8663 65.4087 63.2662 94.6764 69.711C132.154 78.0326 170.702 85.347 210.119 91.6154C276.071 102 359.379 114.085 429.994 109.615C521.377 103.83 598.595 76.4358 689.979 70.146" stroke="#99A3FF" stroke-width="0.993417" stroke-miterlimit="10"/>
<path d="M-916.185 65.5913C-843.953 66.6463 -779.45 87.0907 -705.991 79.3309C-641.533 72.5211 -589.523 52.0867 -526.069 44.1219C-460.016 35.8321 -382.296 46.3518 -317.882 53.8916C-253.67 61.3914 -192.29 71.9961 -129.45 81.3458C-73.1228 89.7306 -38.5905 73.4411 10.5867 64.7013C41.1928 59.2615 67.1366 60.7664 96.2816 67.2012C133.502 75.4433 171.878 82.5931 211.166 88.6056C277.23 98.6053 360.282 109.885 430.595 105.31C521.343 99.4103 599.397 73.6311 689.955 66.9563" stroke="#99A3FF" stroke-width="0.993417" stroke-miterlimit="10"/>
<path d="M-916.162 62.0716C-843.528 63.1516 -778.97 83.791 -705.087 76.0712C-640.674 69.3814 -588.284 49.272 -524.763 41.5222C-458.755 33.4724 -381.459 44.0671 -317.19 51.5219C-253.424 58.9217 -192.111 69.2864 -129.248 77.9162C-73.3116 85.5909 -37.4855 69.9164 12.0599 61.8466C42.8556 56.8468 69.0001 58.4667 98.0559 64.8465C135.03 72.9909 173.246 79.9498 212.416 85.6709C278.692 95.2857 361.275 105.61 431.332 100.955C521.422 94.9557 600.28 70.8514 689.99 63.8316" stroke="#99A3FF" stroke-width="0.993417" stroke-miterlimit="10"/>
<path d="M-916.141 58.6315C-843.072 59.7414 -778.525 80.5808 -704.095 72.966C-639.726 66.3762 -586.924 46.6068 -523.336 39.097C-457.384 31.3122 -380.567 41.9419 -316.388 49.3017C-253.068 56.5665 -191.811 66.6712 -129.003 74.571C-73.4462 81.5708 -36.2482 66.5362 13.6875 59.1614C44.6952 54.5866 71.0405 56.3815 100.029 62.6613C136.745 70.6822 174.78 77.4284 213.798 82.8408C280.331 92.0155 362.245 101.275 432.101 96.5654C521.522 90.5655 601.126 68.1162 689.989 60.8064" stroke="#99A3FF" stroke-width="0.993417" stroke-miterlimit="10"/>
<path d="M-916.119 55.2767C-842.593 56.4267 -777.978 77.4661 -703.08 69.9563C-638.678 63.5215 -585.463 44.0921 -521.797 36.8423C-455.912 29.3425 -379.63 39.9672 -315.451 47.217C-252.599 54.3268 -191.387 64.1415 -128.647 71.3063C-73.469 77.6111 -34.8209 63.2765 15.5275 56.6317C46.7582 52.5118 73.2932 54.4818 102.26 60.7316C138.708 68.6116 176.553 75.1221 215.404 80.196C282.193 88.9008 363.282 97.0205 432.982 92.2557C521.7 86.2208 602.018 65.5214 690.033 57.9617" stroke="#99A3FF" stroke-width="0.993417" stroke-miterlimit="10"/>
<path d="M-916.096 52.0219C-842.112 53.2068 -777.42 74.4462 -701.864 67.0614C-637.562 60.7716 -583.901 41.7222 -520.168 34.7474C-454.361 27.5426 -378.604 38.1423 -314.57 45.2471C-252.175 52.1869 -191.007 61.6766 -128.401 68.1114C-73.5687 73.7512 -33.3926 60.1116 17.3462 54.2318C48.8 50.5769 75.5469 52.7318 104.525 58.9367C140.698 66.6591 178.339 72.9155 217 77.6311C284.224 85.8309 364.308 92.6807 433.897 87.9258C521.923 81.926 602.878 62.9665 690.056 55.1918" stroke="#99A3FF" stroke-width="0.993417" stroke-miterlimit="10"/>
<path d="M-916.074 48.8217C-841.555 50.0767 -776.741 71.5211 -700.649 64.2763C-636.358 58.1614 -582.229 39.492 -518.451 32.8072C-452.699 25.9224 -377.511 36.4621 -313.566 43.4469C-251.64 50.2117 -190.517 59.3414 -128.078 65.0462C-73.5695 70.0461 -31.8095 57.1415 19.3085 52.0466C50.9965 48.8717 77.9442 51.2566 106.966 57.3765C142.865 64.9257 180.298 70.9114 218.75 75.251C286.387 82.9107 365.356 88.4456 434.856 83.6857C522.19 77.7109 603.725 60.5614 690.078 52.6066" stroke="#99A3FF" stroke-width="0.993417" stroke-miterlimit="10"/>
<path d="M-916.051 45.7272C-840.997 47.0471 -776.071 68.6965 -699.343 61.6117C-635.108 55.6769 -580.544 37.4024 -516.655 31.0226C-450.992 24.4628 -376.384 34.9275 -312.54 41.7573C-251.06 48.3321 -190.015 57.0768 -127.776 62.0517C-73.5465 66.3866 -30.1692 54.2619 21.3392 49.927C53.2503 47.2421 80.3876 49.862 109.51 55.9269C145.129 63.2884 182.345 68.985 220.569 72.9264C288.607 80.0062 366.372 84.166 435.838 79.4262C522.492 73.5213 604.54 58.1818 690.101 50.067" stroke="#99A3FF" stroke-width="0.993417" stroke-miterlimit="10"/>
<path d="M-916.029 42.7272C-840.451 44.1172 -775.357 65.9715 -698.039 59.0567C-633.793 53.3119 -578.771 35.4424 -514.804 29.3776C-449.23 23.1628 -375.213 33.5225 -311.413 40.1923C-250.369 46.5771 -189.413 54.9019 -127.375 59.1517C-73.3795 62.8466 -28.3515 51.512 23.525 47.9771C55.6703 45.7821 82.9972 48.652 112.231 54.6269C147.573 61.798 184.571 67.2005 222.554 70.7364C291.05 77.2012 367.487 79.9411 436.931 75.2363C522.815 69.4064 605.353 55.9168 690.123 47.6671" stroke="#99A3FF" stroke-width="0.993417" stroke-miterlimit="10"/>
<path d="M-916.006 39.8221C-839.881 41.2871 -774.62 63.3214 -696.666 56.6166C-632.42 51.0718 -576.941 33.6073 -512.896 27.8724C-447.412 22.0226 -373.997 32.2523 -310.275 38.7521C-249.643 44.937 -188.799 52.8167 -127.029 56.3466C-73.2229 59.4215 -26.5552 48.8918 25.6559 46.1569C58.002 44.462 85.5408 47.5919 114.887 53.4917C149.954 60.4588 186.728 65.552 224.451 68.6663C293.381 74.4811 368.469 75.7761 437.913 71.1062C523.173 65.3764 606.034 53.7517 690.067 45.3819" stroke="#99A3FF" stroke-width="0.993417" stroke-miterlimit="10"/>
<path d="M-915.984 37.0224C-839.301 38.5623 -773.851 60.8217 -695.272 54.2919C-631.037 48.947 -575.067 31.9025 -510.944 26.5227C-445.571 21.0228 -372.77 31.1375 -309.059 37.4573C-248.829 43.4572 -188.118 50.852 -126.605 53.6669C-72.8992 56.1268 -24.6365 46.4171 27.9761 44.4871C60.5565 43.2922 88.2068 46.6971 117.831 52.5169C152.628 59.2765 189.178 64.0536 226.626 66.7365C383.895 78.3812 538.007 58.7367 690.224 43.2372" stroke="#99A3FF" stroke-width="0.993417" stroke-miterlimit="10"/>
<path d="M-915.962 34.3126C-838.711 35.9376 -773.07 58.3919 -693.845 52.0671C-629.61 46.9373 -573.16 30.3177 -508.959 25.2529C-443.698 20.103 -371.51 30.0927 -307.933 36.2276C-248.048 42.0224 -187.516 48.9372 -126.282 51.0221C-72.5872 52.8671 -22.8076 44.0223 30.1954 42.8724C62.9653 42.1724 90.8499 45.8723 120.642 51.6071C155.04 58.2719 191.569 62.5218 228.655 64.8717C381.92 74.5865 541.777 56.552 690.19 41.1574" stroke="#99A3FF" stroke-width="0.993417" stroke-miterlimit="10"/>
<path d="M-915.94 31.7123C-838.12 33.4223 -772.279 56.0716 -692.406 49.9568C-628.16 45.022 -571.242 28.8474 -506.963 24.1226C-441.813 19.3377 -370.25 29.1924 -306.74 35.1222C-247.179 40.6971 -186.859 47.1219 -125.903 48.5269C-72.1084 49.7668 -20.9234 41.7571 32.4811 41.4221C65.4407 41.2171 93.5037 45.207 123.53 50.8718C157.705 57.3166 193.989 61.2015 230.763 63.1314C300.82 66.8063 371.859 63.6764 441.336 59.1816C524.7 53.7867 608.186 47.8669 690.211 39.1821" stroke="#99A3FF" stroke-width="0.993417" stroke-miterlimit="10"/>
<path d="M-915.917 29.2175C-838.198 30.9824 -772.446 53.6718 -692.651 48.0819C-628.662 43.5821 -571.632 28.0375 -507.855 23.3227C-443.385 18.5578 -373.261 28.0125 -310.309 33.7224C-249.454 39.2222 -187.807 45.367 -125.512 46.137C-70.2117 46.822 -16.3275 39.2522 38.8505 40.1372C72.1558 40.6722 99.9177 45.552 130.446 50.9719C162.156 56.6017 195.64 59.8266 229.503 61.3516C301.579 64.5965 373.064 59.8116 444.281 55.2967C526.485 50.0869 609.425 46.077 690.268 37.3672" stroke="#99A3FF" stroke-width="0.993417" stroke-miterlimit="10"/>
<path d="M-915.906 26.8325C-837.651 28.6825 -771.631 51.5618 -691.246 46.187C-627.245 41.9071 -569.758 26.7725 -505.88 22.4027C-441.545 18.0228 -371.978 27.3425 -309.115 32.8674C-248.55 38.1972 -187.137 43.867 -125.166 43.867C-69.5423 43.867 -14.4647 37.3022 41.1706 38.9772C74.5206 39.9772 102.517 45.137 133.279 50.4419C164.777 55.8717 198.038 58.7566 231.611 59.8966C303.922 62.3515 374.168 56.0367 445.375 51.6468C527.043 46.612 609.972 44.467 690.246 35.6473" stroke="#99A3FF" stroke-width="0.993417" stroke-miterlimit="10"/>
<path d="M-915.884 24.5625C-837.037 26.4974 -770.884 49.5617 -689.818 44.3969C-625.795 40.317 -567.862 25.6074 -503.895 21.5776C-439.693 17.5227 -370.673 26.7774 -307.844 32.1223C-247.613 37.2571 -186.434 42.417 -124.787 41.687C-68.7614 41.022 -12.6019 35.4422 43.5019 37.8971C76.8965 39.362 105.116 44.7969 136.079 49.9867C167.309 55.2216 200.414 57.7665 233.675 58.5215C306.175 60.1764 375.261 52.3617 446.445 48.0918C527.6 43.2219 610.407 42.9519 690.212 34.0222" stroke="#99A3FF" stroke-width="0.993417" stroke-miterlimit="10"/>
<path d="M-915.862 22.4078C-836.469 24.4077 -770.037 47.6671 -688.402 42.7172C-624.368 38.8323 -565.988 24.5227 -501.921 20.8528C-437.853 17.1829 -369.391 26.3127 -306.729 31.4725C-246.643 36.4224 -185.754 41.0973 -124.442 39.6323C-67.9252 38.2823 -10.8063 33.7025 45.7659 36.9274C79.2274 38.8323 107.647 44.5622 138.9 49.632C170.153 54.7019 202.834 56.8818 235.783 57.2618C308.282 58.1068 376.455 48.827 447.56 44.6772C528.247 39.9673 610.986 41.5672 690.257 32.5075" stroke="#99A3FF" stroke-width="0.993417" stroke-miterlimit="10"/>
<path d="M-915.851 20.3675C-835.911 22.4675 -769.245 45.8668 -687.03 41.1469C-622.963 37.452 -564.16 23.5774 -500.003 20.2175C-436.114 16.8726 -368.075 25.9424 -305.524 30.9272C-245.617 35.6971 -185.063 39.882 -124.052 37.697C-66.9775 35.6521 -9.011 32.0672 48.0632 36.0471C81.4243 38.377 110.179 44.4068 141.655 49.3617C172.551 54.2216 205.232 56.0915 237.823 56.1065C310.323 56.1465 377.625 45.4468 448.631 41.4069C528.938 36.8371 611.477 40.302 690.256 31.0972" stroke="#99A3FF" stroke-width="0.993417" stroke-miterlimit="10"/>
<path d="M-915.839 18.4529C-835.364 20.6228 -768.497 44.2171 -685.691 39.6773C-621.59 36.1774 -562.363 22.6778 -498.128 19.6778C-434.306 16.6779 -366.948 25.6777 -304.386 30.4875C-244.601 35.0674 -184.348 38.7823 -123.694 35.8874C-66.0061 33.1375 -7.29233 30.5475 50.3061 35.2674C83.656 37.9923 112.656 44.3271 144.366 49.167C175.117 53.8569 207.519 55.3918 239.81 55.0518C312.198 54.2968 378.798 42.2272 449.703 38.2823C529.553 33.8424 611.879 39.1723 690.291 29.7826" stroke="#99A3FF" stroke-width="0.993417" stroke-miterlimit="10"/>
<path d="M-915.817 16.658C-834.841 18.9029 -767.739 42.6572 -684.387 38.3173C-620.252 34.9724 -560.579 21.9078 -496.311 19.1929C-432.622 16.503 -365.811 25.4877 -303.282 30.1176C-243.609 34.5224 -183.658 37.7723 -123.349 34.1825C-65.0143 30.7126 -5.57548 29.1026 52.4244 34.5474C85.7409 37.6724 114.986 44.3072 146.975 49.047C177.537 53.5469 209.771 54.7869 241.783 54.1019C313.982 52.5669 380.012 39.1873 450.795 35.3274C530.266 30.9925 612.347 38.1723 690.379 28.5976" stroke="#99A3FF" stroke-width="0.993417" stroke-miterlimit="10"/>
<path d="M-915.805 14.9878C-834.382 17.3027 -767.035 41.227 -683.147 37.0622C-618.979 33.8722 -558.972 21.2026 -494.558 18.7877C-430.982 16.4078 -364.661 25.3775 -302.233 29.8474C-242.638 34.1222 -182.987 36.8822 -123.035 32.6123C-64.0205 28.4124 -4.04636 27.7624 54.4555 33.9122C87.7051 37.4121 117.229 44.3469 149.43 48.9768C179.836 53.3467 211.892 54.2517 243.569 53.2417C315.511 50.9468 381.084 36.3322 451.733 32.5223C530.925 28.2674 612.671 37.2871 690.358 27.4824" stroke="#99A3FF" stroke-width="0.993417" stroke-miterlimit="10"/>
<path d="M-915.794 13.4529C-833.858 15.8229 -766.333 39.9072 -681.977 35.9073C-617.753 32.8674 -557.377 20.5727 -492.897 18.4528C-429.42 16.3679 -363.613 25.3376 -301.241 29.6675C-241.701 33.8024 -182.341 36.1023 -122.723 31.1674C-63.1062 26.2326 -2.54087 26.5226 56.4183 33.3524C89.5898 37.1973 119.404 44.3521 151.784 48.9619C181.899 53.2568 214 53.7968 245.286 52.4618C316.938 49.4619 382.144 33.6674 452.647 29.9075C531.493 25.7026 613.006 36.5473 690.358 26.4776" stroke="#99A3FF" stroke-width="0.993417" stroke-miterlimit="10"/>
<path d="M-915.728 12.0226C-833.346 14.4426 -765.676 38.6869 -680.817 34.842C-616.616 31.9471 -555.883 20.0224 -491.325 18.1775C-427.993 16.3675 -362.61 25.3673 -300.304 29.5721C-240.799 33.572 -181.717 35.437 -122.445 29.8521C-62.0584 24.1673 -1.13618 25.3523 58.2468 32.852C91.3514 37.0219 121.422 44.4467 153.991 48.9916C183.984 53.1765 215.917 53.4165 246.88 51.8115C280.665 50.0565 313.603 46.0367 346.038 41.5768C381.039 36.7719 417.054 29.4421 453.516 27.5022C532.095 23.3173 613.328 35.962 690.368 25.5923" stroke="#99A3FF" stroke-width="0.993417" stroke-miterlimit="10"/>
<path d="M-915.728 10.7729C-832.944 13.2329 -765.151 37.6322 -679.802 33.9173C-615.545 31.1174 -554.489 19.5227 -489.852 17.9527C-426.621 16.3978 -361.706 25.4525 -299.457 29.5524C-239.951 33.4623 -181.103 34.8873 -122.178 28.6724C-61.1326 22.2326 0.191145 24.2776 60.0091 32.4273C92.9687 36.9272 123.296 44.577 156.033 49.0568C185.902 53.1417 217.691 53.1117 248.353 51.2318C282.071 49.1718 314.818 44.802 347.064 40.0571C381.808 34.9473 417.88 27.2375 454.331 25.2825C532.664 21.0877 613.641 35.5072 690.379 24.7825" stroke="#99A3FF" stroke-width="0.993417" stroke-miterlimit="10"/>
<path d="M-915.728 9.63794C-832.565 12.1379 -764.594 36.6822 -678.876 33.0773C-614.575 30.3673 -553.229 19.1227 -488.536 17.7777C-425.394 16.4627 -360.914 25.6225 -298.709 29.6174C-239.192 33.4323 -180.557 34.4572 -121.977 27.6174C-60.2292 20.4326 1.37335 23.2825 61.6152 32.0573C94.4521 36.8372 125.002 44.7219 157.906 49.1518C187.653 53.1517 219.252 52.8717 249.691 50.7468C283.331 48.3968 315.911 43.697 347.99 38.6921C382.5 33.3073 418.616 25.2575 455.067 23.2725C533.143 19.0227 613.931 35.1972 690.412 24.0875" stroke="#99A3FF" stroke-width="0.993417" stroke-miterlimit="10"/>
<path d="M-915.728 8.64301C-832.219 11.1429 -764.136 35.8572 -678.051 32.3373C-613.671 29.7024 -552.013 18.7677 -487.254 17.6427C-424.179 16.5428 -360.1 25.8375 -297.962 29.7524C-238.423 33.4973 -179.954 34.1423 -121.731 26.7175C-59.3481 18.7627 2.41066 22.3626 63.0763 31.7173C95.8017 36.7722 126.553 44.862 159.59 49.2518C189.237 53.1867 220.725 52.6867 250.873 50.3368C284.469 47.7169 316.871 42.717 348.804 37.4722C383.124 31.8273 419.263 23.5026 455.758 21.4726C533.679 17.1328 614.265 35.0222 690.412 23.4726" stroke="#99A3FF" stroke-width="0.993417" stroke-miterlimit="10"/>
<path d="M-915.728 7.79318C-831.896 10.2931 -763.746 35.1624 -677.326 31.6975C-612.935 29.1176 -550.998 18.4729 -486.183 17.5229C-423.175 16.6179 -359.52 26.0777 -297.382 29.9375C-237.809 33.6374 -179.452 33.9374 -121.564 25.9377C-58.5337 17.2229 3.25859 21.5028 64.3704 31.4375C96.9508 36.7373 127.88 45.0121 161.041 49.372C190.598 53.2619 221.93 52.5719 251.866 50.022C285.417 47.157 317.674 41.8872 349.473 36.4224C383.638 30.5475 419.743 22.0078 456.338 19.9228C534.092 15.448 614.578 35.0224 690.424 22.9627" stroke="#99A3FF" stroke-width="0.993417" stroke-miterlimit="10"/>
<path d="M-915.728 7.08319C-832.309 9.58312 -764.382 34.4524 -678.464 31.2275C-610.57 28.6826 -544.941 17.1879 -476.434 17.4229C-417.866 17.6229 -359.096 26.2476 -301.241 29.9575C-239.772 33.8974 -180.936 33.7874 -121.408 25.3527C-55.3996 16.0229 6.44837 20.9278 70.0698 32.0225C98.5902 36.9923 125.761 43.7721 154.493 48.427C184.899 53.3519 218.282 52.8719 249.568 50.137C285.071 47.037 319.057 41.1372 352.541 35.1374C386.292 29.0676 422.174 20.5228 458.569 18.5229C535.53 14.318 615.57 35.0774 690.412 22.5577" stroke="#99A3FF" stroke-width="0.993417" stroke-miterlimit="10"/>
<path d="M-915.728 6.52271C-832.074 8.98763 -764.147 34.0219 -677.995 30.792C-610.08 28.2421 -544.149 17.0174 -475.665 17.3924C-417.141 17.7174 -358.672 26.5821 -300.851 30.297C-239.337 34.2469 -180.512 33.8569 -121.274 24.8722C-54.5964 14.7525 6.92813 20.2323 71.0738 31.872C99.4603 37.0218 126.709 43.8616 155.52 48.5215C185.858 53.4514 219.096 52.8714 250.204 49.9815C285.685 46.6865 319.537 40.5317 352.92 34.3719C386.627 28.1521 422.498 19.5123 458.982 17.4124C535.798 13.0225 615.927 35.3369 690.424 22.2123" stroke="#99A3FF" stroke-width="0.993417" stroke-miterlimit="10"/>
<path d="M-915.728 6.1235C-831.907 8.54843 -764.036 33.7327 -677.638 30.4528C-609.711 27.8729 -543.636 16.8882 -475.062 17.3832C-416.561 17.8032 -358.371 26.9529 -300.572 30.6978C-239.025 34.6977 -180.11 34.0627 -121.252 24.538C-53.9272 13.6483 7.10663 19.5881 71.7989 31.7178C100.118 37.0226 127.434 43.9324 156.267 48.6473C186.583 53.6021 219.531 52.9772 250.617 49.9522C322.437 42.9524 386.783 21.0381 459.294 16.6182C535.977 11.9433 616.318 35.7626 690.424 21.978" stroke="#99A3FF" stroke-width="0.993417" stroke-miterlimit="10"/>
<path d="M-915.728 5.86887C-831.773 8.2438 -763.924 33.5781 -677.426 30.2182C-609.488 27.5732 -543.19 16.8035 -474.65 17.3785C-416.137 17.8785 -358.204 27.3482 -300.427 31.1581C-238.858 35.218 -179.742 34.398 -121.218 24.3583C-53.3026 12.7037 7.05076 18.9885 72.3564 31.6081C100.442 37.023 127.824 44.1978 156.724 48.7276C187.419 53.5325 219.375 53.1425 250.795 49.9826C322.738 42.7428 386.727 20.8084 459.495 16.0686C536.077 11.0687 616.764 36.343 690.379 21.8284" stroke="#99A3FF" stroke-width="0.993417" stroke-miterlimit="10"/>
<path d="M-915.728 5.77313C-831.684 8.07807 -763.958 33.5623 -677.371 30.0774C-609.433 27.3425 -543.045 16.7528 -474.371 17.3728C-415.847 17.9028 -358.137 27.7725 -300.371 31.6724C-238.802 35.8273 -179.374 34.8723 -121.196 24.3276C-52.7561 11.913 6.74948 18.4228 72.6798 31.5224C132.91 43.482 182.534 57.0966 250.74 50.0868C322.871 42.6721 386.56 20.9227 459.584 15.8028C536.077 10.438 617.188 37.0772 690.468 21.8027" stroke="#99A3FF" stroke-width="0.993417" stroke-miterlimit="10"/>
</g>
<rect x="25.7363" y="86.4006" width="142.088" height="51.0188" rx="11.315" fill="white"/>
<rect opacity="0.5" x="34.4402" y="96.4658" width="31.2357" height="30.8886" rx="4.35191" fill="#5465FF"/>
<path fill-rule="evenodd" clip-rule="evenodd" d="M54.7479 112.239L53.1936 110.846L51.1082 116.312L54.7479 112.239ZM51.036 113.763L52.5287 109.853C52.5287 109.852 52.5292 109.851 52.5297 109.85L52.9088 108.856L51.036 108.14V113.763ZM50.1756 116.019H47.3036L49.8097 116.978L50.1756 116.019ZM49.6433 117.951L46.9632 116.925L48.9607 118.715L49.6433 117.951ZM45.1727 115.053H50.0588V106.355H45.1727V115.053ZM55.7997 112.521L49.3647 119.721C49.2782 119.818 49.156 119.877 49.0256 119.884C49.0168 119.884 49.0075 119.885 48.9982 119.885C48.8775 119.885 48.7602 119.84 48.6703 119.759L44.3559 115.893C44.3539 115.892 44.3534 115.889 44.351 115.887C44.3486 115.885 44.3451 115.883 44.3432 115.881C44.3144 115.853 44.2958 115.818 44.2743 115.784C44.2635 115.767 44.2479 115.752 44.2396 115.734C44.2386 115.732 44.2372 115.731 44.2367 115.729C44.2259 115.705 44.2254 115.678 44.2191 115.652C44.2181 115.65 44.2176 115.646 44.2166 115.643C44.2098 115.613 44.1976 115.585 44.1966 115.554C44.1961 115.55 44.1966 115.547 44.1966 115.543C44.1966 115.54 44.1951 115.538 44.1951 115.536V105.872C44.1951 105.605 44.414 105.389 44.6837 105.389H50.5471C50.8173 105.389 51.0357 105.605 51.0357 105.872V107.103L53.7128 108.128C53.9635 108.223 54.0886 108.501 53.9938 108.749L53.5648 109.874L55.7616 111.843C55.9595 112.021 55.9766 112.323 55.7997 112.521ZM47.127 109.979C47.127 110.113 47.2364 110.221 47.3713 110.221H47.8599C48.5337 110.221 49.0814 110.762 49.0814 111.429C49.0814 112.012 48.6612 112.5 48.1042 112.612V113.12C48.1042 113.387 47.8858 113.603 47.6156 113.603C47.3459 113.603 47.127 113.387 47.127 113.12V112.637H46.6384C46.3686 112.637 46.1497 112.421 46.1497 112.154C46.1497 111.886 46.3686 111.67 46.6384 111.67H47.8604C47.9948 111.67 48.1042 111.562 48.1042 111.429C48.1042 111.296 47.9948 111.187 47.8599 111.187H47.3713C46.698 111.187 46.1497 110.646 46.1497 109.979C46.1497 109.396 46.5704 108.908 47.127 108.796V108.288C47.127 108.021 47.3459 107.805 47.6156 107.805C47.8858 107.805 48.1042 108.021 48.1042 108.288V108.771H48.5928C48.863 108.771 49.0814 108.987 49.0814 109.254C49.0814 109.522 48.863 109.738 48.5928 109.738H47.3713C47.2364 109.738 47.127 109.846 47.127 109.979V109.979Z" fill="#1A0003"/>
<path d="M79.4405 106.104H78.5735V99.4185H76.2123V98.6484H81.8018V99.4185H79.4405V106.104ZM87.6259 103.305C87.6259 104.216 87.3964 104.928 86.9374 105.441C86.4784 105.951 85.8443 106.206 85.0351 106.206C84.5353 106.206 84.0916 106.089 83.704 105.855C83.3164 105.62 83.0172 105.283 82.8065 104.845C82.5957 104.406 82.4903 103.893 82.4903 103.305C82.4903 102.393 82.7181 101.685 83.1736 101.178C83.6292 100.668 84.2616 100.413 85.0708 100.413C85.8528 100.413 86.4733 100.673 86.9323 101.193C87.3947 101.713 87.6259 102.417 87.6259 103.305ZM83.3674 103.305C83.3674 104.019 83.5102 104.563 83.7958 104.937C84.0814 105.311 84.5013 105.498 85.0555 105.498C85.6097 105.498 86.0296 105.312 86.3152 104.942C86.6042 104.568 86.7487 104.022 86.7487 103.305C86.7487 102.594 86.6042 102.055 86.3152 101.688C86.0296 101.317 85.6063 101.132 85.0453 101.132C84.4911 101.132 84.0729 101.314 83.7907 101.678C83.5085 102.042 83.3674 102.584 83.3674 103.305ZM90.9204 105.508C91.07 105.508 91.2145 105.498 91.3539 105.477C91.4933 105.453 91.6038 105.43 91.6854 105.406V106.053C91.5936 106.098 91.4576 106.133 91.2774 106.161C91.1006 106.191 90.9408 106.206 90.798 106.206C89.7168 106.206 89.1762 105.637 89.1762 104.498V101.173H88.3755V100.765L89.1762 100.413L89.5332 99.2196H90.0228V100.515H91.6446V101.173H90.0228V104.462C90.0228 104.799 90.1027 105.057 90.2625 105.237C90.4223 105.418 90.6416 105.508 90.9204 105.508ZM96.2447 106.104L96.0764 105.309H96.0356C95.7568 105.659 95.478 105.897 95.1992 106.023C94.9238 106.145 94.5787 106.206 94.1639 106.206C93.6097 106.206 93.1745 106.064 92.8584 105.778C92.5456 105.492 92.3892 105.086 92.3892 104.559C92.3892 103.43 93.2918 102.839 95.0972 102.784L96.0458 102.754V102.407C96.0458 101.968 95.9506 101.645 95.7602 101.438C95.5732 101.227 95.2723 101.122 94.8575 101.122C94.3917 101.122 93.8647 101.265 93.2765 101.55L93.0164 100.903C93.2918 100.753 93.5927 100.636 93.9191 100.551C94.2489 100.466 94.5787 100.423 94.9085 100.423C95.5749 100.423 96.0679 100.571 96.3875 100.867C96.7105 101.163 96.872 101.637 96.872 102.29V106.104H96.2447ZM94.3322 105.508C94.8592 105.508 95.2723 105.363 95.5715 105.074C95.8741 104.785 96.0254 104.381 96.0254 103.861V103.356L95.1788 103.391C94.5056 103.415 94.0194 103.521 93.7202 103.708C93.4244 103.891 93.2765 104.178 93.2765 104.569C93.2765 104.875 93.3683 105.108 93.5519 105.268C93.7389 105.428 93.999 105.508 94.3322 105.508ZM99.4678 106.104H98.6212V98.169H99.4678V106.104ZM110.611 106.104H109.754L108.25 101.112C108.178 100.891 108.099 100.612 108.01 100.275C107.922 99.9387 107.876 99.7364 107.872 99.6684C107.798 100.117 107.679 100.608 107.515 101.142L106.057 106.104H105.2L103.216 98.6484H104.134L105.312 103.254C105.476 103.9 105.595 104.484 105.669 105.008C105.761 104.386 105.897 103.777 106.077 103.182L107.413 98.6484H108.331L109.734 103.223C109.897 103.75 110.035 104.345 110.147 105.008C110.212 104.525 110.334 103.937 110.514 103.243L111.687 98.6484H112.605L110.611 106.104ZM114.492 106.104H113.646V100.515H114.492V106.104ZM113.574 99.0003C113.574 98.8065 113.622 98.6654 113.717 98.577C113.812 98.4852 113.931 98.4393 114.074 98.4393C114.21 98.4393 114.327 98.4852 114.426 98.577C114.524 98.6688 114.574 98.8099 114.574 99.0003C114.574 99.1907 114.524 99.3335 114.426 99.4287C114.327 99.5205 114.21 99.5664 114.074 99.5664C113.931 99.5664 113.812 99.5205 113.717 99.4287C113.622 99.3335 113.574 99.1907 113.574 99.0003ZM118.093 105.508C118.242 105.508 118.387 105.498 118.526 105.477C118.666 105.453 118.776 105.43 118.858 105.406V106.053C118.766 106.098 118.63 106.133 118.45 106.161C118.273 106.191 118.113 106.206 117.97 106.206C116.889 106.206 116.348 105.637 116.348 104.498V101.173H115.548V100.765L116.348 100.413L116.705 99.2196H117.195V100.515H118.817V101.173H117.195V104.462C117.195 104.799 117.275 105.057 117.435 105.237C117.595 105.418 117.814 105.508 118.093 105.508ZM123.805 106.104V102.489C123.805 102.033 123.701 101.693 123.493 101.469C123.286 101.244 122.961 101.132 122.519 101.132C121.931 101.132 121.501 101.292 121.229 101.611C120.96 101.931 120.826 102.455 120.826 103.182V106.104H119.98V98.169H120.826V100.571C120.826 100.86 120.813 101.1 120.785 101.29H120.836C121.003 101.022 121.239 100.811 121.545 100.658C121.855 100.501 122.207 100.423 122.601 100.423C123.284 100.423 123.796 100.586 124.136 100.913C124.479 101.236 124.651 101.751 124.651 102.458V106.104H123.805ZM130.2 105.355H130.154C129.763 105.923 129.178 106.206 128.4 106.206C127.669 106.206 127.099 105.957 126.691 105.457C126.286 104.957 126.084 104.246 126.084 103.325C126.084 102.404 126.288 101.688 126.696 101.178C127.104 100.668 127.672 100.413 128.4 100.413C129.158 100.413 129.739 100.688 130.144 101.239H130.21L130.174 100.836L130.154 100.444V98.169H131V106.104H130.312L130.2 105.355ZM128.507 105.498C129.085 105.498 129.503 105.341 129.761 105.028C130.023 104.712 130.154 104.204 130.154 103.504V103.325C130.154 102.533 130.021 101.968 129.756 101.632C129.494 101.292 129.074 101.122 128.496 101.122C128 101.122 127.619 101.316 127.354 101.703C127.092 102.087 126.961 102.631 126.961 103.335C126.961 104.049 127.092 104.588 127.354 104.952C127.616 105.316 128 105.498 128.507 105.498ZM135.351 100.413C135.599 100.413 135.822 100.433 136.019 100.474L135.902 101.26C135.67 101.209 135.466 101.183 135.29 101.183C134.837 101.183 134.45 101.367 134.127 101.734C133.807 102.101 133.647 102.558 133.647 103.106V106.104H132.801V100.515H133.499L133.596 101.55H133.637C133.845 101.186 134.094 100.906 134.387 100.709C134.679 100.512 135.001 100.413 135.351 100.413ZM140.502 106.104L140.333 105.309H140.293C140.014 105.659 139.735 105.897 139.456 106.023C139.181 106.145 138.836 106.206 138.421 106.206C137.867 106.206 137.431 106.064 137.115 105.778C136.802 105.492 136.646 105.086 136.646 104.559C136.646 103.43 137.549 102.839 139.354 102.784L140.303 102.754V102.407C140.303 101.968 140.208 101.645 140.017 101.438C139.83 101.227 139.529 101.122 139.114 101.122C138.649 101.122 138.122 101.265 137.533 101.55L137.273 100.903C137.549 100.753 137.85 100.636 138.176 100.551C138.506 100.466 138.836 100.423 139.165 100.423C139.832 100.423 140.325 100.571 140.644 100.867C140.967 101.163 141.129 101.637 141.129 102.29V106.104H140.502ZM138.589 105.508C139.116 105.508 139.529 105.363 139.828 105.074C140.131 104.785 140.282 104.381 140.282 103.861V103.356L139.436 103.391C138.763 103.415 138.276 103.521 137.977 103.708C137.681 103.891 137.533 104.178 137.533 104.569C137.533 104.875 137.625 105.108 137.809 105.268C137.996 105.428 138.256 105.508 138.589 105.508ZM147.443 106.104L146.417 102.825C146.353 102.625 146.232 102.169 146.055 101.458H146.015C145.879 102.053 145.76 102.512 145.658 102.835L144.602 106.104H143.623L142.098 100.515H142.985C143.346 101.919 143.619 102.988 143.806 103.723C143.997 104.457 144.106 104.952 144.133 105.207H144.174C144.211 105.013 144.27 104.763 144.352 104.457C144.437 104.148 144.51 103.903 144.571 103.723L145.596 100.515H146.514L147.514 103.723C147.704 104.308 147.834 104.799 147.902 105.197H147.942C147.956 105.074 147.992 104.886 148.049 104.631C148.111 104.376 148.466 103.004 149.115 100.515H149.993L148.447 106.104H147.443ZM154.445 106.104L154.276 105.309H154.236C153.957 105.659 153.678 105.897 153.399 106.023C153.124 106.145 152.779 106.206 152.364 106.206C151.81 106.206 151.375 106.064 151.058 105.778C150.746 105.492 150.589 105.086 150.589 104.559C150.589 103.43 151.492 102.839 153.297 102.784L154.246 102.754V102.407C154.246 101.968 154.151 101.645 153.96 101.438C153.773 101.227 153.472 101.122 153.058 101.122C152.592 101.122 152.065 101.265 151.477 101.55L151.216 100.903C151.492 100.753 151.793 100.636 152.119 100.551C152.449 100.466 152.779 100.423 153.109 100.423C153.775 100.423 154.268 100.571 154.588 100.867C154.911 101.163 155.072 101.637 155.072 102.29V106.104H154.445ZM152.532 105.508C153.059 105.508 153.472 105.363 153.772 105.074C154.074 104.785 154.225 104.381 154.225 103.861V103.356L153.379 103.391C152.706 103.415 152.219 103.521 151.92 103.708C151.624 103.891 151.477 104.178 151.477 104.569C151.477 104.875 151.568 105.108 151.752 105.268C151.939 105.428 152.199 105.508 152.532 105.508ZM157.668 106.104H156.821V98.169H157.668V106.104Z" fill="#00031A"/>
<path d="M84.9323 124.716H82.588L78.8039 118.135H78.7503C78.8257 119.297 78.8634 120.126 78.8634 120.622V124.716H77.2153V116.017H79.5417L83.3198 122.532H83.3615C83.302 121.401 83.2722 120.602 83.2722 120.134V116.017H84.9323V124.716ZM91.0666 124.716H89.2281V119.682L89.2459 118.855L89.2757 117.951C88.9702 118.256 88.758 118.456 88.639 118.551L87.6395 119.355L86.7529 118.248L89.5553 116.017H91.0666V124.716ZM99.5154 120.366C99.5154 121.885 99.2655 123.01 98.7657 123.74C98.2699 124.47 97.5044 124.835 96.4691 124.835C95.4655 124.835 94.7079 124.458 94.1962 123.704C93.6885 122.95 93.4346 121.838 93.4346 120.366C93.4346 118.831 93.6826 117.701 94.1784 116.975C94.6742 116.245 95.4378 115.88 96.4691 115.88C97.4726 115.88 98.2302 116.261 98.7419 117.022C99.2576 117.784 99.5154 118.899 99.5154 120.366ZM95.2613 120.366C95.2613 121.433 95.3525 122.199 95.535 122.663C95.7214 123.123 96.0328 123.353 96.4691 123.353C96.8975 123.353 97.2069 123.119 97.3973 122.651C97.5877 122.183 97.6829 121.421 97.6829 120.366C97.6829 119.299 97.5857 118.534 97.3913 118.07C97.2009 117.601 96.8935 117.367 96.4691 117.367C96.0367 117.367 95.7273 117.601 95.5409 118.07C95.3545 118.534 95.2613 119.299 95.2613 120.366ZM102.687 123.436C102.48 124.238 102.131 125.188 101.64 126.286H100.331C100.588 125.231 100.789 124.236 100.931 123.299H102.597L102.687 123.436ZM107.143 119.158C107.984 119.158 108.652 119.394 109.148 119.866C109.648 120.338 109.898 120.985 109.898 121.806C109.898 122.778 109.598 123.526 109 124.049C108.401 124.573 107.544 124.835 106.429 124.835C105.461 124.835 104.68 124.678 104.085 124.365V122.776C104.398 122.942 104.763 123.079 105.18 123.186C105.596 123.29 105.991 123.341 106.364 123.341C107.486 123.341 108.048 122.881 108.048 121.961C108.048 121.084 107.466 120.646 106.304 120.646C106.094 120.646 105.862 120.668 105.608 120.711C105.354 120.751 105.148 120.795 104.989 120.842L104.257 120.449L104.585 116.017H109.303V117.576H106.197L106.036 119.283L106.245 119.242C106.487 119.186 106.786 119.158 107.143 119.158ZM116.984 119.73C116.984 121.443 116.623 122.722 115.901 123.567C115.179 124.412 114.087 124.835 112.623 124.835C112.107 124.835 111.717 124.807 111.451 124.751V123.276C111.784 123.359 112.133 123.401 112.498 123.401C113.113 123.401 113.619 123.311 114.015 123.133C114.412 122.95 114.715 122.667 114.926 122.282C115.136 121.893 115.257 121.36 115.289 120.682H115.217C114.987 121.054 114.721 121.316 114.42 121.467C114.118 121.618 113.742 121.693 113.289 121.693C112.532 121.693 111.935 121.451 111.498 120.967C111.062 120.479 110.844 119.803 110.844 118.938C110.844 118.006 111.108 117.27 111.635 116.731C112.167 116.187 112.889 115.916 113.801 115.916C114.444 115.916 115.005 116.066 115.485 116.368C115.969 116.669 116.34 117.108 116.598 117.683C116.855 118.254 116.984 118.936 116.984 119.73ZM113.837 117.391C113.456 117.391 113.159 117.522 112.944 117.784C112.73 118.046 112.623 118.423 112.623 118.914C112.623 119.335 112.72 119.668 112.915 119.914C113.109 120.16 113.404 120.283 113.801 120.283C114.174 120.283 114.493 120.162 114.759 119.92C115.025 119.674 115.158 119.392 115.158 119.075C115.158 118.603 115.033 118.204 114.783 117.879C114.537 117.554 114.222 117.391 113.837 117.391ZM117.841 121.021C117.841 119.299 118.204 118.018 118.93 117.177C119.66 116.336 120.751 115.916 122.202 115.916C122.698 115.916 123.087 115.945 123.368 116.005V117.475C123.015 117.395 122.666 117.356 122.321 117.356C121.691 117.356 121.175 117.451 120.774 117.641C120.378 117.832 120.08 118.113 119.882 118.486C119.684 118.859 119.567 119.388 119.531 120.075H119.608C120.001 119.4 120.63 119.063 121.494 119.063C122.272 119.063 122.881 119.307 123.321 119.795C123.761 120.283 123.981 120.957 123.981 121.818C123.981 122.746 123.72 123.482 123.196 124.025C122.672 124.565 121.946 124.835 121.018 124.835C120.376 124.835 119.814 124.686 119.334 124.388C118.858 124.091 118.49 123.656 118.228 123.085C117.97 122.514 117.841 121.826 117.841 121.021ZM120.983 123.365C121.375 123.365 121.677 123.234 121.887 122.972C122.097 122.706 122.202 122.33 122.202 121.842C122.202 121.417 122.103 121.084 121.905 120.842C121.71 120.596 121.415 120.473 121.018 120.473C120.645 120.473 120.326 120.594 120.06 120.836C119.799 121.078 119.668 121.36 119.668 121.681C119.668 122.153 119.791 122.552 120.037 122.877C120.286 123.202 120.602 123.365 120.983 123.365ZM125.07 123.865C125.07 123.532 125.159 123.28 125.338 123.109C125.516 122.939 125.776 122.853 126.117 122.853C126.447 122.853 126.7 122.94 126.879 123.115C127.061 123.29 127.153 123.539 127.153 123.865C127.153 124.178 127.061 124.426 126.879 124.608C126.696 124.787 126.443 124.876 126.117 124.876C125.784 124.876 125.526 124.789 125.344 124.614C125.161 124.436 125.07 124.186 125.07 123.865ZM131.335 115.904C132.168 115.904 132.839 116.094 133.346 116.475C133.858 116.852 134.114 117.361 134.114 118.004C134.114 118.448 133.991 118.845 133.745 119.194C133.499 119.539 133.103 119.849 132.555 120.122C133.206 120.471 133.672 120.836 133.953 121.217C134.239 121.594 134.382 122.008 134.382 122.461C134.382 123.175 134.102 123.75 133.543 124.186C132.984 124.618 132.248 124.835 131.335 124.835C130.383 124.835 129.636 124.632 129.092 124.228C128.549 123.823 128.277 123.25 128.277 122.508C128.277 122.012 128.408 121.572 128.67 121.187C128.936 120.803 129.36 120.463 129.943 120.17C129.447 119.856 129.09 119.521 128.872 119.164C128.654 118.807 128.545 118.417 128.545 117.992C128.545 117.369 128.803 116.866 129.318 116.481C129.834 116.096 130.506 115.904 131.335 115.904ZM129.979 122.401C129.979 122.742 130.098 123.008 130.336 123.198C130.574 123.389 130.899 123.484 131.312 123.484C131.768 123.484 132.109 123.387 132.335 123.192C132.561 122.994 132.674 122.734 132.674 122.413C132.674 122.147 132.561 121.899 132.335 121.669C132.113 121.435 131.75 121.187 131.246 120.925C130.401 121.314 129.979 121.806 129.979 122.401ZM131.323 117.248C131.01 117.248 130.756 117.33 130.562 117.492C130.372 117.651 130.276 117.865 130.276 118.135C130.276 118.373 130.352 118.587 130.502 118.778C130.657 118.964 130.935 119.156 131.335 119.355C131.724 119.172 131.996 118.986 132.151 118.795C132.305 118.605 132.383 118.385 132.383 118.135C132.383 117.861 132.283 117.645 132.085 117.486C131.887 117.328 131.633 117.248 131.323 117.248ZM141.331 120.366C141.331 121.885 141.081 123.01 140.582 123.74C140.086 124.47 139.32 124.835 138.285 124.835C137.281 124.835 136.524 124.458 136.012 123.704C135.504 122.95 135.25 121.838 135.25 120.366C135.25 118.831 135.498 117.701 135.994 116.975C136.49 116.245 137.254 115.88 138.285 115.88C139.288 115.88 140.046 116.261 140.558 117.022C141.073 117.784 141.331 118.899 141.331 120.366ZM137.077 120.366C137.077 121.433 137.168 122.199 137.351 122.663C137.537 123.123 137.849 123.353 138.285 123.353C138.713 123.353 139.023 123.119 139.213 122.651C139.403 122.183 139.499 121.421 139.499 120.366C139.499 119.299 139.401 118.534 139.207 118.07C139.017 117.601 138.709 117.367 138.285 117.367C137.852 117.367 137.543 117.601 137.357 118.07C137.17 118.534 137.077 119.299 137.077 120.366Z" fill="#00031A"/>
<line x1="96.9235" y1="137.417" x2="97.6371" y2="261.078" stroke="#99A3FF"/>
<rect x="133.995" y="8.37402" width="135.115" height="56.0606" rx="12.4691" fill="white"/>
<rect opacity="0.5" x="143.587" y="19.3848" width="34.4216" height="34.0391" rx="4.79579" fill="#A3FF99"/>
<path fill-rule="evenodd" clip-rule="evenodd" d="M165.965 36.7668L164.252 35.2318L161.954 41.255L165.965 36.7668ZM161.875 38.4466L163.52 34.1374C163.52 34.1363 163.52 34.1353 163.521 34.1342L163.939 33.0395L161.875 32.2498V38.4466ZM160.926 40.9329H157.761L160.523 41.9899L160.926 40.9329ZM160.34 43.0616L157.386 41.9312L159.588 43.9034L160.34 43.0616ZM155.413 39.8677H160.798V30.2833H155.413V39.8677ZM167.124 37.0778L160.033 45.0126C159.938 45.1196 159.803 45.184 159.659 45.1915C159.65 45.192 159.639 45.1925 159.629 45.1925C159.496 45.1925 159.367 45.1435 159.268 45.0546L154.513 40.7938C154.511 40.7922 154.511 40.7896 154.508 40.7874C154.505 40.7848 154.501 40.7832 154.499 40.7805C154.468 40.7496 154.447 40.7113 154.423 40.674C154.412 40.6549 154.394 40.6383 154.385 40.6186C154.384 40.616 154.382 40.6149 154.382 40.6128C154.37 40.5867 154.37 40.5563 154.363 40.5287C154.361 40.5255 154.361 40.5217 154.36 40.518C154.352 40.485 154.339 40.4541 154.338 40.4206C154.337 40.4163 154.338 40.4121 154.338 40.4078C154.338 40.4051 154.336 40.403 154.336 40.4003V29.751C154.336 29.4566 154.577 29.2186 154.875 29.2186H161.336C161.634 29.2186 161.874 29.4566 161.874 29.751V31.1078L164.825 32.2366C165.101 32.342 165.239 32.6482 165.134 32.9213L164.661 34.1604L167.082 36.3307C167.3 36.5267 167.319 36.8594 167.124 37.0778ZM157.567 34.2769C157.567 34.4239 157.688 34.5432 157.836 34.5432H158.375C159.117 34.5432 159.721 35.1401 159.721 35.8743C159.721 36.5175 159.258 37.0548 158.644 37.1783V37.738C158.644 38.0324 158.403 38.2704 158.105 38.2704C157.808 38.2704 157.567 38.0324 157.567 37.738V37.2055H157.029C156.731 37.2055 156.49 36.9675 156.49 36.673C156.49 36.3786 156.731 36.1406 157.029 36.1406H158.375C158.523 36.1406 158.644 36.0213 158.644 35.8743C158.644 35.7279 158.523 35.6081 158.375 35.6081H157.836C157.094 35.6081 156.49 35.0112 156.49 34.2769C156.49 33.6337 156.954 33.0965 157.567 32.9729V32.4133C157.567 32.1189 157.808 31.8808 158.105 31.8808C158.403 31.8808 158.644 32.1189 158.644 32.4133V32.9458H159.182C159.48 32.9458 159.721 33.1838 159.721 33.4782C159.721 33.7727 159.48 34.0107 159.182 34.0107H157.836C157.688 34.0107 157.567 34.1305 157.567 34.2769V34.2769Z" fill="#1A0003"/>
<path d="M193.177 29.9656H192.221V22.5977H189.619V21.7491H195.779V22.5977H193.177V29.9656ZM202.197 26.8802C202.197 27.8843 201.944 28.6692 201.438 29.235C200.933 29.797 200.234 30.078 199.342 30.078C198.791 30.078 198.302 29.9487 197.875 29.6902C197.448 29.4317 197.118 29.0608 196.886 28.5775C196.654 28.0941 196.538 27.5284 196.538 26.8802C196.538 25.8761 196.789 25.0949 197.291 24.5366C197.793 23.9746 198.49 23.6936 199.381 23.6936C200.243 23.6936 200.927 23.9802 201.433 24.5535C201.942 25.1267 202.197 25.9023 202.197 26.8802ZM197.504 26.8802C197.504 27.667 197.662 28.2665 197.976 28.6786C198.291 29.0907 198.754 29.2968 199.365 29.2968C199.975 29.2968 200.438 29.0926 200.753 28.6842C201.071 28.2721 201.23 27.6707 201.23 26.8802C201.23 26.0971 201.071 25.5033 200.753 25.0986C200.438 24.6902 199.972 24.486 199.353 24.486C198.743 24.486 198.282 24.6865 197.971 25.0874C197.66 25.4883 197.504 26.0859 197.504 26.8802ZM205.828 29.3081C205.992 29.3081 206.152 29.2968 206.305 29.2743C206.459 29.2481 206.581 29.2219 206.671 29.1957V29.9094C206.569 29.9581 206.42 29.9975 206.221 30.0274C206.026 30.0611 205.85 30.078 205.693 30.078C204.501 30.078 203.906 29.4504 203.906 28.1953V24.531H203.023V24.0814L203.906 23.6936L204.299 22.3785H204.838V23.806H206.626V24.531H204.838V28.1559C204.838 28.5269 204.927 28.8116 205.103 29.0102C205.279 29.2088 205.52 29.3081 205.828 29.3081ZM211.695 29.9656L211.51 29.0889H211.465C211.157 29.4748 210.85 29.7371 210.543 29.8757C210.239 30.0106 209.859 30.078 209.402 30.078C208.791 30.078 208.312 29.9206 207.963 29.6059C207.619 29.2912 207.446 28.8435 207.446 28.2627C207.446 27.0188 208.441 26.3669 210.43 26.3069L211.476 26.2732V25.8911C211.476 25.4077 211.371 25.0518 211.161 24.8232C210.955 24.591 210.623 24.4748 210.166 24.4748C209.653 24.4748 209.072 24.6322 208.424 24.9469L208.137 24.2331C208.441 24.0683 208.773 23.939 209.132 23.8454C209.496 23.7517 209.859 23.7049 210.223 23.7049C210.957 23.7049 211.5 23.8678 211.852 24.1938C212.208 24.5198 212.386 25.0424 212.386 25.7618V29.9656H211.695ZM209.587 29.3081C210.168 29.3081 210.623 29.1488 210.953 28.8304C211.287 28.5119 211.453 28.066 211.453 27.4928V26.9364L210.52 26.9757C209.779 27.002 209.243 27.1181 208.913 27.3242C208.587 27.5265 208.424 27.8431 208.424 28.274C208.424 28.6112 208.525 28.8678 208.728 29.0439C208.934 29.22 209.22 29.3081 209.587 29.3081ZM215.247 29.9656H214.314V21.2208H215.247V29.9656ZM224.408 29.1395H224.357C223.926 29.7652 223.282 30.078 222.424 30.078C221.618 30.078 220.991 29.8026 220.541 29.2519C220.095 28.7011 219.872 27.918 219.872 26.9027C219.872 25.8873 220.097 25.0986 220.547 24.5366C220.996 23.9746 221.622 23.6936 222.424 23.6936C223.259 23.6936 223.9 23.9971 224.346 24.6041H224.419L224.379 24.1601L224.357 23.7273V21.2208H225.29V29.9656H224.531L224.408 29.1395ZM222.542 29.2968C223.179 29.2968 223.639 29.1245 223.924 28.7798C224.213 28.4313 224.357 27.8712 224.357 27.0994V26.9027C224.357 26.0297 224.211 25.4077 223.919 25.0368C223.63 24.6621 223.167 24.4748 222.53 24.4748C221.983 24.4748 221.564 24.6884 221.272 25.1155C220.983 25.5389 220.839 26.1383 220.839 26.9139C220.839 27.7007 220.983 28.2946 221.272 28.6955C221.56 29.0964 221.983 29.2968 222.542 29.2968ZM229.876 30.078C228.965 30.078 228.246 29.8008 227.718 29.2462C227.193 28.6917 226.931 27.9218 226.931 26.9364C226.931 25.9435 227.174 25.1548 227.662 24.5703C228.152 23.9859 228.81 23.6936 229.634 23.6936C230.406 23.6936 231.017 23.9484 231.466 24.4579C231.916 24.9637 232.141 25.6325 232.141 26.4643V27.0544H227.898C227.916 27.7775 228.098 28.3264 228.443 28.7011C228.791 29.0758 229.28 29.2631 229.91 29.2631C230.573 29.2631 231.228 29.1245 231.877 28.8472V29.679C231.547 29.8214 231.234 29.9225 230.938 29.9825C230.646 30.0462 230.292 30.078 229.876 30.078ZM229.623 24.4748C229.128 24.4748 228.733 24.6359 228.437 24.9581C228.145 25.2803 227.973 25.7262 227.92 26.2957H231.14C231.14 25.7075 231.009 25.2579 230.747 24.9469C230.485 24.6322 230.11 24.4748 229.623 24.4748ZM236.603 30.078C236.202 30.078 235.835 30.0049 235.502 29.8588C235.172 29.709 234.895 29.4804 234.67 29.1732H234.602C234.647 29.5329 234.67 29.8738 234.67 30.196V32.7307H233.737V23.806H234.496L234.625 24.649H234.67C234.91 24.3118 235.189 24.0683 235.507 23.9184C235.826 23.7685 236.191 23.6936 236.603 23.6936C237.42 23.6936 238.049 23.9727 238.491 24.531C238.937 25.0893 239.16 25.8723 239.16 26.8802C239.16 27.8918 238.934 28.6786 238.48 29.2406C238.031 29.7989 237.405 30.078 236.603 30.078ZM236.468 24.486C235.839 24.486 235.384 24.6603 235.103 25.0087C234.822 25.3572 234.677 25.9117 234.67 26.6722V26.8802C234.67 27.7457 234.814 28.3658 235.103 28.7404C235.391 29.1114 235.854 29.2968 236.491 29.2968C237.023 29.2968 237.439 29.0814 237.738 28.6505C238.042 28.2196 238.194 27.6258 238.194 26.869C238.194 26.1009 238.042 25.5126 237.738 25.1043C237.439 24.6921 237.015 24.486 236.468 24.486ZM246.112 26.8802C246.112 27.8843 245.859 28.6692 245.354 29.235C244.848 29.797 244.149 30.078 243.257 30.078C242.706 30.078 242.218 29.9487 241.79 29.6902C241.363 29.4317 241.034 29.0608 240.801 28.5775C240.569 28.0941 240.453 27.5284 240.453 26.8802C240.453 25.8761 240.704 25.0949 241.206 24.5366C241.708 23.9746 242.405 23.6936 243.297 23.6936C244.158 23.6936 244.842 23.9802 245.348 24.5535C245.857 25.1267 246.112 25.9023 246.112 26.8802ZM241.419 26.8802C241.419 27.667 241.577 28.2665 241.892 28.6786C242.206 29.0907 242.669 29.2968 243.28 29.2968C243.89 29.2968 244.353 29.0926 244.668 28.6842C244.986 28.2721 245.146 27.6707 245.146 26.8802C245.146 26.0971 244.986 25.5033 244.668 25.0986C244.353 24.6902 243.887 24.486 243.268 24.486C242.658 24.486 242.197 24.6865 241.886 25.0874C241.575 25.4883 241.419 26.0859 241.419 26.8802ZM251.727 28.2852C251.727 28.8585 251.513 29.3006 251.086 29.6115C250.659 29.9225 250.059 30.078 249.288 30.078C248.471 30.078 247.834 29.9487 247.377 29.6902V28.8247C247.673 28.9746 247.989 29.0926 248.327 29.1788C248.668 29.265 248.995 29.3081 249.31 29.3081C249.797 29.3081 250.172 29.2313 250.434 29.0776C250.696 28.9203 250.827 28.6824 250.827 28.3639C250.827 28.1241 250.723 27.9199 250.513 27.7513C250.307 27.579 249.902 27.3766 249.299 27.1443C248.726 26.9308 248.317 26.7453 248.074 26.5879C247.834 26.4268 247.654 26.2451 247.534 26.0428C247.418 25.8405 247.36 25.5988 247.36 25.3178C247.36 24.8158 247.564 24.4205 247.972 24.132C248.381 23.8397 248.941 23.6936 249.653 23.6936C250.316 23.6936 250.964 23.8285 251.597 24.0983L251.266 24.857C250.648 24.6022 250.088 24.4748 249.585 24.4748C249.143 24.4748 248.81 24.5441 248.585 24.6827C248.36 24.8214 248.248 25.0125 248.248 25.256C248.248 25.4208 248.289 25.5613 248.372 25.6775C248.458 25.7936 248.594 25.9042 248.782 26.0091C248.969 26.114 249.329 26.2657 249.861 26.4643C250.591 26.7303 251.084 26.9982 251.339 27.268C251.597 27.5377 251.727 27.8768 251.727 28.2852ZM254.183 29.9656H253.25V23.806H254.183V29.9656ZM253.171 22.1369C253.171 21.9233 253.223 21.7678 253.328 21.6704C253.433 21.5692 253.564 21.5186 253.722 21.5186C253.872 21.5186 254.001 21.5692 254.11 21.6704C254.218 21.7716 254.273 21.927 254.273 22.1369C254.273 22.3467 254.218 22.504 254.11 22.6089C254.001 22.7101 253.872 22.7607 253.722 22.7607C253.564 22.7607 253.433 22.7101 253.328 22.6089C253.223 22.504 253.171 22.3467 253.171 22.1369ZM258.15 29.3081C258.315 29.3081 258.475 29.2968 258.628 29.2743C258.782 29.2481 258.904 29.2219 258.993 29.1957V29.9094C258.892 29.9581 258.742 29.9975 258.544 30.0274C258.349 30.0611 258.173 30.078 258.016 30.078C256.824 30.078 256.228 29.4504 256.228 28.1953V24.531H255.346V24.0814L256.228 23.6936L256.622 22.3785H257.161V23.806H258.948V24.531H257.161V28.1559C257.161 28.5269 257.249 28.8116 257.425 29.0102C257.602 29.2088 257.843 29.3081 258.15 29.3081Z" fill="#00031A"/>
<path d="M192.915 51.6233V50.3054C192.333 50.2923 191.813 50.2377 191.354 50.1415C190.899 50.041 190.484 49.9076 190.108 49.7415V48.0106C190.48 48.1898 190.924 48.3537 191.439 48.5023C191.955 48.6466 192.447 48.734 192.915 48.7646V46.732C192.224 46.461 191.671 46.1987 191.256 45.9452C190.845 45.6873 190.548 45.4032 190.364 45.0928C190.185 44.7781 190.095 44.4022 190.095 43.9651C190.095 43.5192 190.213 43.1345 190.449 42.8111C190.69 42.4832 191.022 42.221 191.446 42.0243C191.87 41.8276 192.359 41.7052 192.915 41.6571V40.6539H193.813V41.6309C194.32 41.6483 194.792 41.7074 195.229 41.8079C195.671 41.9041 196.103 42.0461 196.527 42.2341L195.911 43.7684C195.553 43.6197 195.192 43.5039 194.829 43.4208C194.471 43.3378 194.132 43.2832 193.813 43.2569V45.1912C194.298 45.3704 194.759 45.5649 195.196 45.7747C195.633 45.9845 195.99 46.2512 196.265 46.5746C196.54 46.8981 196.678 47.3221 196.678 47.8466C196.678 48.498 196.44 49.0443 195.963 49.4858C195.491 49.9273 194.775 50.1918 193.813 50.2792V51.6233H192.915ZM193.813 48.7187C194.119 48.6662 194.344 48.5766 194.488 48.4499C194.632 48.3187 194.705 48.1504 194.705 47.945C194.705 47.8226 194.672 47.7133 194.606 47.6172C194.541 47.521 194.44 47.4314 194.305 47.3483C194.173 47.2609 194.01 47.1735 193.813 47.0861V48.7187ZM192.915 44.824V43.2832C192.735 43.3094 192.582 43.3531 192.456 43.4143C192.329 43.4711 192.233 43.5454 192.167 43.6372C192.102 43.729 192.069 43.8383 192.069 43.9651C192.069 44.0918 192.097 44.2033 192.154 44.2994C192.215 44.3956 192.307 44.4852 192.429 44.5683C192.556 44.6513 192.718 44.7366 192.915 44.824ZM201.229 44.7191C201.814 44.7191 202.334 44.8305 202.789 45.0535C203.248 45.2764 203.609 45.6042 203.871 46.037C204.133 46.4697 204.264 47.003 204.264 47.6368C204.264 48.3275 204.12 48.9241 203.832 49.4268C203.547 49.9251 203.121 50.3076 202.553 50.5743C201.989 50.8409 201.285 50.9742 200.442 50.9742C199.939 50.9742 199.465 50.9305 199.019 50.8431C198.577 50.76 198.191 50.6311 197.858 50.4562V48.7056C198.191 48.8804 198.588 49.029 199.052 49.1514C199.519 49.2695 199.959 49.3285 200.37 49.3285C200.772 49.3285 201.111 49.276 201.386 49.1711C201.661 49.0618 201.869 48.8957 202.009 48.6728C202.153 48.4455 202.225 48.157 202.225 47.8073C202.225 47.3396 202.068 46.9812 201.753 46.732C201.438 46.4828 200.955 46.3583 200.304 46.3583C200.055 46.3583 199.795 46.3823 199.524 46.4304C199.257 46.4785 199.034 46.5266 198.855 46.5746L198.049 46.1419L198.409 41.2571H203.609V42.975H200.186L200.009 44.8568C200.158 44.8262 200.319 44.7956 200.494 44.765C200.669 44.7344 200.914 44.7191 201.229 44.7191ZM212.073 46.0501C212.073 46.8238 212.012 47.5144 211.89 48.122C211.772 48.7296 211.579 49.2454 211.313 49.6694C211.051 50.0934 210.705 50.4169 210.277 50.6398C209.848 50.8627 209.328 50.9742 208.716 50.9742C207.947 50.9742 207.315 50.7797 206.821 50.3907C206.327 49.9973 205.962 49.4334 205.726 48.699C205.49 47.9603 205.372 47.0773 205.372 46.0501C205.372 45.0141 205.479 44.129 205.694 43.3946C205.912 42.6559 206.266 42.0898 206.756 41.6964C207.245 41.303 207.899 41.1063 208.716 41.1063C209.481 41.1063 210.111 41.303 210.605 41.6964C211.103 42.0855 211.472 42.6493 211.713 43.3881C211.953 44.1224 212.073 45.0098 212.073 46.0501ZM207.385 46.0501C207.385 46.7801 207.425 47.3899 207.503 47.8794C207.586 48.3646 207.724 48.7296 207.916 48.9744C208.109 49.2192 208.375 49.3416 208.716 49.3416C209.053 49.3416 209.317 49.2214 209.51 48.981C209.706 48.7362 209.846 48.3712 209.929 47.886C210.012 47.3964 210.054 46.7845 210.054 46.0501C210.054 45.3201 210.012 44.7103 209.929 44.2208C209.846 43.7312 209.706 43.364 209.51 43.1192C209.317 42.8701 209.053 42.7455 208.716 42.7455C208.375 42.7455 208.109 42.8701 207.916 43.1192C207.724 43.364 207.586 43.7312 207.503 44.2208C207.425 44.7103 207.385 45.3201 207.385 46.0501ZM219.758 46.0501C219.758 46.8238 219.697 47.5144 219.574 48.122C219.456 48.7296 219.264 49.2454 218.997 49.6694C218.735 50.0934 218.39 50.4169 217.961 50.6398C217.533 50.8627 217.013 50.9742 216.401 50.9742C215.632 50.9742 215 50.7797 214.506 50.3907C214.012 49.9973 213.647 49.4334 213.411 48.699C213.175 47.9603 213.057 47.0773 213.057 46.0501C213.057 45.0141 213.164 44.129 213.378 43.3946C213.597 42.6559 213.951 42.0898 214.44 41.6964C214.93 41.303 215.583 41.1063 216.401 41.1063C217.166 41.1063 217.795 41.303 218.289 41.6964C218.787 42.0855 219.157 42.6493 219.397 43.3881C219.638 44.1224 219.758 45.0098 219.758 46.0501ZM215.07 46.0501C215.07 46.7801 215.109 47.3899 215.188 47.8794C215.271 48.3646 215.409 48.7296 215.601 48.9744C215.793 49.2192 216.06 49.3416 216.401 49.3416C216.737 49.3416 217.002 49.2214 217.194 48.981C217.391 48.7362 217.531 48.3712 217.614 47.886C217.697 47.3964 217.738 46.7845 217.738 46.0501C217.738 45.3201 217.697 44.7103 217.614 44.2208C217.531 43.7312 217.391 43.364 217.194 43.1192C217.002 42.8701 216.737 42.7455 216.401 42.7455C216.06 42.7455 215.793 42.8701 215.601 43.1192C215.409 43.364 215.271 43.7312 215.188 44.2208C215.109 44.7103 215.07 45.3201 215.07 46.0501Z" fill="#00031A"/>
<line x1="202.053" y1="64.4347" x2="202.052" y2="261.275" stroke="#99A3FF"/>
<rect x="244.806" y="117.04" width="121.075" height="49.6757" rx="11.1211" fill="white"/>
<rect opacity="0.5" x="253.36" y="126.698" width="30.7004" height="30.3592" rx="4.27733" fill="#FF99A3"/>
<path fill-rule="evenodd" clip-rule="evenodd" d="M273.319 142.201L271.791 140.832L269.742 146.204L273.319 142.201ZM269.671 143.699L271.138 139.855C271.138 139.854 271.139 139.854 271.139 139.853L271.512 138.876L269.671 138.172V143.699ZM268.825 145.916H266.002L268.466 146.859L268.825 145.916ZM268.302 147.815L265.668 146.807L267.631 148.566L268.302 147.815ZM263.908 144.966H268.711V136.418H263.908V144.966ZM274.353 142.478L268.028 149.555C267.943 149.65 267.823 149.708 267.695 149.714C267.686 149.715 267.677 149.715 267.668 149.715C267.549 149.715 267.434 149.672 267.346 149.592L263.105 145.792C263.103 145.791 263.103 145.788 263.1 145.786C263.098 145.784 263.095 145.783 263.093 145.78C263.064 145.753 263.046 145.719 263.025 145.685C263.014 145.668 262.999 145.654 262.991 145.636C262.99 145.634 262.989 145.633 262.988 145.631C262.978 145.607 262.977 145.58 262.971 145.556C262.97 145.553 262.969 145.55 262.968 145.546C262.962 145.517 262.95 145.489 262.949 145.459C262.948 145.455 262.949 145.452 262.949 145.448C262.949 145.446 262.947 145.444 262.947 145.441V135.943C262.947 135.681 263.162 135.468 263.428 135.468H269.19C269.456 135.468 269.671 135.681 269.671 135.943V137.153L272.302 138.16C272.548 138.254 272.671 138.527 272.578 138.771L272.156 139.876L274.316 141.812C274.51 141.986 274.527 142.283 274.353 142.478ZM265.829 139.98C265.829 140.111 265.936 140.217 266.069 140.217H266.549C267.211 140.217 267.75 140.75 267.75 141.405C267.75 141.978 267.337 142.457 266.789 142.568V143.067C266.789 143.329 266.574 143.542 266.309 143.542C266.044 143.542 265.829 143.329 265.829 143.067V142.592H265.348C265.083 142.592 264.868 142.38 264.868 142.117C264.868 141.854 265.083 141.642 265.348 141.642H266.549C266.682 141.642 266.789 141.536 266.789 141.405C266.789 141.274 266.682 141.167 266.549 141.167H266.069C265.407 141.167 264.868 140.635 264.868 139.98C264.868 139.406 265.282 138.927 265.829 138.817V138.318C265.829 138.055 266.044 137.843 266.309 137.843C266.574 137.843 266.789 138.055 266.789 138.318V138.793H267.269C267.535 138.793 267.75 139.005 267.75 139.268C267.75 139.53 267.535 139.742 267.269 139.742H266.069C265.936 139.742 265.829 139.849 265.829 139.98V139.98Z" fill="#1A0003"/>
<path d="M297.59 136.594H296.737V130.023H294.417V129.266H299.91V130.023H297.59V136.594ZM305.635 133.843C305.635 134.738 305.409 135.438 304.958 135.943C304.507 136.444 303.884 136.695 303.088 136.695C302.597 136.695 302.161 136.579 301.78 136.349C301.399 136.118 301.105 135.787 300.898 135.356C300.691 134.925 300.587 134.421 300.587 133.843C300.587 132.947 300.811 132.25 301.259 131.752C301.706 131.251 302.328 131.001 303.123 131.001C303.892 131.001 304.502 131.256 304.953 131.767C305.407 132.279 305.635 132.97 305.635 133.843ZM301.449 133.843C301.449 134.544 301.59 135.079 301.87 135.447C302.151 135.814 302.564 135.998 303.108 135.998C303.653 135.998 304.066 135.816 304.346 135.452C304.63 135.084 304.772 134.548 304.772 133.843C304.772 133.144 304.63 132.615 304.346 132.254C304.066 131.889 303.65 131.707 303.098 131.707C302.554 131.707 302.143 131.886 301.865 132.244C301.588 132.601 301.449 133.134 301.449 133.843ZM308.873 136.008C309.02 136.008 309.162 135.998 309.299 135.978C309.436 135.955 309.544 135.931 309.625 135.908V136.544C309.534 136.588 309.401 136.623 309.224 136.65C309.05 136.68 308.893 136.695 308.752 136.695C307.69 136.695 307.158 136.135 307.158 135.016V131.747H306.371V131.346L307.158 131.001L307.509 129.828H307.99V131.101H309.584V131.747H307.99V134.98C307.99 135.311 308.069 135.565 308.226 135.742C308.383 135.919 308.599 136.008 308.873 136.008ZM314.106 136.594L313.94 135.813H313.9C313.626 136.157 313.352 136.391 313.078 136.514C312.808 136.635 312.468 136.695 312.061 136.695C311.516 136.695 311.088 136.554 310.777 136.274C310.47 135.993 310.316 135.594 310.316 135.076C310.316 133.966 311.204 133.385 312.978 133.331L313.91 133.301V132.96C313.91 132.529 313.817 132.212 313.63 132.008C313.446 131.801 313.15 131.697 312.742 131.697C312.285 131.697 311.767 131.838 311.188 132.118L310.933 131.482C311.204 131.335 311.499 131.219 311.82 131.136C312.144 131.052 312.468 131.011 312.792 131.011C313.447 131.011 313.932 131.156 314.246 131.447C314.564 131.737 314.722 132.204 314.722 132.845V136.594H314.106ZM312.226 136.008C312.744 136.008 313.15 135.866 313.444 135.582C313.742 135.298 313.89 134.9 313.89 134.389V133.893L313.058 133.928C312.396 133.951 311.919 134.055 311.625 134.239C311.334 134.419 311.188 134.701 311.188 135.086C311.188 135.386 311.279 135.615 311.459 135.772C311.643 135.929 311.899 136.008 312.226 136.008ZM317.274 136.594H316.442V128.795H317.274V136.594ZM325.444 135.858H325.399C325.015 136.416 324.44 136.695 323.675 136.695C322.956 136.695 322.396 136.449 321.995 135.958C321.598 135.467 321.399 134.768 321.399 133.863C321.399 132.957 321.599 132.254 322 131.752C322.401 131.251 322.959 131.001 323.675 131.001C324.42 131.001 324.991 131.271 325.389 131.813H325.454L325.419 131.417L325.399 131.031V128.795H326.231V136.594H325.554L325.444 135.858ZM323.78 135.998C324.348 135.998 324.759 135.844 325.013 135.537C325.27 135.226 325.399 134.726 325.399 134.038V133.863C325.399 133.084 325.269 132.529 325.008 132.198C324.751 131.864 324.338 131.697 323.77 131.697C323.282 131.697 322.908 131.888 322.647 132.269C322.39 132.646 322.261 133.181 322.261 133.873C322.261 134.574 322.39 135.104 322.647 135.462C322.904 135.819 323.282 135.998 323.78 135.998ZM330.321 136.695C329.509 136.695 328.868 136.447 328.396 135.953C327.929 135.458 327.695 134.772 327.695 133.893C327.695 133.007 327.912 132.304 328.346 131.782C328.784 131.261 329.37 131.001 330.106 131.001C330.794 131.001 331.339 131.228 331.74 131.682C332.141 132.133 332.341 132.73 332.341 133.472V133.998H328.557C328.573 134.643 328.736 135.132 329.043 135.467C329.354 135.801 329.79 135.968 330.351 135.968C330.943 135.968 331.528 135.844 332.106 135.597V136.339C331.812 136.466 331.533 136.556 331.269 136.609C331.008 136.666 330.692 136.695 330.321 136.695ZM330.096 131.697C329.655 131.697 329.302 131.841 329.038 132.128C328.777 132.416 328.624 132.813 328.577 133.321H331.449C331.449 132.797 331.332 132.396 331.098 132.118C330.864 131.838 330.53 131.697 330.096 131.697ZM336.321 136.695C335.964 136.695 335.636 136.63 335.339 136.499C335.045 136.366 334.797 136.162 334.597 135.888H334.537C334.577 136.208 334.597 136.513 334.597 136.8V139.061H333.765V131.101H334.441L334.557 131.853H334.597C334.811 131.552 335.06 131.335 335.344 131.201C335.628 131.067 335.954 131.001 336.321 131.001C337.05 131.001 337.611 131.249 338.005 131.747C338.403 132.245 338.602 132.944 338.602 133.843C338.602 134.745 338.4 135.447 337.995 135.948C337.594 136.446 337.036 136.695 336.321 136.695ZM336.201 131.707C335.639 131.707 335.233 131.863 334.983 132.173C334.732 132.484 334.604 132.979 334.597 133.657V133.843C334.597 134.615 334.726 135.168 334.983 135.502C335.24 135.833 335.653 135.998 336.221 135.998C336.695 135.998 337.066 135.806 337.334 135.422C337.604 135.037 337.74 134.508 337.74 133.833C337.74 133.148 337.604 132.623 337.334 132.259C337.066 131.891 336.689 131.707 336.201 131.707ZM344.802 133.843C344.802 134.738 344.577 135.438 344.126 135.943C343.674 136.444 343.051 136.695 342.256 136.695C341.765 136.695 341.329 136.579 340.948 136.349C340.567 136.118 340.273 135.787 340.065 135.356C339.858 134.925 339.755 134.421 339.755 133.843C339.755 132.947 339.979 132.25 340.426 131.752C340.874 131.251 341.496 131.001 342.291 131.001C343.06 131.001 343.669 131.256 344.121 131.767C344.575 132.279 344.802 132.97 344.802 133.843ZM340.617 133.843C340.617 134.544 340.757 135.079 341.038 135.447C341.319 135.814 341.731 135.998 342.276 135.998C342.821 135.998 343.233 135.816 343.514 135.452C343.798 135.084 343.94 134.548 343.94 133.843C343.94 133.144 343.798 132.615 343.514 132.254C343.233 131.889 342.817 131.707 342.266 131.707C341.721 131.707 341.31 131.886 341.033 132.244C340.756 132.601 340.617 133.134 340.617 133.843ZM349.81 135.096C349.81 135.607 349.619 136.001 349.238 136.279C348.857 136.556 348.323 136.695 347.634 136.695C346.906 136.695 346.338 136.579 345.93 136.349V135.577C346.194 135.711 346.476 135.816 346.777 135.893C347.081 135.97 347.374 136.008 347.654 136.008C348.089 136.008 348.423 135.939 348.657 135.802C348.891 135.662 349.008 135.45 349.008 135.166C349.008 134.952 348.914 134.77 348.727 134.62C348.543 134.466 348.182 134.285 347.644 134.078C347.133 133.888 346.769 133.722 346.552 133.582C346.338 133.438 346.177 133.276 346.07 133.096C345.967 132.915 345.915 132.7 345.915 132.449C345.915 132.001 346.097 131.649 346.461 131.391C346.826 131.131 347.325 131.001 347.96 131.001C348.552 131.001 349.13 131.121 349.695 131.361L349.399 132.038C348.847 131.811 348.348 131.697 347.9 131.697C347.506 131.697 347.208 131.759 347.008 131.883C346.807 132.006 346.707 132.177 346.707 132.394C346.707 132.541 346.744 132.666 346.817 132.77C346.894 132.874 347.016 132.972 347.183 133.066C347.35 133.159 347.671 133.295 348.146 133.472C348.797 133.709 349.237 133.948 349.464 134.188C349.695 134.429 349.81 134.731 349.81 135.096ZM352 136.594H351.168V131.101H352V136.594ZM351.098 129.612C351.098 129.422 351.145 129.283 351.238 129.196C351.332 129.106 351.449 129.061 351.589 129.061C351.723 129.061 351.838 129.106 351.935 129.196C352.032 129.286 352.08 129.425 352.08 129.612C352.08 129.799 352.032 129.94 351.935 130.033C351.838 130.123 351.723 130.168 351.589 130.168C351.449 130.168 351.332 130.123 351.238 130.033C351.145 129.94 351.098 129.799 351.098 129.612ZM355.539 136.008C355.686 136.008 355.828 135.998 355.965 135.978C356.102 135.955 356.211 135.931 356.291 135.908V136.544C356.201 136.588 356.067 136.623 355.89 136.65C355.716 136.68 355.559 136.695 355.419 136.695C354.356 136.695 353.825 136.135 353.825 135.016V131.747H353.038V131.346L353.825 131.001L354.176 129.828H354.657V131.101H356.251V131.747H354.657V134.98C354.657 135.311 354.735 135.565 354.892 135.742C355.05 135.919 355.265 136.008 355.539 136.008Z" fill="#00031A"/>
<path d="M297.356 155.857V154.681C296.837 154.67 296.373 154.621 295.964 154.535C295.558 154.445 295.188 154.327 294.853 154.178V152.635C295.184 152.794 295.58 152.941 296.04 153.073C296.5 153.202 296.938 153.28 297.356 153.307V151.494C296.74 151.252 296.246 151.019 295.876 150.792C295.51 150.562 295.245 150.309 295.081 150.032C294.921 149.752 294.841 149.416 294.841 149.026C294.841 148.629 294.946 148.286 295.157 147.997C295.371 147.705 295.668 147.471 296.046 147.295C296.424 147.12 296.861 147.011 297.356 146.968V146.073H298.157V146.945C298.609 146.96 299.03 147.013 299.42 147.102C299.814 147.188 300.2 147.315 300.578 147.483L300.028 148.851C299.708 148.718 299.387 148.615 299.063 148.541C298.744 148.467 298.441 148.418 298.157 148.395V150.12C298.59 150.28 299.001 150.453 299.391 150.64C299.781 150.828 300.098 151.065 300.344 151.354C300.59 151.642 300.712 152.021 300.712 152.488C300.712 153.069 300.5 153.557 300.075 153.95C299.654 154.344 299.014 154.58 298.157 154.658V155.857H297.356ZM298.157 153.266C298.43 153.219 298.63 153.139 298.759 153.026C298.888 152.909 298.952 152.759 298.952 152.576C298.952 152.467 298.923 152.369 298.864 152.284C298.806 152.198 298.716 152.118 298.595 152.044C298.478 151.966 298.332 151.888 298.157 151.81V153.266ZM297.356 149.792V148.418C297.196 148.442 297.059 148.481 296.946 148.535C296.833 148.586 296.747 148.652 296.689 148.734C296.63 148.816 296.601 148.913 296.601 149.026C296.601 149.139 296.627 149.239 296.677 149.325C296.732 149.41 296.814 149.49 296.923 149.564C297.036 149.638 297.18 149.714 297.356 149.792ZM304.771 149.699C305.293 149.699 305.757 149.798 306.163 149.997C306.572 150.196 306.894 150.488 307.128 150.874C307.361 151.26 307.478 151.736 307.478 152.301C307.478 152.917 307.35 153.449 307.092 153.898C306.839 154.342 306.459 154.683 305.952 154.921C305.449 155.159 304.821 155.278 304.069 155.278C303.621 155.278 303.198 155.239 302.8 155.161C302.406 155.087 302.061 154.972 301.765 154.816V153.254C302.061 153.41 302.416 153.543 302.829 153.652C303.246 153.757 303.638 153.81 304.005 153.81C304.363 153.81 304.666 153.763 304.911 153.67C305.157 153.572 305.342 153.424 305.467 153.225C305.595 153.022 305.66 152.765 305.66 152.453C305.66 152.036 305.519 151.716 305.239 151.494C304.958 151.272 304.527 151.161 303.946 151.161C303.724 151.161 303.492 151.182 303.25 151.225C303.013 151.268 302.814 151.311 302.654 151.354L301.935 150.968L302.256 146.611H306.894V148.143H303.841L303.683 149.822C303.816 149.794 303.96 149.767 304.116 149.74C304.272 149.713 304.49 149.699 304.771 149.699ZM314.443 150.886C314.443 151.576 314.389 152.192 314.28 152.734C314.174 153.276 314.003 153.736 313.765 154.114C313.531 154.492 313.223 154.781 312.841 154.98C312.459 155.178 311.995 155.278 311.449 155.278C310.763 155.278 310.2 155.104 309.759 154.757C309.319 154.406 308.993 153.904 308.782 153.249C308.572 152.59 308.467 151.802 308.467 150.886C308.467 149.962 308.562 149.173 308.753 148.518C308.948 147.859 309.264 147.354 309.701 147.003C310.137 146.652 310.72 146.477 311.449 146.477C312.131 146.477 312.693 146.652 313.133 147.003C313.578 147.35 313.907 147.853 314.122 148.512C314.336 149.167 314.443 149.958 314.443 150.886ZM310.262 150.886C310.262 151.537 310.297 152.081 310.367 152.518C310.441 152.95 310.564 153.276 310.736 153.494C310.907 153.713 311.145 153.822 311.449 153.822C311.749 153.822 311.985 153.714 312.157 153.5C312.332 153.282 312.457 152.956 312.531 152.523C312.605 152.087 312.642 151.541 312.642 150.886C312.642 150.235 312.605 149.691 312.531 149.254C312.457 148.818 312.332 148.49 312.157 148.272C311.985 148.05 311.749 147.939 311.449 147.939C311.145 147.939 310.907 148.05 310.736 148.272C310.564 148.49 310.441 148.818 310.367 149.254C310.297 149.691 310.262 150.235 310.262 150.886ZM321.297 150.886C321.297 151.576 321.242 152.192 321.133 152.734C321.028 153.276 320.856 153.736 320.619 154.114C320.385 154.492 320.077 154.781 319.695 154.98C319.313 155.178 318.849 155.278 318.303 155.278C317.617 155.278 317.053 155.104 316.613 154.757C316.172 154.406 315.847 153.904 315.636 153.249C315.426 152.59 315.32 151.802 315.32 150.886C315.32 149.962 315.416 149.173 315.607 148.518C315.802 147.859 316.118 147.354 316.554 147.003C316.991 146.652 317.574 146.477 318.303 146.477C318.985 146.477 319.547 146.652 319.987 147.003C320.432 147.35 320.761 147.853 320.975 148.512C321.19 149.167 321.297 149.958 321.297 150.886ZM317.116 150.886C317.116 151.537 317.151 152.081 317.221 152.518C317.295 152.95 317.418 153.276 317.589 153.494C317.761 153.713 317.999 153.822 318.303 153.822C318.603 153.822 318.839 153.714 319.01 153.5C319.186 153.282 319.311 152.956 319.385 152.523C319.459 152.087 319.496 151.541 319.496 150.886C319.496 150.235 319.459 149.691 319.385 149.254C319.311 148.818 319.186 148.49 319.01 148.272C318.839 148.05 318.603 147.939 318.303 147.939C317.999 147.939 317.761 148.05 317.589 148.272C317.418 148.49 317.295 148.818 317.221 149.254C317.151 149.691 317.116 150.235 317.116 150.886Z" fill="#00031A"/>
<line x1="305.843" y1="166.716" x2="305.843" y2="262.661" stroke="#99A3FF"/>
</g>
<defs>
<clipPath id="clip0_123_242">
<rect width="390" height="2116" fill="white" transform="translate(0 -483)"/>
</clipPath>
</defs>
</svg>
