<svg width="390" height="290" viewBox="0 0 390 290" fill="none" xmlns="http://www.w3.org/2000/svg">
<path d="M-68.0001 289.242C95.5485 289.242 259.097 289.242 422.646 289.242" stroke="#99A3FF" stroke-width="0.993417" stroke-miterlimit="10"/>
<path d="M-68 281.157C14.8169 281.217 97.5929 279.771 180.389 278.136C216.213 277.424 252.283 277.658 288.103 279.157C332.943 281.032 377.803 279.266 422.632 281.157" stroke="#99A3FF" stroke-width="0.993417" stroke-miterlimit="10"/>
<path d="M-68.0001 273.192C-44.5342 273.192 -21.0616 273.48 2.40078 273.339C23.3691 273.214 44.2897 270.502 65.2511 270.035C104.298 269.166 143.339 270.176 182.383 269.15C217.038 268.237 252.051 265.819 286.682 269.508C306.867 271.682 326.844 272.67 347.045 273.567C372.259 274.686 397.442 271.649 422.646 273.192" stroke="#99A3FF" stroke-width="0.993417" stroke-miterlimit="10"/>
<path d="M-68.0001 265.335C-44.8716 265.335 -21.6817 265.955 1.43994 265.286C23.168 264.656 44.7701 260.239 66.4812 259.103C105.603 257.055 144.419 262.907 183.5 261.863C217.89 260.961 251.792 253.637 286.219 260.19C306.342 264.02 325.842 267.02 346.112 267.894C371.666 268.981 397.095 263.694 422.646 265.335" stroke="#99A3FF" stroke-width="0.993417" stroke-miterlimit="10"/>
<path d="M-68.0001 257.631C-45.2907 257.631 -22.4143 258.62 0.278061 257.256C22.9704 255.892 45.3391 249.616 67.9633 247.59C88.5296 245.748 108.806 246.242 129.263 250.252C147.598 253.849 165.408 256.446 183.892 256.055C200.094 255.707 215.273 251.784 231.273 248.128C249.584 243.939 268.436 245.895 286.577 251.23C306.543 257.109 325.375 262.733 345.764 263.374C371.482 264.189 396.911 256.223 422.646 257.631" stroke="#99A3FF" stroke-width="0.993417" stroke-miterlimit="10"/>
<path d="M-68.0001 250.035C-45.7813 250.035 -23.2252 251.366 -1.04396 249.236C22.657 246.965 45.9558 238.739 69.6056 235.652C89.9114 232.968 110.353 234.808 130.34 241.118C148.184 246.671 165.435 251.632 183.674 251.404C200.564 251.192 215.845 244.373 232.241 238.858C250.852 232.599 269.268 234.973 287.595 242.564C307.238 250.714 325.372 259.494 345.9 259.728C371.663 260.027 396.839 249.122 422.646 250.04" stroke="#99A3FF" stroke-width="0.993417" stroke-miterlimit="10"/>
<path d="M-68.0001 242.558C-46.306 242.526 -24.0805 244.188 -2.46138 241.282C22.3571 237.973 46.6032 227.763 71.3297 223.498C92.0799 219.923 111.256 223.248 131.27 232.23C148.405 239.923 165.002 247.628 182.975 247.644C200.748 247.644 216.557 237.402 233.423 229.926C252.637 221.412 270.355 223.889 289.129 234.175C308.237 244.639 325.781 256.995 346.422 256.723C372.147 256.354 396.849 242.308 422.646 242.558" stroke="#99A3FF" stroke-width="0.993417" stroke-miterlimit="10"/>
<path d="M-68.0001 235.201C-46.8546 235.153 -24.9629 237 -3.94354 233.425C22.013 229.013 47.1654 216.831 73.0299 211.332C94.0698 206.861 112.333 211.642 132.023 223.607C148.269 233.479 164.225 244.177 181.906 244.514C200.591 244.873 217.436 230.806 234.718 221.335C254.674 210.398 271.714 212.723 290.999 226.052C309.364 238.744 326.489 255.039 347.219 254.126C372.852 252.996 396.904 235.723 422.639 235.201" stroke="#99A3FF" stroke-width="0.993417" stroke-miterlimit="10"/>
<path d="M-68.0001 227.965C-47.3963 227.899 -25.8454 229.866 -5.39503 225.699C21.6723 220.184 47.7344 206.09 74.6756 199.363C96.1414 194 113.368 200.14 132.643 215.256C147.887 227.209 163.2 241.016 180.635 241.744C200.233 242.553 218.431 224.281 236.112 213.05C245.373 207.198 255.134 201.716 265.23 202.976C275.111 204.215 284.468 210.849 293.108 218.19C310.526 232.953 327.494 253.273 348.221 251.72C373.741 249.802 396.989 229.312 422.649 227.981" stroke="#99A3FF" stroke-width="0.993417" stroke-miterlimit="10"/>
<path d="M-67.983 220.852C-47.8801 220.77 -26.6801 222.786 -6.78855 218.135C21.3111 211.583 48.1876 195.668 76.1272 187.779C98.0836 181.574 114.316 188.958 133.069 207.187C147.288 221.01 161.96 237.902 179.238 239.048C199.681 240.401 219.443 217.831 237.461 205.057C246.899 198.363 257.308 191.305 267.85 192.859C277.731 194.315 286.989 202.27 295.252 210.518C311.726 226.97 328.52 251.393 349.298 249.214C374.709 246.541 397.061 222.938 422.653 220.852" stroke="#99A3FF" stroke-width="0.993417" stroke-miterlimit="10"/>
<path d="M-67.9794 213.865C-48.357 213.767 -27.4705 215.783 -8.08658 210.789C20.9297 203.307 48.5285 185.714 77.3335 176.771C88.3015 173.369 98.697 171.402 109.44 177.368C118.193 182.231 125.894 190.767 133.322 199.395C146.61 214.821 160.638 234.604 177.875 236.152C199.068 238.06 220.418 211.398 238.729 197.32C248.33 189.936 259.38 181.384 270.324 183.193C280.25 184.823 289.384 193.989 297.293 203.041C312.891 220.885 329.484 249.127 350.374 246.394C375.694 243.075 397.119 216.549 422.666 213.837" stroke="#99A3FF" stroke-width="0.993417" stroke-miterlimit="10"/>
<path d="M-67.9764 206.992C-48.7663 206.888 -28.1626 208.893 -9.22502 203.672C20.5272 195.467 48.6507 176.363 78.1815 166.578C89.1869 162.932 99.5518 160.672 110.24 167.442C118.912 172.968 126.302 182.449 133.369 191.925C145.877 208.676 159.319 230.942 176.641 232.817C187.711 234.017 198.843 224.808 208.404 217.011C219.01 208.361 229.208 198.505 239.812 189.844C249.557 181.889 261.141 172.131 272.453 174.168C282.45 175.967 291.442 186.068 299.067 195.793C313.95 214.81 330.23 246.248 351.321 243.064C376.596 239.261 397.125 210.094 422.669 206.97" stroke="#99A3FF" stroke-width="0.993417" stroke-miterlimit="10"/>
<path d="M-67.9727 200.243C-49.1067 200.14 -28.7211 202.15 -10.1481 196.831C20.1289 188.164 48.5795 167.757 78.6043 157.362C89.5586 153.559 100.002 151.13 110.581 158.384C119.243 164.323 126.412 174.619 133.223 184.747C145.209 202.563 158.143 226.676 175.677 228.757C187.051 230.094 198.506 220.118 208.217 211.87C219.178 202.552 229.682 191.946 240.643 182.617C250.525 174.201 262.45 163.676 274.065 165.822C284.168 167.691 293.006 178.422 300.424 188.708C314.847 208.697 330.629 242.39 352.058 238.994C377.333 234.99 397.078 203.481 422.673 200.265" stroke="#99A3FF" stroke-width="0.993417" stroke-miterlimit="10"/>
<path d="M-67.9658 193.614C-49.3656 193.527 -29.106 195.576 -10.8056 190.3C19.7269 181.498 48.2559 160.02 78.5123 149.343C89.3168 145.54 99.9542 143.062 110.384 150.364C119.117 156.477 126.187 167.327 132.872 177.885C144.668 196.543 157.22 221.624 175.122 223.645C186.747 224.96 198.233 214.881 208.08 206.258C219.273 196.478 229.972 185.328 241.161 175.537C251.169 166.779 263.145 156.086 274.999 158.216C285.221 160.052 293.909 170.979 301.235 181.704C315.545 202.65 330.575 237.196 352.504 233.832C377.844 229.948 396.992 196.499 422.693 193.625" stroke="#99A3FF" stroke-width="0.993417" stroke-miterlimit="10"/>
<path d="M-67.9624 187.094C-49.4303 186.91 -29.2355 189.213 -11.0134 183.834C19.3112 174.864 47.4756 152.744 77.4936 141.818C88.2674 137.9 98.898 135.553 109.321 142.769C118.18 148.914 125.389 159.895 132.173 170.582C144.187 189.512 156.873 214.913 175.009 217.282C186.717 218.809 198.135 208.855 208.026 200.096C219.236 190.164 229.914 178.797 241.121 168.86C251.175 159.938 263.091 149.392 275.033 151.674C285.323 153.641 293.96 164.589 301.3 175.434C315.668 196.673 330.411 230.763 352.514 227.595C377.926 223.965 396.877 189.605 422.683 187.094" stroke="#99A3FF" stroke-width="0.993417" stroke-miterlimit="10"/>
<path d="M-67.9591 180.721C-49.3486 180.384 -29.2151 183.291 -10.9284 177.537C18.8579 168.164 46.3886 145.681 75.858 134.368C86.7613 130.179 97.1125 128 107.685 135.265C116.704 141.454 124.17 152.32 131.202 162.916C143.615 181.639 156.835 207.296 174.972 210.528C186.608 212.604 198.066 202.623 207.872 193.87C218.946 183.986 229.464 172.609 240.534 162.714C250.569 153.744 262.484 143.279 274.409 145.99C284.669 148.321 293.432 159.427 300.874 170.153C315.317 190.963 330.486 224.411 352.323 221.336C377.796 217.744 396.808 183.188 422.676 180.721" stroke="#99A3FF" stroke-width="0.993417" stroke-miterlimit="10"/>
<path d="M-67.9521 174.456C-49.2361 174.054 -29.1571 177.771 -10.7578 171.68C18.4219 162.019 45.2337 139.242 74.083 127.669C85.0782 123.246 95.1876 121.274 105.88 128.446C115.038 134.591 122.803 145.176 130.098 155.689C142.927 174.163 156.757 199.727 174.877 203.742C186.407 206.301 197.777 196.527 207.494 187.811C218.381 178.031 228.677 166.724 239.557 156.95C249.56 147.963 261.363 137.797 273.234 140.894C283.504 143.578 292.424 154.733 300.032 165.344C314.666 185.72 330.333 218.331 352.003 215.299C377.588 211.724 396.706 176.945 422.687 174.489" stroke="#99A3FF" stroke-width="0.993417" stroke-miterlimit="10"/>
<path d="M-67.9456 168.311C-49.1 167.925 -29.0312 172.625 -10.5025 166.224C18.0094 156.384 44.0409 133.374 72.2122 121.6C83.2517 116.987 93.1702 115.253 103.951 122.219C113.273 128.239 121.328 138.519 128.906 148.843C142.269 166.985 156.583 192.18 174.754 196.934C186.148 199.911 197.317 190.56 206.939 181.905C217.586 172.321 227.621 161.111 238.262 151.516C248.228 142.524 259.802 132.863 271.602 136.302C281.919 139.318 291.023 150.429 298.86 160.894C313.787 180.818 330.012 212.43 351.567 209.414C377.309 205.812 396.573 170.799 422.71 168.327" stroke="#99A3FF" stroke-width="0.993417" stroke-miterlimit="10"/>
<path d="M-67.9421 162.285C-48.9432 161.981 -28.8813 167.811 -10.1856 161.133C17.6108 151.206 42.8143 127.989 70.2598 116.15C81.2925 111.379 91.0748 109.896 101.91 116.557C111.399 122.393 119.737 132.314 127.624 142.323C141.594 160.052 156.344 184.643 174.583 190.082C196.594 196.651 218.837 162.464 236.674 146.349C246.603 137.373 257.864 128.38 269.561 132.146C279.96 135.498 289.255 146.501 297.361 156.808C312.666 176.265 329.498 206.747 350.998 203.715C376.93 200.063 396.379 164.795 422.704 162.285" stroke="#99A3FF" stroke-width="0.993417" stroke-miterlimit="10"/>
<path d="M-67.9352 156.385C-48.7694 156.216 -28.704 163.296 -9.81417 156.385C17.2361 146.452 41.5708 123.127 68.253 111.249C79.2483 106.359 88.9351 105.142 99.8009 111.418C109.464 117.009 118.091 126.49 126.289 136.183C140.865 153.407 156.055 177.178 174.386 183.291C196.063 190.506 217.348 157.308 234.854 141.453C244.535 132.7 255.819 123.876 267.196 128.386C277.759 132.57 287.064 142.714 295.63 153.038C311.375 172 328.854 201.248 350.354 198.184C376.508 194.462 396.165 158.927 422.71 156.346" stroke="#99A3FF" stroke-width="0.993417" stroke-miterlimit="10"/>
<path d="M-67.9285 150.598C-48.5821 150.598 -28.4963 159.036 -9.39518 151.869C16.885 142.008 40.327 118.584 66.2222 106.772C111.198 86.2393 134.66 162.041 174.168 176.548C195.463 184.378 215.671 152.375 232.861 136.841C242.497 128.147 253.346 120.231 264.579 124.996C275.275 129.533 284.798 139.454 293.708 149.582C309.944 168.056 328.101 195.972 349.645 192.859C376.041 189.056 395.929 153.244 422.721 150.598" stroke="#99A3FF" stroke-width="0.993417" stroke-miterlimit="10"/>
<path d="M-67.9218 144.936C-48.388 145.164 -28.2681 154.988 -8.93871 147.609C16.5578 137.878 39.1037 114.4 64.1913 102.691C108.237 82.1423 135.062 154.309 173.932 169.854C194.86 178.232 213.855 147.647 230.731 132.412C240.326 123.751 250.701 116.878 261.775 121.86C272.614 126.751 282.379 136.422 291.646 146.338C308.403 164.268 327.252 190.843 348.888 187.659C375.543 183.742 395.68 147.669 422.731 144.936" stroke="#99A3FF" stroke-width="0.993417" stroke-miterlimit="10"/>
<path d="M-67.915 139.394C-48.1869 139.856 -28.0262 151.114 -8.45486 143.551C16.2614 133.999 37.8839 110.494 62.1947 98.9425C105.307 78.4531 135.451 146.675 173.691 163.258C194.243 172.169 211.947 143.089 228.527 128.153C238.088 119.541 247.948 113.77 258.852 118.916C269.84 124.126 279.857 133.586 289.493 143.257C306.788 160.644 326.332 185.834 348.078 182.579C374.995 178.542 395.398 142.198 422.717 139.372" stroke="#99A3FF" stroke-width="0.993417" stroke-miterlimit="10"/>
<path d="M-67.9083 133.972C-47.9894 134.673 -27.7707 147.37 -7.94045 139.65C16.0126 130.315 36.7424 106.799 60.2695 95.4433C102.465 75.0734 135.832 139.199 173.445 156.776C193.626 166.208 210.002 138.677 226.299 124.028C235.818 115.471 245.199 110.836 255.921 116.166C267.063 121.708 277.343 130.929 287.34 140.361C305.177 157.205 325.409 181.003 347.29 177.667C374.491 173.516 395.145 136.916 422.737 133.972" stroke="#99A3FF" stroke-width="0.993417" stroke-miterlimit="10"/>
<path d="M-67.9009 128.674C-47.7981 129.609 -27.5113 143.714 -7.45271 135.863C15.7644 126.773 35.6185 103.262 58.396 92.1291C99.7568 71.9169 136.218 131.869 173.221 150.43C193.034 160.373 208.077 134.39 224.108 120.003C233.587 111.499 242.507 108 253.026 113.482C264.321 119.361 274.859 128.37 285.214 137.542C303.576 153.809 324.483 176.265 346.514 172.859C373.987 168.593 394.897 131.695 422.758 128.685" stroke="#99A3FF" stroke-width="0.993417" stroke-miterlimit="10"/>
<path d="M-67.8942 123.491C-47.5904 124.648 -27.2558 140.106 -6.95194 132.146C15.5667 123.317 34.5826 99.8231 56.6514 88.9291C97.2183 68.9015 136.596 124.692 172.979 144.236C192.461 154.7 206.159 130.158 221.968 116.058C231.417 107.636 239.87 105.191 250.211 110.831C261.653 117.047 272.447 125.876 283.139 134.782C302.005 150.49 323.556 171.626 345.741 168.132C373.472 163.758 394.628 126.593 422.745 123.491" stroke="#99A3FF" stroke-width="0.993417" stroke-miterlimit="10"/>
<path d="M-67.8876 118.432C-47.393 119.779 -27.0005 136.509 -6.46833 128.467C15.4063 119.904 33.6351 96.4103 55.043 85.7717C75.8102 75.4482 97.9029 87.1029 117.3 99.5563C136.006 111.57 153.789 127.326 172.774 138.22C192.011 149.261 204.281 125.876 219.971 112.14C240.807 93.911 262.147 117.03 281.217 132.021C300.54 147.191 322.697 167.066 345.028 163.497C373.005 159.03 394.393 121.605 422.758 118.426" stroke="#99A3FF" stroke-width="0.993417" stroke-miterlimit="10"/>
<path d="M-67.881 113.488C-47.1955 114.993 -26.7996 132.88 -6.00512 124.778C15.2869 116.476 32.79 92.9984 53.622 82.5935C74.1984 72.3026 96.8738 83.4791 116.363 94.8838C135.447 106.055 153.611 120.807 172.593 132.412C191.575 144.018 202.662 121.779 218.152 108.239C238.514 90.4447 260.743 115.303 279.483 129.239C299.211 143.909 321.93 162.579 344.384 158.96C372.579 154.412 394.178 116.737 422.751 113.488" stroke="#99A3FF" stroke-width="0.993417" stroke-miterlimit="10"/>
<path d="M-67.8741 108.668C-46.9944 110.298 -26.6155 129.185 -5.57911 121.035C15.2052 112.988 32.0643 89.5211 52.3443 79.3172C72.7641 69.0752 95.9573 79.7953 115.535 90.2547C134.957 100.638 153.485 114.504 172.437 126.821C181.377 132.63 187.93 132.869 196.574 125.376C203.6 119.285 209.542 110.44 216.557 104.305C225.917 96.1119 233.372 96.3401 243.175 102.431C254.954 109.761 266.429 118.188 277.987 126.376C298.045 140.546 321.259 158.129 343.815 154.478C372.204 149.881 393.984 111.956 422.761 108.668" stroke="#99A3FF" stroke-width="0.993417" stroke-miterlimit="10"/>
<path d="M-67.8671 103.963C-46.7932 105.593 -26.4757 125.382 -5.19395 117.204C15.1781 109.375 31.4614 85.8209 51.3325 75.8777C71.6466 65.7118 95.2657 75.9864 114.922 85.6579C134.579 95.3293 153.452 108.478 172.341 121.518C181.071 127.544 187.453 128.397 196.022 120.942C202.816 115.031 208.486 106.305 215.263 100.35C224.571 92.1671 231.911 93.0364 241.543 99.3283C253.38 107.06 265.033 115.471 276.808 123.431C297.119 137.156 320.786 153.76 343.376 150.098C371.922 145.474 393.847 107.321 422.765 104.012" stroke="#99A3FF" stroke-width="0.993417" stroke-miterlimit="10"/>
<path d="M-67.8604 99.3879C-46.5889 100.974 -26.3872 121.448 -4.86696 113.249C15.2018 105.593 30.9774 81.8598 50.5726 72.21C70.8594 62.2071 94.7341 72.0144 114.513 80.9959C134.453 90.0425 153.489 102.643 172.3 116.4C180.853 122.648 187.163 123.963 195.667 116.509C202.278 110.722 207.719 102.05 214.309 96.2094C223.573 87.9995 230.905 89.3307 240.391 95.8617C252.245 104.012 264.034 112.444 275.99 120.236C296.434 133.564 320.496 149.31 343.069 145.675C371.727 141.057 393.759 102.686 422.799 99.3879" stroke="#99A3FF" stroke-width="0.993417" stroke-miterlimit="10"/>
<path d="M-67.8538 94.9272C-46.3881 96.367 -26.3602 117.335 -4.6014 109.114C15.2595 101.61 30.6944 77.7739 50.0545 68.2383C70.2766 58.2843 94.4647 67.8797 114.295 76.3015C134.439 84.8591 153.56 97.1169 172.283 111.619C180.696 118.139 187.04 119.714 195.5 112.211C201.974 106.468 207.245 97.7906 213.709 91.9931C222.939 83.7126 230.374 85.2775 239.747 92.1072C251.577 100.725 263.455 109.217 275.544 116.878C296.049 129.869 320.39 144.909 342.871 141.329C371.598 136.759 393.684 98.1818 422.792 94.9272" stroke="#99A3FF" stroke-width="0.993417" stroke-miterlimit="10"/>
<path d="M-67.8431 90.5803C-46.2683 91.8734 -26.3801 113.069 -4.48845 104.772C15.3043 97.2743 30.6472 73.4596 49.946 63.9783C70.1476 54.0569 94.4448 63.8479 114.282 72.0904C134.497 80.4905 153.557 92.6559 172.304 107.223C180.686 113.743 187.119 115.101 195.521 107.647C201.951 101.942 207.188 93.3405 213.617 87.6191C222.817 79.4364 230.388 80.9577 239.673 87.9831C251.451 96.8939 263.343 105.452 275.483 113.037C295.889 125.789 320.547 140.66 342.855 136.944C371.54 132.173 393.769 94.2478 422.803 90.5966" stroke="#99A3FF" stroke-width="0.993417" stroke-miterlimit="10"/>
<path d="M-67.8365 86.3042C-46.2141 87.5321 -26.3838 108.869 -4.44104 100.474C15.3211 92.9112 30.7423 69.2976 50.0547 59.8761C70.2564 50.0199 94.499 60.2401 114.305 68.5369C134.456 76.9804 153.434 89.1241 172.311 103.001C190.178 116.134 199.034 95.9376 213.75 83.3429C222.949 75.4699 230.568 76.9044 239.768 83.9569C251.495 92.9492 263.366 101.485 275.503 108.983C295.79 121.513 320.768 136.455 342.916 132.423C371.479 127.218 393.98 90.8356 422.819 86.3857" stroke="#99A3FF" stroke-width="0.993417" stroke-miterlimit="10"/>
<path d="M-67.8295 82.0937C-46.1423 83.2782 -26.3597 104.773 -4.34883 96.3075C15.4133 88.7007 30.8959 65.337 50.2185 56.0024C70.4201 46.2223 94.5912 56.8338 114.367 65.1577C134.439 73.6067 153.346 85.696 172.331 98.872C190.049 111.173 199.221 91.3359 213.948 79.3118C223.147 71.7811 230.834 73.172 239.952 80.2355C251.625 89.2766 263.462 97.7473 275.595 105.115C295.8 117.389 321.028 132.173 342.991 127.87C371.411 122.306 394.188 87.5054 422.816 82.349" stroke="#99A3FF" stroke-width="0.993417" stroke-miterlimit="10"/>
<path d="M-67.8228 77.959C-46.0606 79.1109 -26.3087 100.779 -4.21606 92.276C15.5222 84.6801 31.0968 61.5827 50.433 52.3459C70.6347 42.7288 94.7274 53.6065 114.466 61.9359C134.442 70.3577 153.308 82.3546 172.362 94.8026C189.954 106.283 199.439 86.8861 214.203 75.4216C223.426 68.2658 231.171 69.6568 240.221 76.7148C251.829 85.7723 263.642 94.1451 275.755 101.339C295.909 113.32 321.29 127.74 343.103 123.214C371.383 117.351 394.423 84.1857 422.833 78.3937" stroke="#99A3FF" stroke-width="0.993417" stroke-miterlimit="10"/>
<path d="M-67.8159 73.8948C-45.9617 75.0358 -26.2473 96.8726 -4.04219 88.3639C15.679 80.8115 31.349 57.9749 50.7023 48.9228C70.8971 39.4741 94.8672 50.5963 114.599 58.8986C134.466 67.266 153.275 79.138 172.406 90.8361C189.865 101.513 199.685 82.6262 214.517 71.7812C223.771 65.0111 231.577 66.451 240.569 73.4873C252.086 82.5907 263.905 90.6912 275.973 97.7529C296.11 109.402 321.563 123.29 343.25 118.557C371.346 112.456 394.669 80.9636 422.83 74.6228" stroke="#99A3FF" stroke-width="0.993417" stroke-miterlimit="10"/>
<path d="M-67.8055 69.9061C-45.8525 71.0471 -26.1449 93.0742 -3.83074 84.5763C15.8735 77.0837 31.6491 54.5513 51.0262 45.684C71.2142 36.4472 95.0821 47.7433 114.776 56.0075C134.538 64.288 153.295 75.997 172.471 86.9344C189.801 96.8232 199.975 78.4964 214.895 68.3087C224.193 61.9571 232.057 63.4784 240.998 70.4821C252.447 79.5253 264.222 87.4739 276.263 94.2858C296.41 105.571 321.859 118.704 343.431 113.846C371.346 107.56 394.935 77.79 422.85 70.9548" stroke="#99A3FF" stroke-width="0.993417" stroke-miterlimit="10"/>
<path d="M-67.7989 66.0051C-45.7335 67.1515 -26.0293 89.3688 -3.58905 80.9361C16.1015 73.5358 31.9896 51.3295 51.3735 42.674C71.5513 33.6654 95.2931 45.0973 114.97 53.2909C134.586 61.441 153.336 72.9653 172.532 83.1258C189.739 92.2376 200.288 74.5356 215.31 65.038C224.66 59.1264 232.585 60.7619 241.488 67.7547C252.859 76.7114 264.582 84.4812 276.583 91.0151C296.764 101.882 322.135 114.14 343.614 109.168C371.336 102.757 395.18 74.742 422.843 67.4884" stroke="#99A3FF" stroke-width="0.993417" stroke-miterlimit="10"/>
<path d="M-67.7919 62.1802C-45.6038 63.3539 -25.8826 85.783 -3.3129 77.3938C16.364 70.1239 32.3679 48.2707 51.7723 39.8489C71.9365 31.1011 95.5488 42.6145 115.181 50.7157C134.661 58.7572 153.39 70.0206 172.594 79.3987C189.681 87.739 200.625 70.7053 215.76 61.9357C225.168 56.5023 233.154 58.2628 242.03 65.1958C253.325 74.0463 264.999 81.6087 276.965 87.8259C297.211 98.2744 322.438 109.494 343.839 104.436C371.36 97.9158 395.449 71.7213 422.854 64.0928" stroke="#99A3FF" stroke-width="0.993417" stroke-miterlimit="10"/>
<path d="M-67.7853 58.4418C-45.4644 59.648 -25.7465 82.2944 -3.00988 74.0193C16.6534 66.8581 32.7834 45.3744 52.2082 37.2134C72.3553 28.7536 95.8212 40.305 115.427 48.303C134.77 56.1978 153.482 67.1787 172.669 75.7635C189.64 83.3703 201.003 67.032 216.258 59.0177C225.73 54.0461 233.778 55.9967 242.633 62.8211C253.849 71.5374 265.468 78.8687 277.387 84.7503C297.712 94.7206 322.735 104.783 344.074 99.665C371.39 93.145 395.708 68.7489 422.854 60.8053" stroke="#99A3FF" stroke-width="0.993417" stroke-miterlimit="10"/>
<path d="M-67.7786 54.7962C-45.318 56.0459 -25.5797 78.9096 -2.69992 70.7487C16.9736 63.7559 33.2297 42.6416 52.6783 34.7632C72.805 26.6131 96.1073 38.1591 115.713 46.0375C134.913 53.7638 153.612 64.4296 172.777 72.2157C189.633 79.0672 201.439 63.4896 216.82 56.2686C226.36 51.7915 234.466 53.9323 243.315 60.724C254.449 69.2874 266.01 76.3624 277.878 81.8763C298.281 91.3358 323.051 100.16 344.343 94.9817C371.445 88.4235 395.98 65.9292 422.867 57.7139" stroke="#99A3FF" stroke-width="0.993417" stroke-miterlimit="10"/>
<path d="M-67.7717 51.2591C-45.1713 52.5468 -25.4092 75.6279 -2.32838 67.6028C17.3145 60.7675 33.7068 40.0662 53.1759 32.4866C73.2788 24.6571 96.4209 36.1759 115.982 43.8968C135.042 51.4384 153.728 61.751 172.853 68.7438C189.603 74.8727 201.876 60.0503 217.375 53.6606C226.984 49.6888 235.154 52.0306 244.006 58.7735C255.057 67.1655 266.555 73.9645 278.365 79.089C298.901 87.9998 323.365 95.4435 344.623 90.2764C371.513 83.7563 396.243 63.1528 422.874 54.7038" stroke="#99A3FF" stroke-width="0.993417" stroke-miterlimit="10"/>
<path d="M-67.7651 47.7814C-45.0012 49.1452 -25.2016 72.4491 -1.95722 64.5761C17.6822 57.931 34.2177 37.6427 53.7004 30.3782C73.7862 22.8964 96.7546 34.35 116.288 41.9405C135.206 49.2919 153.877 59.2133 172.951 65.4128C189.602 70.8462 202.359 56.8226 217.975 51.286C227.655 47.8357 235.887 50.4275 244.752 57.078C255.719 65.2818 267.154 71.7865 278.9 76.5024C299.562 84.8264 323.685 90.8412 344.916 85.6686C371.595 79.1756 396.502 60.539 422.881 51.8945" stroke="#99A3FF" stroke-width="0.993417" stroke-miterlimit="10"/>
<path d="M-67.7581 44.4185C-44.8306 45.8529 -24.9969 69.3796 -1.55837 61.6805C18.0641 55.231 34.7324 35.3719 54.2492 28.4389C74.3077 21.3102 97.0989 32.6824 116.602 40.1044C135.383 47.2493 154.031 56.7524 173.043 62.1586C189.609 66.8694 202.86 53.6933 218.595 48.9826C228.343 46.0648 236.633 48.9119 245.529 55.5027C256.41 63.5025 267.779 69.6931 279.456 73.9763C300.24 81.67 323.995 86.1906 345.216 81.0397C371.687 74.6228 396.751 57.9531 422.888 49.1347" stroke="#99A3FF" stroke-width="0.993417" stroke-miterlimit="10"/>
<path d="M-67.7513 41.1584C-44.6637 42.6689 -24.779 66.4183 -1.15981 58.9039C18.466 52.6609 35.274 33.2419 54.8147 26.6512C74.846 19.8975 97.4566 31.1555 116.946 38.4037C135.594 45.3421 154.215 54.3887 173.166 59.0071C189.66 63.0224 203.416 50.7049 219.263 46.8635C229.083 44.4782 237.43 47.597 246.361 54.0899C257.157 61.8829 268.459 67.7538 280.062 71.5964C300.986 78.6218 324.336 81.5993 345.55 76.4864C371.785 70.1511 396.999 55.4917 422.894 46.5266" stroke="#99A3FF" stroke-width="0.993417" stroke-miterlimit="10"/>
<path d="M-67.7443 38.0014C-44.4898 39.5934 -24.5539 63.5384 -0.740525 56.2522C18.8853 50.2265 35.833 31.2476 55.3975 25.0155C75.4016 18.6584 97.8282 29.7752 117.294 36.8386C135.816 43.5598 154.402 52.1228 173.272 55.9588C189.708 59.3003 203.964 47.8576 219.914 44.8855C229.795 43.0436 238.207 46.4449 247.172 52.8563C257.884 60.4276 269.118 65.9624 280.641 69.3467C301.698 75.6658 324.636 77.073 345.85 71.9982C371.895 65.7715 397.207 53.1389 422.878 44.0433" stroke="#99A3FF" stroke-width="0.993417" stroke-miterlimit="10"/>
<path d="M-67.7375 34.9589C-44.3126 36.6324 -24.3188 60.8219 -0.314592 53.7259C19.3078 47.9176 36.4055 29.3951 55.9938 23.5487C75.9638 17.572 98.203 28.5638 117.665 35.4316C136.064 41.9517 154.61 49.9877 173.401 53.0467C189.807 55.72 204.55 45.1683 220.622 43.071C230.575 41.7724 239.022 45.4725 248.071 51.797C258.701 59.1427 269.866 64.3341 281.306 67.2496C329.348 79.9041 376.426 58.5562 422.925 41.7126" stroke="#99A3FF" stroke-width="0.993417" stroke-miterlimit="10"/>
<path d="M-67.7308 32.0142C-44.1321 33.78 -24.0803 58.1815 0.121441 51.3082C19.7439 45.7335 36.988 27.6729 56.6002 22.1688C76.5361 16.5724 98.5879 27.4284 118.009 34.0952C136.303 40.3925 154.794 47.9069 173.5 50.1726C189.903 52.1775 205.109 42.5658 221.3 41.3162C231.311 40.5555 239.829 44.5762 248.93 50.8083C259.438 58.0511 270.597 62.6694 281.926 65.2231C328.745 75.7803 377.578 56.182 422.915 39.4525" stroke="#99A3FF" stroke-width="0.993417" stroke-miterlimit="10"/>
<path d="M-67.7242 29.1884C-43.9517 31.0467 -23.8386 55.66 0.560756 49.0149C20.1866 43.6522 37.5738 26.0751 57.2099 20.9405C77.1117 15.7407 98.9727 26.45 118.374 32.894C136.568 38.9523 154.995 45.9342 173.616 47.461C190.049 48.8085 205.685 40.1042 221.999 39.7401C232.067 39.5173 240.64 43.8532 249.812 50.0093C260.252 57.0129 271.336 61.2347 282.57 63.332C303.971 67.3255 325.671 63.9242 346.895 59.0396C372.361 53.1769 397.865 46.7438 422.922 37.3059" stroke="#99A3FF" stroke-width="0.993417" stroke-miterlimit="10"/>
<path d="M-67.7172 26.4772C-43.9754 28.3952 -23.8896 53.052 0.485993 46.9775C20.0335 42.0874 37.4548 25.1949 56.9375 20.0712C76.6315 14.8932 98.0529 25.1678 117.284 31.3727C135.874 37.3495 154.705 44.0271 173.735 44.8639C190.628 45.6083 207.089 37.3821 223.944 38.3438C234.119 38.9252 242.599 44.2282 251.925 50.118C261.612 56.236 271.84 59.7406 282.185 61.3977C304.203 64.924 326.04 59.7242 347.795 54.8179C372.907 49.1563 398.243 44.7987 422.939 35.3337" stroke="#99A3FF" stroke-width="0.993417" stroke-miterlimit="10"/>
<path d="M-67.7137 23.8855C-43.8084 25.8958 -23.6408 50.7591 0.915325 44.9182C20.4662 40.2672 38.0272 23.8203 57.5406 19.0715C77.1937 14.3118 98.4448 24.4397 117.648 30.4436C136.15 36.2356 154.91 42.3971 173.841 42.3971C190.833 42.3971 207.658 35.263 224.653 37.0832C234.841 38.1699 243.393 43.7772 252.79 49.542C262.412 55.4427 272.573 58.5778 282.829 59.8166C304.918 62.4844 326.377 55.622 348.129 50.8515C373.077 45.38 398.41 43.0491 422.932 33.4646" stroke="#99A3FF" stroke-width="0.993417" stroke-miterlimit="10"/>
<path d="M-67.7069 21.4186C-43.621 23.5213 -23.4125 48.5856 1.35147 42.9729C20.9092 38.5392 38.6065 22.5541 58.1471 18.1748C77.7593 13.7683 98.8435 23.8256 118.037 29.6339C136.436 35.214 155.125 40.8213 173.957 40.028C191.071 39.3053 208.227 33.2417 225.365 35.9095C235.567 37.5014 244.187 43.4076 253.646 49.0474C263.186 54.7362 273.299 57.5018 283.459 58.3223C305.606 60.1207 326.711 51.6283 348.456 46.9882C373.247 41.696 398.543 41.4026 422.922 31.6986" stroke="#99A3FF" stroke-width="0.993417" stroke-miterlimit="10"/>
<path d="M-67.7002 19.0771C-43.4473 21.2504 -23.1537 46.5266 1.7841 41.1476C21.3452 36.9258 39.1788 21.3754 58.7501 17.3873C78.3214 13.3992 99.2352 23.3206 118.377 28.9278C136.732 34.3069 155.332 39.3871 174.062 37.7952C191.327 36.3281 208.775 31.3511 226.057 34.8557C236.279 36.9258 244.96 43.1525 254.508 48.662C264.055 54.1715 274.038 56.5404 284.103 56.9534C306.25 57.8716 327.075 47.7872 348.797 43.2775C373.445 38.1592 398.72 39.8979 422.935 30.0526" stroke="#99A3FF" stroke-width="0.993417" stroke-miterlimit="10"/>
<path d="M-67.6969 16.8599C-43.2771 19.1419 -22.9119 44.5702 2.20307 39.4411C21.7744 35.4258 39.7375 20.3481 59.336 16.6968C78.8528 13.0619 99.6371 22.9181 118.745 28.3352C137.045 33.5187 155.543 38.0664 174.181 35.692C191.616 33.4698 209.324 29.574 226.759 33.899C236.95 36.431 245.734 42.9837 255.349 48.3682C264.787 53.6495 274.77 55.6816 284.726 55.6979C306.874 55.7413 327.433 44.1138 349.124 39.7236C373.656 34.7575 398.87 38.5229 422.935 28.5199" stroke="#99A3FF" stroke-width="0.993417" stroke-miterlimit="10"/>
<path d="M-67.6932 14.7792C-43.1098 17.1373 -22.6832 42.7776 2.61227 37.844C22.1938 34.0406 40.2864 19.3704 59.9088 16.1104C79.4051 12.8503 99.9816 22.6305 119.093 27.8574C137.356 32.8344 155.762 36.8714 174.291 33.7255C191.913 30.7371 209.849 27.9226 227.444 33.0518C237.632 36.013 246.49 42.8971 256.177 48.1566C265.571 53.2532 275.469 54.9212 285.333 54.5518C307.446 53.7313 327.791 40.6151 349.451 36.3281C373.844 31.5032 398.993 37.2953 422.946 27.0913" stroke="#99A3FF" stroke-width="0.993417" stroke-miterlimit="10"/>
<path d="M-67.6866 12.8286C-42.9499 15.2682 -22.4518 41.0823 3.01063 36.3661C22.6024 32.7312 40.8312 18.5337 60.4639 15.5834C79.9193 12.6602 100.329 22.424 119.43 27.4553C137.659 32.2422 155.973 35.7739 174.396 31.8727C192.216 28.1019 210.373 26.3524 228.091 32.2693C238.268 35.6652 247.202 42.8754 256.974 48.0262C266.31 52.9163 276.157 54.2638 285.936 53.5194C307.991 51.8514 328.162 37.3116 349.785 33.117C374.061 28.4062 399.135 36.2086 422.973 25.8036" stroke="#99A3FF" stroke-width="0.993417" stroke-miterlimit="10"/>
<path d="M-67.6829 11.0136C-42.8099 13.5293 -22.2368 39.5281 3.38921 35.0021C22.9912 31.5356 41.3222 17.7673 60.9992 15.143C80.4206 12.5567 100.68 22.3042 119.751 27.1617C137.956 31.8073 156.178 34.8065 174.492 30.1664C192.519 25.6023 210.84 24.896 228.711 31.5791C238.868 35.3824 247.887 42.9186 257.724 47.9499C267.012 52.6987 276.805 53.6822 286.481 52.5846C308.458 50.0907 328.49 34.2088 350.071 30.0686C374.263 25.4447 399.235 35.2466 422.966 24.5917" stroke="#99A3FF" stroke-width="0.993417" stroke-miterlimit="10"/>
<path d="M-67.6796 9.34567C-42.6498 11.9211 -22.0223 38.0938 3.74687 33.7471C23.3659 30.4436 41.8094 17.0828 61.5068 14.7791C80.8975 12.5134 101 22.2609 120.054 26.9662C138.242 31.4596 156.375 33.959 174.587 28.5962C192.799 23.2335 211.3 23.5486 229.311 30.9706C239.444 35.1489 248.552 42.9241 258.443 47.9337C267.643 52.601 277.449 53.1878 287.006 51.7371C308.894 48.4771 328.813 31.3129 350.351 27.227C374.437 22.6575 399.337 34.4426 422.966 23.4997" stroke="#99A3FF" stroke-width="0.993417" stroke-miterlimit="10"/>
<path d="M-67.6593 7.79135C-42.4933 10.4211 -21.8214 36.7677 4.10104 32.5894C23.7132 29.4435 42.2658 16.4848 61.987 14.4799C81.3334 12.513 101.307 22.2931 120.34 26.8626C138.518 31.2093 156.566 33.236 174.672 27.1669C193.119 20.9891 211.729 22.2768 229.87 30.4269C239.982 34.9584 249.168 43.027 259.118 47.966C268.28 52.5137 278.035 52.7745 287.493 51.0304C297.814 49.1233 307.875 44.7548 317.784 39.9082C328.476 34.6867 339.478 26.7213 350.616 24.6132C374.62 20.0654 399.435 33.8065 422.969 22.5376" stroke="#99A3FF" stroke-width="0.993417" stroke-miterlimit="10"/>
<path d="M-67.6593 6.43329C-42.3706 9.10653 -21.6613 35.6216 4.4111 31.5845C24.0403 28.5418 42.6917 15.9418 62.4368 14.2357C81.7525 12.5459 101.583 22.3858 120.599 26.8412C138.776 31.0901 156.753 32.6386 174.754 25.8849C193.402 18.8867 212.135 21.1089 230.408 29.9654C240.476 34.8554 249.741 43.1686 259.741 48.0369C268.866 52.476 278.576 52.4434 287.943 50.4004C298.243 48.1619 308.247 43.4131 318.097 38.2568C328.711 32.7038 339.73 24.3255 350.865 22.201C374.794 17.6424 399.531 33.3124 422.973 21.6577" stroke="#99A3FF" stroke-width="0.993417" stroke-miterlimit="10"/>
<path d="M-67.6593 5.19989C-42.2548 7.91659 -21.4909 34.5892 4.6939 30.6717C24.3368 27.7268 43.0767 15.5071 62.8388 14.0455C82.1273 12.6165 101.825 22.5705 120.827 26.9118C139.008 31.0575 156.92 32.1713 174.815 24.7384C193.678 16.9306 212.496 20.0277 230.899 29.5633C240.93 34.7576 250.262 43.3261 260.313 48.1401C269.401 52.4868 279.053 52.1826 288.352 49.8734C298.628 47.3197 308.581 42.2123 318.38 36.7734C328.922 30.9216 339.955 22.1739 351.09 20.0168C374.941 15.3984 399.619 32.9755 422.983 20.9024" stroke="#99A3FF" stroke-width="0.993417" stroke-miterlimit="10"/>
<path d="M-67.6593 4.11868C-42.1491 6.83539 -21.3512 33.6927 4.94603 29.8676C24.6127 27.0042 43.4481 15.1213 63.2306 13.8988C82.4987 12.7035 102.073 22.8042 121.055 27.0585C139.243 31.1282 157.104 31.8291 174.89 23.7605C193.947 15.1159 212.813 19.028 231.345 29.1939C241.342 34.687 250.736 43.4783 260.828 48.2488C269.884 52.5249 279.503 51.9816 288.713 49.4279C298.976 46.5808 308.874 41.1474 318.629 35.4477C329.113 29.3134 340.152 20.2668 351.301 18.0608C375.104 13.3446 399.722 32.7854 422.983 20.2342" stroke="#99A3FF" stroke-width="0.993417" stroke-miterlimit="10"/>
<path d="M-67.6593 3.19519C-42.0503 5.91189 -21.2319 32.9377 5.16752 29.1723C24.8376 26.3687 43.7582 14.801 63.5578 13.7686C82.8054 12.7852 102.251 23.0652 121.232 27.2598C139.431 31.2805 157.257 31.6065 174.941 22.913C194.196 13.4426 213.072 18.0936 231.74 28.8898C241.693 34.6492 251.141 43.6415 261.271 48.3794C270.3 52.6066 279.871 51.8568 289.016 49.0858C299.265 45.9724 309.119 40.2456 318.833 34.3069C329.27 27.9226 340.299 18.6424 351.478 16.3766C375.23 11.5137 399.817 32.7855 422.986 19.6802" stroke="#99A3FF" stroke-width="0.993417" stroke-miterlimit="10"/>
<path d="M-67.6593 2.42361C-42.1764 5.14032 -21.4262 32.1661 4.81996 28.6615C25.56 25.8959 45.6083 13.4045 66.5357 13.6599C84.4272 13.8772 102.38 23.2499 120.054 27.2815C138.831 31.563 156.804 31.4435 174.989 22.2773C195.153 12.1386 214.046 17.4687 233.481 29.5255C242.194 34.9263 250.494 42.294 259.271 47.3525C268.559 52.7044 278.757 52.1828 288.314 49.2107C299.16 45.842 309.542 39.4306 319.77 32.9105C330.081 26.3143 341.042 17.0286 352.16 14.8553C375.67 10.2858 400.12 32.8453 422.983 19.24" stroke="#99A3FF" stroke-width="0.993417" stroke-miterlimit="10"/>
<path d="M-67.6593 1.81451C-42.1048 4.49318 -21.3546 31.6983 4.96308 28.1883C25.7099 25.4172 45.8502 13.2192 66.7708 13.6267C84.6487 13.9799 102.51 23.6134 120.173 27.6504C138.964 31.9428 156.934 31.519 175.03 21.7551C195.398 10.7579 214.193 16.7129 233.788 29.3619C242.459 34.9583 250.783 42.3912 259.584 47.4552C268.852 52.8125 279.006 52.1822 288.509 49.0417C299.347 45.4611 309.688 38.7726 319.886 32.0786C330.183 25.3194 341.141 15.9305 352.286 13.6485C375.752 8.87795 400.229 33.1273 422.986 18.8646" stroke="#99A3FF" stroke-width="0.993417" stroke-miterlimit="10"/>
<path d="M-67.6593 1.38068C-42.0537 4.01588 -21.3205 31.384 5.07211 27.8196C25.8223 25.016 46.007 13.0788 66.9548 13.6167C84.8259 14.0731 102.602 24.0163 120.258 28.0859C139.059 32.4326 157.056 31.7426 175.037 21.3919C195.603 9.55796 214.247 16.0128 234.009 29.1943C242.66 34.9591 251.005 42.4681 259.813 47.5918C269.074 52.9763 279.139 52.2972 288.635 49.0099C310.574 41.4032 330.231 17.5885 352.381 12.7854C375.806 7.70516 400.349 33.5899 422.986 18.61" stroke="#99A3FF" stroke-width="0.993417" stroke-miterlimit="10"/>
<path d="M-67.6593 1.104C-42.0128 3.68487 -21.2865 31.216 5.13684 27.5647C25.8905 24.6904 46.1432 12.9869 67.0809 13.6117C84.9554 14.1551 102.653 24.4459 120.302 28.5862C139.11 32.9981 157.169 32.107 175.047 21.1967C195.794 8.53147 214.23 15.3613 234.18 29.0752C242.759 34.9596 251.124 42.7565 259.952 47.6792C269.329 52.9007 279.091 52.4769 288.689 49.043C310.666 41.1754 330.213 17.339 352.442 12.1882C375.837 6.75475 400.485 34.2206 422.973 18.4474" stroke="#99A3FF" stroke-width="0.993417" stroke-miterlimit="10"/>
<path d="M-67.6593 0.999939C-41.9856 3.50474 -21.2967 31.1988 5.15387 27.4117C25.9075 24.4397 46.1875 12.9317 67.166 13.6054C85.0439 14.1814 102.673 24.9069 120.319 29.145C139.127 33.6602 157.281 32.6224 175.054 21.1633C195.961 7.67217 214.138 14.7465 234.279 28.982C252.678 41.9787 267.837 56.7739 288.672 49.1562C310.707 41.0985 330.162 17.4632 352.47 11.8994C375.837 6.06931 400.614 35.0185 423 18.4194" stroke="#99A3FF" stroke-width="0.993417" stroke-miterlimit="10"/>
</svg>
