<svg width="341" height="255" viewBox="0 0 341 255" fill="none" xmlns="http://www.w3.org/2000/svg">
<rect x="0.736328" y="78.4006" width="142.088" height="51.0188" rx="11.315" fill="white"/>
<rect opacity="0.5" x="9.44019" y="88.4658" width="31.2357" height="30.8886" rx="4.35191" fill="#5465FF"/>
<path fill-rule="evenodd" clip-rule="evenodd" d="M29.7479 104.239L28.1936 102.846L26.1082 108.312L29.7479 104.239ZM26.036 105.763L27.5287 101.853C27.5287 101.852 27.5292 101.851 27.5297 101.85L27.9088 100.856L26.036 100.14V105.763ZM25.1756 108.019H22.3036L24.8097 108.978L25.1756 108.019ZM24.6433 109.951L21.9632 108.925L23.9607 110.715L24.6433 109.951ZM20.1727 107.053H25.0588V98.3554H20.1727V107.053ZM30.7997 104.521L24.3647 111.721C24.2782 111.818 24.156 111.877 24.0256 111.884C24.0168 111.884 24.0075 111.885 23.9982 111.885C23.8775 111.885 23.7602 111.84 23.6703 111.759L19.3559 107.893C19.3539 107.892 19.3534 107.889 19.351 107.887C19.3486 107.885 19.3451 107.883 19.3432 107.881C19.3144 107.853 19.2958 107.818 19.2743 107.784C19.2635 107.767 19.2479 107.752 19.2396 107.734C19.2386 107.732 19.2372 107.731 19.2367 107.729C19.2259 107.705 19.2254 107.678 19.2191 107.652C19.2181 107.65 19.2176 107.646 19.2166 107.643C19.2098 107.613 19.1976 107.585 19.1966 107.554C19.1961 107.55 19.1966 107.547 19.1966 107.543C19.1966 107.54 19.1951 107.538 19.1951 107.536V97.8723C19.1951 97.6051 19.414 97.3891 19.6837 97.3891H25.5471C25.8173 97.3891 26.0357 97.6051 26.0357 97.8723V99.1035L28.7128 100.128C28.9635 100.223 29.0886 100.501 28.9938 100.749L28.5648 101.874L30.7616 103.843C30.9595 104.021 30.9766 104.323 30.7997 104.521ZM22.127 101.979C22.127 102.113 22.2364 102.221 22.3713 102.221H22.8599C23.5337 102.221 24.0814 102.762 24.0814 103.429C24.0814 104.012 23.6612 104.5 23.1042 104.612V105.12C23.1042 105.387 22.8858 105.603 22.6156 105.603C22.3459 105.603 22.127 105.387 22.127 105.12V104.637H21.6384C21.3686 104.637 21.1497 104.421 21.1497 104.154C21.1497 103.886 21.3686 103.67 21.6384 103.67H22.8604C22.9948 103.67 23.1042 103.562 23.1042 103.429C23.1042 103.296 22.9948 103.187 22.8599 103.187H22.3713C21.698 103.187 21.1497 102.646 21.1497 101.979C21.1497 101.396 21.5704 100.908 22.127 100.796V100.288C22.127 100.021 22.3459 99.8049 22.6156 99.8049C22.8858 99.8049 23.1042 100.021 23.1042 100.288V100.771H23.5928C23.863 100.771 24.0814 100.987 24.0814 101.254C24.0814 101.522 23.863 101.738 23.5928 101.738H22.3713C22.2364 101.738 22.127 101.846 22.127 101.979Z" fill="#1A0003"/>
<path d="M54.4405 98.1045H53.5735V91.4185H51.2123V90.6484H56.8018V91.4185H54.4405V98.1045ZM62.6259 95.3046C62.6259 96.2158 62.3964 96.9281 61.9374 97.4415C61.4784 97.9515 60.8443 98.2065 60.0351 98.2065C59.5353 98.2065 59.0916 98.0892 58.704 97.8546C58.3164 97.62 58.0172 97.2834 57.8065 96.8448C57.5957 96.4062 57.4903 95.8928 57.4903 95.3046C57.4903 94.3934 57.7181 93.6845 58.1736 93.178C58.6292 92.668 59.2616 92.413 60.0708 92.413C60.8528 92.413 61.4733 92.6731 61.9323 93.1933C62.3947 93.7134 62.6259 94.4172 62.6259 95.3046ZM58.3674 95.3046C58.3674 96.0186 58.5102 96.5626 58.7958 96.9366C59.0814 97.3106 59.5013 97.4976 60.0555 97.4976C60.6097 97.4976 61.0296 97.3123 61.3152 96.9417C61.6042 96.5677 61.7487 96.022 61.7487 95.3046C61.7487 94.594 61.6042 94.0551 61.3152 93.6879C61.0296 93.3174 60.6063 93.1321 60.0453 93.1321C59.4911 93.1321 59.0729 93.314 58.7907 93.6777C58.5085 94.0415 58.3674 94.5838 58.3674 95.3046ZM65.9204 97.5078C66.07 97.5078 66.2145 97.4976 66.3539 97.4772C66.4933 97.4534 66.6038 97.4296 66.6854 97.4058V98.0535C66.5936 98.0977 66.4576 98.1334 66.2774 98.1606C66.1006 98.1912 65.9408 98.2065 65.798 98.2065C64.7168 98.2065 64.1762 97.637 64.1762 96.498V93.1729H63.3755V92.7649L64.1762 92.413L64.5332 91.2196H65.0228V92.515H66.6446V93.1729H65.0228V96.4623C65.0228 96.7989 65.1027 97.0573 65.2625 97.2375C65.4223 97.4177 65.6416 97.5078 65.9204 97.5078ZM71.2447 98.1045L71.0764 97.3089H71.0356C70.7568 97.6591 70.478 97.8971 70.1992 98.0229C69.9238 98.1453 69.5787 98.2065 69.1639 98.2065C68.6097 98.2065 68.1745 98.0637 67.8584 97.7781C67.5456 97.4925 67.3892 97.0862 67.3892 96.5592C67.3892 95.4304 68.2918 94.8388 70.0972 94.7844L71.0458 94.7538V94.407C71.0458 93.9684 70.9506 93.6454 70.7602 93.4381C70.5732 93.2273 70.2723 93.1219 69.8575 93.1219C69.3917 93.1219 68.8647 93.2647 68.2765 93.5503L68.0164 92.9026C68.2918 92.753 68.5927 92.6357 68.9191 92.5507C69.2489 92.4657 69.5787 92.4232 69.9085 92.4232C70.5749 92.4232 71.0679 92.5711 71.3875 92.8669C71.7105 93.1627 71.872 93.637 71.872 94.2897V98.1045H71.2447ZM69.3322 97.5078C69.8592 97.5078 70.2723 97.3633 70.5715 97.0743C70.8741 96.7853 71.0254 96.3807 71.0254 95.8605V95.3556L70.1788 95.3913C69.5056 95.4151 69.0194 95.5205 68.7202 95.7075C68.4244 95.8911 68.2765 96.1784 68.2765 96.5694C68.2765 96.8754 68.3683 97.1083 68.5519 97.2681C68.7389 97.4279 68.999 97.5078 69.3322 97.5078ZM74.4678 98.1045H73.6212V90.169H74.4678V98.1045ZM85.6111 98.1045H84.7543L83.2498 93.1117C83.1784 92.8907 83.0986 92.6119 83.0102 92.2753C82.9218 91.9387 82.8759 91.7364 82.8725 91.6684C82.7977 92.1172 82.6787 92.6085 82.5155 93.1423L81.0569 98.1045H80.2001L78.2162 90.6484H79.1342L80.3123 95.2536C80.4755 95.8996 80.5945 96.4844 80.6693 97.008C80.7611 96.3858 80.8971 95.7772 81.0773 95.1822L82.4135 90.6484H83.3314L84.7339 95.223C84.8971 95.75 85.0348 96.345 85.147 97.008C85.2116 96.5252 85.334 95.937 85.5142 95.2434L86.6872 90.6484H87.6052L85.6111 98.1045ZM89.4921 98.1045H88.6455V92.515H89.4921V98.1045ZM88.5741 91.0003C88.5741 90.8065 88.6217 90.6654 88.7169 90.577C88.8121 90.4852 88.9311 90.4393 89.0739 90.4393C89.2099 90.4393 89.3272 90.4852 89.4258 90.577C89.5244 90.6688 89.5737 90.8099 89.5737 91.0003C89.5737 91.1907 89.5244 91.3335 89.4258 91.4287C89.3272 91.5205 89.2099 91.5664 89.0739 91.5664C88.9311 91.5664 88.8121 91.5205 88.7169 91.4287C88.6217 91.3335 88.5741 91.1907 88.5741 91.0003ZM93.0927 97.5078C93.2422 97.5078 93.3867 97.4976 93.5261 97.4772C93.6655 97.4534 93.776 97.4296 93.8576 97.4058V98.0535C93.7658 98.0977 93.6298 98.1334 93.4496 98.1606C93.2728 98.1912 93.1131 98.2065 92.9703 98.2065C91.8891 98.2065 91.3485 97.637 91.3485 96.498V93.1729H90.5478V92.7649L91.3485 92.413L91.7055 91.2196H92.1951V92.515H93.8168V93.1729H92.1951V96.4623C92.1951 96.7989 92.275 97.0573 92.4348 97.2375C92.5946 97.4177 92.8139 97.5078 93.0927 97.5078ZM98.8045 98.1045V94.4886C98.8045 94.033 98.7008 93.693 98.4934 93.4687C98.2861 93.2443 97.9614 93.1321 97.5194 93.1321C96.9312 93.1321 96.5011 93.2919 96.2291 93.6115C95.9605 93.931 95.8262 94.4546 95.8262 95.1822V98.1045H94.9796V90.169H95.8262V92.5711C95.8262 92.8601 95.8126 93.0998 95.7854 93.2902H95.8364C96.003 93.0216 96.2393 92.8108 96.5453 92.6578C96.8547 92.5014 97.2066 92.4232 97.601 92.4232C98.2844 92.4232 98.796 92.5864 99.136 92.9128C99.4794 93.2358 99.6511 93.7508 99.6511 94.458V98.1045H98.8045ZM105.2 97.3548H105.154C104.763 97.9226 104.178 98.2065 103.4 98.2065C102.669 98.2065 102.099 97.9566 101.691 97.4568C101.286 96.957 101.084 96.2464 101.084 95.325C101.084 94.4036 101.288 93.6879 101.696 93.178C102.104 92.668 102.672 92.413 103.4 92.413C104.158 92.413 104.739 92.6884 105.144 93.2392H105.21L105.174 92.8363L105.154 92.4436V90.169H106V98.1045H105.312L105.2 97.3548ZM103.507 97.4976C104.085 97.4976 104.503 97.3412 104.761 97.0284C105.023 96.7122 105.154 96.2039 105.154 95.5035V95.325C105.154 94.5328 105.021 93.9684 104.756 93.6319C104.494 93.2919 104.074 93.1219 103.496 93.1219C103 93.1219 102.619 93.3157 102.354 93.7032C102.092 94.0874 101.961 94.6314 101.961 95.3352C101.961 96.0492 102.092 96.5881 102.354 96.9519C102.616 97.3157 103 97.4976 103.507 97.4976ZM110.351 92.413C110.599 92.413 110.822 92.4334 111.019 92.4742L110.902 93.2596C110.67 93.2086 110.466 93.1831 110.29 93.1831C109.837 93.1831 109.45 93.3667 109.127 93.7338C108.807 94.101 108.647 94.5583 108.647 95.1057V98.1045H107.801V92.515H108.499L108.596 93.5503H108.637C108.845 93.1865 109.094 92.906 109.387 92.7088C109.679 92.5116 110.001 92.413 110.351 92.413ZM115.502 98.1045L115.333 97.3089H115.293C115.014 97.6591 114.735 97.8971 114.456 98.0229C114.181 98.1453 113.836 98.2065 113.421 98.2065C112.867 98.2065 112.431 98.0637 112.115 97.7781C111.802 97.4925 111.646 97.0862 111.646 96.5592C111.646 95.4304 112.549 94.8388 114.354 94.7844L115.303 94.7538V94.407C115.303 93.9684 115.208 93.6454 115.017 93.4381C114.83 93.2273 114.529 93.1219 114.114 93.1219C113.649 93.1219 113.122 93.2647 112.533 93.5503L112.273 92.9026C112.549 92.753 112.85 92.6357 113.176 92.5507C113.506 92.4657 113.836 92.4232 114.165 92.4232C114.832 92.4232 115.325 92.5711 115.644 92.8669C115.967 93.1627 116.129 93.637 116.129 94.2897V98.1045H115.502ZM113.589 97.5078C114.116 97.5078 114.529 97.3633 114.828 97.0743C115.131 96.7853 115.282 96.3807 115.282 95.8605V95.3556L114.436 95.3913C113.763 95.4151 113.276 95.5205 112.977 95.7075C112.681 95.8911 112.533 96.1784 112.533 96.5694C112.533 96.8754 112.625 97.1083 112.809 97.2681C112.996 97.4279 113.256 97.5078 113.589 97.5078ZM122.443 98.1045L121.417 94.8252C121.353 94.6246 121.232 94.169 121.055 93.4585H121.015C120.879 94.0534 120.76 94.5124 120.658 94.8354L119.602 98.1045H118.623L117.098 92.515H117.985C118.346 93.9191 118.619 94.9884 118.806 95.7228C118.997 96.4572 119.106 96.9519 119.133 97.2069H119.174C119.211 97.0131 119.27 96.7632 119.352 96.4572C119.437 96.1478 119.51 95.903 119.571 95.7228L120.596 92.515H121.514L122.514 95.7228C122.704 96.3076 122.834 96.7989 122.902 97.1967H122.942C122.956 97.0743 122.992 96.8856 123.049 96.6306C123.111 96.3756 123.466 95.0037 124.115 92.515H124.993L123.447 98.1045H122.443ZM129.445 98.1045L129.276 97.3089H129.236C128.957 97.6591 128.678 97.8971 128.399 98.0229C128.124 98.1453 127.779 98.2065 127.364 98.2065C126.81 98.2065 126.375 98.0637 126.058 97.7781C125.746 97.4925 125.589 97.0862 125.589 96.5592C125.589 95.4304 126.492 94.8388 128.297 94.7844L129.246 94.7538V94.407C129.246 93.9684 129.151 93.6454 128.96 93.4381C128.773 93.2273 128.472 93.1219 128.058 93.1219C127.592 93.1219 127.065 93.2647 126.477 93.5503L126.216 92.9026C126.492 92.753 126.793 92.6357 127.119 92.5507C127.449 92.4657 127.779 92.4232 128.109 92.4232C128.775 92.4232 129.268 92.5711 129.588 92.8669C129.911 93.1627 130.072 93.637 130.072 94.2897V98.1045H129.445ZM127.532 97.5078C128.059 97.5078 128.472 97.3633 128.772 97.0743C129.074 96.7853 129.225 96.3807 129.225 95.8605V95.3556L128.379 95.3913C127.706 95.4151 127.219 95.5205 126.92 95.7075C126.624 95.8911 126.477 96.1784 126.477 96.5694C126.477 96.8754 126.568 97.1083 126.752 97.2681C126.939 97.4279 127.199 97.5078 127.532 97.5078ZM132.668 98.1045H131.821V90.169H132.668V98.1045Z" fill="#00031A"/>
<path d="M59.9323 116.716H57.588L53.8039 110.135H53.7503C53.8257 111.297 53.8634 112.126 53.8634 112.622V116.716H52.2153V108.017H54.5417L58.3198 114.532H58.3615C58.302 113.401 58.2722 112.602 58.2722 112.134V108.017H59.9323V116.716ZM66.0666 116.716H64.2281V111.682L64.2459 110.855L64.2757 109.951C63.9702 110.256 63.758 110.456 63.639 110.551L62.6395 111.355L61.7529 110.248L64.5553 108.017H66.0666V116.716ZM74.5154 112.366C74.5154 113.885 74.2655 115.01 73.7657 115.74C73.2699 116.47 72.5044 116.835 71.4691 116.835C70.4655 116.835 69.7079 116.458 69.1962 115.704C68.6885 114.95 68.4346 113.838 68.4346 112.366C68.4346 110.831 68.6826 109.701 69.1784 108.975C69.6742 108.245 70.4378 107.88 71.4691 107.88C72.4726 107.88 73.2302 108.261 73.7419 109.022C74.2576 109.784 74.5154 110.899 74.5154 112.366ZM70.2613 112.366C70.2613 113.433 70.3525 114.199 70.535 114.663C70.7214 115.123 71.0328 115.353 71.4691 115.353C71.8975 115.353 72.2069 115.119 72.3973 114.651C72.5877 114.183 72.6829 113.421 72.6829 112.366C72.6829 111.299 72.5857 110.534 72.3913 110.07C72.2009 109.601 71.8935 109.367 71.4691 109.367C71.0367 109.367 70.7273 109.601 70.5409 110.07C70.3545 110.534 70.2613 111.299 70.2613 112.366ZM77.6867 115.436C77.4804 116.238 77.1314 117.188 76.6395 118.286H75.3306C75.5884 117.231 75.7887 116.236 75.9315 115.299H77.5975L77.6867 115.436ZM82.1432 111.158C82.9841 111.158 83.6525 111.394 84.1483 111.866C84.6481 112.338 84.898 112.985 84.898 113.806C84.898 114.778 84.5985 115.526 83.9995 116.049C83.4006 116.573 82.5438 116.835 81.4292 116.835C80.4613 116.835 79.6799 116.678 79.0849 116.365V114.776C79.3983 114.942 79.7632 115.079 80.1797 115.186C80.5962 115.29 80.9909 115.341 81.3637 115.341C82.4863 115.341 83.0476 114.881 83.0476 113.961C83.0476 113.084 82.4664 112.646 81.3042 112.646C81.094 112.646 80.862 112.668 80.6081 112.711C80.3542 112.751 80.148 112.795 79.9893 112.842L79.2575 112.449L79.5847 108.017H84.303V109.576H81.1971L81.0365 111.283L81.2447 111.242C81.4867 111.186 81.7862 111.158 82.1432 111.158ZM91.9843 111.73C91.9843 113.443 91.6233 114.722 90.9014 115.567C90.1795 116.412 89.0867 116.835 87.623 116.835C87.1074 116.835 86.7166 116.807 86.4509 116.751V115.276C86.7841 115.359 87.1331 115.401 87.4981 115.401C88.1129 115.401 88.6186 115.311 89.0153 115.133C89.4119 114.95 89.7154 114.667 89.9256 114.282C90.1358 113.893 90.2568 113.36 90.2886 112.682H90.2172C89.9871 113.054 89.7213 113.316 89.4199 113.467C89.1184 113.618 88.7416 113.693 88.2894 113.693C87.5318 113.693 86.9348 113.451 86.4985 112.967C86.0622 112.479 85.844 111.803 85.844 110.938C85.844 110.006 86.1078 109.27 86.6353 108.731C87.1669 108.187 87.8888 107.916 88.8011 107.916C89.4437 107.916 90.0049 108.066 90.4849 108.368C90.9688 108.669 91.3397 109.108 91.5975 109.683C91.8554 110.254 91.9843 110.936 91.9843 111.73ZM88.8368 109.391C88.456 109.391 88.1585 109.522 87.9443 109.784C87.7301 110.046 87.623 110.423 87.623 110.914C87.623 111.335 87.7202 111.668 87.9146 111.914C88.1089 112.16 88.4044 112.283 88.8011 112.283C89.1739 112.283 89.4933 112.162 89.759 111.92C90.0248 111.674 90.1577 111.392 90.1577 111.075C90.1577 110.603 90.0327 110.204 89.7828 109.879C89.5369 109.554 89.2215 109.391 88.8368 109.391ZM92.8411 113.021C92.8411 111.299 93.204 110.018 93.9299 109.177C94.6597 108.336 95.7506 107.916 97.2023 107.916C97.6981 107.916 98.0869 107.945 98.3685 108.005V109.475C98.0155 109.395 97.6664 109.356 97.3213 109.356C96.6906 109.356 96.175 109.451 95.7743 109.641C95.3777 109.832 95.0802 110.113 94.8819 110.486C94.6835 110.859 94.5665 111.388 94.5308 112.075H94.6082C95.0009 111.4 95.6296 111.063 96.4943 111.063C97.2717 111.063 97.8806 111.307 98.3209 111.795C98.7612 112.283 98.9813 112.957 98.9813 113.818C98.9813 114.746 98.7195 115.482 98.196 116.025C97.6724 116.565 96.9465 116.835 96.0183 116.835C95.3757 116.835 94.8144 116.686 94.3345 116.388C93.8585 116.091 93.4896 115.656 93.2278 115.085C92.97 114.514 92.8411 113.826 92.8411 113.021ZM95.9826 115.365C96.3753 115.365 96.6767 115.234 96.887 114.972C97.0972 114.706 97.2023 114.33 97.2023 113.842C97.2023 113.417 97.1032 113.084 96.9048 112.842C96.7105 112.596 96.415 112.473 96.0183 112.473C95.6454 112.473 95.3261 112.594 95.0604 112.836C94.7986 113.078 94.6677 113.36 94.6677 113.681C94.6677 114.153 94.7906 114.552 95.0366 114.877C95.2865 115.202 95.6018 115.365 95.9826 115.365ZM100.07 115.865C100.07 115.532 100.159 115.28 100.338 115.109C100.516 114.939 100.776 114.853 101.117 114.853C101.447 114.853 101.7 114.94 101.879 115.115C102.061 115.29 102.153 115.539 102.153 115.865C102.153 116.178 102.061 116.426 101.879 116.608C101.696 116.787 101.443 116.876 101.117 116.876C100.784 116.876 100.526 116.789 100.344 116.614C100.161 116.436 100.07 116.186 100.07 115.865ZM106.335 107.904C107.168 107.904 107.839 108.094 108.346 108.475C108.858 108.852 109.114 109.361 109.114 110.004C109.114 110.448 108.991 110.845 108.745 111.194C108.499 111.539 108.103 111.849 107.555 112.122C108.206 112.471 108.672 112.836 108.953 113.217C109.239 113.594 109.382 114.008 109.382 114.461C109.382 115.175 109.102 115.75 108.543 116.186C107.984 116.618 107.248 116.835 106.335 116.835C105.383 116.835 104.636 116.632 104.092 116.228C103.549 115.823 103.277 115.25 103.277 114.508C103.277 114.012 103.408 113.572 103.67 113.187C103.936 112.803 104.36 112.463 104.943 112.17C104.447 111.856 104.09 111.521 103.872 111.164C103.654 110.807 103.545 110.417 103.545 109.992C103.545 109.369 103.803 108.866 104.318 108.481C104.834 108.096 105.506 107.904 106.335 107.904ZM104.979 114.401C104.979 114.742 105.098 115.008 105.336 115.198C105.574 115.389 105.899 115.484 106.312 115.484C106.768 115.484 107.109 115.387 107.335 115.192C107.561 114.994 107.674 114.734 107.674 114.413C107.674 114.147 107.561 113.899 107.335 113.669C107.113 113.435 106.75 113.187 106.246 112.925C105.401 113.314 104.979 113.806 104.979 114.401ZM106.323 109.248C106.01 109.248 105.756 109.33 105.562 109.492C105.372 109.651 105.276 109.865 105.276 110.135C105.276 110.373 105.352 110.587 105.502 110.778C105.657 110.964 105.935 111.156 106.335 111.355C106.724 111.172 106.996 110.986 107.151 110.795C107.305 110.605 107.383 110.385 107.383 110.135C107.383 109.861 107.283 109.645 107.085 109.486C106.887 109.328 106.633 109.248 106.323 109.248ZM116.331 112.366C116.331 113.885 116.081 115.01 115.582 115.74C115.086 116.47 114.32 116.835 113.285 116.835C112.281 116.835 111.524 116.458 111.012 115.704C110.504 114.95 110.25 113.838 110.25 112.366C110.25 110.831 110.498 109.701 110.994 108.975C111.49 108.245 112.254 107.88 113.285 107.88C114.288 107.88 115.046 108.261 115.558 109.022C116.073 109.784 116.331 110.899 116.331 112.366ZM112.077 112.366C112.077 113.433 112.168 114.199 112.351 114.663C112.537 115.123 112.849 115.353 113.285 115.353C113.713 115.353 114.023 115.119 114.213 114.651C114.403 114.183 114.499 113.421 114.499 112.366C114.499 111.299 114.401 110.534 114.207 110.07C114.017 109.601 113.709 109.367 113.285 109.367C112.852 109.367 112.543 109.601 112.357 110.07C112.17 110.534 112.077 111.299 112.077 112.366Z" fill="#00031A"/>
<line x1="71.9235" y1="129.417" x2="72.6371" y2="253.077" stroke="#99A3FF"/>
<rect x="108.995" y="0.374023" width="135.115" height="56.0606" rx="12.4691" fill="white"/>
<rect opacity="0.5" x="118.587" y="11.3848" width="34.4216" height="34.0391" rx="4.79579" fill="#A3FF99"/>
<path fill-rule="evenodd" clip-rule="evenodd" d="M140.965 28.7668L139.252 27.2318L136.954 33.255L140.965 28.7668ZM136.875 30.4466L138.52 26.1374C138.52 26.1363 138.52 26.1353 138.521 26.1342L138.939 25.0395L136.875 24.2498V30.4466ZM135.926 32.9329H132.761L135.523 33.9899L135.926 32.9329ZM135.34 35.0616L132.386 33.9312L134.588 35.9034L135.34 35.0616ZM130.413 31.8677H135.798V22.2833H130.413V31.8677ZM142.124 29.0778L135.033 37.0126C134.938 37.1196 134.803 37.184 134.659 37.1915C134.65 37.192 134.639 37.1925 134.629 37.1925C134.496 37.1925 134.367 37.1435 134.268 37.0546L129.513 32.7938C129.511 32.7922 129.511 32.7896 129.508 32.7874C129.505 32.7848 129.501 32.7832 129.499 32.7805C129.468 32.7496 129.447 32.7113 129.423 32.674C129.412 32.6549 129.394 32.6383 129.385 32.6186C129.384 32.616 129.382 32.6149 129.382 32.6128C129.37 32.5867 129.37 32.5563 129.363 32.5287C129.361 32.5255 129.361 32.5217 129.36 32.518C129.352 32.485 129.339 32.4541 129.338 32.4206C129.337 32.4163 129.338 32.4121 129.338 32.4078C129.338 32.4051 129.336 32.403 129.336 32.4003V21.751C129.336 21.4566 129.577 21.2186 129.875 21.2186H136.336C136.634 21.2186 136.874 21.4566 136.874 21.751V23.1078L139.825 24.2366C140.101 24.342 140.239 24.6482 140.134 24.9213L139.661 26.1604L142.082 28.3307C142.3 28.5267 142.319 28.8594 142.124 29.0778ZM132.567 26.2769C132.567 26.4239 132.688 26.5432 132.836 26.5432H133.375C134.117 26.5432 134.721 27.1401 134.721 27.8743C134.721 28.5175 134.258 29.0548 133.644 29.1783V29.738C133.644 30.0324 133.403 30.2704 133.105 30.2704C132.808 30.2704 132.567 30.0324 132.567 29.738V29.2055H132.029C131.731 29.2055 131.49 28.9675 131.49 28.673C131.49 28.3786 131.731 28.1406 132.029 28.1406H133.375C133.523 28.1406 133.644 28.0213 133.644 27.8743C133.644 27.7279 133.523 27.6081 133.375 27.6081H132.836C132.094 27.6081 131.49 27.0112 131.49 26.2769C131.49 25.6337 131.954 25.0965 132.567 24.9729V24.4133C132.567 24.1189 132.808 23.8808 133.105 23.8808C133.403 23.8808 133.644 24.1189 133.644 24.4133V24.9458H134.182C134.48 24.9458 134.721 25.1838 134.721 25.4782C134.721 25.7727 134.48 26.0107 134.182 26.0107H132.836C132.688 26.0107 132.567 26.1305 132.567 26.2769Z" fill="#1A0003"/>
<path d="M168.177 21.9656H167.221V14.5977H164.619V13.7491H170.779V14.5977H168.177V21.9656ZM177.197 18.8802C177.197 19.8843 176.944 20.6692 176.438 21.235C175.933 21.797 175.234 22.078 174.342 22.078C173.791 22.078 173.302 21.9487 172.875 21.6902C172.448 21.4317 172.118 21.0608 171.886 20.5775C171.654 20.0941 171.538 19.5284 171.538 18.8802C171.538 17.8761 171.789 17.0949 172.291 16.5366C172.793 15.9746 173.49 15.6936 174.381 15.6936C175.243 15.6936 175.927 15.9802 176.433 16.5535C176.942 17.1267 177.197 17.9023 177.197 18.8802ZM172.504 18.8802C172.504 19.667 172.662 20.2665 172.976 20.6786C173.291 21.0907 173.754 21.2968 174.365 21.2968C174.975 21.2968 175.438 21.0926 175.753 20.6842C176.071 20.2721 176.23 19.6707 176.23 18.8802C176.23 18.0971 176.071 17.5033 175.753 17.0986C175.438 16.6902 174.972 16.486 174.353 16.486C173.743 16.486 173.282 16.6865 172.971 17.0874C172.66 17.4883 172.504 18.0859 172.504 18.8802ZM180.828 21.3081C180.992 21.3081 181.152 21.2968 181.305 21.2743C181.459 21.2481 181.581 21.2219 181.671 21.1957V21.9094C181.569 21.9581 181.42 21.9975 181.221 22.0274C181.026 22.0611 180.85 22.078 180.693 22.078C179.501 22.078 178.906 21.4504 178.906 20.1953V16.531H178.023V16.0814L178.906 15.6936L179.299 14.3785H179.838V15.806H181.626V16.531H179.838V20.1559C179.838 20.5269 179.927 20.8116 180.103 21.0102C180.279 21.2088 180.52 21.3081 180.828 21.3081ZM186.695 21.9656L186.51 21.0889H186.465C186.157 21.4748 185.85 21.7371 185.543 21.8757C185.239 22.0106 184.859 22.078 184.402 22.078C183.791 22.078 183.312 21.9206 182.963 21.6059C182.619 21.2912 182.446 20.8435 182.446 20.2627C182.446 19.0188 183.441 18.3669 185.43 18.3069L186.476 18.2732V17.8911C186.476 17.4077 186.371 17.0518 186.161 16.8232C185.955 16.591 185.623 16.4748 185.166 16.4748C184.653 16.4748 184.072 16.6322 183.424 16.9469L183.137 16.2331C183.441 16.0683 183.773 15.939 184.132 15.8454C184.496 15.7517 184.859 15.7049 185.223 15.7049C185.957 15.7049 186.5 15.8678 186.852 16.1938C187.208 16.5198 187.386 17.0424 187.386 17.7618V21.9656H186.695ZM184.587 21.3081C185.168 21.3081 185.623 21.1488 185.953 20.8304C186.287 20.5119 186.453 20.066 186.453 19.4928V18.9364L185.52 18.9757C184.779 19.002 184.243 19.1181 183.913 19.3242C183.587 19.5265 183.424 19.8431 183.424 20.274C183.424 20.6112 183.525 20.8678 183.728 21.0439C183.934 21.22 184.22 21.3081 184.587 21.3081ZM190.247 21.9656H189.314V13.2208H190.247V21.9656ZM199.408 21.1395H199.357C198.926 21.7652 198.282 22.078 197.424 22.078C196.618 22.078 195.991 21.8026 195.541 21.2519C195.095 20.7011 194.872 19.918 194.872 18.9027C194.872 17.8873 195.097 17.0986 195.547 16.5366C195.996 15.9746 196.622 15.6936 197.424 15.6936C198.259 15.6936 198.9 15.9971 199.346 16.6041H199.419L199.379 16.1601L199.357 15.7273V13.2208H200.29V21.9656H199.531L199.408 21.1395ZM197.542 21.2968C198.179 21.2968 198.639 21.1245 198.924 20.7798C199.213 20.4313 199.357 19.8712 199.357 19.0994V18.9027C199.357 18.0297 199.211 17.4077 198.919 17.0368C198.63 16.6621 198.167 16.4748 197.53 16.4748C196.983 16.4748 196.564 16.6884 196.272 17.1155C195.983 17.5389 195.839 18.1383 195.839 18.9139C195.839 19.7007 195.983 20.2946 196.272 20.6955C196.56 21.0964 196.983 21.2968 197.542 21.2968ZM204.876 22.078C203.965 22.078 203.246 21.8008 202.718 21.2462C202.193 20.6917 201.931 19.9218 201.931 18.9364C201.931 17.9435 202.174 17.1548 202.662 16.5703C203.152 15.9859 203.81 15.6936 204.634 15.6936C205.406 15.6936 206.017 15.9484 206.466 16.4579C206.916 16.9637 207.141 17.6325 207.141 18.4643V19.0544H202.898C202.916 19.7775 203.098 20.3264 203.443 20.7011C203.791 21.0758 204.28 21.2631 204.91 21.2631C205.573 21.2631 206.228 21.1245 206.877 20.8472V21.679C206.547 21.8214 206.234 21.9225 205.938 21.9825C205.646 22.0462 205.292 22.078 204.876 22.078ZM204.623 16.4748C204.128 16.4748 203.733 16.6359 203.437 16.9581C203.145 17.2803 202.973 17.7262 202.92 18.2957H206.14C206.14 17.7075 206.009 17.2579 205.747 16.9469C205.485 16.6322 205.11 16.4748 204.623 16.4748ZM211.603 22.078C211.202 22.078 210.835 22.0049 210.502 21.8588C210.172 21.709 209.895 21.4804 209.67 21.1732H209.602C209.647 21.5329 209.67 21.8738 209.67 22.196V24.7307H208.737V15.806H209.496L209.625 16.649H209.67C209.91 16.3118 210.189 16.0683 210.507 15.9184C210.826 15.7685 211.191 15.6936 211.603 15.6936C212.42 15.6936 213.049 15.9727 213.491 16.531C213.937 17.0893 214.16 17.8723 214.16 18.8802C214.16 19.8918 213.934 20.6786 213.48 21.2406C213.031 21.7989 212.405 22.078 211.603 22.078ZM211.468 16.486C210.839 16.486 210.384 16.6603 210.103 17.0087C209.822 17.3572 209.677 17.9117 209.67 18.6722V18.8802C209.67 19.7457 209.814 20.3658 210.103 20.7404C210.391 21.1114 210.854 21.2968 211.491 21.2968C212.023 21.2968 212.439 21.0814 212.738 20.6505C213.042 20.2196 213.194 19.6258 213.194 18.869C213.194 18.1009 213.042 17.5126 212.738 17.1043C212.439 16.6921 212.015 16.486 211.468 16.486ZM221.112 18.8802C221.112 19.8843 220.859 20.6692 220.354 21.235C219.848 21.797 219.149 22.078 218.257 22.078C217.706 22.078 217.218 21.9487 216.79 21.6902C216.363 21.4317 216.034 21.0608 215.801 20.5775C215.569 20.0941 215.453 19.5284 215.453 18.8802C215.453 17.8761 215.704 17.0949 216.206 16.5366C216.708 15.9746 217.405 15.6936 218.297 15.6936C219.158 15.6936 219.842 15.9802 220.348 16.5535C220.857 17.1267 221.112 17.9023 221.112 18.8802ZM216.419 18.8802C216.419 19.667 216.577 20.2665 216.892 20.6786C217.206 21.0907 217.669 21.2968 218.28 21.2968C218.89 21.2968 219.353 21.0926 219.668 20.6842C219.986 20.2721 220.146 19.6707 220.146 18.8802C220.146 18.0971 219.986 17.5033 219.668 17.0986C219.353 16.6902 218.887 16.486 218.268 16.486C217.658 16.486 217.197 16.6865 216.886 17.0874C216.575 17.4883 216.419 18.0859 216.419 18.8802ZM226.727 20.2852C226.727 20.8585 226.513 21.3006 226.086 21.6115C225.659 21.9225 225.059 22.078 224.288 22.078C223.471 22.078 222.834 21.9487 222.377 21.6902V20.8247C222.673 20.9746 222.989 21.0926 223.327 21.1788C223.668 21.265 223.995 21.3081 224.31 21.3081C224.797 21.3081 225.172 21.2313 225.434 21.0776C225.696 20.9203 225.827 20.6824 225.827 20.3639C225.827 20.1241 225.723 19.9199 225.513 19.7513C225.307 19.579 224.902 19.3766 224.299 19.1443C223.726 18.9308 223.317 18.7453 223.074 18.5879C222.834 18.4268 222.654 18.2451 222.534 18.0428C222.418 17.8405 222.36 17.5988 222.36 17.3178C222.36 16.8158 222.564 16.4205 222.972 16.132C223.381 15.8397 223.941 15.6936 224.653 15.6936C225.316 15.6936 225.964 15.8285 226.597 16.0983L226.266 16.857C225.648 16.6022 225.088 16.4748 224.585 16.4748C224.143 16.4748 223.81 16.5441 223.585 16.6827C223.36 16.8214 223.248 17.0125 223.248 17.256C223.248 17.4208 223.289 17.5613 223.372 17.6775C223.458 17.7936 223.594 17.9042 223.782 18.0091C223.969 18.114 224.329 18.2657 224.861 18.4643C225.591 18.7303 226.084 18.9982 226.339 19.268C226.597 19.5377 226.727 19.8768 226.727 20.2852ZM229.183 21.9656H228.25V15.806H229.183V21.9656ZM228.171 14.1369C228.171 13.9233 228.223 13.7678 228.328 13.6704C228.433 13.5692 228.564 13.5186 228.722 13.5186C228.872 13.5186 229.001 13.5692 229.11 13.6704C229.218 13.7716 229.273 13.927 229.273 14.1369C229.273 14.3467 229.218 14.504 229.11 14.6089C229.001 14.7101 228.872 14.7607 228.722 14.7607C228.564 14.7607 228.433 14.7101 228.328 14.6089C228.223 14.504 228.171 14.3467 228.171 14.1369ZM233.15 21.3081C233.315 21.3081 233.475 21.2968 233.628 21.2743C233.782 21.2481 233.904 21.2219 233.993 21.1957V21.9094C233.892 21.9581 233.742 21.9975 233.544 22.0274C233.349 22.0611 233.173 22.078 233.016 22.078C231.824 22.078 231.228 21.4504 231.228 20.1953V16.531H230.346V16.0814L231.228 15.6936L231.622 14.3785H232.161V15.806H233.948V16.531H232.161V20.1559C232.161 20.5269 232.249 20.8116 232.425 21.0102C232.602 21.2088 232.843 21.3081 233.15 21.3081Z" fill="#00031A"/>
<path d="M171.678 39.8466C171.678 40.5417 171.427 41.1012 170.924 41.5252C170.421 41.9448 169.718 42.1961 168.813 42.2792V43.6233H167.915V42.3054C166.848 42.2836 165.913 42.0956 165.108 41.7415V40.0106C165.489 40.1985 165.945 40.3646 166.479 40.5089C167.016 40.6531 167.495 40.7384 167.915 40.7646V38.732L167.475 38.5615C166.61 38.2206 165.996 37.8512 165.633 37.4534C165.274 37.0513 165.095 36.5552 165.095 35.9651C165.095 35.3312 165.342 34.8111 165.836 34.4046C166.334 33.9937 167.027 33.7445 167.915 33.6571V32.6539H168.813V33.6309C169.814 33.6746 170.719 33.8756 171.527 34.2341L170.911 35.7684C170.229 35.4886 169.53 35.3181 168.813 35.2569V37.1912C169.665 37.519 170.271 37.8031 170.629 38.0435C170.992 38.284 171.256 38.5484 171.422 38.8369C171.593 39.1254 171.678 39.462 171.678 39.8466ZM169.705 39.945C169.705 39.7614 169.63 39.6062 169.482 39.4795C169.333 39.3527 169.11 39.2216 168.813 39.0861V40.7187C169.407 40.6182 169.705 40.3603 169.705 39.945ZM167.069 35.9651C167.069 36.1574 167.134 36.3169 167.265 36.4437C167.401 36.5661 167.617 36.6929 167.915 36.824V35.2832C167.351 35.3662 167.069 35.5935 167.069 35.9651ZM176.215 36.7191C177.142 36.7191 177.879 36.9792 178.425 37.4993C178.976 38.0195 179.251 38.732 179.251 39.6368C179.251 40.7078 178.921 41.5317 178.261 42.1087C177.601 42.6857 176.657 42.9742 175.429 42.9742C174.362 42.9742 173.501 42.8016 172.845 42.4562V40.7056C173.191 40.8892 173.593 41.04 174.052 41.158C174.511 41.2716 174.946 41.3285 175.356 41.3285C176.594 41.3285 177.212 40.8214 177.212 39.8073C177.212 38.8413 176.572 38.3583 175.291 38.3583C175.059 38.3583 174.804 38.3823 174.524 38.4304C174.244 38.4741 174.017 38.5222 173.842 38.5746L173.035 38.1419L173.396 33.2571H178.596V34.975H175.173L174.996 36.8568L175.225 36.8109C175.492 36.7497 175.822 36.7191 176.215 36.7191ZM187.047 38.0501C187.047 39.7243 186.772 40.9635 186.221 41.7678C185.675 42.5721 184.831 42.9742 183.69 42.9742C182.584 42.9742 181.749 42.559 181.185 41.7284C180.626 40.8979 180.346 39.6718 180.346 38.0501C180.346 36.3585 180.619 35.1127 181.166 34.3128C181.712 33.5085 182.554 33.1063 183.69 33.1063C184.796 33.1063 185.631 33.5259 186.195 34.3652C186.763 35.2045 187.047 36.4328 187.047 38.0501ZM182.359 38.0501C182.359 39.2259 182.46 40.0696 182.661 40.581C182.866 41.0881 183.209 41.3416 183.69 41.3416C184.162 41.3416 184.503 41.0837 184.713 40.5679C184.923 40.0521 185.028 39.2128 185.028 38.0501C185.028 36.8743 184.921 36.0306 184.706 35.5192C184.497 35.0034 184.158 34.7455 183.69 34.7455C183.214 34.7455 182.873 35.0034 182.667 35.5192C182.462 36.0306 182.359 36.8743 182.359 38.0501ZM194.719 38.0501C194.719 39.7243 194.443 40.9635 193.892 41.7678C193.346 42.5721 192.502 42.9742 191.361 42.9742C190.256 42.9742 189.421 42.559 188.857 41.7284C188.297 40.8979 188.018 39.6718 188.018 38.0501C188.018 36.3585 188.291 35.1127 188.837 34.3128C189.384 33.5085 190.225 33.1063 191.361 33.1063C192.467 33.1063 193.302 33.5259 193.866 34.3652C194.434 35.2045 194.719 36.4328 194.719 38.0501ZM190.03 38.0501C190.03 39.2259 190.131 40.0696 190.332 40.581C190.538 41.0881 190.881 41.3416 191.361 41.3416C191.834 41.3416 192.175 41.0837 192.384 40.5679C192.594 40.0521 192.699 39.2128 192.699 38.0501C192.699 36.8743 192.592 36.0306 192.378 35.5192C192.168 35.0034 191.829 34.7455 191.361 34.7455C190.885 34.7455 190.544 35.0034 190.339 35.5192C190.133 36.0306 190.03 36.8743 190.03 38.0501Z" fill="#00031A"/>
<line x1="177.053" y1="56.4347" x2="177.052" y2="253.275" stroke="#99A3FF"/>
<rect x="219.806" y="109.04" width="121.075" height="49.6757" rx="11.1211" fill="white"/>
<rect opacity="0.5" x="228.36" y="118.698" width="30.7004" height="30.3592" rx="4.27733" fill="#FF99A3"/>
<path fill-rule="evenodd" clip-rule="evenodd" d="M248.319 134.201L246.791 132.832L244.742 138.204L248.319 134.201ZM244.671 135.699L246.138 131.855C246.138 131.854 246.139 131.854 246.139 131.853L246.512 130.876L244.671 130.172V135.699ZM243.825 137.916H241.002L243.466 138.859L243.825 137.916ZM243.302 139.815L240.668 138.807L242.631 140.566L243.302 139.815ZM238.908 136.966H243.711V128.418H238.908V136.966ZM249.353 134.478L243.028 141.555C242.943 141.65 242.823 141.708 242.695 141.714C242.686 141.715 242.677 141.715 242.668 141.715C242.549 141.715 242.434 141.672 242.346 141.592L238.105 137.792C238.103 137.791 238.103 137.788 238.1 137.786C238.098 137.784 238.095 137.783 238.093 137.78C238.064 137.753 238.046 137.719 238.025 137.685C238.014 137.668 237.999 137.654 237.991 137.636C237.99 137.634 237.989 137.633 237.988 137.631C237.978 137.607 237.977 137.58 237.971 137.556C237.97 137.553 237.969 137.55 237.968 137.546C237.962 137.517 237.95 137.489 237.949 137.459C237.948 137.455 237.949 137.452 237.949 137.448C237.949 137.446 237.947 137.444 237.947 137.441V127.943C237.947 127.681 238.162 127.468 238.428 127.468H244.19C244.456 127.468 244.671 127.681 244.671 127.943V129.153L247.302 130.16C247.548 130.254 247.671 130.527 247.578 130.771L247.156 131.876L249.316 133.812C249.51 133.986 249.527 134.283 249.353 134.478ZM240.829 131.98C240.829 132.111 240.936 132.217 241.069 132.217H241.549C242.211 132.217 242.75 132.75 242.75 133.405C242.75 133.978 242.337 134.457 241.789 134.568V135.067C241.789 135.329 241.574 135.542 241.309 135.542C241.044 135.542 240.829 135.329 240.829 135.067V134.592H240.348C240.083 134.592 239.868 134.38 239.868 134.117C239.868 133.854 240.083 133.642 240.348 133.642H241.549C241.682 133.642 241.789 133.536 241.789 133.405C241.789 133.274 241.682 133.167 241.549 133.167H241.069C240.407 133.167 239.868 132.635 239.868 131.98C239.868 131.406 240.282 130.927 240.829 130.817V130.318C240.829 130.055 241.044 129.843 241.309 129.843C241.574 129.843 241.789 130.055 241.789 130.318V130.793H242.269C242.535 130.793 242.75 131.005 242.75 131.268C242.75 131.53 242.535 131.742 242.269 131.742H241.069C240.936 131.742 240.829 131.849 240.829 131.98Z" fill="#1A0003"/>
<path d="M272.59 128.594H271.737V122.023H269.417V121.266H274.91V122.023H272.59V128.594ZM280.635 125.843C280.635 126.738 280.409 127.438 279.958 127.943C279.507 128.444 278.884 128.695 278.088 128.695C277.597 128.695 277.161 128.579 276.78 128.349C276.399 128.118 276.105 127.787 275.898 127.356C275.691 126.925 275.587 126.421 275.587 125.843C275.587 124.947 275.811 124.25 276.259 123.752C276.706 123.251 277.328 123.001 278.123 123.001C278.892 123.001 279.502 123.256 279.953 123.767C280.407 124.279 280.635 124.97 280.635 125.843ZM276.449 125.843C276.449 126.544 276.59 127.079 276.87 127.447C277.151 127.814 277.564 127.998 278.108 127.998C278.653 127.998 279.066 127.816 279.346 127.452C279.63 127.084 279.772 126.548 279.772 125.843C279.772 125.144 279.63 124.615 279.346 124.254C279.066 123.889 278.65 123.707 278.098 123.707C277.554 123.707 277.143 123.886 276.865 124.244C276.588 124.601 276.449 125.134 276.449 125.843ZM283.873 128.008C284.02 128.008 284.162 127.998 284.299 127.978C284.436 127.955 284.544 127.931 284.625 127.908V128.544C284.534 128.588 284.401 128.623 284.224 128.65C284.05 128.68 283.893 128.695 283.752 128.695C282.69 128.695 282.158 128.135 282.158 127.016V123.747H281.371V123.346L282.158 123.001L282.509 121.828H282.99V123.101H284.584V123.747H282.99V126.98C282.99 127.311 283.069 127.565 283.226 127.742C283.383 127.919 283.599 128.008 283.873 128.008ZM289.106 128.594L288.94 127.813H288.9C288.626 128.157 288.352 128.391 288.078 128.514C287.808 128.635 287.468 128.695 287.061 128.695C286.516 128.695 286.088 128.554 285.777 128.274C285.47 127.993 285.316 127.594 285.316 127.076C285.316 125.966 286.204 125.385 287.978 125.331L288.91 125.301V124.96C288.91 124.529 288.817 124.212 288.63 124.008C288.446 123.801 288.15 123.697 287.742 123.697C287.285 123.697 286.767 123.838 286.188 124.118L285.933 123.482C286.204 123.335 286.499 123.219 286.82 123.136C287.144 123.052 287.468 123.011 287.792 123.011C288.447 123.011 288.932 123.156 289.246 123.447C289.564 123.737 289.722 124.204 289.722 124.845V128.594H289.106ZM287.226 128.008C287.744 128.008 288.15 127.866 288.444 127.582C288.742 127.298 288.89 126.9 288.89 126.389V125.893L288.058 125.928C287.396 125.951 286.919 126.055 286.625 126.239C286.334 126.419 286.188 126.701 286.188 127.086C286.188 127.386 286.279 127.615 286.459 127.772C286.643 127.929 286.899 128.008 287.226 128.008ZM292.274 128.594H291.442V120.795H292.274V128.594ZM300.444 127.858H300.399C300.015 128.416 299.44 128.695 298.675 128.695C297.956 128.695 297.396 128.449 296.995 127.958C296.598 127.467 296.399 126.768 296.399 125.863C296.399 124.957 296.599 124.254 297 123.752C297.401 123.251 297.959 123.001 298.675 123.001C299.42 123.001 299.991 123.271 300.389 123.813H300.454L300.419 123.417L300.399 123.031V120.795H301.231V128.594H300.554L300.444 127.858ZM298.78 127.998C299.348 127.998 299.759 127.844 300.013 127.537C300.27 127.226 300.399 126.726 300.399 126.038V125.863C300.399 125.084 300.269 124.529 300.008 124.198C299.751 123.864 299.338 123.697 298.77 123.697C298.282 123.697 297.908 123.888 297.647 124.269C297.39 124.646 297.261 125.181 297.261 125.873C297.261 126.574 297.39 127.104 297.647 127.462C297.904 127.819 298.282 127.998 298.78 127.998ZM305.321 128.695C304.509 128.695 303.868 128.447 303.396 127.953C302.929 127.458 302.695 126.772 302.695 125.893C302.695 125.007 302.912 124.304 303.346 123.782C303.784 123.261 304.37 123.001 305.106 123.001C305.794 123.001 306.339 123.228 306.74 123.682C307.141 124.133 307.341 124.73 307.341 125.472V125.998H303.557C303.573 126.643 303.736 127.132 304.043 127.467C304.354 127.801 304.79 127.968 305.351 127.968C305.943 127.968 306.528 127.844 307.106 127.597V128.339C306.812 128.466 306.533 128.556 306.269 128.609C306.008 128.666 305.692 128.695 305.321 128.695ZM305.096 123.697C304.655 123.697 304.302 123.841 304.038 124.128C303.777 124.416 303.624 124.813 303.577 125.321H306.449C306.449 124.797 306.332 124.396 306.098 124.118C305.864 123.838 305.53 123.697 305.096 123.697ZM311.321 128.695C310.964 128.695 310.636 128.63 310.339 128.499C310.045 128.366 309.797 128.162 309.597 127.888H309.537C309.577 128.208 309.597 128.513 309.597 128.8V131.061H308.765V123.101H309.441L309.557 123.853H309.597C309.811 123.552 310.06 123.335 310.344 123.201C310.628 123.067 310.954 123.001 311.321 123.001C312.05 123.001 312.611 123.249 313.005 123.747C313.403 124.245 313.602 124.944 313.602 125.843C313.602 126.745 313.4 127.447 312.995 127.948C312.594 128.446 312.036 128.695 311.321 128.695ZM311.201 123.707C310.639 123.707 310.233 123.863 309.983 124.173C309.732 124.484 309.604 124.979 309.597 125.657V125.843C309.597 126.615 309.726 127.168 309.983 127.502C310.24 127.833 310.653 127.998 311.221 127.998C311.695 127.998 312.066 127.806 312.334 127.422C312.604 127.037 312.74 126.508 312.74 125.833C312.74 125.148 312.604 124.623 312.334 124.259C312.066 123.891 311.689 123.707 311.201 123.707ZM319.802 125.843C319.802 126.738 319.577 127.438 319.126 127.943C318.674 128.444 318.051 128.695 317.256 128.695C316.765 128.695 316.329 128.579 315.948 128.349C315.567 128.118 315.273 127.787 315.065 127.356C314.858 126.925 314.755 126.421 314.755 125.843C314.755 124.947 314.979 124.25 315.426 123.752C315.874 123.251 316.496 123.001 317.291 123.001C318.06 123.001 318.669 123.256 319.121 123.767C319.575 124.279 319.802 124.97 319.802 125.843ZM315.617 125.843C315.617 126.544 315.757 127.079 316.038 127.447C316.319 127.814 316.731 127.998 317.276 127.998C317.821 127.998 318.233 127.816 318.514 127.452C318.798 127.084 318.94 126.548 318.94 125.843C318.94 125.144 318.798 124.615 318.514 124.254C318.233 123.889 317.817 123.707 317.266 123.707C316.721 123.707 316.31 123.886 316.033 124.244C315.756 124.601 315.617 125.134 315.617 125.843ZM324.81 127.096C324.81 127.607 324.619 128.001 324.238 128.279C323.857 128.556 323.323 128.695 322.634 128.695C321.906 128.695 321.338 128.579 320.93 128.349V127.577C321.194 127.711 321.476 127.816 321.777 127.893C322.081 127.97 322.374 128.008 322.654 128.008C323.089 128.008 323.423 127.939 323.657 127.802C323.891 127.662 324.008 127.45 324.008 127.166C324.008 126.952 323.914 126.77 323.727 126.62C323.543 126.466 323.182 126.285 322.644 126.078C322.133 125.888 321.769 125.722 321.552 125.582C321.338 125.438 321.177 125.276 321.07 125.096C320.967 124.915 320.915 124.7 320.915 124.449C320.915 124.001 321.097 123.649 321.461 123.391C321.826 123.131 322.325 123.001 322.96 123.001C323.552 123.001 324.13 123.121 324.695 123.361L324.399 124.038C323.847 123.811 323.348 123.697 322.9 123.697C322.506 123.697 322.208 123.759 322.008 123.883C321.807 124.006 321.707 124.177 321.707 124.394C321.707 124.541 321.744 124.666 321.817 124.77C321.894 124.874 322.016 124.972 322.183 125.066C322.35 125.159 322.671 125.295 323.146 125.472C323.797 125.709 324.237 125.948 324.464 126.188C324.695 126.429 324.81 126.731 324.81 127.096ZM327 128.594H326.168V123.101H327V128.594ZM326.098 121.612C326.098 121.422 326.145 121.283 326.238 121.196C326.332 121.106 326.449 121.061 326.589 121.061C326.723 121.061 326.838 121.106 326.935 121.196C327.032 121.286 327.08 121.425 327.08 121.612C327.08 121.799 327.032 121.94 326.935 122.033C326.838 122.123 326.723 122.168 326.589 122.168C326.449 122.168 326.332 122.123 326.238 122.033C326.145 121.94 326.098 121.799 326.098 121.612ZM330.539 128.008C330.686 128.008 330.828 127.998 330.965 127.978C331.102 127.955 331.211 127.931 331.291 127.908V128.544C331.201 128.588 331.067 128.623 330.89 128.65C330.716 128.68 330.559 128.695 330.419 128.695C329.356 128.695 328.825 128.135 328.825 127.016V123.747H328.038V123.346L328.825 123.001L329.176 121.828H329.657V123.101H331.251V123.747H329.657V126.98C329.657 127.311 329.735 127.565 329.892 127.742C330.05 127.919 330.265 128.008 330.539 128.008Z" fill="#00031A"/>
<path d="M275.712 144.488C275.712 145.108 275.488 145.607 275.04 145.985C274.591 146.36 273.964 146.584 273.157 146.658V147.857H272.356V146.681C271.404 146.662 270.57 146.494 269.853 146.178V144.635C270.192 144.802 270.599 144.95 271.075 145.079C271.554 145.208 271.981 145.284 272.356 145.307V143.494L271.964 143.342C271.192 143.038 270.644 142.709 270.321 142.354C270.001 141.995 269.841 141.553 269.841 141.026C269.841 140.461 270.061 139.997 270.502 139.635C270.946 139.268 271.564 139.046 272.356 138.968V138.073H273.157V138.945C274.05 138.984 274.857 139.163 275.578 139.483L275.028 140.851C274.42 140.601 273.796 140.449 273.157 140.395V142.12C273.917 142.412 274.457 142.666 274.777 142.88C275.1 143.095 275.336 143.33 275.484 143.588C275.636 143.845 275.712 144.145 275.712 144.488ZM273.952 144.576C273.952 144.412 273.886 144.274 273.753 144.161C273.621 144.048 273.422 143.931 273.157 143.81V145.266C273.687 145.176 273.952 144.946 273.952 144.576ZM271.601 141.026C271.601 141.198 271.66 141.34 271.777 141.453C271.898 141.562 272.091 141.676 272.356 141.792V140.418C271.853 140.492 271.601 140.695 271.601 141.026ZM279.759 141.699C280.586 141.699 281.243 141.931 281.73 142.395C282.221 142.859 282.467 143.494 282.467 144.301C282.467 145.256 282.172 145.991 281.584 146.506C280.995 147.021 280.153 147.278 279.057 147.278C278.106 147.278 277.338 147.124 276.753 146.816V145.254C277.061 145.418 277.42 145.553 277.829 145.658C278.239 145.759 278.627 145.81 278.993 145.81C280.096 145.81 280.648 145.358 280.648 144.453C280.648 143.592 280.077 143.161 278.935 143.161C278.728 143.161 278.5 143.182 278.25 143.225C278.001 143.264 277.798 143.307 277.642 143.354L276.923 142.968L277.244 138.611H281.882V140.143H278.829L278.671 141.822L278.876 141.781C279.114 141.726 279.408 141.699 279.759 141.699ZM289.42 142.886C289.42 144.379 289.174 145.484 288.683 146.202C288.196 146.919 287.443 147.278 286.426 147.278C285.439 147.278 284.695 146.907 284.192 146.167C283.693 145.426 283.443 144.332 283.443 142.886C283.443 141.377 283.687 140.266 284.174 139.553C284.662 138.835 285.412 138.477 286.426 138.477C287.412 138.477 288.157 138.851 288.66 139.6C289.166 140.348 289.42 141.444 289.42 142.886ZM285.239 142.886C285.239 143.935 285.328 144.687 285.508 145.143C285.691 145.596 285.997 145.822 286.426 145.822C286.847 145.822 287.151 145.592 287.338 145.132C287.525 144.672 287.619 143.923 287.619 142.886C287.619 141.837 287.523 141.085 287.332 140.629C287.145 140.169 286.843 139.939 286.426 139.939C286.001 139.939 285.697 140.169 285.513 140.629C285.33 141.085 285.239 141.837 285.239 142.886ZM296.262 142.886C296.262 144.379 296.016 145.484 295.525 146.202C295.038 146.919 294.285 147.278 293.268 147.278C292.281 147.278 291.537 146.907 291.034 146.167C290.535 145.426 290.285 144.332 290.285 142.886C290.285 141.377 290.529 140.266 291.016 139.553C291.504 138.835 292.254 138.477 293.268 138.477C294.254 138.477 294.999 138.851 295.502 139.6C296.009 140.348 296.262 141.444 296.262 142.886ZM292.081 142.886C292.081 143.935 292.17 144.687 292.35 145.143C292.533 145.596 292.839 145.822 293.268 145.822C293.689 145.822 293.993 145.592 294.18 145.132C294.367 144.672 294.461 143.923 294.461 142.886C294.461 141.837 294.365 141.085 294.174 140.629C293.987 140.169 293.685 139.939 293.268 139.939C292.843 139.939 292.539 140.169 292.356 140.629C292.172 141.085 292.081 141.837 292.081 142.886Z" fill="#00031A"/>
<line x1="280.843" y1="158.716" x2="280.843" y2="254.661" stroke="#99A3FF"/>
</svg>
